<svg width="90mm" height="90mm" version="1.1" viewBox="0 0 90 90" xmlns="http://www.w3.org/2000/svg">
 <g stroke-width=".26458" aria-label="ContentBox">
  <path d="m21.961 27.071v1.7611q-0.84334-0.78547-1.8024-1.1741-0.95083-0.3886-2.0257-0.3886-2.1166 0-3.2411 1.2981-1.1245 1.2898-1.1245 3.7372 0 2.4391 1.1245 3.7372 1.1245 1.2898 3.2411 1.2898 1.0748 0 2.0257-0.3886 0.9591-0.3886 1.8024-1.1741v1.7446q-0.87642 0.5953-1.8603 0.89295-0.97563 0.29765-2.067 0.29765-2.8029 0-4.4151-1.7115-1.6123-1.7198-1.6123-4.688 0-2.9765 1.6123-4.688 1.6123-1.7198 4.4151-1.7198 1.1079 0 2.0836 0.29765 0.9839 0.28938 1.8438 0.87642z"/>
  <path d="m28.063 30.27q-1.2237 0-1.9347 0.9591-0.71105 0.95083-0.71105 2.6127 0 1.6619 0.70278 2.621 0.71105 0.95083 1.943 0.95083 1.2154 0 1.9265-0.9591 0.71105-0.9591 0.71105-2.6127 0-1.6453-0.71105-2.6044-0.71105-0.96736-1.9265-0.96736zm0-1.2898q1.9843 0 3.1171 1.2898 1.1327 1.2898 1.1327 3.5718 0 2.2737-1.1327 3.5718-1.1327 1.2898-3.1171 1.2898-1.9926 0-3.1253-1.2898-1.1245-1.2981-1.1245-3.5718 0-2.282 1.1245-3.5718 1.1327-1.2898 3.1253-1.2898z"/>
  <path d="m42.532 32.875v5.5892h-1.5213v-5.5396q0-1.3146-0.51262-1.9678-0.51262-0.65318-1.5379-0.65318-1.2319 0-1.943 0.78547-0.71105 0.78547-0.71105 2.1414v5.2337h-1.5296v-9.2602h1.5296v1.4386q0.54569-0.83508 1.2816-1.2485 0.74413-0.4134 1.7115-0.4134 1.5957 0 2.4143 0.99217 0.81854 0.9839 0.81854 2.9021z"/>
  <path d="m47.071 26.574v2.6292h3.1336v1.1823h-3.1336v5.027q0 1.1327 0.30592 1.4552 0.31419 0.32246 1.265 0.32246h1.5627v1.2733h-1.5627q-1.7611 0-2.4308-0.65318-0.66971-0.66145-0.66971-2.3977v-5.027h-1.1162v-1.1823h1.1162v-2.6292z"/>
  <path d="m60.126 33.454v0.74413h-6.9948q0.09922 1.5709 0.94256 2.3977 0.85161 0.81854 2.3647 0.81854 0.87642 0 1.695-0.21497 0.82681-0.21497 1.6371-0.64491v1.4386q-0.81854 0.34726-1.6784 0.52916-0.85988 0.1819-1.7446 0.1819-2.2158 0-3.5139-1.2898-1.2898-1.2898-1.2898-3.4891 0-2.2737 1.2237-3.6049 1.2319-1.3394 3.3155-1.3394 1.8686 0 2.9517 1.2071 1.0914 1.1989 1.0914 3.2659zm-1.5213-0.44648q-0.01654-1.2485-0.70279-1.9926-0.67798-0.74413-1.8024-0.74413-1.2733 0-2.0422 0.71932-0.76066 0.71932-0.87642 2.0257z"/>
  <path d="m70.321 32.875v5.5892h-1.5213v-5.5396q0-1.3146-0.51262-1.9678-0.51262-0.65318-1.5379-0.65318-1.2319 0-1.943 0.78547-0.71105 0.78547-0.71105 2.1414v5.2337h-1.5296v-9.2602h1.5296v1.4386q0.54569-0.83508 1.2816-1.2485 0.74413-0.4134 1.7115-0.4134 1.5957 0 2.4143 0.99217 0.81854 0.9839 0.81854 2.9021z"/>
  <path d="m74.86 26.574v2.6292h3.1336v1.1823h-3.1336v5.027q0 1.1327 0.30592 1.4552 0.31419 0.32246 1.265 0.32246h1.5627v1.2733h-1.5627q-1.7611 0-2.4308-0.65318-0.66971-0.66145-0.66971-2.3977v-5.027h-1.1162v-1.1823h1.1162v-2.6292z"/>
  <path d="m32.321 57.969v4.5226h2.6789q1.3477 0 1.9926-0.55396 0.65318-0.56223 0.65318-1.7115 0-1.1575-0.65318-1.7032-0.64491-0.55396-1.9926-0.55396zm0-5.0766v3.7206h2.4722q1.2237 0 1.819-0.45474 0.60357-0.46301 0.60357-1.4056 0-0.93429-0.60357-1.3973-0.5953-0.46301-1.819-0.46301zm-1.6702-1.3725h4.2663q1.9099 0 2.9434 0.79374 1.0335 0.79373 1.0335 2.2572 0 1.1327-0.52916 1.8024-0.52916 0.66971-1.5544 0.83507 1.2319 0.26458 1.9099 1.1079 0.68625 0.83508 0.68625 2.0918 0 1.6536-1.1245 2.5548-1.1245 0.90122-3.1997 0.90122h-4.4317z"/>
  <path d="m45.79 55.67q-1.2237 0-1.9347 0.9591-0.71105 0.95083-0.71105 2.6127 0 1.6619 0.70279 2.621 0.71105 0.95083 1.943 0.95083 1.2154 0 1.9265-0.9591 0.71105-0.9591 0.71105-2.6127 0-1.6453-0.71105-2.6044-0.71105-0.96736-1.9265-0.96736zm0-1.2898q1.9843 0 3.1171 1.2898 1.1327 1.2898 1.1327 3.5718 0 2.2737-1.1327 3.5718-1.1327 1.2898-3.1171 1.2898-1.9926 0-3.1253-1.2898-1.1245-1.2981-1.1245-3.5718 0-2.282 1.1245-3.5718 1.1327-1.2898 3.1253-1.2898z"/>
  <path d="m59.738 54.604-3.3486 4.5061 3.5222 4.7541h-1.7942l-2.6954-3.6379-2.6954 3.6379h-1.7942l3.5966-4.8451-3.2907-4.4151h1.7942l2.4556 3.299 2.4556-3.299z"/>
 </g>
</svg>
