<svg width="36" height="36" version="1.1" viewBox="0 0 36 36" xmlns="http://www.w3.org/2000/svg">
 <g aria-label="s">
  <path d="m24.427 26.5q0 2.625-2.625 4.0208-2.125 1.125-5 1.125-3.75 0-6.125-1.8958 0.0625 1.2917-0.79167 1.2917-0.79167 0-0.79167-1.0625v-3.25q0-1.0625 0.79167-1.0625 0.58333 0 0.83333 0.91667 0.35417 1.3125 0.39583 1.3958 1.375 2.1042 5.625 2.1042 2.1667 0 3.875-0.75 2.2292-0.95833 2.2292-2.8333 0-2.2708-3.3542-3.0417-3.125-0.5625-6.2292-1.125-3.3542-0.95833-3.3542-3.7292 0-2.25 2.375-3.4583 1.8958-0.95833 4.375-0.95833 3.2708 0 5.3125 1.6042-0.0625-1.0417 0.79167-1.0417 0.8125 0 0.8125 1.0625v2.7083q0 1.0625-0.8125 1.0625-0.52083 0-0.8125-0.95833-0.35417-1.2083-1.1458-1.7917-1.4167-1.0417-4.0833-1.0417-1.7708 0-3.25 0.58333-1.9583 0.79167-1.9583 2.2917 0 1.6667 2.4375 2.2708l5.125 0.83333q3.2083 0.625 4.4583 2.2083 0.89583 1.1458 0.89583 2.5208z"/>
 </g>
</svg>
