<svg width="1367" height="1618" viewBox="0 0 1367 1618" fill="none" xmlns="http://www.w3.org/2000/svg">
<g opacity="0.4">
<path d="M-652.611 1510.18L-652.491 1509.54L-559.715 1311.39L-457.171 1409.1L-457.485 1410.02L-456.861 1409.21L-318.712 1389.08L-202.551 1478.6L-202.463 1478.83L-202.289 1478.77L-47.1539 1398.61L50.8652 1449.12L145.961 1397.63L191.834 1521.67L191.947 1521.1L296.059 1362.24L477.148 1410.1L466.727 1594.43L669 1687.6L669.564 1688.38L669.243 1687.54L899.932 1483.65L849.331 2004.22L849.453 2004.53L1033.51 1635.66L1089.54 2137.44L1089.39 2137.73L1265.46 1642.97L1247.37 1413.27L1247.37 1413.11L1247.56 1413.27L1825.54 2031.92L1825.71 2031.86L1825.63 2031.65L1469.97 1296.11L1613.48 1221.78L1613.8 1221.66L1479.6 1146.83L1436.94 1005.98L1450.54 921.507L1562.01 874.19L1598.04 603.046L1598.14 602.275L1470.46 795.705L1329.78 777.614L1138.16 966.443L1084.01 872.309L1083.71 871.707L1005.77 1028.82L896.854 1046.1L778.992 1295.83L475.712 1175.05L475.613 1174.79L475.381 1174.88L475.112 1174.78L257.207 1219.34L230.12 1343.92L115.635 1313.71L-46.8219 1397.66L-120.84 1359.48L-260.347 1379.79L-335.854 1252.94L-335.921 1252.77L-317.811 1111.88L-317.608 1111.8L-317.685 1111.6L-343.856 1054.33L-302.208 984.265L-14.0974 945.701L103.207 842.651L281.314 801.027L281.952 800.784L106.75 749.666L36.9443 862.656L-110.31 907.586L-213.48 866.38L-247.072 910.817L-422.766 883.303L-423.093 883.228L-380.669 976.043L-549.617 957.679L-550.364 957.2L-549.925 957.83L-777.143 1122.55L-777.962 1122.23L-777.258 1122.86L-712.313 1324.39L-776.495 1391.19L-777.022 1391.72L-699.743 1363.16L-652.534 1509.68L-652.611 1510.18ZM51.2929 1448.33L115.635 1314.59L145.86 1397.1L51.2929 1448.33ZM146.29 1397.27L228.178 1352.94L191.811 1520.22L146.29 1397.27ZM192.173 1519.95L228.561 1352.72L239.072 1347.02L295.712 1361.94L192.173 1519.95ZM228.65 1352.26L230.281 1344.69L238.555 1346.88L228.65 1352.26ZM1330.03 778.114L1470.18 796.11L1361.3 878.773L1330.03 778.114ZM1469.54 797.051L1378.81 908.293L1361.44 879.121L1469.54 797.051ZM518.417 1320.73L531.776 1365.75L478.001 1409.52L477.006 1313.78L518.417 1320.73ZM476.956 1313.3L475.528 1176.48L518.302 1320.34L476.956 1313.3ZM1237.83 1140.08L1178.04 1291.76L1089.96 1148.84L1237.83 1140.08ZM1238.2 1140.17L1349.75 1223.61L1178.73 1293.05L1178.19 1292.16L1238.2 1140.17ZM1148.71 1373.39L1178.6 1294.1L1246.74 1412.54L1148.71 1373.39ZM1093.82 1351.39L1178.49 1293.64L1148.48 1373.21L1093.82 1351.39ZM1148.34 1373.56L1090.51 1526.62L979.572 1429.3L1093.34 1351.71L1148.34 1373.56ZM1093.38 1351.36L1011.77 1318.8L1178.17 1293.57L1093.38 1351.36ZM1092.97 1351.52L979.346 1429.05L952.63 1405.6L1011.12 1318.85L1092.97 1351.52ZM979.049 1429.23L900.628 1482.73L952.497 1405.95L979.049 1429.23ZM899.932 1483L868.203 1332.13L952.045 1405.72L899.932 1483ZM899.584 1483.13L782.514 1427.87L867.846 1332.07L899.584 1483.13ZM979.189 1429.51L1089.87 1526.6L900.26 1483.34L979.189 1429.51ZM1148.48 1373.74L1246.69 1412.92L1090.9 1526.44L1148.48 1373.74ZM1178.69 1293.73L1178.64 1293.59L1296.18 1322.23L1247.27 1412.53L1178.69 1293.73ZM1179.25 1293.28L1349.74 1224.04L1296.5 1321.85L1179.25 1293.28ZM1350.06 1224.19L1380.05 1342.27L1296.89 1322L1350.06 1224.19ZM1350.52 1224.51L1423.85 1319.72L1380.42 1342.2L1350.52 1224.51ZM1238.56 1140L1338.84 1113.75L1350.04 1223.26L1238.56 1140ZM1239.13 1139.48L1334.91 1074.97L1338.79 1113.34L1239.13 1139.48ZM1238.66 1139.39L1324.73 975.362L1334.82 1074.47L1238.66 1139.39ZM1177.88 1292.12L1177.76 1292.43L1178.01 1293.06L1011.49 1318.58L1089.68 1149.24L1177.88 1292.12ZM952.363 1405.34L868.44 1331.71L1010.76 1318.85L952.363 1405.34ZM782.287 1427.62L741.58 1408.42L755.315 1346.58L867.758 1331.84L782.287 1427.62ZM782.034 1427.92L722.485 1494.85L741.488 1408.78L782.034 1427.92ZM741.306 1408.22L704.008 1390.64L754.822 1346.77L741.306 1408.22ZM741.215 1408.59L722.052 1495.28L620.483 1500.66L612.376 1469.57L703.734 1390.87L741.215 1408.59ZM531.886 1366.04L572.515 1502.72L478.061 1409.76L531.886 1366.04ZM532.234 1365.91L575.591 1330.7L572.771 1502.26L532.234 1365.91ZM620.211 1500.73L573.487 1503.18L612.163 1469.89L620.211 1500.73ZM612.352 1469.25L576.07 1330.65L703.435 1390.79L612.352 1469.25ZM612.004 1469.38L573.112 1502.89L575.929 1331.5L612.004 1469.38ZM532.133 1365.38L518.844 1320.64L575.356 1330.26L532.133 1365.38ZM477.692 1409.41L343.352 1290.95L476.715 1313.63L477.692 1409.41ZM572.803 1503.47L572.902 1503.73L573.192 1503.62L620.159 1501.11L668.626 1686.44L477.837 1410.01L572.803 1503.47ZM620.535 1500.97L721.875 1495.51L669.029 1686.46L620.535 1500.97ZM722.307 1495.51L782.402 1428.01L899.643 1483.38L669.434 1686.73L722.307 1495.51ZM1090.38 1526.97L1033.33 1635.09L900.48 1483.65L1090.38 1526.97ZM1246.67 1413.39L1162.52 1574.34L1090.96 1526.85L1246.67 1413.39ZM1296.61 1322.32L1379.95 1342.45L1247.69 1412.51L1296.61 1322.32ZM1424.16 1319.83L1825.17 2031.3L1381.03 1342.16L1424.16 1319.83ZM1424.5 1319.7L1442.97 1310.13L1825.17 2031.04L1424.5 1319.7ZM1424.37 1319.35L1350.68 1223.62L1419.66 1210.05L1443.01 1309.71L1424.37 1319.35ZM1350.52 1223.28L1339.15 1113.67L1393.54 1099.56L1419.4 1209.98L1350.52 1223.28ZM1394.12 1099.6L1493.68 1195.13L1419.78 1209.67L1394.12 1099.6ZM1394.96 1099.88L1479.38 1147.04L1493.8 1194.68L1394.96 1099.88ZM1393.55 1098.96L1339.15 1113.07L1335.2 1074.52L1367.8 1052.55L1393.55 1098.96ZM1335.3 1074.19L1325.23 975.468L1367.71 1052.31L1335.3 1074.19ZM1325.5 973.639L1361.27 879.55L1378.61 908.636L1325.5 973.639ZM1378.86 908.772L1399.16 942.908L1325.56 974.147L1378.86 908.772ZM1324.82 974.464L1197.95 996.571L1360.92 879.418L1324.82 974.464ZM1324.63 974.835L1238.27 1139.41L1168.05 1018.04L1197.26 996.934L1324.63 974.835ZM1237.63 1139.02L1126.93 1047.62L1167.76 1018.25L1237.63 1139.02ZM1167.87 1017.75L1159.68 1003.6L1196.48 997.164L1167.87 1017.75ZM1167.55 1017.87L1126.63 1047.27L1088.61 1015.87L1159.28 1003.59L1167.55 1017.87ZM1088.73 1015.5L1138.03 966.793L1159.04 1003.15L1088.73 1015.5ZM1088.39 1016.16L1126.32 1047.52L1089.08 1074.28L1088.39 1016.16ZM1088.7 1074.52L925.423 1192.17L1088.03 1016.46L1088.7 1074.52ZM1126.61 1047.74L1237.77 1139.57L1089.96 1148.31L1089.07 1074.72L1126.61 1047.74ZM1011.05 1318.31L868.713 1331.21L1089.25 1149.41L1011.05 1318.31ZM755.548 1346.06L779.067 1296.2L867.454 1331.39L755.548 1346.06ZM703.752 1390.4L576.788 1330.44L754.817 1346.4L703.752 1390.4ZM575.43 1329.93L518.78 1320.29L475.97 1176.25L575.43 1329.93ZM476.694 1313.14L343.142 1290.4L475.308 1175.47L476.694 1313.14ZM239.614 1346.61L342.186 1291.03L296.007 1361.49L239.614 1346.61ZM342.766 1290.81L477.148 1409.55L296.22 1361.88L342.766 1290.81ZM477.567 1410.15L668.661 1686.8L467.189 1593.99L477.567 1410.15ZM849.597 2003.52L900.26 1483.77L1033.23 1635.36L849.597 2003.52ZM1033.45 1635.51L1090.62 1527.35L1162.26 1574.87L1089.48 2137.36L1033.45 1635.51ZM1162.55 1575.02L1264.8 1642.82L1090.05 2137.21L1162.55 1575.02ZM1264.93 1642.54L1162.66 1574.71L1247.07 1413.39L1264.93 1642.54ZM1380.36 1342.75L1824.67 2031.92L1247.69 1412.92L1380.36 1342.75ZM1825.34 2030.97L1443.14 1309.96L1469.44 1296.37L1825.34 2030.97ZM1469.55 1295.97L1443.1 1309.68L1419.75 1210.12L1493.87 1195.45L1469.55 1295.97ZM1494.09 1195.5L1612.94 1221.92L1470.12 1295.88L1494.09 1195.5ZM1612.16 1221.29L1494.08 1195.14L1479.68 1147.49L1612.16 1221.29ZM1479.23 1146.74L1393.92 1099.15L1368.06 1052.44L1436.86 1006.37L1479.23 1146.74ZM1436.62 1006.1L1367.95 1052.22L1325.26 974.656L1399.2 943.358L1436.62 1006.1ZM1436.74 1005.62L1399.7 943.366L1450.3 921.901L1436.74 1005.62ZM1450.3 921.4L1399.46 942.993L1379.04 908.706L1470.38 796.73L1450.3 921.4ZM1561.78 874.111L1450.85 921.19L1470.95 796.382L1561.78 874.111ZM1561.97 873.809L1471.07 796.003L1471.91 794.985L1471.5 795.14L1597.76 603.785L1561.97 873.809ZM1329.89 778.267L1361 878.949L1197.24 996.876L1159.59 1003.44L1138.47 966.892L1329.89 778.267ZM1138.01 966.833L1088.48 1015.62L1083.97 873.238L1138.01 966.833ZM1083.52 873.277L1088.12 1015.9L1006.29 1028.89L1083.52 873.277ZM1087.84 1016.3L925.101 1192.09L1005.94 1029.35L1087.84 1016.3ZM1005.69 1029.31L924.343 1192.91L924.016 1193.53L1088.66 1075.2L1089.55 1148.63L868.292 1331.24L896.979 1046.52L1005.69 1029.31ZM896.723 1047.41L868.104 1331.44L779.346 1296.06L896.723 1047.41ZM755.233 1346.28L576.101 1330.21L576.034 1330.03L575.889 1330.09L475.923 1175.6L778.762 1296.18L755.233 1346.28ZM257.599 1220.02L474.92 1175.59L342.598 1290.35L239.244 1346.69L230.602 1344.4L257.599 1220.02ZM228.444 1352.5L146.448 1397.07L116.082 1314.48L229.898 1344.47L228.444 1352.5ZM115.191 1314.52L50.8154 1448.2L-46.8189 1398.19L115.191 1314.52ZM-776.265 1123.11L-587.278 1194.08L-635.918 1244.69L-776.265 1123.11ZM-401.249 1056.93L-453.709 1095.61L-549.017 958.38L-401.249 1056.93ZM-400.935 1057.14L-361.677 1083.35L-408.023 1161.38L-453.5 1095.9L-400.935 1057.14ZM-603.176 1273.04L-586.95 1194.85L-559.909 1310.54L-603.176 1273.04ZM-336.799 1252.9L-414.873 1234.47L-407.925 1162.07L-336.799 1252.9ZM-337.08 1253.21L-418.674 1274.38L-414.856 1234.86L-337.08 1253.21ZM-419.051 1274.52L-559.443 1310.89L-586.677 1194.34L-415.143 1234.8L-419.051 1274.52ZM-559.223 1311.2L-419.372 1274.81L-422.652 1308.78L-457.083 1408.63L-559.223 1311.2ZM-422.123 1309.21L-395.583 1329.67L-456.221 1408.11L-422.123 1309.21ZM-421.899 1308.92L-337.076 1254L-395.36 1329.38L-421.899 1308.92ZM-422.032 1308.57L-418.791 1274.86L-337.371 1253.75L-422.032 1308.57ZM-407.766 1161.88L-318.604 1112.41L-336.629 1252.74L-407.766 1161.88ZM-407.573 1161.34L-361.389 1083.67L-318.725 1112.09L-407.573 1161.34ZM-408.355 1161.64L-415.382 1234.26L-586.692 1193.79L-453.969 1095.98L-408.355 1161.64ZM-587.437 1194.7L-603.646 1272.86L-635.796 1245L-587.437 1194.7ZM-603.728 1273.25L-615.851 1331.65L-699.763 1362.67L-712.107 1324.41L-636.031 1245.26L-603.728 1273.25ZM-603.421 1273.54L-560.113 1311.05L-615.417 1331.49L-603.421 1273.54ZM-560.126 1311.45L-652.129 1508.14L-615.644 1331.67L-560.126 1311.45ZM-456.545 1408.83L-395.495 1329.9L-319.087 1388.79L-456.545 1408.83ZM-203.028 1477.79L-318.248 1388.9L-260.924 1380.55L-203.028 1477.79ZM-47.5408 1398.3L-201.84 1478.03L-121.105 1360.17L-47.5408 1398.3ZM-121.627 1360.37L-202.341 1478.02L-260.372 1380.6L-121.627 1360.37ZM-261.06 1380.37L-318.579 1388.73L-395.26 1329.65L-336.482 1253.64L-261.06 1380.37ZM-318.902 1111.63L-361.445 1083.26L-344.716 1055.12L-318.902 1111.63ZM-344.9 1054.73L-361.73 1083.03L-400.914 1056.94L-358.27 1025.52L-344.9 1054.73ZM-357.955 1025.3L-303.524 985.166L-344.651 1054.33L-357.955 1025.3ZM-303.713 984.673L-358.144 1024.81L-380.4 976.14L-303.681 984.495L-304.232 984.705L-303.713 984.673ZM280.542 800.657L103.291 842.088L106.871 749.985L280.542 800.657ZM106.639 750.506L103.075 842.303L37.3346 862.374L106.639 750.506ZM102.478 842.83L-13.844 944.973L37.0685 862.807L102.478 842.83ZM36.5249 862.948L-14.7595 945.621L-109.906 907.598L36.5249 862.948ZM-15.3391 945.843L-301.641 984.182L-163.678 924.131L-110.569 907.951L-15.3391 945.843ZM-163.694 923.739L-213.038 866.843L-110.967 907.604L-163.694 923.739ZM-213.641 866.741L-164.24 923.615L-246.931 910.663L-213.641 866.741ZM-164.379 924.033L-302.343 984.085L-247.168 911.086L-164.379 924.033ZM-302.905 984.265L-422.375 883.718L-247.491 911.11L-302.905 984.265ZM-422.407 883.896L-303.348 984.235L-380.633 975.963L-422.407 883.896ZM-358.228 1025.1L-401.054 1056.66L-549.096 957.912L-380.697 976.32L-358.228 1025.1ZM-454.143 1095.78L-586.867 1193.59L-549.746 958.127L-454.143 1095.78ZM-587.244 1193.73L-776.889 1122.52L-550.233 957.98L-587.244 1193.73ZM-776.922 1123.13L-636.359 1244.92L-712.266 1323.9L-776.922 1123.13ZM-775.956 1390.69L-712.549 1324.64L-700.271 1362.74L-775.956 1390.69ZM-699.686 1362.88L-615.977 1331.93L-652.685 1508.68L-699.686 1362.88Z" fill="white"/>
<path d="M1245.97 1406.44C1247.14 1405.09 1248.68 1404.11 1250.4 1403.63C1252.12 1403.15 1253.94 1403.19 1255.64 1403.74C1257.34 1404.3 1258.83 1405.35 1259.94 1406.75C1261.04 1408.16 1261.7 1409.86 1261.84 1411.64C1261.97 1413.42 1261.58 1415.2 1260.7 1416.76C1259.82 1418.32 1258.5 1419.58 1256.91 1420.39C1255.32 1421.19 1253.52 1421.51 1251.75 1421.3C1249.97 1421.08 1248.3 1420.35 1246.95 1419.19C1246.04 1418.41 1245.31 1417.47 1244.77 1416.41C1244.23 1415.35 1243.91 1414.2 1243.82 1413.01C1243.73 1411.83 1243.87 1410.64 1244.24 1409.51C1244.61 1408.39 1245.2 1407.34 1245.97 1406.44Z" fill="white"/>
<path d="M1364.02 876.426C1364.56 875.789 1365.28 875.326 1366.08 875.097C1366.88 874.868 1367.74 874.883 1368.53 875.139C1369.33 875.396 1370.03 875.883 1370.55 876.539C1371.07 877.194 1371.38 877.989 1371.44 878.822C1371.51 879.655 1371.33 880.489 1370.92 881.218C1370.51 881.947 1369.89 882.539 1369.15 882.917C1368.4 883.296 1367.56 883.445 1366.73 883.345C1365.9 883.246 1365.12 882.902 1364.49 882.358C1364.06 882.001 1363.72 881.563 1363.47 881.071C1363.21 880.579 1363.06 880.041 1363.02 879.49C1362.97 878.938 1363.04 878.384 1363.21 877.858C1363.38 877.332 1363.66 876.845 1364.02 876.426Z" fill="white"/>
<path d="M1085.39 869.093C1086.09 868.283 1087.01 867.698 1088.04 867.411C1089.06 867.123 1090.15 867.148 1091.17 867.48C1092.18 867.813 1093.08 868.439 1093.74 869.279C1094.4 870.119 1094.79 871.135 1094.87 872.2C1094.95 873.265 1094.72 874.329 1094.19 875.26C1093.67 876.19 1092.88 876.944 1091.93 877.427C1090.98 877.91 1089.9 878.099 1088.84 877.971C1087.78 877.843 1086.78 877.404 1085.97 876.709C1084.89 875.772 1084.23 874.447 1084.12 873.021C1084.01 871.595 1084.47 870.184 1085.39 869.093Z" fill="white"/>
<path d="M928.132 1189.97C928.841 1189.28 929.786 1188.87 930.78 1188.83C931.774 1188.8 932.746 1189.14 933.502 1189.78C934.258 1190.43 934.743 1191.34 934.863 1192.33C934.983 1193.31 934.727 1194.31 934.147 1195.12C933.827 1195.56 933.417 1195.94 932.944 1196.22C932.47 1196.5 931.944 1196.68 931.398 1196.75C930.852 1196.81 930.297 1196.76 929.771 1196.6C929.244 1196.45 928.756 1196.18 928.338 1195.82C927.92 1195.46 927.581 1195.02 927.342 1194.53C927.103 1194.03 926.97 1193.49 926.95 1192.94C926.931 1192.39 927.027 1191.84 927.23 1191.33C927.434 1190.82 927.741 1190.36 928.132 1189.97Z" fill="white"/>
<path d="M577.634 1326.92C578.33 1326.11 579.25 1325.53 580.278 1325.24C581.306 1324.95 582.397 1324.98 583.412 1325.31C584.426 1325.64 585.319 1326.27 585.978 1327.11C586.637 1327.95 587.032 1328.96 587.113 1330.03C587.195 1331.09 586.958 1332.16 586.435 1333.09C585.911 1334.02 585.123 1334.77 584.171 1335.26C583.218 1335.74 582.144 1335.93 581.084 1335.8C580.024 1335.67 579.026 1335.23 578.215 1334.54C577.677 1334.08 577.235 1333.51 576.914 1332.88C576.593 1332.25 576.401 1331.56 576.347 1330.85C576.293 1330.14 576.378 1329.43 576.599 1328.76C576.82 1328.08 577.172 1327.46 577.634 1326.92Z" fill="white"/>
<path d="M477.23 1171.84C477.926 1171.03 478.846 1170.45 479.873 1170.17C480.9 1169.88 481.989 1169.91 483.002 1170.24C484.014 1170.57 484.906 1171.2 485.564 1172.04C486.221 1172.87 486.616 1173.89 486.699 1174.95C486.781 1176.01 486.547 1177.08 486.026 1178.01C485.505 1178.94 484.721 1179.69 483.772 1180.18C482.823 1180.66 481.751 1180.85 480.692 1180.73C479.634 1180.61 478.635 1180.17 477.822 1179.48C476.732 1178.55 476.057 1177.22 475.946 1175.78C475.835 1174.35 476.296 1172.93 477.23 1171.84Z" fill="white"/>
<path d="M259.165 1216.42C259.86 1215.61 260.781 1215.02 261.809 1214.73C262.837 1214.45 263.928 1214.47 264.943 1214.8C265.957 1215.14 266.85 1215.76 267.509 1216.6C268.168 1217.44 268.563 1218.46 268.645 1219.52C268.726 1220.59 268.49 1221.65 267.966 1222.58C267.442 1223.51 266.654 1224.27 265.702 1224.75C264.749 1225.23 263.675 1225.42 262.615 1225.3C261.555 1225.17 260.557 1224.73 259.746 1224.03C259.208 1223.57 258.765 1223.01 258.445 1222.38C258.124 1221.74 257.931 1221.05 257.877 1220.35C257.823 1219.64 257.909 1218.93 258.13 1218.25C258.351 1217.58 258.703 1216.96 259.165 1216.42Z" fill="white"/>
<path d="M193.694 1517.41C194.386 1516.6 195.304 1516.01 196.331 1515.72C197.359 1515.43 198.449 1515.45 199.466 1515.77C200.483 1516.1 201.38 1516.72 202.042 1517.56C202.705 1518.4 203.104 1519.41 203.19 1520.48C203.275 1521.54 203.043 1522.61 202.522 1523.54C202.002 1524.48 201.216 1525.23 200.264 1525.72C199.313 1526.21 198.239 1526.4 197.178 1526.27C196.117 1526.15 195.117 1525.71 194.304 1525.02C193.223 1524.09 192.553 1522.77 192.438 1521.34C192.324 1519.92 192.775 1518.51 193.694 1517.41Z" fill="white"/>
<path d="M1326.76 971.308C1327.23 970.768 1327.79 970.324 1328.42 970.002C1329.05 969.679 1329.74 969.484 1330.45 969.428C1331.16 969.373 1331.87 969.457 1332.55 969.676C1333.22 969.896 1333.85 970.246 1334.39 970.707C1334.93 971.168 1335.37 971.731 1335.7 972.364C1336.02 972.997 1336.21 973.687 1336.27 974.395C1336.33 975.103 1336.24 975.815 1336.02 976.491C1335.8 977.166 1335.45 977.792 1334.99 978.332C1334.06 979.423 1332.73 980.099 1331.3 980.212C1329.87 980.325 1328.46 979.865 1327.37 978.934C1326.27 978.002 1325.6 976.676 1325.49 975.246C1325.37 973.816 1325.83 972.399 1326.76 971.308Z" fill="white"/>
<path d="M1331.68 774.446C1332.38 773.629 1333.3 773.037 1334.34 772.745C1335.37 772.454 1336.47 772.476 1337.49 772.808C1338.51 773.141 1339.41 773.769 1340.08 774.614C1340.74 775.458 1341.14 776.481 1341.22 777.552C1341.31 778.624 1341.07 779.696 1340.55 780.633C1340.02 781.569 1339.23 782.329 1338.27 782.815C1337.31 783.301 1336.23 783.492 1335.16 783.363C1334.09 783.234 1333.09 782.792 1332.27 782.092C1331.18 781.155 1330.51 779.825 1330.4 778.391C1330.29 776.958 1330.75 775.54 1331.68 774.446Z" fill="white"/>
<path d="M1090.04 1012.59C1090.73 1011.78 1091.65 1011.19 1092.68 1010.91C1093.71 1010.62 1094.8 1010.64 1095.81 1010.98C1096.83 1011.31 1097.72 1011.93 1098.38 1012.77C1099.04 1013.61 1099.43 1014.63 1099.52 1015.7C1099.6 1016.76 1099.36 1017.83 1098.84 1018.76C1098.31 1019.69 1097.53 1020.44 1096.57 1020.92C1095.62 1021.41 1094.55 1021.6 1093.49 1021.47C1092.43 1021.34 1091.43 1020.9 1090.62 1020.21C1090.08 1019.74 1089.64 1019.18 1089.32 1018.55C1089 1017.91 1088.8 1017.23 1088.75 1016.52C1088.69 1015.81 1088.78 1015.1 1089 1014.43C1089.22 1013.75 1089.57 1013.13 1090.04 1012.59Z" fill="white"/>
<path d="M1240.06 1136.47C1240.76 1135.65 1241.68 1135.06 1242.71 1134.76C1243.75 1134.46 1244.84 1134.48 1245.87 1134.81C1246.89 1135.14 1247.79 1135.76 1248.46 1136.6C1249.13 1137.45 1249.53 1138.47 1249.62 1139.54C1249.71 1140.61 1249.48 1141.68 1248.95 1142.62C1248.43 1143.56 1247.64 1144.33 1246.68 1144.81C1245.72 1145.3 1244.64 1145.5 1243.58 1145.37C1242.51 1145.25 1241.5 1144.81 1240.68 1144.11C1239.59 1143.18 1238.91 1141.85 1238.8 1140.42C1238.68 1138.99 1239.14 1137.57 1240.06 1136.47Z" fill="white"/>
<path d="M1352.16 1220.22C1352.85 1219.4 1353.77 1218.81 1354.8 1218.52C1355.82 1218.23 1356.91 1218.25 1357.93 1218.57C1358.95 1218.9 1359.84 1219.52 1360.51 1220.36C1361.17 1221.2 1361.57 1222.22 1361.65 1223.28C1361.74 1224.35 1361.51 1225.41 1360.99 1226.34C1360.47 1227.28 1359.68 1228.03 1358.73 1228.52C1357.78 1229.01 1356.7 1229.2 1355.64 1229.07C1354.58 1228.95 1353.58 1228.51 1352.77 1227.82C1351.69 1226.89 1351.02 1225.57 1350.9 1224.14C1350.79 1222.72 1351.24 1221.31 1352.16 1220.22Z" fill="white"/>
<path d="M1176.72 1286.41C1178.09 1284.81 1179.92 1283.66 1181.95 1283.1C1183.98 1282.53 1186.14 1282.58 1188.14 1283.24C1190.14 1283.9 1191.91 1285.14 1193.21 1286.81C1194.51 1288.47 1195.29 1290.48 1195.44 1292.58C1195.6 1294.68 1195.13 1296.79 1194.1 1298.63C1193.06 1300.46 1191.5 1301.95 1189.62 1302.91C1187.74 1303.86 1185.62 1304.23 1183.52 1303.98C1181.43 1303.73 1179.46 1302.86 1177.85 1301.49C1175.71 1299.64 1174.38 1297.01 1174.17 1294.18C1173.96 1291.36 1174.87 1288.56 1176.72 1286.41Z" fill="white"/>
<path d="M1092.6 1523.52C1093.3 1522.71 1094.22 1522.13 1095.25 1521.84C1096.28 1521.56 1097.36 1521.58 1098.38 1521.92C1099.39 1522.25 1100.28 1522.87 1100.94 1523.71C1101.6 1524.55 1101.99 1525.56 1102.07 1526.63C1102.16 1527.69 1101.92 1528.75 1101.4 1529.68C1100.88 1530.61 1100.1 1531.37 1099.15 1531.85C1098.2 1532.34 1097.13 1532.53 1096.07 1532.41C1095.01 1532.28 1094.01 1531.85 1093.2 1531.16C1092.11 1530.22 1091.43 1528.89 1091.32 1527.46C1091.21 1526.03 1091.67 1524.61 1092.6 1523.52Z" fill="white"/>
<path d="M1013.03 1315.24C1013.73 1314.43 1014.65 1313.84 1015.68 1313.55C1016.7 1313.27 1017.8 1313.29 1018.81 1313.62C1019.82 1313.96 1020.72 1314.58 1021.38 1315.42C1022.04 1316.26 1022.43 1317.28 1022.51 1318.34C1022.59 1319.41 1022.36 1320.47 1021.83 1321.4C1021.31 1322.33 1020.52 1323.09 1019.57 1323.57C1018.62 1324.05 1017.54 1324.24 1016.48 1324.12C1015.42 1323.99 1014.42 1323.55 1013.61 1322.85C1013.07 1322.39 1012.63 1321.83 1012.31 1321.2C1011.99 1320.56 1011.8 1319.87 1011.74 1319.17C1011.69 1318.46 1011.78 1317.75 1012 1317.07C1012.22 1316.4 1012.57 1315.78 1013.03 1315.24Z" fill="white"/>
<path d="M1091.49 1145.32C1092.43 1144.24 1093.76 1143.57 1095.18 1143.46C1096.61 1143.35 1098.02 1143.81 1099.11 1144.74C1099.92 1145.43 1100.51 1146.35 1100.79 1147.38C1101.08 1148.41 1101.06 1149.5 1100.72 1150.51C1100.39 1151.53 1099.77 1152.42 1098.93 1153.08C1098.09 1153.74 1097.07 1154.14 1096 1154.22C1094.94 1154.3 1093.88 1154.06 1092.94 1153.54C1092.01 1153.01 1091.26 1152.23 1090.78 1151.27C1090.29 1150.32 1090.11 1149.25 1090.23 1148.19C1090.36 1147.13 1090.8 1146.13 1091.49 1145.32Z" fill="white"/>
<path d="M868.601 1325.99C869.391 1325.07 870.437 1324.41 871.604 1324.09C872.772 1323.76 874.009 1323.79 875.161 1324.17C876.313 1324.54 877.327 1325.25 878.075 1326.21C878.823 1327.16 879.273 1328.31 879.366 1329.52C879.459 1330.73 879.193 1331.94 878.599 1333C878.006 1334.05 877.113 1334.91 876.033 1335.46C874.953 1336.01 873.734 1336.23 872.531 1336.09C871.327 1335.94 870.193 1335.45 869.27 1334.66C868.033 1333.6 867.267 1332.09 867.142 1330.47C867.016 1328.84 867.541 1327.23 868.601 1325.99Z" fill="white"/>
<path d="M724.089 1492.12C724.781 1491.31 725.698 1490.72 726.726 1490.43C727.753 1490.13 728.845 1490.15 729.861 1490.48C730.878 1490.81 731.774 1491.43 732.437 1492.27C733.1 1493.11 733.499 1494.12 733.584 1495.19C733.67 1496.25 733.438 1497.32 732.917 1498.25C732.396 1499.18 731.611 1499.94 730.66 1500.43C729.708 1500.91 728.635 1501.11 727.574 1500.98C726.513 1500.86 725.513 1500.42 724.7 1499.73C723.619 1498.79 722.948 1497.47 722.834 1496.05C722.719 1494.63 723.171 1493.21 724.089 1492.12Z" fill="white"/>
<path d="M573.008 1497.9C573.933 1496.83 575.155 1496.05 576.521 1495.67C577.886 1495.29 579.333 1495.32 580.681 1495.76C582.028 1496.2 583.216 1497.03 584.093 1498.14C584.97 1499.26 585.497 1500.6 585.608 1502.02C585.72 1503.43 585.411 1504.85 584.72 1506.08C584.028 1507.32 582.986 1508.33 581.724 1508.97C580.462 1509.62 579.037 1509.88 577.629 1509.71C576.221 1509.55 574.893 1508.98 573.811 1508.06C573.089 1507.45 572.494 1506.7 572.063 1505.85C571.631 1505.01 571.371 1504.09 571.297 1503.15C571.222 1502.2 571.335 1501.25 571.629 1500.35C571.923 1499.45 572.391 1498.62 573.008 1497.9Z" fill="white"/>
<path d="M757.069 1343.02C758.001 1341.92 759.327 1341.25 760.757 1341.14C762.187 1341.02 763.603 1341.48 764.694 1342.41C765.785 1343.35 766.462 1344.67 766.574 1346.1C766.687 1347.53 766.227 1348.95 765.296 1350.04C764.834 1350.58 764.271 1351.02 763.638 1351.35C763.006 1351.67 762.316 1351.86 761.608 1351.92C760.9 1351.98 760.188 1351.89 759.512 1351.67C758.837 1351.45 758.211 1351.1 757.671 1350.64C757.13 1350.18 756.686 1349.62 756.364 1348.98C756.041 1348.35 755.846 1347.66 755.791 1346.95C755.735 1346.24 755.819 1345.53 756.038 1344.86C756.258 1344.18 756.608 1343.56 757.069 1343.02Z" fill="white"/>
<path d="M117.286 1310.74C118.048 1309.88 119.058 1309.28 120.178 1309.01C120.867 1308.84 121.583 1308.82 122.283 1308.93C122.983 1309.05 123.652 1309.3 124.252 1309.68C125.469 1310.44 126.337 1311.65 126.665 1313.04C126.863 1313.87 126.86 1314.74 126.656 1315.57C126.453 1316.4 126.054 1317.16 125.495 1317.81C124.754 1318.68 123.748 1319.28 122.632 1319.53C121.942 1319.7 121.226 1319.72 120.526 1319.61C119.826 1319.49 119.157 1319.24 118.557 1318.86C117.34 1318.1 116.472 1316.89 116.144 1315.5C115.944 1314.67 115.944 1313.81 116.142 1312.98C116.341 1312.16 116.733 1311.39 117.286 1310.74Z" fill="white"/>
<path d="M479.697 1406.4C480.159 1405.87 480.722 1405.42 481.355 1405.1C481.988 1404.78 482.677 1404.59 483.385 1404.54C484.092 1404.48 484.802 1404.57 485.477 1404.79C486.151 1405.01 486.775 1405.36 487.313 1405.82C487.851 1406.29 488.293 1406.85 488.614 1407.48C488.934 1408.11 489.127 1408.8 489.181 1409.51C489.235 1410.22 489.15 1410.93 488.929 1411.6C488.708 1412.28 488.356 1412.9 487.894 1413.44C487.161 1414.32 486.159 1414.93 485.042 1415.19C484.34 1415.35 483.612 1415.38 482.901 1415.26C482.19 1415.13 481.509 1414.87 480.899 1414.49C480.289 1414.1 479.762 1413.6 479.347 1413.01C478.932 1412.42 478.637 1411.76 478.481 1411.05C478.314 1410.24 478.336 1409.39 478.547 1408.59C478.758 1407.78 479.151 1407.03 479.697 1406.4Z" fill="white"/>
<path d="M468.827 1590.82C469.571 1589.94 470.581 1589.32 471.707 1589.06C473.101 1588.75 474.561 1588.99 475.783 1589.73C477 1590.49 477.867 1591.7 478.195 1593.1C478.393 1593.93 478.39 1594.79 478.186 1595.62C477.982 1596.45 477.584 1597.22 477.024 1597.86C476.278 1598.72 475.281 1599.34 474.172 1599.61C473.47 1599.78 472.743 1599.8 472.031 1599.68C471.32 1599.56 470.639 1599.3 470.03 1598.92C469.421 1598.53 468.896 1598.02 468.486 1597.43C468.075 1596.84 467.788 1596.17 467.64 1595.46C467.463 1594.65 467.479 1593.81 467.685 1593C467.891 1592.2 468.282 1591.45 468.827 1590.82Z" fill="white"/>
<path d="M901.919 1480.03C902.381 1479.49 902.944 1479.05 903.577 1478.73C904.21 1478.41 904.9 1478.22 905.607 1478.16C906.314 1478.11 907.025 1478.19 907.699 1478.41C908.373 1478.63 908.997 1478.99 909.536 1479.45C910.074 1479.91 910.516 1480.47 910.836 1481.11C911.157 1481.74 911.349 1482.43 911.403 1483.14C911.457 1483.84 911.372 1484.55 911.151 1485.23C910.93 1485.9 910.579 1486.53 910.117 1487.06C909.384 1487.94 908.382 1488.56 907.265 1488.82C905.872 1489.14 904.407 1488.9 903.19 1488.15C902.528 1487.73 901.964 1487.18 901.534 1486.53C901.104 1485.88 900.819 1485.15 900.699 1484.38C900.578 1483.61 900.624 1482.82 900.835 1482.07C901.046 1481.32 901.415 1480.62 901.919 1480.03Z" fill="white"/>
<path d="M50.0649 1442.98C51.3309 1441.54 53.0094 1440.53 54.8714 1440.08C56.3123 1439.74 57.8139 1439.77 59.2428 1440.15C60.6718 1440.53 61.9836 1441.26 63.0633 1442.28C64.143 1443.29 64.957 1444.55 65.4327 1445.95C65.9083 1447.35 66.0313 1448.85 65.7906 1450.31C65.55 1451.77 64.953 1453.15 64.0529 1454.32C63.1527 1455.49 61.9772 1456.43 60.63 1457.04C59.2827 1457.65 57.8051 1457.92 56.3288 1457.82C54.8525 1457.73 53.4229 1457.27 52.1659 1456.49C51.0605 1455.81 50.1158 1454.89 49.3974 1453.81C48.679 1452.73 48.2035 1451.5 48.0039 1450.22C47.8043 1448.93 47.885 1447.62 48.2407 1446.37C48.5965 1445.12 49.219 1443.96 50.0649 1442.98Z" fill="white"/>
<path d="M342.43 1285.45C343.57 1284.13 345.097 1283.19 346.794 1282.79C347.833 1282.54 348.911 1282.49 349.966 1282.66C351.021 1282.83 352.034 1283.2 352.945 1283.76C353.882 1284.34 354.694 1285.1 355.332 1286C355.971 1286.89 356.424 1287.91 356.665 1288.98C356.992 1290.25 357.006 1291.58 356.704 1292.85C356.403 1294.12 355.795 1295.3 354.934 1296.29C353.954 1297.44 352.672 1298.3 351.232 1298.76C349.792 1299.23 348.251 1299.29 346.781 1298.93C345.31 1298.57 343.968 1297.81 342.905 1296.73C341.842 1295.65 341.1 1294.3 340.761 1292.83C340.418 1291.55 340.39 1290.22 340.681 1288.93C340.972 1287.64 341.572 1286.45 342.43 1285.45Z" fill="white"/>
</g>
</svg>
