<svg width="103" height="58" viewBox="0 0 103 58" fill="none" xmlns="http://www.w3.org/2000/svg">
<path d="M5.75977 56.9879C11.0505 58.6721 21.5384 57.0304 34.1869 52.7349C24.8133 55.8396 16.5879 57.4557 10.5487 57.4387C8.73688 57.4302 7.13774 57.2771 5.75977 56.9879Z" fill="white"/>
<path d="M53.7518 0.984863C44.7694 0.984863 37.4883 8.47017 37.4883 17.7162H56.2951C62.4534 17.7162 67.8037 14.1947 70.5682 9.01455C70.968 8.25751 71.3167 7.47496 71.6059 6.64987C72.2268 4.88062 72.5586 2.97528 72.5586 0.993378H53.7518V0.984863Z" fill="white"/>
<path d="M42.8719 19.6392H36.8071L36.7816 19.8348L36.5604 22.242L33.3281 57.0571H46.3338L42.8719 19.6392Z" fill="white"/>
<path d="M56.4381 27.3279H52.1426V19.647H56.4381V20.9824H53.7247V22.6666H56.251V24.002H53.7247V25.984H56.4381V27.3279Z" fill="white"/>
<path d="M61.9071 27.3247L61.6944 26.5677H61.6094C61.4393 26.8399 61.2096 27.0525 60.8949 27.2056C60.5887 27.3502 60.2399 27.4268 59.8487 27.4268C59.1767 27.4268 58.6748 27.2482 58.3346 26.8739C57.9943 26.5081 57.8242 25.9723 57.8242 25.2833V21.4556H59.3808V24.8835C59.3808 25.3088 59.4574 25.6235 59.602 25.8362C59.7551 26.0488 59.9848 26.1594 60.2995 26.1594C60.7333 26.1594 61.0565 26.0148 61.2436 25.7086C61.4393 25.4109 61.5328 24.909 61.5328 24.22V21.4556H63.0894V27.3247H61.8986H61.9071Z" fill="white"/>
<path d="M67.93 21.3442C68.1426 21.3442 68.3127 21.3612 68.4488 21.3953L68.3297 22.8923C68.2022 22.8583 68.0491 22.8328 67.8704 22.8328C67.3771 22.8328 66.9858 22.9689 66.7136 23.2241C66.4329 23.4877 66.2968 23.8535 66.2968 24.3299V27.3155H64.7402V21.4463H65.9226L66.1522 22.433H66.2288C66.4074 22.1013 66.6456 21.8376 66.9518 21.6334C67.241 21.4378 67.5812 21.3442 67.93 21.3442Z" fill="white"/>
<path d="M74.6761 24.3711C74.6761 25.3238 74.4294 26.0723 73.9446 26.6082C73.4597 27.1441 72.7707 27.4163 71.8946 27.4163C71.3417 27.4163 70.8654 27.2887 70.4401 27.0505C70.0148 26.8123 69.7001 26.4466 69.4789 25.9873C69.2578 25.5279 69.1387 24.9921 69.1387 24.3711C69.1387 23.4185 69.3854 22.6699 69.8702 22.134C70.355 21.5982 71.044 21.3345 71.9201 21.3345C72.473 21.3345 72.9494 21.4621 73.3747 21.7003C73.8 21.9384 74.1147 22.2957 74.3359 22.755C74.5655 23.2143 74.6761 23.7502 74.6761 24.3711ZM70.7293 24.3711C70.7293 24.9495 70.8229 25.3919 71.01 25.6896C71.1971 25.9873 71.4948 26.1404 71.9116 26.1404C72.3284 26.1404 72.6261 25.9958 72.8048 25.6896C72.9919 25.4004 73.077 24.958 73.077 24.3711C73.077 23.7927 72.9834 23.3504 72.7962 23.0697C72.6091 22.7805 72.3114 22.6359 71.8946 22.6359C71.4778 22.6359 71.1801 22.7805 71.0015 23.0697C70.8229 23.3589 70.7293 23.7927 70.7293 24.3711Z" fill="white"/>
<path d="M79.0977 27.4274C78.4257 27.4274 77.9069 27.1722 77.5156 26.6704H77.4305C77.4816 27.1552 77.5156 27.4444 77.5156 27.521V29.9027H75.959V21.4477H77.2264L77.4475 22.2047H77.5241C77.8899 21.6263 78.4257 21.3286 79.1403 21.3286C79.8122 21.3286 80.3396 21.5923 80.7224 22.1282C81.1051 22.6641 81.2923 23.4041 81.2923 24.3652C81.2923 24.9947 81.2072 25.5391 81.0286 25.9984C80.85 26.4577 80.5948 26.815 80.2715 27.0531C79.9313 27.2998 79.5485 27.4274 79.0977 27.4274ZM78.6384 22.6215C78.2556 22.6215 77.9749 22.7406 77.7963 22.9873C77.6177 23.2339 77.5241 23.6252 77.5156 24.1951V24.3738C77.5156 25.0032 77.6007 25.454 77.7878 25.7262C77.9749 25.9984 78.2556 26.1345 78.6554 26.1345C79.3529 26.1345 79.7017 25.5391 79.7017 24.3652C79.7017 23.7868 79.6166 23.353 79.4465 23.0638C79.2763 22.7661 79.0042 22.6215 78.6384 22.6215Z" fill="white"/>
<path d="M85.1624 27.4312C84.2438 27.4312 83.5292 27.176 83.0104 26.6487C82.4915 26.1213 82.2363 25.3813 82.2363 24.4371C82.2363 23.4504 82.4745 22.6934 82.9593 22.1575C83.4442 21.6216 84.0992 21.3579 84.9413 21.3579C85.7493 21.3579 86.3702 21.5961 86.8296 22.0724C87.2804 22.5487 87.5016 23.1952 87.5016 24.0373V24.8114H83.8269C83.844 25.2622 83.9801 25.6194 84.2182 25.8831C84.4649 26.1383 84.8052 26.2659 85.2475 26.2659C85.5962 26.2659 85.9194 26.2318 86.2257 26.1553C86.5319 26.0787 86.8466 25.9682 87.1783 25.8065V27.0484C86.9061 27.1845 86.6169 27.2951 86.3022 27.3632C85.9875 27.3972 85.6047 27.4312 85.1624 27.4312ZM84.9413 22.4807C84.6095 22.4807 84.3543 22.5828 84.1672 22.8039C83.9801 23.0166 83.878 23.3313 83.8525 23.7141H86.0385C86.03 23.3143 85.9279 23.0166 85.7408 22.8039C85.5282 22.5913 85.273 22.4807 84.9413 22.4807Z" fill="white"/>
<path d="M92.3755 27.3227L92.0778 26.5231H92.0352C91.7715 26.8634 91.5078 27.0931 91.2271 27.2292C90.9465 27.3653 90.5892 27.4248 90.1384 27.4248C89.5855 27.4248 89.1602 27.2632 88.8455 26.94C88.5308 26.6167 88.3691 26.1574 88.3691 25.562C88.3691 24.941 88.5818 24.4817 89.0071 24.184C89.4239 23.8948 90.0703 23.7247 90.9209 23.6991L91.9076 23.6651V23.4099C91.9076 22.8145 91.6099 22.5168 91.0145 22.5168C90.5637 22.5168 90.0278 22.6529 89.4069 22.9421L88.888 21.8619C89.543 21.5046 90.2745 21.3345 91.074 21.3345C91.8396 21.3345 92.4265 21.5131 92.8348 21.8534C93.2431 22.1936 93.4472 22.721 93.4472 23.4185V27.3227H92.3755ZM91.9246 24.6008L91.3207 24.6178C90.8699 24.6348 90.5297 24.7114 90.3085 24.873C90.0874 25.0261 89.9768 25.2643 89.9768 25.579C89.9768 26.0298 90.232 26.2595 90.7338 26.2595C91.0911 26.2595 91.3888 26.1574 91.6014 25.9362C91.8226 25.7236 91.9246 25.4429 91.9246 25.0856V24.6008Z" fill="white"/>
<path d="M100.339 27.3277H98.7829V23.8998C98.7829 23.4745 98.7063 23.1598 98.5617 22.9472C98.4086 22.7345 98.1789 22.6324 97.8642 22.6324C97.4304 22.6324 97.1072 22.777 96.92 23.0833C96.7244 23.381 96.6308 23.8828 96.6308 24.5718V27.3363H95.0742V21.4671H96.2651L96.4777 22.2241H96.5628C96.7414 21.9349 96.9796 21.7308 97.2858 21.5862C97.592 21.4416 97.9408 21.3735 98.3235 21.3735C98.987 21.3735 99.4888 21.5522 99.8376 21.9264C100.186 22.3007 100.356 22.8281 100.356 23.5256V27.3533H100.339V27.3277Z" fill="white"/>
<path d="M52.1426 37.2127V29.5317H53.7247V37.2127H52.1426Z" fill="white"/>
<path d="M60.7425 37.2067H59.1859V33.7787C59.1859 33.3534 59.1093 33.0387 58.9647 32.8261C58.8116 32.6134 58.582 32.5028 58.2672 32.5028C57.8334 32.5028 57.5102 32.6474 57.3231 32.9536C57.1189 33.2514 57.0254 33.7532 57.0254 34.4507V37.2152H55.4688V31.346H56.6596L56.8723 32.103H56.9573C57.1359 31.8138 57.3741 31.6097 57.6803 31.4651C57.9865 31.3205 58.3353 31.2524 58.7181 31.2524C59.3815 31.2524 59.8834 31.4311 60.2321 31.8053C60.5809 32.1796 60.751 32.707 60.751 33.4045L60.7425 37.2067Z" fill="white"/>
<path d="M64.1527 37.3218C63.4807 37.3218 62.9619 37.0581 62.5706 36.5222C62.1878 35.9863 61.9922 35.2463 61.9922 34.2936C61.9922 33.3325 62.1878 32.5839 62.5791 32.0481C62.9619 31.5122 63.5062 31.2485 64.1867 31.2485C64.9097 31.2485 65.4541 31.5377 65.8284 32.1076H65.8794C65.7944 31.6653 65.7603 31.274 65.7603 30.9337V29.0454H67.317V37.2197H66.1261L65.8284 36.4627H65.7603C65.4201 37.0241 64.8842 37.3218 64.1527 37.3218ZM64.6971 36.0459C65.0969 36.0459 65.3861 35.9268 65.5732 35.6886C65.7603 35.4505 65.8624 35.0507 65.8794 34.4723V34.2936C65.8794 33.6642 65.7859 33.2134 65.5902 32.9412C65.4031 32.669 65.0969 32.5329 64.6716 32.5329C64.3228 32.5329 64.0506 32.686 63.8635 32.9837C63.6764 33.2814 63.5743 33.7237 63.5743 34.3021C63.5743 34.8806 63.6679 35.3144 63.8635 35.6036C64.0591 35.8928 64.3398 36.0459 64.6971 36.0459Z" fill="white"/>
<path d="M73.0087 37.2095L72.796 36.4525H72.711C72.5408 36.7246 72.3112 36.9373 71.9965 37.0904C71.6903 37.235 71.3415 37.3115 70.9502 37.3115C70.2782 37.3115 69.7764 37.1329 69.4361 36.7587C69.0959 36.3929 68.9258 35.857 68.9258 35.168V31.3403H70.4824V34.7683C70.4824 35.1936 70.5589 35.5083 70.7035 35.7209C70.8566 35.9336 71.0863 36.0442 71.401 36.0442C71.8348 36.0442 72.1581 35.8996 72.3452 35.5933C72.5408 35.2956 72.6344 34.7938 72.6344 34.1048V31.3403H74.191V37.2095H73.0002H73.0087Z" fill="white"/>
<path d="M79.8224 35.4682C79.8224 36.0721 79.6183 36.5315 79.21 36.8462C78.8017 37.1609 78.1893 37.3225 77.3812 37.3225C76.9644 37.3225 76.6157 37.297 76.318 37.2375C76.0288 37.1779 75.7566 37.1014 75.4929 36.9823V35.6553C75.7821 35.7914 76.1138 35.9105 76.4711 36.0041C76.8283 36.0977 77.1516 36.1402 77.4237 36.1402C77.9851 36.1402 78.2743 35.9701 78.2743 35.6383C78.2743 35.5107 78.2318 35.4087 78.1553 35.3321C78.0787 35.2556 77.9511 35.162 77.7725 35.0684C77.5854 34.9749 77.3472 34.8558 77.041 34.7197C76.5987 34.5325 76.284 34.3539 76.0798 34.1923C75.8757 34.0307 75.7311 33.8436 75.629 33.6394C75.5354 33.4268 75.4844 33.1716 75.4844 32.8739C75.4844 32.3465 75.68 31.9467 76.0713 31.666C76.4626 31.3768 77.024 31.2407 77.7385 31.2407C78.4275 31.2407 79.0994 31.3938 79.7459 31.7001L79.2781 32.8569C78.9889 32.7293 78.7252 32.6272 78.4785 32.5507C78.2233 32.4656 77.9766 32.4316 77.7215 32.4316C77.2621 32.4316 77.0325 32.5592 77.0325 32.8143C77.0325 32.9589 77.109 33.078 77.2536 33.1801C77.3982 33.2822 77.73 33.4353 78.2233 33.6479C78.6741 33.835 78.9974 34.0052 79.2015 34.1668C79.4142 34.3284 79.5588 34.5155 79.6608 34.7282C79.7714 34.9238 79.8224 35.179 79.8224 35.4682Z" fill="white"/>
<path d="M83.4368 36.0485C83.709 36.0485 84.0322 35.9889 84.415 35.8698V37.0607C84.0322 37.2393 83.5559 37.3244 82.986 37.3244C82.365 37.3244 81.9057 37.1627 81.625 36.8395C81.3358 36.5163 81.1997 36.0314 81.1997 35.385V32.5525H80.4512V31.872L81.3103 31.3361L81.7611 30.0942H82.7563V31.3446H84.3469V32.544H82.7563V35.3765C82.7563 35.6061 82.8159 35.7763 82.9435 35.8783C83.071 35.9889 83.2326 36.0485 83.4368 36.0485Z" fill="white"/>
<path d="M88.7523 31.231C88.9649 31.231 89.135 31.248 89.2711 31.282L89.152 32.7791C89.0245 32.745 88.8713 32.7195 88.6927 32.7195C88.1994 32.7195 87.8081 32.8556 87.5359 33.1108C87.2552 33.3745 87.1191 33.7402 87.1191 34.2166V37.2022H85.5625V31.333H86.7448L86.9745 32.3197H87.0511C87.2297 31.988 87.4679 31.7243 87.7741 31.5202C88.0803 31.333 88.4035 31.231 88.7523 31.231Z" fill="white"/>
<path d="M90.2578 29.8221C90.2578 29.2947 90.547 29.0396 91.1084 29.0396C91.6698 29.0396 91.959 29.2947 91.959 29.8221C91.959 30.0773 91.891 30.2644 91.7464 30.4005C91.6018 30.5366 91.3976 30.6132 91.1084 30.6132C90.53 30.6132 90.2578 30.3495 90.2578 29.8221ZM91.874 37.2138H90.3173V31.3447H91.874V37.2138Z" fill="white"/>
<path d="M97.1411 37.2114L96.8434 36.4118H96.8009C96.5372 36.752 96.2735 36.9817 95.9928 37.1178C95.7121 37.2539 95.3549 37.3134 94.904 37.3134C94.3511 37.3134 93.9258 37.1518 93.6111 36.8286C93.2964 36.5054 93.1348 36.0461 93.1348 35.4506C93.1348 34.8297 93.3474 34.3704 93.7727 34.0726C94.1895 33.7834 94.836 33.6133 95.6866 33.5878L96.6733 33.5538V33.2986C96.6733 32.7032 96.3756 32.4055 95.7802 32.4055C95.3293 32.4055 94.7934 32.5416 94.1725 32.8308L93.6536 31.7505C94.3086 31.3933 95.0401 31.2231 95.8397 31.2231C96.6052 31.2231 97.1921 31.4018 97.6004 31.742C98.0087 32.0822 98.2129 32.6096 98.2129 33.3071V37.2114H97.1411ZM96.6733 34.4895L96.0694 34.5065C95.6185 34.5235 95.2783 34.6 95.0571 34.7616C94.836 34.9232 94.7254 35.1529 94.7254 35.4676C94.7254 35.9185 94.9806 36.1481 95.4824 36.1481C95.8397 36.1481 96.1374 36.046 96.35 35.8249C96.5712 35.6122 96.6733 35.3315 96.6733 34.9743V34.4895Z" fill="white"/>
<path d="M101.385 37.2138H99.8281V29.0396H101.385V37.2138Z" fill="white"/>
<path d="M56.4381 47.0955H52.1426V39.4146H56.4381V40.75H53.7247V42.4427H56.251V43.7781H53.7247V45.7601H56.4381V47.0955Z" fill="white"/>
<path d="M62.9793 47.0935H61.4227V43.6656C61.4227 43.2403 61.3547 42.9256 61.2186 42.7129C61.0825 42.5003 60.8698 42.3897 60.5636 42.3897C60.1638 42.3897 59.8746 42.5428 59.696 42.8405C59.5088 43.1382 59.4238 43.6401 59.4238 44.329V47.0935H57.8672V41.2244H59.058L59.2707 41.9814H59.3557C59.5088 41.7092 59.73 41.4966 60.0192 41.3434C60.3084 41.1903 60.6402 41.1138 61.0144 41.1138C61.8735 41.1138 62.4434 41.403 62.7496 41.9729H62.8857C63.0388 41.7007 63.2685 41.488 63.5662 41.3349C63.8639 41.1818 64.1957 41.1138 64.5784 41.1138C65.2249 41.1138 65.7097 41.2839 66.0415 41.6241C66.3732 41.9644 66.5348 42.5088 66.5348 43.2658V47.0935H64.9782V43.6656C64.9782 43.2403 64.9102 42.9256 64.7741 42.7129C64.638 42.5003 64.4253 42.3897 64.1191 42.3897C63.7363 42.3897 63.4556 42.5258 63.26 42.8065C63.0729 43.0872 62.9708 43.5295 62.9708 44.1419V47.102H62.9793V47.0935Z" fill="white"/>
<path d="M68.0742 39.7166C68.0742 39.1892 68.3634 38.9341 68.9248 38.9341C69.4862 38.9341 69.7754 39.1892 69.7754 39.7166C69.7754 39.9718 69.7074 40.1589 69.5628 40.295C69.4182 40.4311 69.214 40.5077 68.9248 40.5077C68.3464 40.5077 68.0742 40.244 68.0742 39.7166ZM69.6904 47.0998H68.1338V41.2307H69.6904V47.0998Z" fill="white"/>
<path d="M75.3127 45.3627C75.3127 45.9667 75.1085 46.426 74.7002 46.7407C74.292 47.0554 73.6795 47.2171 72.8715 47.2171C72.4547 47.2171 72.1059 47.1915 71.8082 47.132C71.519 47.0724 71.2468 46.9959 70.9831 46.8768V45.5499C71.2723 45.686 71.6041 45.8051 71.9613 45.8986C72.3186 45.9922 72.6418 46.0347 72.914 46.0347C73.4754 46.0347 73.7646 45.8646 73.7646 45.5329C73.7646 45.4053 73.722 45.3032 73.6455 45.2266C73.5689 45.1501 73.4414 45.0565 73.2627 44.963C73.0841 44.8694 72.8374 44.7503 72.5312 44.6142C72.0889 44.4271 71.7742 44.2485 71.57 44.0868C71.3659 43.9252 71.2213 43.7381 71.1192 43.534C71.0257 43.3213 70.9746 43.0661 70.9746 42.7684C70.9746 42.241 71.1702 41.8413 71.5615 41.5606C71.9528 41.2714 72.5142 41.1353 73.2287 41.1353C73.9177 41.1353 74.5897 41.2883 75.2361 41.5946L74.7683 42.7514C74.4791 42.6238 74.2154 42.5217 73.9687 42.4452C73.7135 42.3601 73.4669 42.3261 73.2117 42.3261C72.7524 42.3261 72.5227 42.4537 72.5227 42.7089C72.5227 42.8535 72.5992 42.9726 72.7438 43.0746C72.897 43.1767 73.2202 43.3298 73.7135 43.5424C74.1644 43.7296 74.4876 43.8997 74.6917 44.0613C74.9044 44.2229 75.049 44.4101 75.1511 44.6227C75.2616 44.8184 75.3127 45.065 75.3127 45.3627Z" fill="white"/>
<path d="M80.5021 45.3627C80.5021 45.9667 80.298 46.426 79.8897 46.7407C79.4814 47.0554 78.869 47.2171 78.0609 47.2171C77.6441 47.2171 77.2953 47.1915 76.9976 47.132C76.7084 47.0724 76.4362 46.9959 76.1726 46.8768V45.5499C76.4618 45.686 76.7935 45.8051 77.1508 45.8986C77.508 45.9922 77.8312 46.0347 78.1034 46.0347C78.6648 46.0347 78.954 45.8646 78.954 45.5329C78.954 45.4053 78.9115 45.3032 78.8349 45.2266C78.7584 45.1501 78.6308 45.0565 78.4522 44.963C78.2736 44.8694 78.0269 44.7503 77.7207 44.6142C77.2783 44.4271 76.9636 44.2485 76.7595 44.0868C76.5553 43.9252 76.4107 43.7381 76.3087 43.534C76.2151 43.3213 76.1641 43.0661 76.1641 42.7684C76.1641 42.241 76.3597 41.8413 76.751 41.5606C77.1423 41.2714 77.7036 41.1353 78.4182 41.1353C79.1071 41.1353 79.7791 41.2883 80.4256 41.5946L79.9577 42.7514C79.6685 42.6238 79.4048 42.5217 79.1582 42.4452C78.903 42.3601 78.6563 42.3261 78.4011 42.3261C77.9418 42.3261 77.7122 42.4537 77.7122 42.7089C77.7122 42.8535 77.7887 42.9726 77.9333 43.0746C78.0864 43.1767 78.4097 43.3298 78.903 43.5424C79.3538 43.7296 79.677 43.8997 79.8812 44.0613C80.0938 44.2229 80.2384 44.4101 80.3405 44.6227C80.4596 44.8184 80.5021 45.065 80.5021 45.3627Z" fill="white"/>
<path d="M81.6602 39.7166C81.6602 39.1892 81.9494 38.9341 82.5108 38.9341C83.0722 38.9341 83.3614 39.1892 83.3614 39.7166C83.3614 39.9718 83.2933 40.1589 83.1487 40.295C83.0041 40.4311 82.8 40.5077 82.5108 40.5077C81.9409 40.5077 81.6602 40.244 81.6602 39.7166ZM83.2848 47.0998H81.7282V41.2307H83.2848V47.0998Z" fill="white"/>
<path d="M90.098 44.1504C90.098 45.1031 89.8513 45.8516 89.3664 46.3875C88.8816 46.9234 88.1926 47.1956 87.3165 47.1956C86.7636 47.1956 86.2873 47.068 85.862 46.8298C85.4452 46.5831 85.1219 46.2259 84.9008 45.7666C84.6796 45.3072 84.5605 44.7714 84.5605 44.1504C84.5605 43.1978 84.8072 42.4492 85.2921 41.9133C85.7769 41.386 86.4659 41.1138 87.342 41.1138C87.8949 41.1138 88.3713 41.2414 88.7966 41.4795C89.2219 41.7177 89.5366 42.075 89.7577 42.5343C89.9874 43.0021 90.098 43.538 90.098 44.1504ZM86.1597 44.1504C86.1597 44.7288 86.2532 45.1712 86.4404 45.4689C86.6275 45.7666 86.9252 45.9197 87.342 45.9197C87.7588 45.9197 88.0565 45.7751 88.2352 45.4689C88.4223 45.1797 88.5073 44.7373 88.5073 44.1504C88.5073 43.572 88.4138 43.1297 88.2266 42.849C88.0395 42.5598 87.7418 42.4152 87.325 42.4152C86.9082 42.4152 86.6105 42.5598 86.4319 42.849C86.2533 43.1382 86.1597 43.572 86.1597 44.1504Z" fill="white"/>
<path d="M96.6559 47.098H95.0992V43.67C95.0992 43.2447 95.0227 42.93 94.8781 42.7174C94.725 42.5047 94.4953 42.3941 94.1806 42.3941C93.7468 42.3941 93.4236 42.5387 93.2364 42.8449C93.0408 43.1427 92.9472 43.6445 92.9472 44.3335V47.098H91.3906V41.2288H92.5815L92.7941 41.9859H92.8792C93.0578 41.6967 93.296 41.4925 93.6022 41.3479C93.9084 41.2033 94.2572 41.1353 94.6399 41.1353C95.3034 41.1353 95.8053 41.3139 96.154 41.6881C96.5027 42.0624 96.6729 42.5898 96.6729 43.2873V47.115H96.6559V47.098Z" fill="white"/>
<path d="M102.244 45.3627C102.244 45.9667 102.04 46.426 101.632 46.7407C101.224 47.0554 100.611 47.2171 99.8031 47.2171C99.3863 47.2171 99.0375 47.1915 98.7398 47.132C98.4506 47.0724 98.1699 46.9959 97.9148 46.8768V45.5499C98.204 45.686 98.5357 45.8051 98.893 45.8986C99.2502 45.9922 99.5734 46.0347 99.8456 46.0347C100.407 46.0347 100.696 45.8646 100.696 45.5329C100.696 45.4053 100.654 45.3032 100.577 45.2266C100.501 45.1501 100.373 45.0565 100.194 44.963C100.007 44.8694 99.7691 44.7503 99.4628 44.6142C99.0205 44.4271 98.7058 44.2485 98.5017 44.0868C98.2975 43.9252 98.1529 43.7381 98.0508 43.534C97.9573 43.3213 97.9062 43.0661 97.9062 42.7684C97.9062 42.241 98.1019 41.8413 98.4932 41.5606C98.8844 41.2714 99.4458 41.1353 100.16 41.1353C100.849 41.1353 101.521 41.2883 102.168 41.5946L101.7 42.7514C101.411 42.6238 101.147 42.5217 100.9 42.4452C100.645 42.3601 100.399 42.3261 100.143 42.3261C99.684 42.3261 99.4544 42.4537 99.4544 42.7089C99.4544 42.8535 99.5309 42.9726 99.6755 43.0746C99.8286 43.1767 100.152 43.3298 100.645 43.5424C101.096 43.7296 101.419 43.8997 101.623 44.0613C101.836 44.2229 101.981 44.4101 102.083 44.6227C102.193 44.8184 102.244 45.065 102.244 45.3627Z" fill="white"/>
<path d="M57.2979 51.7136C57.2979 52.5387 57.0427 53.1682 56.5409 53.6105C56.039 54.0528 55.3245 54.2654 54.3974 54.2654H53.7169V56.9959H52.1348V49.3149H54.5164C55.4181 49.3149 56.1071 49.5191 56.5834 49.9189C57.0597 50.3101 57.2979 50.9141 57.2979 51.7136ZM53.7169 52.9215H54.2358C54.7206 52.9215 55.0864 52.8279 55.3245 52.6323C55.5712 52.4366 55.6818 52.1474 55.6818 51.7647C55.6818 51.3819 55.5797 51.1012 55.3756 50.9226C55.1714 50.7439 54.8567 50.6504 54.4229 50.6504H53.6999V52.9215H53.7169Z" fill="white"/>
<path d="M63.7718 54.043C63.7718 54.9957 63.5251 55.7442 63.0403 56.2801C62.5555 56.816 61.8665 57.0881 60.9903 57.0881C60.4375 57.0881 59.9611 56.9606 59.5358 56.7224C59.119 56.4757 58.7958 56.1185 58.5746 55.6591C58.3535 55.1998 58.2344 54.6639 58.2344 54.043C58.2344 53.0903 58.4811 52.3418 58.9659 51.8059C59.4507 51.27 60.1397 51.0063 61.0159 51.0063C61.5688 51.0063 62.0451 51.1339 62.4704 51.3721C62.8957 51.6103 63.2104 51.9675 63.4316 52.4269C63.6527 52.8862 63.7718 53.4221 63.7718 54.043ZM59.825 54.043C59.825 54.6214 59.9186 55.0637 60.1057 55.3614C60.2928 55.6591 60.5906 55.8122 61.0073 55.8122C61.4241 55.8122 61.7218 55.6676 61.9005 55.3614C62.0876 55.0722 62.1727 54.6299 62.1727 54.043C62.1727 53.4646 62.0791 53.0223 61.892 52.7416C61.7048 52.4524 61.4071 52.3078 60.9903 52.3078C60.5735 52.3078 60.2758 52.4524 60.0972 52.7416C59.9101 53.0223 59.825 53.4561 59.825 54.043Z" fill="white"/>
<path d="M68.2444 51.0063C68.4571 51.0063 68.6272 51.0234 68.7633 51.0574L68.6442 52.5544C68.5166 52.5204 68.3635 52.4949 68.1849 52.4949C67.6915 52.4949 67.3003 52.631 67.0281 52.8862C66.7474 53.1499 66.6113 53.5156 66.6113 53.992V56.9776H65.0547V51.1084H66.237L66.4667 52.0951H66.5432C66.7219 51.7634 66.96 51.4997 67.2662 51.2955C67.5554 51.1084 67.8787 51.0063 68.2444 51.0063Z" fill="white"/>
<path d="M72.2083 55.8199C72.4805 55.8199 72.8037 55.7604 73.1865 55.6413V56.8322C72.8037 57.0108 72.3274 57.0958 71.7575 57.0958C71.1365 57.0958 70.6772 56.9342 70.3965 56.611C70.1073 56.2878 69.9712 55.8029 69.9712 55.1565V52.324H69.2227V51.6435L70.0818 51.1076L70.5326 49.8657H71.5278V51.1076H73.1184V52.3069H71.5278V55.1395C71.5278 55.3691 71.5873 55.5392 71.7149 55.6413C71.8425 55.7604 72.0041 55.8199 72.2083 55.8199Z" fill="white"/>
<path d="M77.9692 56.9868L77.6715 56.1872H77.629C77.3653 56.5274 77.1016 56.7571 76.8209 56.8932C76.5402 57.0293 76.1829 57.0888 75.7321 57.0888C75.1792 57.0888 74.7539 56.9272 74.4392 56.604C74.1245 56.2808 73.9629 55.8214 73.9629 55.226C73.9629 54.6051 74.1755 54.1457 74.6008 53.848C75.0176 53.5588 75.6641 53.3887 76.5147 53.3632L77.5014 53.3292V53.074C77.5014 52.4786 77.2037 52.1809 76.6082 52.1809C76.1574 52.1809 75.6216 52.317 75.0006 52.6062L74.4817 51.5259C75.1367 51.1687 75.8682 50.9985 76.6678 50.9985C77.4333 50.9985 78.0203 51.1771 78.4285 51.5174C78.8368 51.8576 79.041 52.385 79.041 53.0825V56.9868H77.9692ZM77.5099 54.2733L76.906 54.2904C76.4551 54.3074 76.1149 54.3839 75.8937 54.5455C75.6726 54.6986 75.562 54.9368 75.562 55.2515C75.562 55.7024 75.8172 55.932 76.319 55.932C76.6763 55.932 76.974 55.8299 77.1867 55.6088C77.4078 55.3961 77.5099 55.1154 77.5099 54.7582C77.5099 54.7497 77.5099 54.2733 77.5099 54.2733Z" fill="white"/>
<path d="M82.2109 56.9866H80.6543V48.8208H82.2109V56.9866Z" fill="white"/>
<path d="M96.7145 8.59109C94.6816 4.0829 85.1463 3.58954 72.2427 6.5071C72.2342 6.54113 72.2257 6.57516 72.2087 6.61769C71.928 7.40024 71.6047 8.14878 71.2305 8.86329C76.6573 7.55336 81.4632 6.84737 85.2569 6.84737C89.9777 6.84737 93.176 7.91062 94.1882 10.1477C94.9368 11.8064 94.3924 14.0775 92.6997 16.7569H93.848C96.4848 13.4991 97.6672 10.7091 96.7145 8.59109Z" fill="white"/>
<path d="M36.0338 20.0962C25.7671 25.4039 16.7082 31.3156 10.116 37.0232C2.19691 43.8875 -1.23953 49.7482 0.453163 53.5078C1.24422 55.2601 3.08151 56.3999 5.76091 56.9868C4.10224 56.4594 2.92841 55.6088 2.39253 54.401C0.929499 51.1517 3.34522 45.3931 10.7795 38.9455C17.1675 33.4081 25.9032 27.6921 35.8127 22.5119L35.8382 22.2482L36.0338 20.0962Z" fill="white"/>
</svg>
