<svg width="204" height="48" viewBox="0 0 204 48" fill="none" xmlns="http://www.w3.org/2000/svg">
<path d="M0.396484 22.5491C0.396484 34.7793 10.2017 44.6746 22.3118 44.6746C25.6603 44.6746 28.9788 43.8938 31.9969 42.3697C31.9969 42.3697 32.057 42.3397 32.027 42.2797C32.027 42.2496 31.9969 42.2496 31.9669 42.2496C29.662 43.1731 27.2144 43.6536 24.7294 43.6235C13.7229 43.6235 4.78856 34.5616 4.78856 23.4125C4.78856 12.2634 13.7304 3.20142 24.7294 3.20142C32.3273 3.20142 39.2645 7.53342 42.583 14.3505C42.583 14.3505 42.613 14.4106 42.6731 14.3806C42.7031 14.3806 42.7031 14.3505 42.7031 14.3205C39.4147 5.91925 31.3437 0.416018 22.3419 0.385986C10.2017 0.423525 0.396484 10.3488 0.396484 22.5491Z" fill="white"/>
<path d="M83.6655 27.3062C83.3427 26.4879 82.697 25.8422 81.9011 25.4668C81.5032 25.2942 81.0828 25.1965 80.6323 25.1965C80.1819 25.1965 79.7389 25.2942 79.341 25.4969C78.9431 25.6695 78.5977 25.9473 78.2974 26.2401C78.1472 26.4128 77.9971 26.5855 77.877 26.7657V26.8407C77.877 29.1006 79.7164 30.9476 81.9837 30.9476C82.6519 30.9476 83.3276 30.7748 83.9208 30.452V28.5901C83.9208 28.1772 83.8457 27.7267 83.6655 27.3062Z" fill="white"/>
<path d="M25.0978 34.7771C24.4671 34.5068 23.874 34.1164 23.3935 33.6134C22.883 33.1028 22.5001 32.5097 22.2298 31.8791C21.9595 31.2184 21.8093 30.5051 21.8093 29.7543C21.8093 29.0336 21.9595 28.2903 22.2298 27.6296C22.5001 26.9689 22.8905 26.3758 23.3935 25.8953C24.9176 24.3412 27.2225 23.8607 29.2271 24.7316C29.8577 25.0019 30.4509 25.3923 30.9314 25.8953C32.4554 27.5095 32.8759 29.8444 32.065 31.8791C31.7948 32.5397 31.4044 33.1028 30.9314 33.6134C30.4509 34.0939 29.8577 34.5068 29.2271 34.7771C28.5664 35.0774 27.8832 35.2275 27.1624 35.1975C26.4417 35.1975 25.751 35.0474 25.0978 34.7771ZM24.377 22.9973C23.5361 23.3577 22.7628 23.8907 22.1022 24.5514C20.0375 26.6761 19.4144 29.8444 20.548 32.5923C20.9084 33.4557 21.4415 34.2365 22.1022 34.9272C22.7628 35.5879 23.5061 36.121 24.377 36.4814C26.1414 37.2321 28.146 37.2321 29.9403 36.4814C30.7812 36.121 31.5545 35.5879 32.2152 34.9272C32.8759 34.2665 33.4089 33.4632 33.7693 32.5923C34.5201 30.7679 34.5201 28.7333 33.7693 26.9089C33.4089 26.0455 32.8759 25.2346 32.2152 24.5739C31.5545 23.9132 30.8112 23.3802 29.9403 23.0198C28.146 22.254 26.1414 22.254 24.377 22.9973Z" fill="white"/>
<path d="M40.6723 34.7996C38.6677 33.9362 37.3839 31.9616 37.4139 29.7769C37.4139 29.0561 37.5641 28.3129 37.8344 27.6522C38.3749 26.3683 39.4185 25.3172 40.7024 24.7541C41.3631 24.4538 42.0463 24.3036 42.767 24.3337C43.4878 24.3337 44.171 24.4838 44.8317 24.7541C45.4623 25.0244 46.0554 25.4449 46.5359 25.9179C47.0164 26.4284 47.3994 26.9915 47.6696 27.6522C47.9399 28.3429 48.0901 29.0561 48.0901 29.7769C48.0901 30.4976 47.9699 31.2109 47.6696 31.9016C47.3994 32.5623 47.0089 33.1254 46.5359 33.6359C46.0554 34.1164 45.4623 34.5293 44.8317 34.7996C44.171 35.0699 43.4878 35.22 42.767 35.22C42.0162 35.22 41.3255 35.0699 40.6723 34.7996ZM39.9516 23.0198C39.1107 23.3802 38.3374 23.9132 37.6767 24.5739C37.016 25.2647 36.513 26.038 36.1226 26.9089C35.7622 27.8023 35.582 28.7933 35.582 29.7769V41.7669H37.4064V34.2591C37.977 35.1224 38.7503 35.8432 39.7113 36.2936C40.6348 36.8042 41.6859 37.1045 42.7595 37.1045C43.713 37.1045 44.644 36.8943 45.5374 36.5039C46.3783 36.1435 47.1516 35.6104 47.8123 34.9498C48.473 34.2891 49.006 33.4857 49.3664 32.6148C50.1172 30.7904 50.1172 28.7558 49.3664 26.9314C49.006 26.068 48.473 25.2572 47.8123 24.5965C47.1516 23.9358 46.4083 23.4027 45.5374 23.0424C43.7205 22.2465 41.7159 22.2465 39.9516 23.0198Z" fill="white"/>
<path d="M54.3395 25.8833C56.3741 23.7886 59.7226 23.7886 61.8173 25.8232C61.8473 25.8533 61.8473 25.8533 61.8773 25.8833C62.2677 26.3037 62.6281 26.8068 62.8608 27.3473H53.3259C53.5887 26.8068 53.9491 26.3263 54.3395 25.8833ZM55.353 23.0078C54.4896 23.3682 53.7088 23.9012 53.0481 24.5619C52.3874 25.2526 51.8844 26.0259 51.524 26.8968C50.7732 28.7212 50.7732 30.7559 51.524 32.5803C51.8844 33.4437 52.3874 34.2245 53.0481 34.9152C53.7088 35.5759 54.4821 36.1089 55.353 36.4693C57.1174 37.2201 59.1219 37.2201 60.9163 36.4693C61.7572 36.0789 62.5305 35.5759 63.1912 34.9152C63.8519 34.2245 64.3549 33.4512 64.7153 32.5803L64.7753 32.37H62.7708C62.5305 32.8205 62.2302 33.2334 61.8773 33.5938C59.8427 35.6885 56.4942 35.6885 54.3995 33.6539C54.3695 33.6239 54.3695 33.6238 54.3395 33.5938C53.859 33.0833 53.4761 32.4902 53.2058 31.8595C52.8154 31.0186 52.6952 30.0952 52.8154 29.1717H65.2258C65.1958 28.3909 64.9856 27.6176 64.6852 26.8668C64.3249 26.0034 63.8218 25.1926 63.1612 24.5319C62.5005 23.8712 61.7272 23.3382 60.8863 22.9778C59.1219 22.2645 57.1174 22.2645 55.353 23.0078Z" fill="white"/>
<path d="M70.9614 23.6349C70.098 24.0253 69.3171 24.5583 68.6564 25.219C68.5363 25.3391 68.4462 25.4893 68.3862 25.6394V23.0943H66.5918V36.3982H68.3862V30.3919C68.3862 29.6712 68.5363 28.9279 68.8066 28.2672C69.0769 27.6065 69.4673 27.0434 69.9703 26.5329C70.4508 26.0223 71.0139 25.6395 71.6746 25.3692C72.3353 25.0689 73.0185 24.9187 73.7393 24.9487V23.0943C72.7557 23.0643 71.7947 23.2445 70.9614 23.6349Z" fill="white"/>
<path d="M79.5139 22.5911C79.1235 22.6812 78.7331 22.8013 78.3802 22.9814C78.0199 23.1316 77.6895 23.3419 77.3967 23.5821C77.1264 23.7923 76.8862 24.0626 76.676 24.3629V23.1391H74.8516V36.443H76.676V28.4622C76.676 27.9216 76.7961 27.4186 77.0063 26.9381C77.2165 26.4576 77.5168 26.0146 77.8697 25.6242C78.2301 25.2338 78.6806 24.9335 79.1235 24.7308C79.604 24.4905 80.1371 24.3704 80.6776 24.3704C81.1882 24.3704 81.7212 24.4905 82.2017 24.7008C83.6958 25.3615 84.6568 26.8555 84.6568 28.4997V36.4805H86.5413L86.4812 28.4997C86.4812 27.6889 86.331 26.9156 86.0307 26.1648C85.7304 25.444 85.2799 24.8209 84.7769 24.2503C84.2363 23.7097 83.6132 23.2668 82.9225 22.9665C82.2017 22.6361 81.4585 22.4859 80.6776 22.4859C80.3173 22.4409 79.9344 22.4709 79.5139 22.5911Z" fill="white"/>
<path d="M88.4252 36.4442H90.2496V23.1404H88.4252V36.4442ZM88.6054 18.1402C88.1549 18.5606 88.1549 19.2738 88.5753 19.7243C88.7856 19.9345 89.0859 20.0546 89.3862 20.0546C89.6865 20.0546 89.9568 19.9345 90.167 19.7243C90.5874 19.2738 90.5874 18.5906 90.167 18.1402C89.9568 17.9299 89.6865 17.8098 89.3862 17.8098C89.0784 17.8098 88.8081 17.9299 88.6054 18.1402Z" fill="white"/>
<path d="M96.0469 23.012C95.2061 23.4024 94.4328 23.9055 93.7721 24.5661C91.7074 26.6909 91.0843 29.8592 92.218 32.607C92.5783 33.4704 93.1114 34.2513 93.7721 34.942C94.4328 35.6027 95.2061 36.1357 96.0469 36.4961C99.6357 38.0202 103.788 36.376 105.319 32.7872C105.349 32.7272 105.379 32.6671 105.409 32.607L105.499 32.3968H103.495C103.254 32.8473 102.954 33.2602 102.601 33.6206C102.121 34.1011 101.528 34.514 100.897 34.7843C100.236 35.0846 99.5531 35.2348 98.8324 35.2047C96.6776 35.1747 94.7331 33.8608 93.8997 31.8863C93.6294 31.2256 93.4793 30.5123 93.4793 29.7616C93.4793 29.0408 93.6294 28.2975 93.8997 27.6368C94.17 26.9761 94.5604 26.383 95.0634 25.9025C96.5875 24.3484 98.8924 23.8679 100.897 24.7388C101.528 25.0091 102.121 25.3995 102.601 25.9025C102.932 26.2629 103.232 26.6834 103.465 27.0963H105.499L105.409 26.9161C103.975 23.2973 99.8759 21.503 96.2572 22.937C96.1971 22.952 96.107 22.982 96.0469 23.012Z" fill="white"/>
<path d="M116.437 23.1145V30.4421C116.437 30.9827 116.317 31.5158 116.106 32.0263C115.896 32.5068 115.626 32.9498 115.243 33.3101C114.883 33.6705 114.432 33.9708 113.989 34.2036C113.006 34.624 111.864 34.624 110.881 34.2036C110.4 33.9934 109.987 33.693 109.627 33.3101C109.237 32.9498 108.966 32.4993 108.764 32.0263C108.553 31.5158 108.433 30.9827 108.433 30.4421V23.1145H106.549V30.4121C106.549 31.223 106.699 31.9963 107.029 32.717C107.33 33.4378 107.75 34.0609 108.283 34.6315C108.824 35.1721 109.447 35.6151 110.138 35.9154C110.858 36.2457 111.602 36.3958 112.382 36.3958C113.163 36.3958 113.937 36.2457 114.657 35.9154C115.348 35.6151 115.971 35.1646 116.512 34.6315C117.052 34.0609 117.465 33.4378 117.766 32.717C118.066 31.9663 118.216 31.1929 118.216 30.4121V23.1145H116.437Z" fill="white"/>
<path d="M122.6 22.7882C122.06 22.9984 121.557 23.3288 121.136 23.7117C120.716 24.072 120.416 24.5225 120.183 25.0255C119.943 25.5361 119.882 26.0991 119.943 26.6397C120.003 27.3304 120.273 27.9536 120.693 28.4941C121.084 28.9746 121.587 29.3575 122.157 29.5978C122.758 29.868 123.381 30.0783 124.042 30.2284C124.612 30.3786 125.175 30.5888 125.716 30.8291C126.136 31.0092 126.467 31.2795 126.73 31.6399C126.97 31.9703 127.06 32.4508 127.06 33.0439C127.03 33.6145 126.76 34.1475 126.339 34.5679C125.919 34.9884 125.296 35.1686 124.425 35.1686C123.764 35.1986 123.141 35.0485 122.57 34.7181C122.15 34.4478 121.819 34.0875 121.587 33.6445C121.407 33.2541 121.316 32.8036 121.316 32.3907H119.492C119.462 33.0814 119.612 33.7346 119.882 34.3653C120.153 34.9058 120.513 35.4089 120.956 35.8293C121.407 36.2197 121.94 36.55 122.51 36.7527C123.081 36.963 123.674 37.0531 124.305 37.0831C124.905 37.0831 125.498 36.993 126.069 36.8428C126.609 36.6627 127.082 36.3924 127.533 36.062C127.953 35.7317 128.314 35.2812 128.547 34.8082C128.817 34.2977 128.937 33.7046 128.907 33.134C128.937 32.4132 128.787 31.7 128.456 31.0693C128.126 30.4987 127.676 30.0257 127.143 29.6954C126.572 29.335 125.979 29.0347 125.318 28.832L123.584 28.2313C123.133 28.0812 122.72 27.871 122.33 27.6007C122 27.3605 121.789 27.0001 121.729 26.6172C121.639 26.1367 121.789 25.6336 122.09 25.2432C122.39 24.8528 122.75 24.5525 123.193 24.3799C123.554 24.2597 123.914 24.1696 124.297 24.1696C124.808 24.1696 125.281 24.3198 125.731 24.5901C126.152 24.8603 126.482 25.2808 126.625 25.7538H128.569C128.509 25.4234 128.389 25.0931 128.239 24.8003C127.998 24.4099 127.728 24.0195 127.428 23.6966C127.067 23.3062 126.617 23.0059 126.144 22.8032C125.573 22.5629 124.95 22.4428 124.32 22.4728C123.734 22.4353 123.133 22.5554 122.6 22.7882Z" fill="white"/>
<path d="M57.088 42.9266H54.9632V44.9312H57.3582V45.5318H54.25V40.0286H57.2081V40.6292H54.9632V42.3635H57.088V42.9266Z" fill="white"/>
<path d="M61.4793 44.4116C61.4793 44.832 61.4794 45.1924 61.5094 45.4852H60.8787L60.8187 44.8245C60.5484 45.305 60.0378 45.5753 59.5048 45.5753C58.9042 45.5753 58.1309 45.2149 58.1309 43.841V41.5361H58.8516V43.7208C58.8516 44.4716 59.0919 44.9747 59.715 44.9747C60.1354 44.9747 60.5259 44.7044 60.6685 44.2839C60.7286 44.1638 60.7286 44.0437 60.7286 43.9236V41.5286H61.4493L61.4793 44.4116Z" fill="white"/>
<path d="M62.6824 42.7724C62.6824 42.2919 62.6824 41.909 62.6523 41.5486H63.283V42.3294H63.313C63.4632 41.8189 63.9137 41.4886 64.4167 41.4661H64.5969V42.1568H64.3867C63.8761 42.1568 63.4932 42.5171 63.4031 43.0502C63.3731 43.1703 63.3731 43.2905 63.3731 43.3806V45.5052H62.6523L62.6824 42.7724Z" fill="white"/>
<path d="M68.8375 43.4868C68.8375 44.9508 67.824 45.6114 66.863 45.6114C65.9095 45.6114 64.9785 44.8006 64.9785 43.5768C64.9785 42.323 65.8419 41.4821 66.923 41.4821C68.0342 41.4596 68.8375 42.293 68.8375 43.4868ZM65.6993 43.5168C65.6993 44.3802 66.2098 45.0408 66.893 45.0408C67.5762 45.0408 68.0868 44.4102 68.0868 43.4868C68.0868 42.5633 67.7564 41.9927 66.893 41.9927C66.0296 41.9927 65.6993 42.7735 65.6993 43.5168Z" fill="white"/>
<path d="M69.7378 42.8616C69.7378 42.3511 69.7078 41.9381 69.7078 41.5777H70.3384V42.2685H70.3685C70.6688 41.7579 71.2093 41.4576 71.7724 41.4877C72.7559 41.4877 73.4467 42.2985 73.4467 43.4922C73.4467 44.686 72.5833 45.617 71.6523 45.617C71.1718 45.647 70.6988 45.4068 70.4285 44.9863H70.3985V47.1411H69.6777L69.7378 42.8616ZM70.451 43.9052C70.451 43.9953 70.4811 44.1154 70.5111 44.2055C70.6312 44.686 71.0817 45.0464 71.5847 45.0464C72.3655 45.0464 72.7785 44.4458 72.7785 43.5223C72.7785 42.5988 72.358 42.0583 71.6148 42.0583C71.1042 42.0883 70.6613 42.4487 70.5411 42.9517C70.5111 43.0418 70.5111 43.1619 70.4811 43.252V43.9127H70.451V43.9052Z" fill="white"/>
<path d="M74.8216 43.6692C74.8216 44.6227 75.4222 45.0431 76.1655 45.0431C76.5259 45.0431 76.9163 44.983 77.2391 44.8329L77.3893 45.3434C76.9688 45.5236 76.5259 45.6137 76.0754 45.5837C74.8516 45.5837 74.1309 44.7728 74.1309 43.5791C74.1309 42.3853 74.8516 41.4543 75.9853 41.4543C77.119 41.4543 77.6295 42.588 77.6295 43.3088C77.6295 43.4289 77.6295 43.549 77.5995 43.6391L74.8216 43.6692ZM76.8787 43.1361C76.9088 42.6856 76.6985 41.9724 75.8952 41.9724C75.0844 41.9724 74.8516 42.6331 74.8216 43.1361H76.8787Z" fill="white"/>
<path d="M79.1825 39.8762C79.0023 40.5369 78.732 41.1901 78.4016 41.7908L77.9512 41.8508C78.1614 41.2201 78.3115 40.567 78.4317 39.9363L79.1825 39.8762Z" fill="white"/>
<path d="M79.3034 44.7807C79.6037 44.9609 79.9341 45.0509 80.2569 45.0509C80.7674 45.0509 81.0077 44.8107 81.0077 44.4503C81.0077 44.12 80.7975 43.9398 80.2869 43.7296C79.7764 43.5193 79.2433 43.0989 79.2433 42.6259C79.2433 42.1529 79.7539 41.4622 80.6173 41.4622C80.9476 41.4622 81.278 41.5523 81.5708 41.7025L81.4206 42.213C81.1804 42.0628 80.8801 41.9727 80.6098 41.9727C80.1893 41.9727 79.9491 42.213 79.9491 42.5133C79.9491 42.8136 80.1893 42.9938 80.6999 43.204C81.2104 43.4143 81.7435 43.8047 81.7435 44.3677C81.7435 44.9383 81.2029 45.5615 80.2794 45.5615C79.889 45.5615 79.4986 45.4714 79.1758 45.2912L79.3034 44.7807Z" fill="white"/>
<path d="M84.7466 43.6692C84.7767 44.6227 85.3773 45.0431 86.1206 45.0431C86.4809 45.0431 86.8713 44.9831 87.1942 44.8329L87.3443 45.3435C86.9239 45.5236 86.4809 45.6137 86.0305 45.5837C84.8067 45.5837 84.0859 44.7729 84.0859 43.5791C84.0859 42.3854 84.8067 41.4544 85.9404 41.4544C87.1041 41.4544 87.5846 42.5881 87.5846 43.3088C87.5846 43.459 87.5545 43.5491 87.5545 43.6392L84.7466 43.6692ZM86.8413 43.1362C86.8713 42.6857 86.6611 41.9724 85.8578 41.9724C85.0544 41.9724 84.8142 42.6331 84.7842 43.1362H86.8413Z" fill="white"/>
<path d="M88.719 41.5481L89.5599 43.883C89.68 44.1533 89.7701 44.4236 89.8302 44.6939H89.8602C89.9203 44.4236 90.0104 44.1533 90.1005 43.883L90.8813 41.5781H91.6621L90.5885 44.386C90.078 45.76 89.7251 46.4207 89.2446 46.8711C89.0043 47.0813 88.674 47.2616 88.3512 47.3216L88.171 46.721C88.4112 46.6309 88.5914 46.5107 88.7716 46.3606C89.0419 46.1504 89.2521 45.8801 89.3722 45.5498C89.4023 45.4897 89.4323 45.4296 89.4323 45.3696C89.4323 45.3095 89.4023 45.2494 89.3722 45.1894L87.9082 41.5706L88.719 41.5481Z" fill="white"/>
<path d="M92.6067 43.6692C92.6067 44.6227 93.2074 45.0431 93.9506 45.0431C94.341 45.0431 94.7014 44.983 95.0543 44.8329L95.1744 45.3434C94.754 45.5236 94.311 45.6137 93.8606 45.5837C92.6368 45.5837 91.916 44.7728 91.916 43.5791C91.916 42.3853 92.6368 41.4543 93.7704 41.4543C94.9041 41.4543 95.4147 42.588 95.4147 43.3088C95.4147 43.4289 95.4147 43.549 95.3846 43.6391L92.6067 43.6692ZM94.7315 43.1361C94.7315 42.6856 94.5212 41.9724 93.7479 41.9724C92.9371 41.9724 92.7043 42.6331 92.6443 43.1361H94.7315Z" fill="white"/>
<path d="M96.1967 44.7806C96.497 44.9608 96.8274 45.0509 97.1502 45.0509C97.6607 45.0509 97.931 44.8106 97.931 44.4503C97.931 44.1199 97.7208 43.9397 97.2103 43.7295C96.6997 43.5193 96.1367 43.0989 96.1367 42.6259C96.1367 42.1529 96.6472 41.4622 97.5106 41.4622C97.8409 41.4622 98.2013 41.5523 98.4941 41.7024L98.3139 42.2129C98.0737 42.0628 97.8034 41.9727 97.5031 41.9727C97.0826 41.9727 96.8424 42.2129 96.8424 42.5132C96.8424 42.8135 97.0827 42.9938 97.5932 43.204C98.1037 43.4142 98.6067 43.8046 98.6067 44.3677C98.6067 44.9383 98.0662 45.5614 97.1427 45.5614C96.7523 45.5614 96.3619 45.4713 96.0391 45.2911L96.1967 44.7806Z" fill="white"/>
<path d="M104.838 43.4863C104.838 44.9503 103.824 45.6109 102.863 45.6109C101.909 45.6109 100.979 44.8001 100.979 43.5763C100.979 42.3225 101.842 41.4816 102.923 41.4816C104.004 41.4816 104.838 42.2925 104.838 43.4863ZM101.699 43.5163C101.699 44.3797 102.21 45.0403 102.893 45.0403C103.576 45.0403 104.087 44.4097 104.087 43.4863C104.087 42.5628 103.756 41.9922 102.893 41.9922C102.06 42.0222 101.699 42.773 101.699 43.5163Z" fill="white"/>
<path d="M105.738 42.6279C105.738 42.2676 105.738 41.9072 105.678 41.5543H106.338V42.1849H106.368C106.639 41.7345 107.149 41.4342 107.682 41.4642C108.223 41.4642 109.056 41.7946 109.056 43.1385V45.5034H108.336V43.1985C108.336 42.5679 108.095 42.0348 107.412 42.0348C106.962 42.0348 106.571 42.3351 106.459 42.7555C106.429 42.8757 106.398 42.9958 106.398 43.0859V45.4809H105.678L105.738 42.6279Z" fill="white"/>
<path d="M114.854 42.9266H112.729V44.9312H115.124V45.5318H112.016V40.0286H114.974V40.6292H112.699V42.3635H114.824V42.9341L114.854 42.9266Z" fill="white"/>
<path d="M118.802 44.5696C118.802 44.8999 118.802 45.2002 118.862 45.5231H118.201L118.141 45.0125H118.111C117.841 45.4029 117.39 45.6132 116.917 45.6132C116.106 45.6132 115.693 45.0426 115.693 44.4795C115.693 43.526 116.557 43.0155 118.088 43.0155V42.9254C118.088 42.595 117.998 42.032 117.195 42.032C116.835 42.032 116.474 42.122 116.151 42.3322L116.001 41.8517C116.392 41.6115 116.842 41.4913 117.285 41.5214C118.509 41.5214 118.809 42.3322 118.809 43.1356V44.5696H118.802ZM118.111 43.4885C117.3 43.4584 116.437 43.6086 116.437 44.3819C116.407 44.7422 116.677 45.0426 117.037 45.0726C117.067 45.0726 117.097 45.0726 117.127 45.0726C117.548 45.1026 117.938 44.8324 118.081 44.4119C118.111 44.3519 118.141 44.2618 118.141 44.1717V43.481H118.111V43.4885Z" fill="white"/>
<path d="M119.966 42.7724C119.966 42.2919 119.936 41.909 119.906 41.5486H120.537V42.3294H120.567C120.717 41.8489 121.168 41.4886 121.671 41.4661H121.881V42.1568H121.641C121.13 42.1568 120.777 42.5171 120.657 43.0502C120.657 43.1703 120.627 43.2905 120.627 43.3806V45.5052H119.906L119.966 42.7724Z" fill="white"/>
<path d="M123.674 40.6223V41.5758H124.718V42.1164H123.674V44.2411C123.674 44.7216 123.824 45.0219 124.215 45.0219C124.365 45.0219 124.485 45.0219 124.635 44.9618L124.695 45.5324C124.485 45.5925 124.275 45.6225 124.065 45.6225C123.764 45.6225 123.494 45.5324 123.254 45.3222C123.044 45.0219 122.953 44.6315 122.983 44.2786V42.1239H122.383V41.5833H122.983V40.8325L123.674 40.6223Z" fill="white"/>
<path d="M125.529 39.6965H126.25V42.1816H126.28C126.4 41.9714 126.58 41.7912 126.791 41.6711C127.031 41.5209 127.271 41.4609 127.541 41.4609C128.052 41.4609 128.915 41.7912 128.915 43.1351V45.5001H128.195V43.2552C128.195 42.6246 127.954 42.0915 127.271 42.0915C126.821 42.1216 126.46 42.3919 126.318 42.8123C126.288 42.9324 126.258 43.0526 126.258 43.1426V45.5376H125.537L125.529 39.6965Z" fill="white"/>
<path d="M135.787 22.8134C135.787 34.6482 145.278 44.2434 156.985 44.2434C160.372 44.2434 163.527 43.458 166.365 42.0281C166.365 42.0281 166.419 42.001 166.389 41.9469C166.365 41.8981 166.311 41.9252 166.311 41.9252C164.13 42.7918 161.801 43.2495 159.317 43.2495C148.657 43.2495 140.019 34.4885 140.019 23.6773C140.019 12.8661 148.657 4.10508 159.317 4.10508C166.882 4.10508 173.424 8.48154 176.589 14.9081C176.589 14.9081 176.619 14.9677 176.665 14.9487C176.716 14.9298 176.689 14.8729 176.689 14.8729C173.578 6.9487 165.932 1.38603 156.985 1.38603C145.278 1.38603 135.787 10.9785 135.787 22.8134Z" fill="white"/>
<path d="M159.611 13.1645C159.722 12.9749 159.825 12.7853 159.969 12.612C160.101 12.4306 160.259 12.2681 160.421 12.1083C160.592 11.9621 160.768 11.8131 160.963 11.694C161.15 11.5613 161.358 11.4584 161.569 11.3636L161.894 11.2363L162.233 11.1388C162.46 11.0874 162.693 11.0386 162.931 11.0251C163.167 10.998 163.408 11.0034 163.649 11.0197L164.007 11.063L164.361 11.1415C164.594 11.2065 164.833 11.2742 165.052 11.3771C165.279 11.4692 165.491 11.5938 165.705 11.7184C165.832 11.805 165.889 11.8375 165.997 11.9215C166.1 12.0027 166.206 12.0867 166.295 12.1706C166.482 12.3358 166.65 12.5227 166.807 12.7176C167.43 13.503 167.811 14.4996 167.83 15.5259L166.983 14.7894C168.006 14.616 169.087 14.7433 170.056 15.1604C170.298 15.266 170.53 15.3905 170.755 15.5287L170.92 15.637L171.002 15.6911L171.102 15.7697L171.367 15.9755C171.551 16.138 171.798 16.3546 171.958 16.5496C172.136 16.7446 172.291 16.9612 172.44 17.1806C172.578 17.4054 172.719 17.6329 172.821 17.8766C172.938 18.1149 173.022 18.3668 173.103 18.6186C173.171 18.8759 173.239 19.1332 173.268 19.3958C173.312 19.6558 173.317 19.9239 173.328 20.1866C173.317 20.452 173.312 20.7174 173.266 20.9774C173.236 21.2401 173.16 21.4973 173.095 21.7519C173.008 22.001 172.924 22.2529 172.805 22.4885C172.702 22.7322 172.556 22.9516 172.423 23.1791L172.264 22.1039C172.394 22.2258 172.521 22.3504 172.632 22.4912C172.743 22.6293 172.849 22.7755 172.932 22.9326C173.109 23.2413 173.23 23.5771 173.298 23.9211C173.363 24.2677 173.371 24.6198 173.322 24.9664C173.301 25.1397 173.26 25.3103 173.209 25.4755C173.16 25.6434 173.09 25.8032 173.016 25.9603C172.935 26.1146 172.849 26.2636 172.743 26.4017L172.705 26.4531L172.681 26.4856L172.673 26.4938L172.656 26.5127L172.591 26.5885C172.548 26.6373 172.467 26.7213 172.404 26.7863C172.155 27.0273 171.868 27.2195 171.562 27.3658C170.947 27.6582 170.246 27.726 169.599 27.5879L170.292 27.0381C170.222 27.7124 169.962 28.3543 169.564 28.8796L169.488 28.9771C169.434 29.0448 169.431 29.0421 169.401 29.0773L169.258 29.2344C169.138 29.3454 169.008 29.4808 168.876 29.5702C168.746 29.6677 168.61 29.7571 168.47 29.8329C168.334 29.9168 168.18 29.971 168.036 30.0387C167.885 30.0874 167.738 30.147 167.584 30.1768C167.432 30.2174 167.278 30.2391 167.124 30.2553C166.969 30.2716 166.812 30.2716 166.661 30.2635C166.506 30.2526 166.355 30.2418 166.206 30.2093C166.054 30.1876 165.91 30.1362 165.767 30.0983C165.626 30.0414 165.485 29.9981 165.355 29.9222C165.223 29.8572 165.095 29.7787 164.976 29.6948C164.852 29.6189 164.749 29.5106 164.638 29.4212C164.77 29.4808 164.892 29.554 165.028 29.5973C165.158 29.6514 165.29 29.6948 165.428 29.7246C165.561 29.7652 165.702 29.7733 165.835 29.8004C165.973 29.8085 166.105 29.8275 166.241 29.8193C166.509 29.822 166.774 29.7679 167.026 29.7029C167.153 29.665 167.275 29.6298 167.394 29.5729C167.516 29.5296 167.625 29.4591 167.738 29.4023C167.844 29.3292 167.955 29.2696 168.05 29.1829C168.15 29.1071 168.242 29.0204 168.326 28.9311C168.418 28.8417 168.475 28.7605 168.556 28.6657L168.678 28.4896C168.692 28.4707 168.735 28.4111 168.724 28.4219L168.77 28.3434C169.011 27.9183 169.128 27.4416 169.114 26.9758L169.098 26.3476L169.807 26.4261C170.208 26.4694 170.62 26.3854 170.953 26.1823C171.118 26.0821 171.27 25.9576 171.389 25.814L171.467 25.7138L171.524 25.6326L171.538 25.6109L171.546 25.6001L171.549 25.5947C171.516 25.6353 171.541 25.6055 171.532 25.6136V25.6109L171.549 25.5784C171.597 25.4972 171.641 25.4133 171.679 25.3293C171.711 25.2426 171.746 25.156 171.765 25.0639C171.787 24.9745 171.803 24.8825 171.809 24.7904C171.822 24.6062 171.806 24.4221 171.763 24.2461C171.717 24.07 171.641 23.9021 171.543 23.7532C171.497 23.6773 171.438 23.6096 171.381 23.5419C171.321 23.4742 171.253 23.4201 171.186 23.3605L170.698 22.9218L171.026 22.2854C171.11 22.1202 171.213 21.9658 171.278 21.7925C171.359 21.6273 171.408 21.4486 171.465 21.2752C171.503 21.0938 171.551 20.9178 171.568 20.7336C171.6 20.5522 171.597 20.3681 171.608 20.1839C171.597 19.9998 171.595 19.8156 171.559 19.6369C171.541 19.4527 171.484 19.2767 171.443 19.098C171.386 18.9246 171.332 18.7486 171.251 18.5834C171.183 18.4128 171.083 18.2557 170.993 18.0986C170.893 17.947 170.788 17.7953 170.666 17.6572C170.544 17.5002 170.452 17.4216 170.308 17.2781L170.048 17.0642L170.016 17.0371L170 17.0235L169.997 17.0208C169.967 16.9992 170.035 17.0506 170.027 17.0452H170.024L170.016 17.0398L169.959 16.9992L169.845 16.9206C169.691 16.8177 169.528 16.7283 169.366 16.6417C168.705 16.3086 167.939 16.1705 167.186 16.2517L166.317 16.3465L166.338 15.5151C166.357 14.8056 166.187 14.0717 165.78 13.457C165.677 13.3053 165.569 13.1564 165.442 13.021C165.38 12.9478 165.317 12.8937 165.26 12.8314C165.206 12.7745 165.087 12.677 165.041 12.6337C164.892 12.52 164.746 12.4008 164.578 12.3087C164.418 12.2031 164.242 12.13 164.066 12.0542L163.795 11.9567L163.514 11.8836C163.324 11.8484 163.132 11.8023 162.934 11.7942C162.736 11.7725 162.539 11.7834 162.338 11.7915L162.038 11.8267L161.743 11.889C161.548 11.9404 161.345 11.9892 161.158 12.0731C160.963 12.1435 160.781 12.2464 160.597 12.3466C160.424 12.4631 160.24 12.5741 160.08 12.7122C159.915 12.8476 159.766 13.0155 159.611 13.1645Z" fill="white"/>
<path d="M150.396 10.1497V38.164C152.37 39.0681 154.947 40.0787 157.215 40.3446V10.1573H150.396V10.1497ZM151.962 12.2164C151.579 12.2164 151.269 11.9277 151.269 11.5705C151.269 11.2134 151.579 10.9247 151.962 10.9247C152.346 10.9247 152.656 11.2134 152.656 11.5705C152.656 11.9277 152.346 12.2164 151.962 12.2164ZM156.628 37.3661H153.43V36.1657H156.628V37.3661ZM155.135 34.1597V33.362H156.628V34.1597H155.135ZM156.628 31.356H153.43V30.1555H156.628V31.356ZM155.135 28.1496V27.3518H156.628V28.1496H155.135ZM156.628 25.3459H153.43V24.1454H156.628V25.3459ZM155.135 22.1395V21.3417H156.628V22.1395H155.135ZM156.628 19.3358H153.43V18.1353H156.628V19.3358ZM155.135 16.1294V15.3316H156.628V16.1294H155.135ZM156.628 13.3181H153.43V12.1176H156.628V13.3181Z" fill="white"/>
<path d="M178.172 25.9569V18.3801H179.423V25.9569H178.172Z" fill="white"/>
<path d="M184.712 25.9505H183.523V23.1486C183.523 22.5882 183.5 22.212 183.453 22.0278C183.407 21.8435 183.323 21.6977 183.2 21.5979C183.077 21.4981 182.939 21.4444 182.786 21.4444C182.586 21.4444 182.402 21.5058 182.241 21.6363C182.079 21.7668 181.964 21.9433 181.903 22.1736C181.834 22.4039 181.803 22.8338 181.803 23.4633V25.9505H180.605V20.4618H181.711V21.2601C181.91 20.9531 182.125 20.7151 182.379 20.5616C182.624 20.4081 182.901 20.3313 183.2 20.3313C183.546 20.3313 183.845 20.4234 184.083 20.6C184.321 20.7842 184.49 21.0145 184.582 21.2985C184.674 21.5825 184.72 21.9971 184.72 22.5345V25.9505H184.712Z" fill="white"/>
<path d="M188.021 23.4787L189.25 23.3328C189.388 24.3001 189.841 24.7837 190.601 24.7837C190.977 24.7837 191.276 24.6839 191.499 24.4843C191.714 24.2847 191.821 24.039 191.821 23.7473C191.821 23.5784 191.783 23.425 191.706 23.3098C191.629 23.187 191.514 23.0872 191.361 23.0104C191.207 22.9336 190.831 22.8031 190.232 22.6189C189.695 22.4577 189.303 22.2811 189.058 22.0892C188.812 21.8973 188.613 21.6517 188.467 21.3446C188.321 21.0376 188.244 20.7074 188.244 20.3543C188.244 19.9398 188.336 19.5713 188.528 19.2412C188.72 18.9111 188.973 18.6578 189.303 18.4889C189.634 18.3201 190.04 18.2356 190.532 18.2356C191.261 18.2356 191.829 18.4352 192.244 18.8267C192.65 19.2259 192.873 19.7863 192.896 20.5232L191.637 20.5923C191.583 20.1854 191.461 19.9014 191.284 19.7402C191.107 19.579 190.839 19.4946 190.501 19.4946C190.163 19.4946 189.902 19.5637 189.718 19.7095C189.534 19.8477 189.442 20.0243 189.442 20.2315C189.442 20.4388 189.526 20.6077 189.687 20.7535C189.856 20.8917 190.232 21.0452 190.831 21.2218C191.461 21.406 191.913 21.5979 192.198 21.7975C192.482 21.9971 192.689 22.2581 192.842 22.5805C192.988 22.9029 193.065 23.2868 193.065 23.7397C193.065 24.3999 192.865 24.9526 192.459 25.3978C192.052 25.843 191.422 26.0733 190.562 26.0733C189.042 26.081 188.198 25.2136 188.021 23.4787Z" fill="white"/>
<path d="M194.123 19.7235V18.3801H195.313V19.7235H194.123ZM194.123 25.9569V20.4682H195.313V25.9569H194.123Z" fill="white"/>
<path d="M198.591 20.4533V21.6125H197.778V23.831C197.778 24.3069 197.793 24.5909 197.816 24.66C197.862 24.7982 197.962 24.8673 198.108 24.8673C198.215 24.8673 198.376 24.8212 198.584 24.7291L198.684 25.8575C198.407 26.0034 198.092 26.0725 197.747 26.0725C197.44 26.0725 197.202 26.0034 197.018 25.8575C196.834 25.7117 196.711 25.5044 196.649 25.2281C196.603 25.0285 196.58 24.6216 196.58 24.0075V21.6125H196.035V20.4533H196.58V19.3632L197.77 18.5188V20.4533H198.591Z" fill="white"/>
<path d="M202.377 25.9491V25.1277C202.216 25.4271 201.993 25.6573 201.724 25.8262C201.456 25.9951 201.179 26.0795 200.88 26.0795C200.588 26.0795 200.32 26.0028 200.089 25.8493C199.859 25.6957 199.682 25.4731 199.567 25.189C199.452 24.905 199.398 24.4905 199.398 23.9455V20.468H200.588V22.9936C200.588 23.7152 200.604 24.1681 200.642 24.3677C200.68 24.5596 200.757 24.7131 200.88 24.8206C201.003 24.9281 201.156 24.9818 201.325 24.9818C201.525 24.9818 201.709 24.9127 201.878 24.7745C202.047 24.6364 202.154 24.4521 202.208 24.2372C202.262 24.0222 202.285 23.5386 202.285 22.794V20.4757H203.475V25.9644H202.377V25.9491Z" fill="white"/>
<path d="M162.919 26.174L163.431 40.3157H161.27L161.781 24.8416V18.8539L162.919 26.174Z" fill="white"/>
<path d="M162.896 27.8372L162.1 27.0822L166.483 22.4426L162.896 27.8372Z" fill="white"/>
</svg>
