<svg width="233" height="45" viewBox="0 0 233 45" fill="none" xmlns="http://www.w3.org/2000/svg">
<path d="M125.645 21.3217C125.645 32.8163 134.758 42.1353 145.991 42.1353C149.241 42.1353 152.266 41.3696 154.993 39.9876C154.993 39.9876 155.049 39.9596 155.011 39.9129C154.993 39.8662 154.937 39.8849 154.937 39.8849C152.845 40.7253 150.604 41.1735 148.223 41.1735C137.998 41.1735 129.697 32.6669 129.697 22.1621C129.697 11.6573 137.989 3.15076 148.223 3.15076C155.478 3.15076 161.762 7.39936 164.797 13.6462C164.797 13.6462 164.825 13.7022 164.872 13.6836C164.918 13.6649 164.89 13.6089 164.89 13.6089C161.902 5.9147 154.563 0.508198 145.972 0.508198C134.758 0.517536 125.645 9.83647 125.645 21.3217Z" fill="white"/>
<path d="M150.737 28.4688L151.045 27.2269L151.222 27.3016C150.092 25.0233 150.709 22.4087 150.737 22.2873L151.045 21.0454L151.222 21.1201C150.092 18.8418 150.709 16.2272 150.737 16.1058L151.045 14.8639L152.212 15.3495C152.38 15.4149 152.557 15.4989 152.735 15.5923V10.69H146.497V31.102H145.237V19.9623H143.715V16.2832H138.243V31.102H136.982V23.716H135.442V16.2459H131.781C131.146 18.0948 130.801 20.0837 130.801 22.1566C130.801 25.9944 131.987 29.552 133.994 32.4653H150.83C150.26 30.5044 150.718 28.5716 150.737 28.4688Z" fill="white"/>
<path d="M156.16 35.4712C150.324 34.7429 151.799 28.7294 151.799 28.7294C151.799 28.7294 157.01 30.8864 156.16 35.4712Z" fill="white"/>
<path d="M157.193 35.4712C163.029 34.7429 161.554 28.7294 161.554 28.7294C161.554 28.7294 156.344 30.8864 157.193 35.4712Z" fill="white"/>
<path d="M156.16 29.2993C150.324 28.571 151.799 22.5576 151.799 22.5576C151.799 22.5576 157.01 24.7146 156.16 29.2993Z" fill="white"/>
<path d="M157.193 29.2993C163.029 28.571 161.554 22.5576 161.554 22.5576C161.554 22.5576 156.344 24.7146 157.193 29.2993Z" fill="white"/>
<path d="M156.16 23.1294C150.324 22.4011 151.799 16.3876 151.799 16.3876C151.799 16.3876 157.01 18.5446 156.16 23.1294Z" fill="white"/>
<path d="M157.193 23.1294C163.029 22.4011 161.554 16.3876 161.554 16.3876C161.554 16.3876 156.344 18.5446 157.193 23.1294Z" fill="white"/>
<path d="M156.673 18.6274C160.847 14.0333 156.673 10.7092 156.673 10.7092C156.673 10.7092 152.5 14.0333 156.673 18.6274Z" fill="white"/>
<path d="M168.619 22.669V15.438H169.822V21.4364H172.825V22.669H168.619Z" fill="white"/>
<path d="M174.484 18.9894L173.445 18.7578C173.572 18.22 173.782 17.839 174.073 17.6075C174.364 17.3759 174.782 17.2563 175.32 17.2563C175.806 17.2563 176.172 17.3236 176.433 17.4581C176.687 17.5925 176.874 17.7793 176.979 18.0108C177.091 18.2424 177.143 18.6682 177.143 19.2882L177.136 20.9242C177.136 21.3799 177.151 21.7235 177.188 21.9476C177.225 22.1717 177.292 22.4107 177.39 22.6647H176.254L176.105 22.0895C175.91 22.3211 175.701 22.4929 175.477 22.6124C175.253 22.732 175.014 22.7917 174.76 22.7917C174.342 22.7917 173.991 22.6498 173.722 22.3659C173.453 22.082 173.318 21.7011 173.318 21.2304C173.318 20.9316 173.371 20.6702 173.483 20.4461C173.595 20.222 173.744 20.0427 173.946 19.9157C174.148 19.7813 174.461 19.6617 174.902 19.5646C175.432 19.4451 175.806 19.3256 176.015 19.221C176.015 18.9297 175.993 18.7355 175.955 18.6458C175.918 18.5562 175.836 18.4815 175.724 18.4217C175.612 18.362 175.455 18.332 175.253 18.332C175.044 18.332 174.887 18.3769 174.768 18.474C174.648 18.5636 174.551 18.7354 174.484 18.9894ZM176.015 20.1324C175.866 20.1921 175.642 20.2593 175.335 20.3415C174.984 20.4311 174.745 20.5357 174.641 20.6478C174.529 20.7598 174.476 20.9092 174.476 21.0885C174.476 21.2902 174.536 21.462 174.656 21.5965C174.775 21.731 174.924 21.8056 175.111 21.8056C175.276 21.8056 175.432 21.7534 175.597 21.6413C175.754 21.5293 175.866 21.3948 175.925 21.2454C175.985 21.096 176.015 20.8121 176.015 20.4087V20.1324Z" fill="white"/>
<path d="M182.149 22.669H180.998V19.9722C180.998 19.4269 180.976 19.0684 180.931 18.8891C180.886 18.7098 180.804 18.5753 180.692 18.4782C180.58 18.3811 180.438 18.3363 180.289 18.3363C180.094 18.3363 179.923 18.396 179.766 18.523C179.609 18.65 179.497 18.8218 179.437 19.0385C179.377 19.2551 179.34 19.6735 179.34 20.2785V22.6764H178.189V17.3951H179.258V18.1645C179.444 17.8657 179.661 17.6416 179.9 17.4922C180.139 17.3428 180.401 17.2681 180.692 17.2681C181.028 17.2681 181.312 17.3577 181.544 17.5295C181.775 17.7014 181.932 17.9254 182.022 18.2018C182.111 18.4782 182.156 18.8742 182.156 19.3896L182.149 22.669Z" fill="white"/>
<path d="M187.228 22.6663H186.167V21.8894C185.988 22.1882 185.786 22.4123 185.547 22.5617C185.308 22.7111 185.062 22.7858 184.808 22.7858C184.322 22.7858 183.904 22.5468 183.538 22.0612C183.179 21.5757 183 20.8884 183 19.992C183 19.0881 183.172 18.4083 183.523 17.9452C183.874 17.4821 184.307 17.2579 184.823 17.2579C185.062 17.2579 185.293 17.3177 185.502 17.4447C185.712 17.5642 185.906 17.751 186.078 17.9975V15.3755H187.228V22.6663ZM184.173 19.9098C184.173 20.3879 184.21 20.7465 184.292 20.9781C184.375 21.2096 184.487 21.3889 184.636 21.5084C184.785 21.6279 184.957 21.6877 185.144 21.6877C185.398 21.6877 185.615 21.5532 185.801 21.2768C185.988 21.0079 186.078 20.5896 186.078 20.0443C186.078 19.4317 185.988 18.9985 185.809 18.7295C185.629 18.4606 185.398 18.3262 185.122 18.3262C184.86 18.3262 184.628 18.4606 184.449 18.7221C184.262 18.9835 184.173 19.3795 184.173 19.9098Z" fill="white"/>
<path d="M190.551 22.6663V15.3755H192.359L193.449 20.358L194.525 15.3755H196.34V22.6663H195.22V16.9218L194.024 22.6663H192.859L191.679 16.9218V22.6663H190.551Z" fill="white"/>
<path d="M197.191 19.9531C197.191 19.4376 197.296 18.9595 197.498 18.5337C197.707 18.108 197.976 17.7868 198.304 17.5776C198.633 17.3684 199.007 17.2563 199.425 17.2563C200.12 17.2563 200.672 17.5328 201.068 18.0781C201.464 18.6234 201.666 19.2658 201.666 19.9979C201.666 20.5432 201.561 21.0362 201.352 21.477C201.143 21.9177 200.874 22.2464 200.538 22.463C200.202 22.6871 199.828 22.7917 199.432 22.7917C198.79 22.7917 198.252 22.5452 197.826 22.0522C197.401 21.5591 197.191 20.857 197.191 19.9531ZM198.364 20.0278C198.364 20.5656 198.469 20.969 198.678 21.2454C198.887 21.5218 199.141 21.6562 199.44 21.6562C199.731 21.6562 199.978 21.5218 200.179 21.2454C200.389 20.969 200.493 20.5581 200.493 20.0203C200.493 19.4974 200.389 19.094 200.179 18.8176C199.97 18.5412 199.716 18.4068 199.425 18.4068C199.134 18.4068 198.887 18.5412 198.678 18.8176C198.469 19.0865 198.364 19.4899 198.364 20.0278Z" fill="white"/>
<path d="M206.447 22.669H205.297V19.9722C205.297 19.4269 205.275 19.0684 205.23 18.8891C205.185 18.7098 205.103 18.5753 204.991 18.4782C204.871 18.3811 204.737 18.3363 204.587 18.3363C204.393 18.3363 204.221 18.396 204.064 18.523C203.908 18.65 203.796 18.8218 203.736 19.0385C203.676 19.2551 203.639 19.6735 203.639 20.2785V22.6764H202.488V17.3951H203.557V18.1645C203.743 17.8657 203.96 17.6416 204.199 17.4922C204.438 17.3428 204.699 17.2681 204.991 17.2681C205.327 17.2681 205.611 17.3577 205.842 17.5295C206.074 17.7014 206.231 17.9254 206.32 18.2018C206.41 18.4782 206.455 18.8742 206.455 19.3896L206.447 22.669Z" fill="white"/>
<path d="M207.545 16.6678V15.3755H208.695V16.6678H207.545ZM207.545 22.6663V17.3849H208.695V22.6663H207.545Z" fill="white"/>
<path d="M211.789 17.3801V18.4931H211.005V20.6295C211.005 21.0927 211.02 21.3616 211.042 21.4288C211.087 21.5633 211.184 21.6305 211.326 21.6305C211.431 21.6305 211.588 21.5857 211.782 21.4961L211.879 22.5792C211.61 22.7211 211.311 22.7884 210.975 22.7884C210.684 22.7884 210.452 22.7211 210.273 22.5792C210.094 22.4373 209.982 22.2356 209.922 21.9741C209.877 21.7799 209.855 21.3915 209.855 20.8013V18.4931H209.324V17.3801H209.855V16.3342L211.005 15.52V17.3875L211.789 17.3801Z" fill="white"/>
<path d="M212.26 19.9531C212.26 19.4376 212.364 18.9595 212.566 18.5337C212.768 18.108 213.037 17.7868 213.373 17.5776C213.701 17.3684 214.075 17.2563 214.493 17.2563C215.188 17.2563 215.741 17.5328 216.137 18.0781C216.533 18.6234 216.734 19.2658 216.734 19.9979C216.734 20.5432 216.63 21.0362 216.421 21.477C216.211 21.9177 215.943 22.2464 215.606 22.463C215.27 22.6871 214.897 22.7917 214.501 22.7917C213.858 22.7917 213.321 22.5452 212.895 22.0522C212.469 21.5591 212.26 20.857 212.26 19.9531ZM213.44 20.0278C213.44 20.5656 213.545 20.969 213.754 21.2454C213.963 21.5218 214.217 21.6562 214.516 21.6562C214.807 21.6562 215.054 21.5218 215.255 21.2454C215.464 20.969 215.562 20.5581 215.562 20.0203C215.562 19.4974 215.457 19.094 215.248 18.8176C215.039 18.5412 214.785 18.4068 214.493 18.4068C214.202 18.4068 213.955 18.5412 213.746 18.8176C213.537 19.0865 213.44 19.4899 213.44 20.0278Z" fill="white"/>
<path d="M218.676 22.669H217.525V17.3876H218.594V18.1421C218.773 17.791 218.937 17.5594 219.087 17.4399C219.229 17.3204 219.4 17.2681 219.587 17.2681C219.849 17.2681 220.103 17.3577 220.342 17.5295L219.983 18.7472C219.796 18.5978 219.617 18.5156 219.445 18.5156C219.288 18.5156 219.146 18.5754 219.027 18.6949C218.907 18.8144 218.818 19.0236 218.765 19.3373C218.713 19.6436 218.683 20.2113 218.683 21.0405V22.669H218.676Z" fill="white"/>
<path d="M220.76 16.6678V15.3755H221.91V16.6678H220.76ZM220.76 22.6663V17.3849H221.91V22.6663H220.76Z" fill="white"/>
<path d="M226.967 22.669H225.817V19.9722C225.817 19.4269 225.794 19.0684 225.749 18.8891C225.705 18.7098 225.622 18.5753 225.51 18.4782C225.391 18.3811 225.256 18.3363 225.107 18.3363C224.913 18.3363 224.741 18.396 224.584 18.523C224.427 18.65 224.315 18.8218 224.255 19.0385C224.196 19.2551 224.158 19.6735 224.158 20.2785V22.6764H223.008V17.3951H224.076V18.1645C224.263 17.8657 224.479 17.6416 224.718 17.4922C224.958 17.3428 225.219 17.2681 225.51 17.2681C225.846 17.2681 226.13 17.3577 226.362 17.5295C226.593 17.7014 226.75 17.9254 226.84 18.2018C226.93 18.4782 226.974 18.8742 226.974 19.3896L226.967 22.669Z" fill="white"/>
<path d="M227.962 23.0158L229.276 23.21C229.299 23.4043 229.358 23.5387 229.456 23.6209C229.56 23.703 229.717 23.7404 229.934 23.7404C230.188 23.7404 230.389 23.6956 230.546 23.6134C230.658 23.5536 230.74 23.4566 230.8 23.3146C230.86 23.1727 230.89 22.9337 230.89 22.5751V21.8056C230.718 22.0895 230.524 22.3061 230.307 22.4481C230.091 22.59 229.851 22.6647 229.59 22.6647C229.112 22.6647 228.701 22.4481 228.372 22.0148C227.991 21.5143 227.805 20.842 227.805 19.9904C227.805 19.0865 227.984 18.4068 228.343 17.9436C228.701 17.4805 229.134 17.2563 229.635 17.2563C229.904 17.2563 230.15 17.3311 230.367 17.473C230.584 17.6149 230.785 17.8316 230.957 18.1229V17.3834H232.033V22.1269C232.033 22.8888 231.966 23.4341 231.824 23.7778C231.682 24.1214 231.472 24.3754 231.181 24.5546C230.89 24.7264 230.486 24.8161 229.978 24.8161C229.5 24.8161 229.127 24.7564 228.836 24.6294C228.552 24.5024 228.335 24.3156 228.178 24.0616C228.029 23.8151 227.954 23.5238 227.954 23.1951L227.962 23.0158ZM228.985 19.9157C228.985 20.4835 229.075 20.8943 229.254 21.1483C229.433 21.4097 229.65 21.5367 229.911 21.5367C230.188 21.5367 230.419 21.4023 230.621 21.1408C230.815 20.8793 230.912 20.476 230.912 19.9456C230.912 19.3928 230.823 18.9894 230.628 18.7205C230.442 18.459 230.21 18.3246 229.934 18.3246C229.665 18.3246 229.433 18.4516 229.254 18.713C229.075 18.9745 228.985 19.3779 228.985 19.9157Z" fill="white"/>
<path d="M168.283 30.2261L169.463 30.0841C169.598 31.0179 170.031 31.481 170.763 31.481C171.129 31.481 171.413 31.3839 171.622 31.1972C171.831 31.0104 171.936 30.7714 171.936 30.4875C171.936 30.3231 171.899 30.1812 171.824 30.0617C171.749 29.9496 171.637 29.8525 171.488 29.7778C171.338 29.7031 170.98 29.5761 170.405 29.4043C169.889 29.2474 169.516 29.0831 169.277 28.8964C169.038 28.7171 168.851 28.4781 168.709 28.1793C168.567 27.8805 168.5 27.5667 168.5 27.2231C168.5 26.8272 168.589 26.4686 168.769 26.1474C168.948 25.8262 169.202 25.5871 169.516 25.4228C169.837 25.2585 170.225 25.1763 170.696 25.1763C171.398 25.1763 171.951 25.3705 172.339 25.7515C172.735 26.1325 172.945 26.6778 172.967 27.3874L171.757 27.4546C171.704 27.0662 171.592 26.7898 171.413 26.6329C171.241 26.4761 170.987 26.4014 170.659 26.4014C170.33 26.4014 170.083 26.4686 169.904 26.603C169.732 26.7375 169.643 26.9093 169.643 27.111C169.643 27.3127 169.725 27.4771 169.882 27.6115C170.039 27.746 170.405 27.8954 170.98 28.0597C171.585 28.239 172.026 28.4183 172.295 28.6125C172.564 28.8067 172.773 29.0532 172.915 29.367C173.057 29.6732 173.131 30.0468 173.131 30.4875C173.131 31.1224 172.937 31.6528 172.549 32.0861C172.16 32.5194 171.548 32.736 170.718 32.736C169.262 32.7285 168.448 31.8919 168.283 30.2261Z" fill="white"/>
<path d="M176.611 30.9234L177.747 31.1549C177.597 31.6853 177.358 32.0812 177.037 32.3352C176.716 32.5892 176.32 32.7236 175.864 32.7236C175.222 32.7236 174.729 32.507 174.378 32.0812C173.967 31.5807 173.758 30.886 173.758 29.9896C173.758 29.1081 173.967 28.3985 174.378 27.8681C174.729 27.4199 175.185 27.1958 175.745 27.1958C176.365 27.1958 176.85 27.4274 177.202 27.883C177.605 28.4059 177.807 29.1828 177.807 30.2062L177.799 30.3631H174.931C174.938 30.7814 175.028 31.1101 175.214 31.3342C175.401 31.5583 175.618 31.6779 175.872 31.6779C176.238 31.6779 176.484 31.4239 176.611 30.9234ZM176.671 29.504C176.664 29.0932 176.574 28.7794 176.41 28.5703C176.245 28.3611 176.044 28.2565 175.82 28.2565C175.581 28.2565 175.371 28.3611 175.207 28.5777C175.035 28.7944 174.953 29.1006 174.96 29.4966H176.671V29.504Z" fill="white"/>
<path d="M179.779 32.5967H178.629V27.3153H179.697V28.0698C179.876 27.7187 180.041 27.4871 180.19 27.3676C180.332 27.2481 180.504 27.1958 180.691 27.1958C180.952 27.1958 181.206 27.2854 181.445 27.4572L181.087 28.6749C180.9 28.5255 180.721 28.4433 180.549 28.4433C180.392 28.4433 180.25 28.503 180.13 28.6226C180.011 28.7421 179.921 28.9512 179.869 29.265C179.817 29.5713 179.787 30.139 179.787 30.9682V32.5967H179.779Z" fill="white"/>
<path d="M183.066 32.5982L181.311 27.3169H182.513L183.335 30.0136L183.574 30.91L183.813 30.0136L184.642 27.3169H185.815L184.089 32.5982H183.066Z" fill="white"/>
<path d="M186.451 26.6014V25.3091H187.602V26.6014H186.451ZM186.451 32.5999V27.3185H187.602V32.5999H186.451Z" fill="white"/>
<path d="M192.494 28.8684L191.366 29.1149C191.284 28.5621 191.023 28.2857 190.582 28.2857C190.298 28.2857 190.067 28.4052 189.895 28.6443C189.723 28.8833 189.633 29.2868 189.633 29.8545C189.633 30.482 189.723 30.9301 189.895 31.1841C190.067 31.4456 190.298 31.5726 190.59 31.5726C190.806 31.5726 190.985 31.4979 191.12 31.3485C191.262 31.1991 191.359 30.9376 191.419 30.5641L192.547 30.7957C192.315 32.0656 191.65 32.708 190.545 32.708C189.835 32.708 189.312 32.4391 188.969 31.9013C188.625 31.3634 188.453 30.7135 188.453 29.959C188.453 29.0551 188.647 28.3605 189.036 27.8898C189.424 27.4192 189.932 27.1802 190.56 27.1802C191.068 27.1802 191.478 27.3146 191.8 27.5835C192.128 27.8599 192.36 28.2858 192.494 28.8684Z" fill="white"/>
<path d="M195.819 30.9234L196.962 31.1549C196.812 31.6853 196.573 32.0812 196.252 32.3352C195.931 32.5892 195.535 32.7236 195.079 32.7236C194.437 32.7236 193.944 32.507 193.593 32.0812C193.182 31.5807 192.973 30.886 192.973 29.9896C192.973 29.1081 193.182 28.3985 193.593 27.8681C193.944 27.4199 194.399 27.1958 194.952 27.1958C195.572 27.1958 196.058 27.4274 196.409 27.883C196.812 28.4059 197.014 29.1828 197.014 30.2062L197.006 30.3631H194.138C194.145 30.7814 194.235 31.1101 194.422 31.3342C194.609 31.5583 194.825 31.6779 195.079 31.6779C195.453 31.6779 195.699 31.4239 195.819 30.9234ZM195.879 29.504C195.871 29.0932 195.781 28.7794 195.617 28.5703C195.453 28.3611 195.251 28.2565 195.027 28.2565C194.788 28.2565 194.579 28.3611 194.414 28.5777C194.243 28.7944 194.16 29.1006 194.168 29.4966H195.879V29.504Z" fill="white"/>
<path d="M0.513672 21.1323C0.513672 32.5176 9.64146 41.7293 20.9149 41.7293C24.0321 41.7293 27.1212 41.0024 29.9309 39.5836C29.9309 39.5836 29.9868 39.5557 29.9588 39.4998C29.9588 39.4718 29.9309 39.4718 29.9029 39.4718C27.7573 40.3315 25.4788 40.7788 23.1654 40.7508C12.9194 40.7508 4.60231 32.3149 4.60231 21.9361C4.60231 11.5573 12.9263 3.12141 23.1654 3.12141C30.2384 3.12141 36.6963 7.15411 39.7855 13.5002C39.7855 13.5002 39.8135 13.5562 39.8694 13.5282C39.8974 13.5282 39.8974 13.5002 39.8974 13.4723C36.8361 5.65147 29.3228 0.528445 20.9429 0.500488C9.64146 0.535434 0.513672 9.77502 0.513672 21.1323Z" fill="white"/>
<path d="M78.0292 25.5601C77.7287 24.7983 77.1276 24.1973 76.3868 23.8478C76.0164 23.6871 75.625 23.5962 75.2056 23.5962C74.7863 23.5962 74.3739 23.6871 74.0035 23.8758C73.6331 24.0365 73.3116 24.2951 73.032 24.5677C72.8922 24.7284 72.7525 24.8892 72.6406 25.0569V25.1268C72.6406 27.2305 74.353 28.9499 76.4637 28.9499C77.0857 28.9499 77.7147 28.7891 78.2669 28.4886V26.7553C78.2669 26.3709 78.197 25.9515 78.0292 25.5601Z" fill="white"/>
<path d="M23.5084 32.514C22.9214 32.2624 22.3692 31.899 21.9219 31.4307C21.4466 30.9554 21.0902 30.4033 20.8386 29.8162C20.587 29.2012 20.4472 28.5372 20.4472 27.8383C20.4472 27.1673 20.587 26.4754 20.8386 25.8604C21.0902 25.2453 21.4536 24.6932 21.9219 24.2459C23.3407 22.7991 25.4864 22.3518 27.3525 23.1626C27.9395 23.4142 28.4917 23.7776 28.939 24.2459C30.3578 25.7485 30.7492 27.9222 29.9943 29.8162C29.7427 30.4313 29.3793 30.9554 28.939 31.4307C28.4917 31.878 27.9395 32.2624 27.3525 32.514C26.7374 32.7936 26.1014 32.9334 25.4304 32.9054C24.7595 32.9054 24.1165 32.7656 23.5084 32.514ZM22.8375 21.5481C22.0547 21.8836 21.3348 22.3798 20.7198 22.9948C18.7978 24.9728 18.2177 27.9222 19.273 30.4802C19.6085 31.2839 20.1047 32.0108 20.7198 32.6538C21.3348 33.2688 22.0267 33.7651 22.8375 34.1005C24.4799 34.7995 26.346 34.7995 28.0164 34.1005C28.7992 33.7651 29.5191 33.2688 30.1341 32.6538C30.7492 32.0388 31.2454 31.2909 31.5809 30.4802C32.2798 28.7818 32.2798 26.8878 31.5809 25.1894C31.2454 24.3857 30.7492 23.6308 30.1341 23.0158C29.5191 22.4007 28.8272 21.9045 28.0164 21.5691C26.346 20.8562 24.4799 20.8562 22.8375 21.5481Z" fill="white"/>
<path d="M38.0101 32.535C36.144 31.7312 34.9489 29.8931 34.9768 27.8593C34.9768 27.1883 35.1166 26.4964 35.3682 25.8814C35.8714 24.6862 36.8429 23.7077 38.0381 23.1835C38.6531 22.904 39.2891 22.7642 39.9601 22.7921C40.631 22.7921 41.267 22.9319 41.8821 23.1835C42.4692 23.4351 43.0213 23.8266 43.4686 24.2669C43.9159 24.7421 44.2724 25.2663 44.524 25.8814C44.7756 26.5244 44.9154 27.1883 44.9154 27.8593C44.9154 28.5302 44.8035 29.1942 44.524 29.8372C44.2724 30.4522 43.9089 30.9764 43.4686 31.4517C43.0213 31.899 42.4692 32.2834 41.8821 32.535C41.267 32.7866 40.631 32.9264 39.9601 32.9264C39.2612 32.9264 38.6182 32.7866 38.0101 32.535ZM37.3392 21.569C36.5564 21.9045 35.8365 22.4008 35.2214 23.0158C34.6064 23.6588 34.1381 24.3787 33.7747 25.1894C33.4392 26.0211 33.2715 26.9437 33.2715 27.8593V39.0209H34.9698V32.0318C35.501 32.8355 36.2209 33.5065 37.1155 33.9258C37.9752 34.4011 38.9536 34.6806 39.9531 34.6806C40.8407 34.6806 41.7073 34.4849 42.5391 34.1215C43.3218 33.786 44.0417 33.2898 44.6568 32.6748C45.2718 32.0597 45.768 31.3119 46.1035 30.5012C46.8024 28.8028 46.8024 26.9087 46.1035 25.2104C45.768 24.4066 45.2718 23.6518 44.6568 23.0368C44.0417 22.4217 43.3498 21.9255 42.5391 21.59C40.8477 20.8492 38.9816 20.8492 37.3392 21.569Z" fill="white"/>
<path d="M50.731 24.235C52.6251 22.285 55.7422 22.285 57.6922 24.179C57.7202 24.207 57.7202 24.207 57.7481 24.235C58.1115 24.6264 58.447 25.0946 58.6637 25.5979H49.7875C50.0321 25.0946 50.3676 24.6473 50.731 24.235ZM51.6746 21.5581C50.8708 21.8936 50.144 22.3898 49.5289 23.0049C48.9139 23.6479 48.4456 24.3677 48.1101 25.1785C47.4112 26.8768 47.4112 28.7709 48.1101 30.4693C48.4456 31.273 48.9139 31.9999 49.5289 32.6429C50.144 33.2579 50.8638 33.7541 51.6746 34.0896C53.317 34.7885 55.1831 34.7885 56.8535 34.0896C57.6363 33.7262 58.3562 33.2579 58.9712 32.6429C59.5863 31.9999 60.0545 31.28 60.39 30.4693L60.4459 30.2735H58.5798C58.3562 30.6929 58.0766 31.0773 57.7481 31.4128C55.8541 33.3627 52.7369 33.3627 50.787 31.4687C50.759 31.4407 50.759 31.4407 50.731 31.4128C50.2837 30.9375 49.9273 30.3854 49.6757 29.7983C49.3122 29.0155 49.2004 28.1559 49.3123 27.2962H60.8653C60.8373 26.5693 60.6416 25.8495 60.362 25.1505C60.0266 24.3468 59.5583 23.592 58.9433 22.9769C58.3282 22.3619 57.6083 21.8657 56.8256 21.5302C55.1831 20.8662 53.317 20.8662 51.6746 21.5581Z" fill="white"/>
<path d="M66.2063 22.1415C65.4026 22.5049 64.6757 23.0011 64.0607 23.6162C63.9489 23.728 63.865 23.8678 63.8091 24.0076V21.6382H62.1387V34.023H63.8091V28.4317C63.8091 27.7607 63.9489 27.0688 64.2005 26.4538C64.4521 25.8387 64.8155 25.3145 65.2838 24.8393C65.7311 24.364 66.2553 24.0076 66.8703 23.756C67.4854 23.4764 68.1214 23.3366 68.7923 23.3646V21.6382C67.8767 21.6103 66.9821 21.7781 66.2063 22.1415Z" fill="white"/>
<path d="M74.1664 21.1715C73.803 21.2554 73.4395 21.3672 73.1111 21.5349C72.7756 21.6747 72.4681 21.8705 72.1955 22.0941C71.9439 22.2898 71.7202 22.5414 71.5245 22.821V21.6817H69.8262V34.0665H71.5245V26.637C71.5245 26.1338 71.6364 25.6655 71.8321 25.2182C72.0277 24.7709 72.3073 24.3586 72.6358 23.9951C72.9713 23.6317 73.3906 23.3521 73.803 23.1634C74.2503 22.9398 74.7465 22.828 75.2497 22.828C75.725 22.828 76.2212 22.9398 76.6685 23.1355C78.0594 23.7505 78.954 25.1414 78.954 26.672V34.1014H80.7082L80.6523 26.672C80.6523 25.9171 80.5125 25.1973 80.233 24.4984C79.9534 23.8274 79.5341 23.2473 79.0658 22.7161C78.5626 22.2129 77.9825 21.8006 77.3395 21.521C76.6685 21.2135 75.9766 21.0737 75.2497 21.0737C74.9143 21.0317 74.5578 21.0597 74.1664 21.1715Z" fill="white"/>
<path d="M82.4589 34.0662H84.1573V21.6815H82.4589V34.0662ZM82.6267 17.0268C82.2073 17.4182 82.2073 18.0821 82.5987 18.5015C82.7944 18.6972 83.074 18.809 83.3536 18.809C83.6331 18.809 83.8847 18.6972 84.0804 18.5015C84.4718 18.0821 84.4718 17.4461 84.0804 17.0268C83.8847 16.8311 83.6331 16.7192 83.3536 16.7192C83.067 16.7192 82.8154 16.8311 82.6267 17.0268Z" fill="white"/>
<path d="M89.5543 21.5618C88.7715 21.9252 88.0516 22.3935 87.4366 23.0085C85.5146 24.9865 84.9345 27.9359 85.9898 30.4939C86.3253 31.2977 86.8215 32.0245 87.4366 32.6675C88.0516 33.2826 88.7715 33.7788 89.5543 34.1143C92.8951 35.5331 96.7601 34.0024 98.1858 30.6616C98.2138 30.6057 98.2418 30.5498 98.2697 30.4939L98.3536 30.2982H96.4875C96.2638 30.7175 95.9843 31.1019 95.6558 31.4374C95.2085 31.8847 94.6563 32.2691 94.0693 32.5207C93.4542 32.8003 92.8182 32.9401 92.1472 32.9121C90.1414 32.8842 88.3312 31.6611 87.5554 29.8229C87.3038 29.2079 87.164 28.5439 87.164 27.845C87.164 27.1741 87.3038 26.4821 87.5554 25.8671C87.807 25.252 88.1704 24.6999 88.6387 24.2526C90.0575 22.8058 92.2032 22.3585 94.0693 23.1693C94.6563 23.4209 95.2085 23.7843 95.6558 24.2526C95.9633 24.5881 96.2429 24.9795 96.4595 25.3639H98.3536L98.2697 25.1961C96.9348 21.8274 93.1187 20.157 89.75 21.4919C89.6941 21.5059 89.6102 21.5338 89.5543 21.5618Z" fill="white"/>
<path d="M108.537 21.6588V28.4802C108.537 28.9834 108.425 29.4797 108.229 29.9549C108.033 30.4022 107.782 30.8146 107.425 31.15C107.09 31.4855 106.671 31.7651 106.258 31.9818C105.343 32.3731 104.28 32.3731 103.365 31.9818C102.917 31.7861 102.533 31.5065 102.198 31.15C101.834 30.8146 101.583 30.3953 101.394 29.9549C101.198 29.4797 101.086 28.9834 101.086 28.4802V21.6588H99.332V28.4523C99.332 29.2071 99.4718 29.927 99.7793 30.5979C100.059 31.2689 100.45 31.849 100.947 32.3801C101.45 32.8834 102.03 33.2957 102.673 33.5753C103.344 33.8828 104.036 34.0226 104.763 34.0226C105.489 34.0226 106.209 33.8828 106.88 33.5753C107.523 33.2957 108.103 32.8764 108.607 32.3801C109.11 31.849 109.494 31.2689 109.774 30.5979C110.053 29.899 110.193 29.1791 110.193 28.4523V21.6588H108.537Z" fill="white"/>
<path d="M114.276 21.355C113.773 21.5507 113.304 21.8583 112.913 22.2147C112.522 22.5502 112.242 22.9695 112.025 23.4378C111.802 23.9131 111.746 24.4372 111.802 24.9404C111.858 25.5834 112.109 26.1636 112.501 26.6668C112.864 27.1141 113.332 27.4705 113.864 27.6942C114.423 27.9458 115.003 28.1415 115.618 28.2813C116.149 28.421 116.673 28.6167 117.176 28.8404C117.568 29.0081 117.875 29.2597 118.12 29.5952C118.344 29.9027 118.427 30.35 118.427 30.9022C118.4 31.4334 118.148 31.9296 117.757 32.3209C117.365 32.7123 116.785 32.8801 115.974 32.8801C115.359 32.9081 114.779 32.7683 114.248 32.4607C113.857 32.2091 113.549 31.8737 113.332 31.4613C113.165 31.0979 113.081 30.6785 113.081 30.2941H111.382C111.354 30.9371 111.494 31.5452 111.746 32.1323C111.997 32.6355 112.333 33.1038 112.745 33.4952C113.165 33.8586 113.661 34.1661 114.192 34.3548C114.723 34.5505 115.275 34.6344 115.862 34.6623C116.422 34.6623 116.974 34.5785 117.505 34.4387C118.008 34.2709 118.448 34.0193 118.868 33.7118C119.259 33.4043 119.595 32.9849 119.811 32.5446C120.063 32.0693 120.175 31.5172 120.147 30.986C120.175 30.3151 120.035 29.6511 119.727 29.064C119.42 28.5329 119.001 28.0925 118.504 27.785C117.973 27.4495 117.421 27.17 116.806 26.9813L115.192 26.4221C114.772 26.2823 114.388 26.0867 114.024 25.8351C113.717 25.6114 113.521 25.2759 113.465 24.9195C113.381 24.4722 113.521 24.0039 113.801 23.6405C114.08 23.277 114.416 22.9975 114.828 22.8368C115.164 22.7249 115.499 22.641 115.855 22.641C116.331 22.641 116.771 22.7808 117.19 23.0324C117.582 23.284 117.889 23.6754 118.022 24.1157H119.832C119.776 23.8082 119.665 23.5007 119.525 23.2281C119.301 22.8647 119.049 22.5013 118.77 22.2007C118.434 21.8373 118.015 21.5577 117.575 21.369C117.044 21.1454 116.464 21.0335 115.876 21.0615C115.331 21.0265 114.772 21.1384 114.276 21.355Z" fill="white"/>
<path d="M53.2864 40.1007H51.3085V41.9667H53.538V42.5259H50.6445V37.4028H53.3982V37.962H51.3085V39.5765H53.2864V40.1007Z" fill="white"/>
<path d="M57.3769 41.4832C57.3769 41.8745 57.3769 42.21 57.4049 42.4826H56.8178L56.7619 41.8675C56.5103 42.3149 56.035 42.5665 55.5388 42.5665C54.9796 42.5665 54.2598 42.231 54.2598 40.952V38.8063H54.9307V40.8401C54.9307 41.539 55.1544 42.0073 55.7345 42.0073C56.1259 42.0073 56.4893 41.7557 56.6221 41.3643C56.678 41.2525 56.678 41.1407 56.678 41.0288V38.7993H57.349L57.3769 41.4832Z" fill="white"/>
<path d="M58.4948 39.9568C58.4948 39.5095 58.4948 39.1531 58.4668 38.8176H59.0539V39.5444H59.0818C59.2216 39.0692 59.641 38.7617 60.1092 38.7407H60.277V39.3837H60.0813C59.606 39.3837 59.2496 39.7192 59.1657 40.2154C59.1378 40.3272 59.1378 40.4391 59.1378 40.5229V42.5008H58.4668L58.4948 39.9568Z" fill="white"/>
<path d="M64.2252 40.6229C64.2252 41.9858 63.2817 42.6008 62.3871 42.6008C61.4995 42.6008 60.6328 41.846 60.6328 40.7068C60.6328 39.5396 61.4366 38.7568 62.443 38.7568C63.4774 38.7358 64.2252 39.5116 64.2252 40.6229ZM61.3038 40.6508C61.3038 41.4546 61.779 42.0696 62.415 42.0696C63.051 42.0696 63.5263 41.4825 63.5263 40.6229C63.5263 39.7632 63.2188 39.232 62.415 39.232C61.6113 39.232 61.3038 39.9589 61.3038 40.6508Z" fill="white"/>
<path d="M65.0637 40.0412C65.0637 39.5659 65.0358 39.1815 65.0358 38.846H65.6229V39.489H65.6508C65.9304 39.0138 66.4336 38.7342 66.9578 38.7622C67.8734 38.7622 68.5164 39.517 68.5164 40.6283C68.5164 41.7395 67.7126 42.6062 66.846 42.6062C66.3987 42.6341 65.9583 42.4105 65.7067 42.0191H65.6788V44.025H65.0078L65.0637 40.0412ZM65.7277 41.0127C65.7277 41.0966 65.7556 41.2084 65.7836 41.2922C65.8954 41.7395 66.3148 42.075 66.783 42.075C67.5099 42.075 67.8943 41.5159 67.8943 40.6562C67.8943 39.7966 67.5029 39.2934 66.811 39.2934C66.3357 39.3213 65.9234 39.6568 65.8116 40.1251C65.7836 40.2089 65.7836 40.3207 65.7556 40.4046V41.0196H65.7277V41.0127Z" fill="white"/>
<path d="M69.7973 40.7928C69.7973 41.6804 70.3564 42.0717 71.0483 42.0717C71.3838 42.0717 71.7473 42.0158 72.0478 41.8761L72.1876 42.3513C71.7962 42.5191 71.3838 42.6029 70.9645 42.575C69.8253 42.575 69.1543 41.8202 69.1543 40.7089C69.1543 39.5976 69.8253 38.731 70.8806 38.731C71.936 38.731 72.4112 39.7863 72.4112 40.4572C72.4112 40.5691 72.4112 40.6809 72.3833 40.7648L69.7973 40.7928ZM71.7123 40.2965C71.7403 39.8772 71.5446 39.2132 70.7967 39.2132C70.0419 39.2132 69.8253 39.8282 69.7973 40.2965H71.7123Z" fill="white"/>
<path d="M73.8572 37.2622C73.6894 37.8772 73.4378 38.4853 73.1303 39.0445L72.7109 39.1003C72.9066 38.5133 73.0464 37.9052 73.1582 37.3181L73.8572 37.2622Z" fill="white"/>
<path d="M73.9684 41.8279C74.248 41.9957 74.5555 42.0795 74.856 42.0795C75.3313 42.0795 75.555 41.8559 75.555 41.5204C75.555 41.2129 75.3593 41.0451 74.884 40.8495C74.4087 40.6538 73.9125 40.2624 73.9125 39.8221C73.9125 39.3818 74.3878 38.7388 75.1915 38.7388C75.499 38.7388 75.8066 38.8226 76.0791 38.9624L75.9394 39.4377C75.7157 39.2979 75.4361 39.214 75.1845 39.214C74.7931 39.214 74.5695 39.4377 74.5695 39.7172C74.5695 39.9968 74.7931 40.1646 75.2684 40.3602C75.7437 40.5559 76.2399 40.9194 76.2399 41.4436C76.2399 41.9747 75.7367 42.5548 74.877 42.5548C74.5136 42.5548 74.1501 42.4709 73.8496 42.3032L73.9684 41.8279Z" fill="white"/>
<path d="M79.0369 40.7928C79.0649 41.6804 79.624 42.0717 80.3159 42.0717C80.6514 42.0717 81.0148 42.0158 81.3154 41.8761L81.4551 42.3513C81.0638 42.5191 80.6514 42.6029 80.2321 42.575C79.0928 42.575 78.4219 41.8202 78.4219 40.7089C78.4219 39.5976 79.0928 38.731 80.1482 38.731C81.2315 38.731 81.6788 39.7863 81.6788 40.4572C81.6788 40.597 81.6508 40.6809 81.6508 40.7648L79.0369 40.7928ZM80.9869 40.2965C81.0148 39.8772 80.8191 39.2132 80.0713 39.2132C79.3235 39.2132 79.0998 39.8282 79.0719 40.2965H80.9869Z" fill="white"/>
<path d="M82.7314 38.8188L83.5142 40.9925C83.626 41.2441 83.7099 41.4957 83.7658 41.7473H83.7937C83.8497 41.4957 83.9335 41.2441 84.0174 40.9925L84.7443 38.8468H85.4711L84.4717 41.4607C83.9964 42.7397 83.6679 43.3548 83.2206 43.7741C82.997 43.9698 82.6895 44.1376 82.3889 44.1935L82.2212 43.6344C82.4448 43.5505 82.6126 43.4386 82.7803 43.2989C83.0319 43.1032 83.2276 42.8516 83.3394 42.5441C83.3674 42.4881 83.3954 42.4322 83.3954 42.3763C83.3954 42.3204 83.3674 42.2645 83.3394 42.2086L81.9766 38.8398L82.7314 38.8188Z" fill="white"/>
<path d="M86.3539 40.7928C86.3539 41.6804 86.9131 42.0717 87.605 42.0717C87.9684 42.0717 88.3039 42.0158 88.6324 41.8761L88.7442 42.3513C88.3528 42.5191 87.9405 42.6029 87.5211 42.575C86.3819 42.575 85.7109 41.8202 85.7109 40.7089C85.7109 39.5976 86.3819 38.731 87.4373 38.731C88.4926 38.731 88.9679 39.7863 88.9679 40.4572C88.9679 40.5691 88.9679 40.6809 88.9399 40.7648L86.3539 40.7928ZM88.3319 40.2965C88.3319 39.8772 88.1362 39.2132 87.4163 39.2132C86.6615 39.2132 86.4448 39.8282 86.3889 40.2965H88.3319Z" fill="white"/>
<path d="M89.6937 41.8279C89.9732 41.9957 90.2807 42.0795 90.5813 42.0795C91.0565 42.0795 91.3081 41.8559 91.3081 41.5204C91.3081 41.2129 91.1124 41.0451 90.6372 40.8495C90.1619 40.6538 89.6377 40.2624 89.6377 39.8221C89.6377 39.3818 90.113 38.7388 90.9167 38.7388C91.2243 38.7388 91.5597 38.8226 91.8323 38.9624L91.6646 39.4377C91.4409 39.2979 91.1893 39.214 90.9098 39.214C90.5184 39.214 90.2947 39.4377 90.2947 39.7172C90.2947 39.9968 90.5184 40.1646 90.9936 40.3602C91.4689 40.5559 91.9372 40.9194 91.9372 41.4436C91.9372 41.9747 91.4339 42.5548 90.5743 42.5548C90.2108 42.5548 89.8474 42.4709 89.5469 42.3032L89.6937 41.8279Z" fill="white"/>
<path d="M97.7389 40.6225C97.7389 41.9854 96.7954 42.6004 95.9007 42.6004C95.0131 42.6004 94.1465 41.8456 94.1465 40.7063C94.1465 39.5392 94.9502 38.7563 95.9567 38.7563C96.9631 38.7563 97.7389 39.5112 97.7389 40.6225ZM94.8174 40.6504C94.8174 41.4542 95.2927 42.0692 95.9287 42.0692C96.5647 42.0692 97.04 41.4821 97.04 40.6225C97.04 39.7628 96.7325 39.2316 95.9287 39.2316C95.1529 39.2596 94.8174 39.9585 94.8174 40.6504Z" fill="white"/>
<path d="M98.5774 39.824C98.5774 39.4885 98.5774 39.153 98.5215 38.8246H99.1365V39.4116H99.1645C99.4161 38.9923 99.8914 38.7127 100.388 38.7407C100.891 38.7407 101.667 39.0482 101.667 40.2993V42.5008H100.996V40.3552C100.996 39.7681 100.772 39.2719 100.136 39.2719C99.7166 39.2719 99.3532 39.5514 99.2484 39.9428C99.2204 40.0546 99.1924 40.1665 99.1924 40.2503V42.4799H98.5215L98.5774 39.824Z" fill="white"/>
<path d="M107.062 40.1007H105.084V41.9667H107.313V42.5259H104.42V37.4028H107.174V37.962H105.056V39.5765H107.034V40.1076L107.062 40.1007Z" fill="white"/>
<path d="M110.739 41.6314C110.739 41.9389 110.739 42.2185 110.795 42.519H110.18L110.124 42.0437H110.096C109.845 42.4072 109.425 42.6029 108.985 42.6029C108.23 42.6029 107.846 42.0717 107.846 41.5475C107.846 40.6599 108.649 40.1846 110.075 40.1846V40.1008C110.075 39.7933 109.991 39.2691 109.244 39.2691C108.908 39.2691 108.573 39.3529 108.272 39.5486L108.132 39.1013C108.496 38.8776 108.915 38.7658 109.327 38.7938C110.467 38.7938 110.746 39.5486 110.746 40.2965V41.6314H110.739ZM110.096 40.625C109.341 40.597 108.538 40.7367 108.538 41.4566C108.51 41.7921 108.761 42.0717 109.097 42.0997C109.125 42.0997 109.153 42.0997 109.181 42.0997C109.572 42.1276 109.935 41.876 110.068 41.4846C110.096 41.4287 110.124 41.3448 110.124 41.261V40.618H110.096V40.625Z" fill="white"/>
<path d="M111.823 39.9568C111.823 39.5095 111.796 39.1531 111.768 38.8176H112.355V39.5444H112.383C112.522 39.0971 112.942 38.7617 113.41 38.7407H113.606V39.3837H113.382C112.907 39.3837 112.578 39.7192 112.466 40.2154C112.466 40.3272 112.439 40.4391 112.439 40.5229V42.5008H111.768L111.823 39.9568Z" fill="white"/>
<path d="M115.276 37.9556V38.8432H116.248V39.3464H115.276V41.3243C115.276 41.7716 115.416 42.0512 115.78 42.0512C115.919 42.0512 116.031 42.0512 116.171 41.9953L116.227 42.5264C116.031 42.5823 115.835 42.6103 115.64 42.6103C115.36 42.6103 115.109 42.5264 114.885 42.3307C114.689 42.0512 114.605 41.6878 114.633 41.3593V39.3534H114.074V38.8502H114.633V38.1512L115.276 37.9556Z" fill="white"/>
<path d="M117.002 37.0942H117.673V39.4076H117.701C117.813 39.2119 117.98 39.0442 118.176 38.9324C118.4 38.7926 118.623 38.7367 118.875 38.7367C119.35 38.7367 120.154 39.0442 120.154 40.2953V42.4969H119.483V40.4071C119.483 39.82 119.259 39.3238 118.623 39.3238C118.204 39.3517 117.869 39.6033 117.736 39.9947C117.708 40.1066 117.68 40.2184 117.68 40.3023V42.5318H117.009L117.002 37.0942Z" fill="white"/>
</svg>
