<svg width="168" height="53" viewBox="0 0 168 53" fill="none" xmlns="http://www.w3.org/2000/svg">
<path fill-rule="evenodd" clip-rule="evenodd" d="M48.2494 19.4732C48.6397 19.991 48.9903 20.5168 49.317 21.0586C46.64 13.8085 41.1905 6.57433 31.7813 0.248413C28.9848 1.99322 26.5468 3.84161 24.4355 5.76169C35.5816 7.51447 43.3018 12.8843 48.2494 19.4732Z" fill="white"/>
<path d="M36.873 13.882C26.436 11.0776 13.5213 12.8383 0.351562 24.3827C5.57005 41.4005 16.262 48.9693 26.7627 51.7738C37.1996 54.5782 47.9553 48.316 50.7597 37.887C53.5721 27.4501 47.3099 16.6864 36.873 13.882ZM15.8078 32.3419L17.2419 32.2781L17.7598 30.8441L18.2139 32.2781H19.648L18.4768 33.1944L18.9947 34.6285L17.7518 33.7122L16.5089 34.6285L16.9631 33.1944L15.8078 32.3419ZM20.8988 41.7989L19.656 40.8827L18.4131 41.7272L18.8672 40.2931L17.6961 39.3769H19.1939L19.648 38.0065L20.1021 39.3769H21.6L20.4288 40.3568L20.8988 41.7989ZM20.4367 26.0797L20.8909 27.5138L19.648 26.5976L18.4051 27.5138L18.8593 26.0797L17.6881 25.1635H19.1859L19.64 23.7931L20.0942 25.1635H21.592L20.4367 26.0797ZM25.6552 45.5116L26.1094 46.9457L24.8665 46.0294L23.6236 46.9457L24.0777 45.5116L22.8349 44.5953H24.3964L24.8506 43.1613L25.3047 44.5953H26.8025L25.6552 45.5116ZM25.6552 20.8612L26.1094 22.359L24.8665 21.3791L23.6236 22.359L24.0777 20.8612L22.8349 20.0167H24.3964L24.8506 18.5826L25.3047 20.0167H26.8025L25.6552 20.8612ZM33.224 48.9056L31.9812 47.9256L30.7383 48.8419L31.2641 47.4078L30.0212 46.5632L31.5191 46.4995L31.9732 45.1292L32.4273 46.4995H33.9251L32.754 47.4157L33.224 48.9056ZM32.7699 18.9093L33.224 20.4071L31.9812 19.4271L30.7383 20.3433L31.2641 18.9093L30.0212 18.0647L31.5191 18.001L31.9732 16.6306L32.4273 18.001H33.9251L32.7699 18.9093ZM40.3945 46.9457L39.1516 46.0294L37.845 46.9457L38.2991 45.5116L37.1279 44.5953H38.6258L39.1436 43.1613L39.534 44.5953H41.0318L39.8607 45.5116L40.3945 46.9457ZM39.8766 20.8612L40.4024 22.359L39.1596 21.3791L37.8529 22.359L38.3071 20.8612L37.1359 20.0167H38.6337L39.1516 18.5826L39.542 20.0167H41.0398L39.8766 20.8612ZM45.5492 41.7989L44.3063 40.8827L43.0635 41.7272L43.5176 40.2931L42.3464 39.3769H43.8442L44.2984 38.0065L44.7525 39.3769H46.2503L45.0792 40.3568L45.5492 41.7989ZM46.7204 32.2781H48.2182L47.047 33.1944L47.5012 34.6285L46.33 33.7122L45.0234 34.6285L45.4775 33.1944L44.3063 32.3498L45.8042 32.2861L46.33 30.852L46.7204 32.2781ZM45.0951 26.0797L45.5492 27.5138L44.3063 26.5976L43.0635 27.5138L43.5176 26.0797L42.3464 25.1635H43.8442L44.2984 23.7931L44.7525 25.1635H46.2503L45.0951 26.0797Z" fill="white"/>
<path d="M58.7106 27.7929H62.0249V26.0959H58.7106V23.9926H62.256V22.2797H56.6152V31.4977H58.7106V27.7929Z" fill="white"/>
<path d="M66.6065 24.6547C64.4554 24.6547 63.0293 26.041 63.0293 28.2001C63.0293 30.3671 64.5351 31.6498 66.495 31.6498C68.2876 31.6498 70.0324 30.5265 70.0324 28.0726C70.0245 26.0649 68.6541 24.6547 66.6065 24.6547ZM66.5508 30.16C65.6585 30.16 65.1804 29.2915 65.1804 28.1443C65.1804 27.1564 65.5549 26.1286 66.5508 26.1286C67.4989 26.1286 67.8813 27.1484 67.8813 28.1443C67.8813 29.3553 67.3634 30.16 66.5508 30.16Z" fill="white"/>
<path d="M71.0442 31.4984H73.1236V28.1045C73.1236 27.9451 73.1396 27.7778 73.1635 27.6423C73.2989 26.997 73.8168 26.5827 74.5816 26.5827C74.8127 26.5827 74.9959 26.6066 75.1393 26.6385V24.6786C74.9879 24.6547 74.8923 24.6547 74.7011 24.6547C74.0558 24.6547 73.2352 25.069 72.8926 26.041H72.8368L72.7731 24.806H70.9805C71.0044 25.3797 71.0362 26.025 71.0362 27.013V31.4984H71.0442Z" fill="white"/>
<path d="M79.3312 31.6342C80.2394 31.6342 81.076 31.4988 81.7532 31.2199L81.4823 29.8097C80.9246 29.985 80.3509 30.0806 79.6339 30.0806C78.6619 30.0806 77.8094 29.6663 77.7457 28.8059V28.7979H82.0639C82.0878 28.6465 82.1276 28.3358 82.1276 27.9773C82.1276 26.3201 81.307 24.639 79.1399 24.639C76.8135 24.639 75.7539 26.5193 75.7539 28.2163C75.7539 30.3116 77.0526 31.6342 79.3312 31.6342ZM79.0125 26.0333C79.9685 26.0333 80.1916 26.8778 80.1916 27.3877H77.7298C77.7776 26.83 78.1361 26.0333 79.0125 26.0333Z" fill="white"/>
<path d="M85.1534 30.1998C84.5399 30.1998 83.7432 29.9289 83.3608 29.6899L82.9863 31.1797C83.4962 31.4506 84.277 31.6418 85.1534 31.6418C87.0735 31.6418 88.0534 30.7256 88.0534 29.4748C88.0375 28.4869 87.5037 27.8415 86.2369 27.4113C85.4163 27.1165 85.1534 26.9572 85.1534 26.6385C85.1534 26.2959 85.4402 26.0887 85.9501 26.0887C86.5317 26.0887 87.1053 26.3118 87.4081 26.4712L87.7826 25.0371C87.3683 24.8299 86.6751 24.6547 85.8943 24.6547C84.2372 24.6547 83.1696 25.6028 83.1696 26.8456C83.1536 27.6423 83.6874 28.3992 85.0737 28.8613C85.8545 29.1242 86.0616 29.2915 86.0616 29.6341C86.0377 29.9767 85.7828 30.1998 85.1534 30.1998Z" fill="white"/>
<path d="M89.5992 29.0872C89.5992 30.0273 89.7904 30.6726 90.1728 31.071C90.4995 31.4136 91.0572 31.6446 91.7344 31.6446C92.324 31.6446 92.8179 31.5809 93.0888 31.4693L93.0729 29.8998C92.9215 29.9237 92.7223 29.9556 92.4594 29.9556C91.83 29.9556 91.6388 29.5811 91.6388 28.7764V26.3544H93.1286V24.8247H91.6388V22.9047L89.5992 23.3747V24.8327H88.7148V26.3624H89.5992V29.0872Z" fill="white"/>
<path d="M98.7223 22.2797H96.627V31.5056H98.7223V22.2797Z" fill="white"/>
<path d="M103.718 26.3356C104.475 26.3356 104.777 26.9251 104.777 27.7936V31.5063H106.857V27.5386C106.857 25.5707 105.829 24.6625 104.467 24.6625C103.359 24.6625 102.674 25.3078 102.395 25.7301H102.355L102.26 24.8139H100.451C100.475 25.4034 100.507 26.1205 100.507 26.949H100.499V31.5063H102.578V27.6422C102.578 27.443 102.61 27.2438 102.666 27.1243C102.801 26.7339 103.144 26.3356 103.718 26.3356Z" fill="white"/>
<path d="M108.761 31.4967H110.849V26.334H112.179V24.8043H110.833V24.4617C110.833 23.8004 111.119 23.2666 111.805 23.2666C112.075 23.2666 112.299 23.3144 112.474 23.3622L112.561 21.7608C112.275 21.6732 111.916 21.6254 111.454 21.6254C110.857 21.6254 110.131 21.8006 109.606 22.2946C109.008 22.8443 108.761 23.7287 108.761 24.5413V24.8043H107.885V26.334H108.761V31.4967Z" fill="white"/>
<path d="M116.138 31.6578C117.93 31.6578 119.675 30.5344 119.675 28.0805C119.675 26.0648 118.313 24.6547 116.249 24.6547C114.098 24.6547 112.672 26.0409 112.672 28.2C112.672 30.3751 114.178 31.6578 116.138 31.6578ZM116.193 26.1445C117.141 26.1445 117.524 27.1643 117.524 28.1602C117.524 29.3632 117.006 30.1759 116.193 30.1759C115.301 30.1759 114.823 29.3075 114.823 28.1602C114.823 27.1643 115.197 26.1445 116.193 26.1445Z" fill="white"/>
<path d="M124.503 26.5827C124.735 26.5827 124.918 26.6066 125.061 26.6385V24.6786C124.91 24.6547 124.814 24.6547 124.623 24.6547C123.986 24.6547 123.165 25.069 122.814 26.041H122.759L122.695 24.806H120.902C120.926 25.3797 120.958 26.025 120.958 27.013V31.5064H123.038V28.1124C123.038 27.9531 123.053 27.7858 123.077 27.6503C123.221 26.997 123.739 26.5827 124.503 26.5827Z" fill="white"/>
<path d="M132.224 31.4984V27.5786C132.224 27.4193 132.256 27.1962 132.312 27.0448C132.447 26.6465 132.798 26.3198 133.268 26.3198C133.937 26.3198 134.256 26.8775 134.256 27.8495V31.4984H136.287V27.5547C136.287 25.5629 135.315 24.6547 134.032 24.6547C133.546 24.6547 133.132 24.7582 132.758 24.9813C132.447 25.1805 132.144 25.4514 131.897 25.786H131.873C131.587 25.0849 130.901 24.6547 130.041 24.6547C128.886 24.6547 128.296 25.2841 128.009 25.7143H127.969L127.874 24.806H126.121C126.145 25.3956 126.177 26.1126 126.177 26.9412H126.161V31.4984H128.193V27.6025C128.193 27.4432 128.208 27.244 128.28 27.0847C128.408 26.7421 128.718 26.3357 129.252 26.3357C129.913 26.3357 130.208 26.9094 130.208 27.7539V31.5064L132.224 31.4984Z" fill="white"/>
<path d="M141.593 30.8372H141.633L141.76 31.5064H143.64C143.569 31.1319 143.545 30.5185 143.545 29.8731V27.5467C143.545 25.9772 142.836 24.6547 140.605 24.6547C139.386 24.6547 138.462 24.9813 138 25.2442L138.382 26.5907C138.82 26.3198 139.545 26.0808 140.23 26.0808C141.258 26.0808 141.449 26.5827 141.449 26.9412V27.0368C139.075 27.0209 137.514 27.8575 137.514 29.6023C137.514 30.6699 138.318 31.6578 139.681 31.6578C140.469 31.6578 141.155 31.371 141.593 30.8372ZM141.505 28.3434V29.0684C141.505 29.1959 141.489 29.3154 141.465 29.427C141.33 29.8572 140.908 30.1998 140.382 30.1998C139.92 30.1998 139.561 29.9369 139.561 29.4031C139.561 28.5904 140.414 28.3355 141.505 28.3434Z" fill="white"/>
<path d="M145.355 29.0872C145.355 30.0273 145.546 30.6726 145.929 31.071C146.255 31.4136 146.813 31.6446 147.49 31.6446C148.08 31.6446 148.574 31.5809 148.845 31.4693L148.829 29.8998C148.677 29.9237 148.478 29.9556 148.215 29.9556C147.586 29.9556 147.395 29.5811 147.395 28.7764V26.3544H148.884V24.8247H147.395V22.9047L145.355 23.3747V24.8327H144.471V26.3624H145.355V29.0872Z" fill="white"/>
<path d="M151.121 23.9845C151.806 23.9845 152.244 23.5145 152.244 22.9408C152.228 22.3353 151.806 21.8812 151.137 21.8812C150.468 21.8812 150.03 22.3353 150.038 22.9408C150.022 23.5224 150.46 23.9845 151.121 23.9845Z" fill="white"/>
<path d="M152.173 24.7972H150.094V31.4976H152.173V24.7972Z" fill="white"/>
<path d="M157.034 24.6547C154.883 24.6547 153.457 26.041 153.457 28.2001C153.457 30.3671 154.963 31.6498 156.923 31.6498C158.715 31.6498 160.46 30.5265 160.46 28.0726C160.46 26.0649 159.09 24.6547 157.034 24.6547ZM156.986 30.16C156.102 30.16 155.616 29.2915 155.616 28.1443C155.616 27.1564 155.991 26.1286 156.986 26.1286C157.935 26.1286 158.317 27.1484 158.317 28.1443C158.317 29.3553 157.791 30.16 156.986 30.16Z" fill="white"/>
<path d="M165.439 24.6547C164.332 24.6547 163.647 25.3 163.376 25.7223H163.336L163.24 24.806H161.432C161.456 25.3956 161.487 26.1126 161.487 26.9412H161.479V31.4984H163.559V27.6344C163.559 27.4352 163.591 27.236 163.647 27.1165C163.782 26.7341 164.133 26.3357 164.706 26.3357C165.463 26.3357 165.766 26.9253 165.766 27.7937V31.5064H167.845V27.5388C167.829 25.5629 166.809 24.6547 165.439 24.6547Z" fill="white"/>
<path d="M60.2094 37.7479C59.0223 37.2937 58.5044 37.0308 58.5044 36.4413C58.5044 35.9632 58.9426 35.5569 59.8508 35.5569C60.7591 35.5569 61.4124 35.8198 61.7789 35.9951L62.241 34.314C61.6913 34.075 60.9264 33.8519 59.8827 33.8519C57.7077 33.8519 56.3931 35.055 56.3931 36.6325C56.3931 37.9789 57.389 38.8234 58.9267 39.3572C60.0341 39.7556 60.4723 40.0902 60.4723 40.6638C60.4723 41.2614 59.9624 41.6597 59.0063 41.6597C58.114 41.6597 57.2536 41.3729 56.6879 41.0861L56.2656 42.807C56.7835 43.0938 57.8272 43.3647 58.8788 43.3647C61.4124 43.3647 62.5995 42.0501 62.5995 40.5045C62.6075 39.2058 61.8426 38.3534 60.2094 37.7479Z" fill="white"/>
<path d="M66.964 39.8279C66.8684 40.2103 66.7649 40.7123 66.6613 41.0708H66.6215C66.5418 40.7202 66.4063 40.2263 66.2948 39.8279L65.2989 36.5375H62.9805L65.4343 42.6642C65.522 42.8236 65.53 42.9351 65.53 43.0068C65.53 43.1024 65.4822 43.206 65.4184 43.3096C65.2192 43.6521 64.8687 43.9788 64.558 44.1461C64.2393 44.3453 63.9126 44.4648 63.6497 44.5046L64.0879 46.2733C64.6058 46.2016 65.3786 45.9865 66.1036 45.3571C66.8525 44.6879 67.4978 43.6123 68.4619 40.9592L70.0234 36.5534H67.7926L66.964 39.8279Z" fill="white"/>
<path d="M73.817 39.1476C72.9964 38.8608 72.7335 38.6935 72.7335 38.3748C72.7335 38.0322 73.0203 37.8251 73.5302 37.8251C74.1118 37.8251 74.6854 38.0482 74.9882 38.2075L75.3626 36.7734C74.9483 36.5663 74.2552 36.391 73.4744 36.391C71.8173 36.391 70.7497 37.3391 70.7497 38.582C70.7337 39.3787 71.2675 40.1356 72.6538 40.5976C73.4346 40.8606 73.6417 41.0279 73.6417 41.3705C73.6417 41.713 73.3868 41.9281 72.7574 41.9281C72.1439 41.9281 71.3472 41.6573 70.9648 41.4183L70.5664 42.9161C71.0763 43.187 71.8571 43.3782 72.7335 43.3782C74.6536 43.3782 75.6335 42.4619 75.6335 41.2111C75.6255 40.2232 75.0917 39.5778 73.817 39.1476Z" fill="white"/>
<path d="M79.2267 34.6176L77.1871 35.0876V36.5456H76.3027V38.0753H77.1871V40.816C77.1871 41.7561 77.3783 42.4015 77.7607 42.7998C78.0874 43.1424 78.6451 43.3734 79.3223 43.3734C79.9119 43.3734 80.4058 43.3097 80.6767 43.1982L80.6608 41.6286C80.5094 41.6525 80.3102 41.6844 80.0473 41.6844C79.4179 41.6844 79.2267 41.3099 79.2267 40.5053V38.0833H80.7165V36.5536H79.2267V34.6176Z" fill="white"/>
<path d="M85.1302 36.3832C82.8038 36.3832 81.7441 38.2634 81.7441 39.9604C81.7441 42.0558 83.0428 43.3704 85.3214 43.3704C86.2296 43.3704 87.0662 43.2349 87.7434 42.9561L87.4725 41.5459C86.9148 41.7212 86.3412 41.8168 85.6241 41.8168C84.6522 41.8168 83.7997 41.4025 83.7359 40.542V40.5341H88.0541C88.078 40.3827 88.1179 40.072 88.1179 39.7134C88.1179 38.0722 87.2972 36.3832 85.1302 36.3832ZM83.72 39.1319C83.7758 38.5742 84.1343 37.7774 85.0027 37.7774C85.9588 37.7774 86.1818 38.622 86.1818 39.1319H83.72Z" fill="white"/>
<path d="M97.2239 36.391C96.7379 36.391 96.3236 36.4946 95.9491 36.7176C95.6384 36.9168 95.3357 37.1877 95.0887 37.5223H95.0648C94.778 36.8212 94.0928 36.391 93.2323 36.391C92.0771 36.391 91.4875 37.0204 91.2007 37.4506H91.1609L91.0653 36.5424H89.3125C89.3364 37.1319 89.3683 37.849 89.3683 38.6776H89.3523V43.2348H91.384V39.3388C91.384 39.1795 91.3999 38.9803 91.4716 38.821C91.5991 38.4784 91.9098 38.072 92.4436 38.072C93.1049 38.072 93.3996 38.6457 93.3996 39.4902V43.2427H95.4313V39.3309C95.4313 39.1715 95.4631 38.9484 95.5189 38.7971C95.6544 38.3987 96.0049 38.072 96.475 38.072C97.1442 38.072 97.4629 38.6298 97.4629 39.6018V43.2427H99.4945V39.299C99.4786 37.2992 98.5066 36.391 97.2239 36.391Z" fill="white"/>
<path d="M104.713 34.0429C104.116 34.5926 103.869 35.477 103.869 36.2897V36.5526H102.992V38.0823H103.869V43.245H105.956V38.0823H107.286V36.5526H105.94V36.21C105.94 35.5487 106.227 35.0149 106.912 35.0149C107.183 35.0149 107.406 35.0627 107.581 35.1105L107.669 33.5091C107.382 33.4215 107.024 33.3737 106.561 33.3737C105.964 33.3657 105.239 33.541 104.713 34.0429Z" fill="white"/>
<path d="M111.366 36.391C109.215 36.391 107.789 37.7773 107.789 39.9364C107.789 42.1034 109.295 43.3861 111.255 43.3861C113.047 43.3861 114.792 42.2628 114.792 39.8089C114.784 37.8012 113.422 36.391 111.366 36.391ZM111.303 41.9042C110.41 41.9042 109.932 41.0358 109.932 39.8886C109.932 38.9006 110.307 37.8729 111.303 37.8729C112.251 37.8729 112.633 38.8927 112.633 39.8886C112.633 41.0916 112.115 41.9042 111.303 41.9042Z" fill="white"/>
<path d="M117.932 37.7733H117.876L117.812 36.5384H116.02C116.043 37.112 116.075 37.7574 116.075 38.7453V43.2388H118.155V39.8448C118.155 39.6854 118.171 39.5181 118.195 39.3827C118.33 38.7374 118.848 38.323 119.613 38.323C119.844 38.323 120.027 38.347 120.17 38.3788V36.4189C120.019 36.395 119.923 36.395 119.732 36.395C119.095 36.387 118.274 36.8013 117.932 37.7733Z" fill="white"/>
<path d="M125.388 39.3343H128.782V37.6293H125.388V35.7172H128.989V34.0043H123.293V43.2382H129.181V41.5252H125.388V39.3343Z" fill="white"/>
<path d="M136.717 41.0908V36.5415H134.622V40.5251C134.622 40.6845 134.606 40.8518 134.55 40.9713C134.415 41.2979 134.08 41.6963 133.506 41.6963C132.773 41.6963 132.463 41.1067 132.463 40.1347V36.5336H130.367V40.4693C130.367 42.5328 131.363 43.3853 132.725 43.3853C133.928 43.3853 134.558 42.7001 134.821 42.2859H134.861L134.956 43.2339H136.765C136.741 42.6762 136.717 41.9592 136.717 41.0908Z" fill="white"/>
<path d="M140.518 37.7733H140.462L140.398 36.5384H138.605C138.629 37.112 138.661 37.7574 138.661 38.7453V43.2388H140.741V39.8448C140.741 39.6854 140.757 39.5181 140.78 39.3827C140.916 38.7374 141.434 38.323 142.199 38.323C142.43 38.323 142.613 38.347 142.756 38.3788V36.4189C142.605 36.395 142.509 36.395 142.318 36.395C141.681 36.387 140.86 36.8013 140.518 37.7733Z" fill="white"/>
<path d="M146.939 36.391C144.787 36.391 143.361 37.7773 143.361 39.9364C143.361 42.1034 144.867 43.3861 146.827 43.3861C148.62 43.3861 150.364 42.2628 150.364 39.8089C150.364 37.8012 148.994 36.391 146.939 36.391ZM146.891 41.9042C146.006 41.9042 145.52 41.0358 145.52 39.8886C145.52 38.9006 145.895 37.8729 146.891 37.8729C147.839 37.8729 148.221 38.8927 148.221 39.8886C148.221 41.0916 147.695 41.9042 146.891 41.9042Z" fill="white"/>
<path d="M155.766 36.3949C154.794 36.3949 154.029 36.7693 153.535 37.4784H153.512L153.416 36.5463H151.607C151.631 37.1597 151.663 37.9166 151.663 38.793V45.9555H153.743V42.6332H153.767C154.069 43.0793 154.699 43.406 155.511 43.406C157.001 43.406 158.547 42.2587 158.547 39.8208C158.539 37.6696 157.232 36.3949 155.766 36.3949ZM154.993 41.7807C154.388 41.7807 153.91 41.3584 153.774 40.7928C153.751 40.6653 153.735 40.5219 153.735 40.3546H153.743V39.4383C153.743 39.3109 153.759 39.1754 153.782 39.0639C153.918 38.4424 154.444 38.0043 155.025 38.0043C155.957 38.0043 156.436 38.8089 156.436 39.8845C156.436 41.0238 155.902 41.7807 154.993 41.7807Z" fill="white"/>
<path d="M162.89 36.3832C160.564 36.3832 159.504 38.2634 159.504 39.9604C159.504 42.0558 160.803 43.3704 163.081 43.3704C163.989 43.3704 164.826 43.2349 165.503 42.9561L165.232 41.5459C164.675 41.7212 164.101 41.8168 163.384 41.8168C162.412 41.8168 161.567 41.4025 161.496 40.542V40.5341H165.806C165.838 40.3827 165.878 40.072 165.878 39.7134C165.878 38.0722 165.049 36.3832 162.89 36.3832ZM161.48 39.1319C161.536 38.5742 161.894 37.7774 162.762 37.7774C163.719 37.7774 163.934 38.622 163.934 39.1319H161.48Z" fill="white"/>
</svg>
