<svg width="179" height="48" viewBox="0 0 179 48" fill="none" xmlns="http://www.w3.org/2000/svg">
<path d="M26.4558 20.7907C26.4124 21.7454 26.1376 22.4832 25.6385 22.975C25.1395 23.4668 24.4379 23.72 23.5266 23.72C22.5718 23.72 21.8486 23.4017 21.335 22.7797C20.8287 22.1505 20.5684 21.2608 20.5684 20.0963V18.6787C20.5684 17.5143 20.836 16.6319 21.3495 15.9954C21.8775 15.3661 22.6008 15.0551 23.541 15.0551C24.4596 15.0551 25.1612 15.3083 25.6313 15.829C26.1086 16.3353 26.3763 17.0803 26.4486 18.0422H24.7344C24.7127 17.4492 24.6259 17.0369 24.4596 16.8127C24.2932 16.5885 23.9822 16.48 23.5338 16.48C23.0781 16.48 22.7599 16.6463 22.5646 16.9573C22.3693 17.2756 22.2825 17.8036 22.2608 18.5268V20.118C22.2608 20.957 22.3548 21.5357 22.5429 21.8394C22.7237 22.1577 23.0492 22.3096 23.5121 22.3096C23.9605 22.3096 24.2643 22.1938 24.4379 21.9841C24.6115 21.7671 24.7055 21.3693 24.72 20.8052H26.4413V20.7907H26.4558Z" fill="white"/>
<path d="M29.2114 22.1887H32.1985V23.6063H27.5117V15.1801H29.2114V22.1887Z" fill="white"/>
<path d="M34.9556 15.1606H33.2559V23.5867H34.9556V15.1606Z" fill="white"/>
<path d="M38.6144 15.1606L40.2056 21.2578L41.7968 15.1606H44.0173V23.5867H42.3031V21.3012L42.455 17.7933L40.777 23.594H39.6125L37.9345 17.7933L38.0864 21.3084V23.594H36.3867V15.1678H38.6216L38.6144 15.1606Z" fill="white"/>
<path d="M49.5066 21.8653H47.1849L46.7365 23.5867H44.9355L47.5755 15.1606H49.1378L51.785 23.5867H49.9695L49.5066 21.8653ZM47.5538 20.4477H49.1305L48.3494 17.4389L47.5538 20.4477Z" fill="white"/>
<path d="M57.3259 16.5782H55.2356V23.5867H53.5215V16.5782H51.4746V15.1606H57.3114L57.3259 16.5782Z" fill="white"/>
<path d="M62.6627 19.9465H60.0155V22.1887H63.1473V23.6063H58.3086V15.1801H63.1401V16.5833H60.0083V18.5723H62.6555V19.9465H62.6627Z" fill="white"/>
<path d="M70.8934 21.8653H68.5717L68.1232 23.5867H66.3223L68.9622 15.1606H70.5245L73.1717 23.5867H71.3563L70.8934 21.8653ZM68.9333 20.4477H70.51L69.7289 17.4389L68.9333 20.4477Z" fill="white"/>
<path d="M79.8406 23.5867H78.1409L75.6528 18.0537V23.5867H73.9531V15.1606H75.6528L78.1481 20.6936V15.1606H79.8406V23.5867Z" fill="white"/>
<path d="M81.2012 23.5867V15.1606H83.4361C84.427 15.1606 85.2081 15.4788 85.7867 16.1008C86.3654 16.7228 86.6764 17.5763 86.6836 18.6684V20.0427C86.6836 21.1565 86.3871 22.0172 85.8084 22.6537C85.2298 23.2829 84.4197 23.6012 83.3927 23.6012H81.2012V23.5867ZM82.9081 16.5782V22.1836H83.4144C83.9858 22.1836 84.3836 22.0317 84.615 21.7351C84.8465 21.4386 84.9694 20.9178 84.9839 20.1873V18.7191C84.9839 17.9379 84.8754 17.381 84.6584 17.07C84.4342 16.7518 84.0653 16.5999 83.5374 16.5782H82.9081Z" fill="white"/>
<path d="M94.9934 19.9465H92.3462V22.1887H95.4852V23.6063H90.6465V15.1801H95.478V16.5833H92.3462V18.5723H94.9934V19.9465Z" fill="white"/>
<path d="M102.35 23.5867H100.651L98.1626 18.0537V23.5867H96.4629V15.1606H98.1626L100.658 20.6936V15.1606H102.35V23.5867Z" fill="white"/>
<path d="M108.071 19.9465H105.424V22.1887H108.563V23.6063H103.725V15.1801H108.556V16.5833H105.424V18.5723H108.071V19.9465Z" fill="white"/>
<path d="M112.093 20.5134H111.247V23.5946H109.547V15.1684H112.259C113.113 15.1684 113.771 15.3926 114.234 15.8338C114.704 16.275 114.928 16.9043 114.928 17.7216C114.928 18.8426 114.523 19.6238 113.706 20.0722L115.181 23.5295V23.609H113.344L112.093 20.5134ZM111.247 19.0958H112.216C112.548 19.0958 112.809 18.9801 112.982 18.7631C113.156 18.5389 113.236 18.2351 113.236 17.859C113.236 17.0127 112.91 16.5932 112.245 16.5932H111.247V19.0958Z" fill="white"/>
<path d="M121.835 22.6423C121.51 22.9967 121.105 23.2643 120.634 23.4451C120.157 23.6259 119.636 23.7127 119.065 23.7127C118.096 23.7127 117.344 23.4162 116.801 22.8159C116.259 22.2155 115.984 21.3404 115.977 20.1976V18.6787C115.977 17.5143 116.23 16.6174 116.743 15.9954C117.25 15.3661 117.987 15.0551 118.964 15.0551C119.882 15.0551 120.562 15.2793 121.032 15.7278C121.502 16.1762 121.763 16.8923 121.835 17.8542H120.186C120.135 17.3118 120.02 16.9501 119.853 16.7548C119.68 16.5595 119.398 16.4583 119.014 16.4583C118.559 16.4583 118.219 16.6246 118.016 16.9573C117.814 17.29 117.698 17.8253 117.691 18.5558V20.0819C117.691 20.8486 117.799 21.4055 118.038 21.7526C118.269 22.0998 118.653 22.2734 119.166 22.2734C119.499 22.2734 119.781 22.2011 119.984 22.0709L120.135 21.9696V20.4218H118.942V19.1344H121.85V22.6278H121.835V22.6423Z" fill="white"/>
<path d="M125.589 18.9505L126.855 15.1606H128.706L126.442 20.5345V23.594H124.721V20.5345L122.457 15.1606H124.309L125.589 18.9505Z" fill="white"/>
<path d="M133.985 15.1606H132.285V23.5867H133.985V15.1606Z" fill="white"/>
<path d="M141.311 23.5867H139.612L137.124 18.0537V23.5867H135.424V15.1606H137.124L139.619 20.6936V15.1606H141.311V23.5867Z" fill="white"/>
<path d="M150.527 16.5782H148.437V23.5867H146.723V16.5782H144.676V15.1606H150.513L150.527 16.5782Z" fill="white"/>
<path d="M157.413 23.5867H155.721V19.9776H153.204V23.5867H151.504V15.1606H153.204V18.5744H155.721V15.1606H157.413V23.5867Z" fill="white"/>
<path d="M163.134 19.9465H160.487V22.1887H163.626V23.6063H158.787V15.1801H163.619V16.5833H160.487V18.5723H163.134V19.9465Z" fill="white"/>
<path d="M171.691 19.9465H169.043V22.1887H172.182V23.6063H167.344V15.1801H172.175V16.5833H169.036V18.5723H171.683V19.9465H171.691Z" fill="white"/>
<path d="M178.633 15.1639V21.0007C178.626 21.8759 178.387 22.5485 177.91 23.0114C177.432 23.4816 176.76 23.7058 175.863 23.7058C174.959 23.7058 174.272 23.4743 173.794 23.0042C173.317 22.5341 173.078 21.8542 173.078 20.9573V15.1567H174.792V20.9646C174.792 21.4419 174.872 21.7819 175.024 21.9916C175.176 22.1941 175.465 22.2954 175.863 22.2954C176.261 22.2954 176.543 22.1941 176.702 21.9916C176.854 21.7891 176.926 21.4492 176.933 20.9935V15.1639H178.633Z" fill="white"/>
<path d="M14.3125 0.47699V40.5681" stroke="white" stroke-miterlimit="10"/>
<path d="M0.642578 32.6664H143.591" stroke="white" stroke-miterlimit="10"/>
<path d="M22.8825 38.0394H21.718L21.4432 39.6089H21.002L21.6167 36.0649H23.4105L23.3381 36.4555H21.9856L21.7686 37.6706H22.9331L22.8825 38.0394Z" fill="white"/>
<path d="M23.7593 39.5904H23.3398L23.7955 36.9577H24.215L23.7593 39.5904ZM23.8895 36.2706C23.8895 36.1983 23.9185 36.1404 23.9619 36.0898C24.0053 36.0391 24.0631 36.0102 24.1354 36.0102C24.2078 36.0102 24.2584 36.0319 24.309 36.0825C24.3524 36.1332 24.3814 36.1982 24.3669 36.2633C24.3669 36.3357 24.338 36.3935 24.2946 36.4442C24.2512 36.4948 24.1933 36.5237 24.121 36.5237C24.0487 36.5237 23.9908 36.502 23.9474 36.4514C23.904 36.4008 23.8895 36.3429 23.8895 36.2706Z" fill="white"/>
<path d="M25.2837 36.9632L25.2331 37.2453C25.4284 37.021 25.6381 36.9125 25.884 36.9125C26.0504 36.9125 26.1806 36.9704 26.2819 37.0861C26.3831 37.1946 26.4337 37.3538 26.4482 37.5418C26.4554 37.6575 26.4482 37.766 26.441 37.8673L26.1589 39.5887H25.7394L26.0215 37.8528L26.0287 37.6575C26.0287 37.4116 25.9274 37.2814 25.7249 37.2814C25.5586 37.2814 25.3995 37.3755 25.2548 37.5635L25.1825 37.6647L24.857 39.5814H24.4375L24.8932 36.9487H25.2837V36.9632Z" fill="white"/>
<path d="M27.9884 36.9133C28.2343 36.9205 28.4079 37.029 28.5309 37.217L28.784 35.85H29.2035L28.5526 39.5894H28.1765L28.2271 39.3073C28.0535 39.5315 27.851 39.64 27.6051 39.6328C27.3809 39.6328 27.2145 39.5387 27.0988 39.3796C26.9758 39.2133 26.918 38.9746 26.918 38.6636C26.918 38.5189 26.9397 38.3309 26.9686 38.0922C27.012 37.8607 27.0626 37.651 27.1422 37.4919C27.323 37.0941 27.6051 36.8988 27.9884 36.9133ZM27.323 38.7793C27.3302 39.1048 27.4677 39.2711 27.7208 39.2711C27.8148 39.2711 27.9016 39.2494 27.9884 39.1988C28.068 39.1482 28.162 39.0686 28.2416 38.9457L28.4658 37.6076C28.3862 37.4051 28.2488 37.3038 28.0607 37.2894C27.6702 37.2677 27.4387 37.557 27.3664 38.1356C27.3302 38.4321 27.323 38.6347 27.323 38.7793Z" fill="white"/>
<path d="M30.8101 39.5904H30.3906L30.8391 36.9577H31.2586L30.8101 39.5904ZM30.9403 36.2706C30.9403 36.1983 30.9692 36.1404 31.0126 36.0898C31.056 36.0391 31.1139 36.0102 31.1862 36.0102C31.2586 36.0102 31.3092 36.0319 31.3598 36.0825C31.4032 36.1332 31.4321 36.1982 31.4177 36.2633C31.4177 36.3357 31.3887 36.3935 31.3453 36.4442C31.302 36.4948 31.2441 36.5237 31.1718 36.5237C31.0994 36.5237 31.0416 36.502 30.9982 36.4514C30.9548 36.4008 30.9331 36.3429 30.9403 36.2706Z" fill="white"/>
<path d="M32.3359 36.9632L32.278 37.2453C32.4733 37.021 32.6831 36.9125 32.929 36.9125C33.0953 36.9125 33.2255 36.9704 33.3268 37.0861C33.428 37.1946 33.4787 37.3538 33.4931 37.5418C33.5004 37.6575 33.4931 37.766 33.4859 37.8673L33.2038 39.5887H32.7843L33.0664 37.8528L33.0736 37.6575C33.0736 37.4116 32.9724 37.2814 32.7699 37.2814C32.6035 37.2814 32.4444 37.3755 32.2997 37.5635L32.2274 37.6647L31.9019 39.5814H31.4824L31.9381 36.9487H32.3359V36.9632Z" fill="white"/>
<path d="M34.0293 39.5852L34.4271 37.2996H34.0944L34.1523 36.9525H34.485L34.5139 36.6848C34.5573 36.3883 34.6441 36.1641 34.796 36.0122C34.9479 35.8603 35.1431 35.7808 35.3746 35.788C35.4541 35.788 35.5482 35.8097 35.6494 35.8386L35.5916 36.2075C35.5337 36.1858 35.4614 36.1786 35.3963 36.1786C35.1431 36.1786 34.9913 36.3521 34.9406 36.7065L34.8972 36.9525H35.3384L35.2806 37.2996H34.8394L34.4416 39.5852H34.0293Z" fill="white"/>
<path d="M35.5766 38.165C35.6272 37.7889 35.7574 37.4851 35.9672 37.2465C36.1697 37.015 36.4373 36.8993 36.7411 36.9137C36.9364 36.9137 37.0955 36.9716 37.2329 37.0873C37.3631 37.1958 37.4571 37.3405 37.5077 37.5358C37.5584 37.7311 37.5801 37.9336 37.5511 38.165L37.5222 38.4109C37.4716 38.787 37.3414 39.0908 37.1316 39.315C36.9291 39.5392 36.6615 39.6477 36.3577 39.6405C36.1625 39.6405 36.0033 39.5826 35.8659 39.4741C35.7357 39.3729 35.6417 39.221 35.5911 39.0257C35.5332 38.8304 35.5187 38.6279 35.5477 38.4037L35.5766 38.165ZM35.9527 38.5845C35.9527 38.8015 35.9816 38.9751 36.054 39.0908C36.1263 39.2138 36.2348 39.2716 36.3794 39.2861C36.5603 39.2933 36.7266 39.2282 36.8496 39.0836C36.9725 38.9389 37.0521 38.7292 37.0955 38.4399L37.1389 38.1578L37.1461 37.9842C37.1461 37.76 37.1172 37.5936 37.0448 37.4779C36.9725 37.3549 36.864 37.2971 36.7194 37.2826C36.5241 37.2754 36.3722 37.355 36.242 37.5141C36.1118 37.6804 36.025 37.9119 35.9961 38.2084L35.9672 38.4543L35.9527 38.5845Z" fill="white"/>
<path d="M39.3092 37.361C39.2369 37.3538 39.1791 37.3393 39.1284 37.3393C38.9114 37.3393 38.7379 37.4622 38.6004 37.7081L38.275 39.5959H37.8555L38.3111 36.9632H38.7162L38.6583 37.238C38.8102 37.021 38.9838 36.9125 39.1791 36.9125C39.2225 36.9125 39.2803 36.9198 39.3599 36.9559L39.3092 37.361Z" fill="white"/>
<path d="M40.1984 36.9642L40.1477 37.2101C40.3286 37.0076 40.5455 36.9136 40.7987 36.9136C40.9289 36.9136 41.0446 36.957 41.1314 37.0148C41.2182 37.0727 41.2978 37.1667 41.3339 37.2897C41.5509 37.0365 41.7823 36.8991 42.05 36.9136C42.2235 36.9136 42.3682 36.9714 42.4695 37.0799C42.5707 37.1812 42.6358 37.3331 42.643 37.5284C42.6503 37.6369 42.6503 37.7526 42.643 37.8611L42.361 39.5969H41.9559L42.238 37.8611L42.2452 37.6585C42.2452 37.5428 42.2163 37.456 42.1512 37.3909C42.0934 37.3331 42.0066 37.2969 41.9053 37.2969C41.7751 37.2969 41.6594 37.3476 41.5581 37.4488C41.4569 37.5501 41.3918 37.6803 41.3773 37.8249V37.8321L41.0808 39.5825H40.654L40.9361 37.8466C40.9433 37.7887 40.9433 37.7164 40.9361 37.6441C40.9289 37.4126 40.8132 37.2897 40.6106 37.2752C40.4081 37.2752 40.2418 37.3765 40.1116 37.6007L39.7789 39.5752H39.3594L39.8078 36.9425H40.1984V36.9642Z" fill="white"/>
<path d="M44.3642 39.5875C44.3569 39.5369 44.3569 39.4935 44.3569 39.4428L44.3642 39.2982C44.1833 39.5224 43.9736 39.6309 43.7638 39.6309C43.5468 39.6309 43.3877 39.5586 43.272 39.4284C43.149 39.2982 43.0984 39.1101 43.1201 38.8859C43.1418 38.6111 43.2503 38.3941 43.4528 38.235C43.6553 38.0686 43.9302 37.9891 44.2701 37.9891H44.5667L44.6101 37.7142C44.639 37.4177 44.5305 37.273 44.2846 37.273C44.1544 37.273 44.0531 37.3164 43.9663 37.3815C43.8868 37.4538 43.8217 37.5551 43.8 37.678H43.3805C43.4022 37.4538 43.5035 37.273 43.6843 37.1211C43.8651 36.9692 44.0821 36.8969 44.328 36.8969C44.5594 36.8969 44.7475 36.9692 44.8777 37.1139C45.0079 37.2585 45.0585 37.4466 45.0296 37.707L44.8126 39.0016C44.8053 39.0957 44.7909 39.1825 44.7909 39.2693L44.7981 39.5369V39.5803L44.3642 39.5875ZM43.8434 39.2548C44.0604 39.2548 44.2412 39.1535 44.3931 38.951L44.5016 38.3218H44.3063C44.1399 38.3218 43.988 38.3507 43.8651 38.4158C43.7349 38.4737 43.6481 38.5605 43.5902 38.6689C43.5396 38.7774 43.5179 38.8931 43.5396 39.0161C43.5613 39.1752 43.6626 39.2548 43.8434 39.2548Z" fill="white"/>
<path d="M46.475 36.3168L46.3666 36.9605H46.7571L46.6993 37.3077H46.3087L46.0338 38.9495V39.0508C46.0266 39.1955 46.0772 39.2533 46.1857 39.2533C46.2291 39.2533 46.287 39.2461 46.3593 39.2316L46.3159 39.6005C46.2219 39.6294 46.1351 39.6511 46.0411 39.6439C45.8964 39.6439 45.7879 39.586 45.7084 39.4631C45.6361 39.3401 45.6071 39.1665 45.6288 38.9423L45.8964 37.3149H45.5059L45.5637 36.9678H45.9543L46.0628 36.3241H46.475V36.3168Z" fill="white"/>
<path d="M47.2574 39.5904H46.8379L47.2936 36.9577H47.7131L47.2574 39.5904ZM47.3876 36.2706C47.3876 36.1983 47.4165 36.1404 47.4599 36.0898C47.5033 36.0391 47.5612 36.0102 47.6335 36.0102C47.7058 36.0102 47.7564 36.0319 47.8071 36.0825C47.8505 36.1332 47.8794 36.1982 47.8649 36.2633C47.8649 36.3357 47.836 36.3935 47.7926 36.4442C47.7492 36.4948 47.6914 36.5237 47.619 36.5237C47.5467 36.5237 47.4888 36.502 47.4454 36.4514C47.4093 36.4008 47.3876 36.3429 47.3876 36.2706Z" fill="white"/>
<path d="M48.1122 38.165C48.1628 37.7889 48.293 37.4851 48.5028 37.2465C48.7053 37.015 48.9729 36.8993 49.2767 36.9137C49.472 36.9137 49.6311 36.9716 49.7685 37.0873C49.8987 37.1958 49.9927 37.3405 50.0433 37.5358C50.094 37.7311 50.1157 37.9336 50.0867 38.165L50.0578 38.4109C50.0072 38.787 49.877 39.0908 49.6672 39.315C49.4647 39.5392 49.1971 39.6477 48.8933 39.6405C48.6981 39.6405 48.5389 39.5826 48.4015 39.4741C48.2713 39.3729 48.1773 39.221 48.1267 39.0257C48.076 38.8304 48.0543 38.6279 48.0833 38.4037L48.1122 38.165ZM48.4955 38.5845C48.4955 38.8015 48.5245 38.9751 48.5968 39.0908C48.6691 39.2065 48.7776 39.2716 48.9223 39.2861C49.1031 39.2933 49.2694 39.2282 49.3924 39.0836C49.5154 38.9389 49.5949 38.7292 49.6383 38.4399L49.6817 38.1578L49.6889 37.9842C49.6889 37.76 49.66 37.5936 49.5877 37.4779C49.5154 37.3549 49.4069 37.2971 49.2622 37.2826C49.0669 37.2754 48.915 37.355 48.7848 37.5141C48.6619 37.6804 48.5679 37.9119 48.5389 38.2084L48.51 38.4543L48.4955 38.5845Z" fill="white"/>
<path d="M51.2421 36.9632L51.1843 37.2453C51.3796 37.021 51.5893 36.9125 51.8352 36.9125C52.0016 36.9125 52.1318 36.9704 52.233 37.0861C52.3343 37.1946 52.3849 37.3538 52.3994 37.5418C52.4066 37.6575 52.3994 37.766 52.3921 37.8673L52.1101 39.5887H51.6906L51.9726 37.8528L51.9799 37.6575C51.9799 37.4116 51.8786 37.2814 51.6761 37.2814C51.5097 37.2814 51.3506 37.3755 51.206 37.5635L51.1336 37.6647L50.8082 39.5814H50.3887L50.8443 36.9487H51.2421V36.9632Z" fill="white"/>
<path d="M54.0556 38.165C54.1062 37.7889 54.2364 37.4851 54.4461 37.2465C54.6486 37.015 54.9163 36.8993 55.22 36.9137C55.4153 36.9137 55.5744 36.9716 55.7119 37.0873C55.8421 37.1958 55.9361 37.3405 55.9867 37.5358C56.0373 37.7311 56.059 37.9336 56.0301 38.165L56.0012 38.4109C55.9505 38.787 55.8204 39.0908 55.6106 39.315C55.4081 39.5392 55.1405 39.6477 54.8367 39.6405C54.6414 39.6405 54.4823 39.5826 54.3449 39.4741C54.2147 39.3729 54.1207 39.221 54.07 39.0257C54.0194 38.8304 53.9977 38.6279 54.0266 38.4037L54.0556 38.165ZM54.4317 38.5845C54.4317 38.8015 54.4606 38.9751 54.5329 39.0908C54.6053 39.2065 54.7137 39.2716 54.8584 39.2861C55.0392 39.2933 55.2056 39.2282 55.3285 39.0836C55.4515 38.9389 55.531 38.7292 55.5744 38.4399L55.6178 38.1578L55.6251 37.9842C55.6251 37.76 55.5961 37.5936 55.5238 37.4779C55.4515 37.3549 55.343 37.2971 55.1983 37.2826C55.0031 37.2754 54.8512 37.355 54.721 37.5141C54.598 37.6804 54.504 37.9119 54.4751 38.2084L54.4461 38.4543L54.4317 38.5845Z" fill="white"/>
<path d="M57.1802 36.9632L57.1296 37.2453C57.3249 37.021 57.5346 36.9125 57.7805 36.9125C57.9469 36.9125 58.0771 36.9704 58.1783 37.0861C58.2796 37.1946 58.3302 37.3538 58.3447 37.5418C58.3519 37.6575 58.3447 37.766 58.3375 37.8673L58.0554 39.5887H57.6359L57.918 37.8528L57.9252 37.6575C57.9252 37.4116 57.8239 37.2814 57.6214 37.2814C57.4551 37.2814 57.2959 37.3755 57.1513 37.5635L57.079 37.6647L56.7535 39.5814H56.334L56.7896 36.9487H57.1802V36.9632Z" fill="white"/>
<path d="M60.9555 36.3168L60.847 36.9605H61.2376L61.1797 37.3077H60.7892L60.5143 38.9495V39.0508C60.5071 39.1955 60.5577 39.2533 60.6662 39.2533C60.7096 39.2533 60.7675 39.2461 60.8398 39.2316L60.7964 39.6005C60.7024 39.6294 60.6156 39.6511 60.5215 39.6439C60.3769 39.6439 60.2684 39.586 60.1888 39.4631C60.1165 39.3401 60.0876 39.1665 60.1093 38.9423L60.3769 37.3149H59.9863L60.0442 36.9678H60.4348L60.5432 36.3241H60.9555V36.3168Z" fill="white"/>
<path d="M62.0997 37.2381C62.295 37.0139 62.5047 36.9127 62.7434 36.9199C62.917 36.9199 63.0472 36.9778 63.1412 37.0863C63.2353 37.1947 63.2931 37.3539 63.3076 37.5419C63.3148 37.6576 63.3076 37.7661 63.3003 37.8674L63.0183 39.5888H62.5988L62.8808 37.8529L62.8881 37.6576C62.8881 37.4117 62.7868 37.2815 62.5843 37.2815C62.418 37.2815 62.2588 37.3756 62.1142 37.5636L62.0418 37.6649L61.7164 39.5815H61.2969L61.9478 35.8422H62.3673L62.0997 37.2381Z" fill="white"/>
<path d="M64.6235 39.6405C64.327 39.6405 64.1027 39.532 63.9581 39.3223C63.8134 39.1053 63.7556 38.8232 63.7917 38.4688L63.8207 38.2012C63.8713 37.7961 63.9943 37.4707 64.1968 37.2465C64.3993 37.015 64.6452 36.8993 64.949 36.9137C65.2021 36.921 65.3902 37.0078 65.5059 37.1669C65.6289 37.3332 65.6867 37.5647 65.6867 37.8612L65.665 38.1578L65.6216 38.4109H64.204C64.1823 38.5556 64.1751 38.6785 64.1751 38.7581C64.1751 38.9245 64.2185 39.0547 64.298 39.1487C64.3776 39.2427 64.4933 39.2933 64.6307 39.2933C64.732 39.2933 64.8333 39.2716 64.9345 39.2355C65.0358 39.1993 65.137 39.1125 65.2528 39.004L65.448 39.2789C65.3468 39.4091 65.2166 39.5103 65.0575 39.5754C64.949 39.6116 64.7971 39.6405 64.6235 39.6405ZM64.9417 37.2754C64.6597 37.2681 64.4499 37.4417 64.3414 37.7961L64.2836 38.0276H65.2889L65.2961 37.9697C65.3034 37.8974 65.3034 37.8178 65.3034 37.7383C65.2961 37.449 65.1732 37.2898 64.9417 37.2754Z" fill="white"/>
<path d="M69.0575 37.9671H67.8424L67.6254 39.2184H69.043L68.9707 39.6089H67.1191L67.7339 36.0649H69.571L69.4987 36.4555H68.1028L67.9003 37.5982H69.1154L69.0575 37.9671Z" fill="white"/>
<path d="M72.2459 36.0571L71.8192 38.5524C71.7686 38.8995 71.6384 39.1744 71.4214 39.3697C71.2044 39.565 70.9296 39.6662 70.6041 39.6517C70.2859 39.6445 70.0544 39.536 69.8881 39.348C69.7217 39.1527 69.6638 38.8923 69.7072 38.5524L70.134 36.0571H70.5752L70.1484 38.5668C70.1412 38.6681 70.1412 38.7477 70.1484 38.8417C70.1774 39.1238 70.3437 39.2684 70.6403 39.2829C70.8428 39.2901 71.0164 39.2323 71.1393 39.1165C71.2695 39.0008 71.3563 38.82 71.3925 38.5958L71.8192 36.0715L72.2459 36.0571Z" fill="white"/>
<path d="M74.7138 39.5875C74.7065 39.5369 74.7065 39.4935 74.7065 39.4428L74.7138 39.2982C74.5329 39.5224 74.3232 39.6309 74.1134 39.6309C73.8965 39.6309 73.7373 39.5586 73.6216 39.4284C73.4987 39.2982 73.448 39.1101 73.4697 38.8859C73.4914 38.6111 73.5999 38.3941 73.8024 38.235C74.0049 38.0759 74.2798 37.9891 74.6197 37.9891H74.9163L74.9597 37.7142C74.9886 37.4177 74.8801 37.273 74.6342 37.273C74.504 37.273 74.4027 37.3164 74.316 37.3815C74.2292 37.4466 74.1713 37.5551 74.1496 37.678H73.7301C73.7518 37.4538 73.8531 37.273 74.0339 37.1211C74.2147 36.9692 74.4317 36.8969 74.6776 36.8969C74.909 36.8969 75.0971 36.9692 75.2273 37.1139C75.3502 37.2585 75.4081 37.4466 75.3792 37.707L75.1622 39.0016C75.155 39.0957 75.1405 39.1825 75.1405 39.2693L75.1477 39.5369V39.5803L74.7138 39.5875ZM74.193 39.2548C74.41 39.2548 74.5908 39.1535 74.7427 38.951L74.8512 38.3218H74.6559C74.4895 38.3218 74.3377 38.3507 74.2147 38.4158C74.0845 38.4737 73.9977 38.5605 73.9399 38.6689C73.8892 38.7774 73.8675 38.8931 73.8892 39.0161C73.9109 39.1752 74.0122 39.2548 74.193 39.2548Z" fill="white"/>
<path d="M76.5572 36.9632L76.5065 37.2453C76.7018 37.021 76.9116 36.9125 77.1575 36.9125C77.3238 36.9125 77.454 36.9704 77.5553 37.0861C77.6565 37.1946 77.7072 37.3538 77.7216 37.5418C77.7289 37.6575 77.7216 37.766 77.7144 37.8673L77.4323 39.5887H77.0128L77.2949 37.8528L77.3021 37.6575C77.3021 37.4116 77.2009 37.2814 76.9984 37.2814C76.832 37.2814 76.6729 37.3755 76.5282 37.5635L76.4559 37.6647L76.1304 39.5814H75.7109L76.1666 36.9487H76.5572V36.9632Z" fill="white"/>
<path d="M79.2548 36.9133C79.5007 36.9205 79.6743 37.029 79.7973 37.217L80.0504 35.85H80.4699L79.819 39.5894H79.4284L79.479 39.3073C79.3055 39.5315 79.0885 39.64 78.857 39.6328C78.64 39.6328 78.4665 39.5387 78.3507 39.3796C78.2278 39.2133 78.1699 38.9746 78.1699 38.6636C78.1699 38.5189 78.1916 38.3309 78.2206 38.0922C78.2639 37.8607 78.3146 37.651 78.3941 37.4919C78.5967 37.0941 78.8787 36.8988 79.2548 36.9133ZM78.5967 38.7793C78.6039 39.1048 78.7413 39.2711 78.9945 39.2711C79.0885 39.2711 79.1753 39.2494 79.2621 39.1988C79.3416 39.1482 79.4357 39.0686 79.5152 38.9457L79.7394 37.6076C79.6599 37.4051 79.5224 37.3038 79.3344 37.2894C78.9438 37.2677 78.7124 37.557 78.64 38.1356C78.6039 38.4321 78.5967 38.6347 78.5967 38.7793Z" fill="white"/>
<path d="M82.0836 39.5904H81.6641L82.1197 36.9577H82.5392L82.0836 39.5904ZM82.2138 36.2706C82.2138 36.1983 82.2427 36.1404 82.2861 36.0898C82.3295 36.0391 82.3873 36.0102 82.4597 36.0102C82.532 36.0102 82.5826 36.0319 82.6333 36.0825C82.6767 36.1332 82.7056 36.1982 82.6911 36.2633C82.6911 36.3357 82.6622 36.3935 82.6188 36.4442C82.5754 36.4948 82.5175 36.5237 82.4452 36.5237C82.3729 36.5237 82.315 36.502 82.2716 36.4514C82.221 36.4008 82.2065 36.3429 82.2138 36.2706Z" fill="white"/>
<path d="M83.8768 36.3168L83.7683 36.9605H84.1589L84.101 37.3077H83.7105L83.4356 38.9495L83.4284 39.0508C83.4211 39.1955 83.4718 39.2533 83.5803 39.2533C83.6237 39.2533 83.6815 39.2461 83.7539 39.2316L83.7105 39.6005C83.6164 39.6294 83.5296 39.6511 83.4356 39.6439C83.291 39.6439 83.1825 39.586 83.1029 39.4631C83.0306 39.3401 83.0016 39.1665 83.0233 38.9423L83.291 37.3149H82.9004L82.9582 36.9678H83.3488L83.4573 36.3241H83.8768V36.3168Z" fill="white"/>
<path d="M85.576 38.8932C85.5977 38.7413 85.5182 38.6111 85.3229 38.5026L84.9974 38.329C84.8238 38.235 84.7153 38.1337 84.643 38.0325C84.5707 37.9312 84.5418 37.8082 84.549 37.6636C84.5562 37.4394 84.6502 37.2585 84.8238 37.1139C84.9974 36.9692 85.1999 36.8969 85.4459 36.8969C85.6773 36.9041 85.8654 36.9765 85.9955 37.1284C86.1257 37.2803 86.1908 37.4611 86.1764 37.6998H85.7569C85.7569 37.5696 85.7279 37.4683 85.6628 37.396C85.605 37.3236 85.5182 37.2875 85.4097 37.273C85.2867 37.273 85.1855 37.3019 85.1059 37.3743C85.0264 37.4466 84.9757 37.5406 84.9613 37.6491C84.9396 37.7793 85.0047 37.895 85.1565 37.9746L85.5616 38.1916C85.8654 38.3652 86.01 38.5894 85.9883 38.8642C85.9666 39.0957 85.8798 39.291 85.7062 39.4356C85.5326 39.5803 85.3157 39.6526 85.0625 39.6381C84.8166 39.6381 84.6213 39.5586 84.4694 39.4067C84.3175 39.2548 84.2452 39.0523 84.2524 38.8064H84.6792C84.6792 38.9583 84.7081 39.074 84.7804 39.1535C84.8528 39.2331 84.954 39.2765 85.077 39.2765C85.2072 39.2765 85.3229 39.2476 85.4097 39.1752C85.5182 39.1029 85.5688 39.0089 85.576 38.8932Z" fill="white"/>
<path d="M88.7875 36.0571L89.1853 38.9429L90.5812 36.0571H91.1526L90.5378 39.6011H90.0966L90.3426 38.198L90.6174 36.8816L89.2504 39.6011H88.9177L88.4982 36.831L88.2957 38.2486L88.0642 39.6011H87.623L88.2378 36.0571H88.7875Z" fill="white"/>
<path d="M92.2231 39.6405C91.9266 39.6405 91.7023 39.532 91.5577 39.3223C91.413 39.1053 91.3552 38.8232 91.3913 38.4688L91.4203 38.2012C91.4709 37.7961 91.5939 37.4707 91.7964 37.2465C91.9989 37.015 92.2448 36.8993 92.5486 36.9137C92.8017 36.921 92.9898 37.0078 93.1055 37.1669C93.2285 37.3332 93.2863 37.5647 93.2863 37.8612L93.2646 38.1578L93.2212 38.4109H91.8036C91.7819 38.5556 91.7747 38.6785 91.7747 38.7581C91.7747 38.9245 91.8181 39.0547 91.8976 39.1487C91.9772 39.2427 92.0929 39.2933 92.2303 39.2933C92.3316 39.2933 92.4329 39.2716 92.5341 39.2355C92.6354 39.1993 92.7366 39.1125 92.8524 39.004L93.0476 39.2789C92.9464 39.4091 92.8162 39.5103 92.6571 39.5754C92.5558 39.6116 92.3967 39.6405 92.2231 39.6405ZM92.5341 37.2754C92.252 37.2681 92.0423 37.4417 91.9338 37.7961L91.8759 38.0276H92.8813L92.8885 37.9697C92.8958 37.8974 92.8958 37.8178 92.8958 37.7383C92.903 37.449 92.78 37.2898 92.5341 37.2754Z" fill="white"/>
<path d="M94.3789 36.9642L94.3282 37.2101C94.509 37.0076 94.726 36.9136 94.9792 36.9136C95.1094 36.9136 95.2251 36.957 95.3119 37.0148C95.4059 37.0727 95.4782 37.1667 95.5144 37.2897C95.7314 37.0365 95.9628 36.8991 96.2304 36.9136C96.404 36.9136 96.5487 36.9714 96.6499 37.0799C96.7512 37.1812 96.8163 37.3331 96.8235 37.5284C96.8308 37.6369 96.8308 37.7526 96.8235 37.8611L96.5414 39.5969H96.1219L96.404 37.8611L96.4113 37.6585C96.4113 37.5428 96.3823 37.456 96.3172 37.3909C96.2594 37.3331 96.1726 37.2969 96.0713 37.2969C95.9411 37.2969 95.8254 37.3476 95.7242 37.4488C95.6229 37.5501 95.5578 37.6803 95.5433 37.8249V37.8321L95.2468 39.5825H94.8201L95.1021 37.8466C95.1094 37.7887 95.1094 37.7164 95.1021 37.6441C95.0949 37.4126 94.9792 37.2897 94.7767 37.2752C94.5741 37.2752 94.4078 37.3765 94.2776 37.6007L93.9449 39.5752H93.5254L93.9811 36.9425H94.3789V36.9642Z" fill="white"/>
<path d="M98.2415 39.64C97.9739 39.6328 97.7859 39.5098 97.6701 39.2711L97.5761 39.5894H97.1855L97.8365 35.85H98.256L97.9884 37.246C98.162 37.0145 98.379 36.8988 98.6176 36.9133C98.8419 36.9133 99.0154 37.0073 99.1384 37.1664C99.2469 37.3328 99.312 37.5714 99.3047 37.8897C99.2975 38.0633 99.2758 38.2586 99.2469 38.4683C99.218 38.6853 99.1673 38.8661 99.1022 39.018C98.9286 39.4519 98.6393 39.6545 98.2415 39.64ZM98.8997 37.7884C98.8925 37.6148 98.8563 37.4919 98.7912 37.4123C98.7189 37.3328 98.6249 37.2894 98.5091 37.2894C98.3066 37.2894 98.1186 37.3978 97.9667 37.6582L97.7497 38.9095C97.822 39.1337 97.9667 39.2567 98.1764 39.2639C98.3717 39.2711 98.5236 39.206 98.6321 39.0614C98.7406 38.9167 98.8274 38.6925 98.8563 38.3887C98.8852 38.085 98.8997 37.8825 98.8997 37.7884Z" fill="white"/>
<path d="M100.584 39.6405C100.288 39.6405 100.064 39.532 99.919 39.3223C99.7744 39.1053 99.7165 38.8232 99.7527 38.4688L99.7816 38.2012C99.8322 37.7961 99.9552 37.4707 100.158 37.2465C100.36 37.015 100.606 36.8993 100.91 36.9137C101.163 36.921 101.351 37.0078 101.467 37.1669C101.59 37.3332 101.648 37.5647 101.648 37.8612L101.626 38.1578L101.583 38.4109H100.165C100.143 38.5556 100.136 38.6785 100.136 38.7581C100.136 38.9245 100.179 39.0547 100.259 39.1487C100.339 39.2427 100.454 39.2933 100.592 39.2933C100.693 39.2933 100.794 39.2716 100.895 39.2355C100.997 39.1993 101.098 39.1125 101.214 39.004L101.409 39.2789C101.308 39.4091 101.178 39.5103 101.018 39.5754C100.917 39.6116 100.751 39.6405 100.584 39.6405ZM100.903 37.2754C100.621 37.2681 100.411 37.4417 100.302 37.7961L100.245 38.0276H101.25L101.257 37.9697C101.264 37.8974 101.264 37.8178 101.264 37.7383C101.257 37.449 101.141 37.2898 100.903 37.2754Z" fill="white"/>
<path d="M103.348 37.361C103.276 37.3538 103.218 37.3393 103.167 37.3393C102.951 37.3393 102.777 37.4622 102.64 37.7081L102.314 39.5959H101.895L102.35 36.9632H102.755L102.697 37.238C102.849 37.021 103.023 36.9125 103.218 36.9125C103.262 36.9125 103.319 36.9198 103.399 36.9559L103.348 37.361Z" fill="white"/>
<path d="M106.241 38.6869C106.262 38.5422 106.234 38.412 106.168 38.318C106.096 38.2168 105.966 38.1227 105.749 38.0359C105.532 37.9419 105.38 37.8551 105.272 37.7611C105.04 37.5586 104.939 37.3127 104.953 37.0089C104.975 36.7268 105.098 36.4881 105.301 36.2929C105.517 36.0976 105.756 36.018 106.067 36.018C106.349 36.0252 106.573 36.1337 106.74 36.3362C106.906 36.5388 106.971 36.7919 106.957 37.1029H106.516C106.537 36.8787 106.494 36.7051 106.414 36.5966C106.335 36.4881 106.197 36.423 106.038 36.4158C105.865 36.4158 105.713 36.4664 105.597 36.5822C105.474 36.6979 105.416 36.8353 105.395 37.0234C105.373 37.1536 105.402 37.2765 105.489 37.3778C105.568 37.479 105.706 37.5731 105.894 37.6526C106.082 37.7322 106.241 37.8262 106.349 37.9058C106.595 38.1083 106.696 38.3759 106.675 38.7086C106.653 38.9907 106.53 39.2293 106.328 39.4102C106.125 39.591 105.857 39.6778 105.546 39.6778C105.25 39.6705 105.018 39.562 104.83 39.3595C104.65 39.157 104.577 38.9039 104.584 38.5929H105.026C105.004 38.8098 105.047 38.969 105.134 39.0919C105.221 39.2149 105.366 39.2872 105.561 39.2872C105.734 39.2944 105.886 39.2438 106.009 39.1353C106.154 39.0124 106.226 38.8677 106.241 38.6869Z" fill="white"/>
<path d="M108.172 36.3168L108.056 36.9605H108.447L108.389 37.3077H107.998L107.723 38.9495V39.0508C107.716 39.1954 107.767 39.2533 107.875 39.2533C107.919 39.2533 107.976 39.246 108.049 39.2316L108.005 39.6004C107.911 39.6294 107.825 39.6511 107.731 39.6438C107.579 39.6438 107.477 39.586 107.398 39.463C107.326 39.34 107.297 39.1665 107.318 38.9422L107.586 37.3149H107.195L107.253 36.9677H107.644L107.752 36.324H108.172V36.3168Z" fill="white"/>
<path d="M109.85 39.5875C109.843 39.5369 109.843 39.4935 109.843 39.4428L109.85 39.2982C109.67 39.5224 109.46 39.6309 109.25 39.6309C109.033 39.6309 108.874 39.5586 108.758 39.4284C108.635 39.2982 108.585 39.1101 108.606 38.8859C108.628 38.6111 108.737 38.3941 108.939 38.235C109.142 38.0759 109.417 37.9891 109.756 37.9891H110.053L110.096 37.7142C110.125 37.4177 110.017 37.273 109.771 37.273C109.641 37.273 109.539 37.3164 109.453 37.3815C109.366 37.4466 109.308 37.5551 109.286 37.678H108.867C108.889 37.4538 108.99 37.273 109.171 37.1211C109.351 36.9692 109.568 36.8969 109.814 36.8969C110.046 36.8969 110.234 36.9692 110.364 37.1139C110.494 37.2585 110.545 37.4466 110.516 37.707L110.299 39.0016C110.292 39.0957 110.277 39.1825 110.277 39.2693L110.284 39.5369V39.5803L109.85 39.5875ZM109.33 39.2548C109.547 39.2548 109.728 39.1535 109.872 38.951L109.981 38.3218H109.785C109.619 38.3218 109.467 38.3507 109.344 38.4158C109.214 38.4737 109.127 38.5605 109.069 38.6689C109.019 38.7774 108.997 38.8931 109.019 39.0161C109.048 39.1752 109.149 39.2548 109.33 39.2548Z" fill="white"/>
<path d="M111.961 36.3168L111.853 36.9605H112.243L112.186 37.3077H111.795L111.52 38.9495V39.0508C111.513 39.1955 111.564 39.2533 111.672 39.2533C111.715 39.2533 111.773 39.2461 111.846 39.2316L111.802 39.6005C111.708 39.6294 111.621 39.6511 111.527 39.6439C111.383 39.6439 111.274 39.586 111.195 39.4631C111.122 39.3401 111.093 39.1665 111.115 38.9423L111.383 37.3149H110.992L111.05 36.9678H111.433L111.542 36.3241H111.961V36.3168Z" fill="white"/>
<path d="M113.278 39.6405C112.981 39.6405 112.757 39.532 112.612 39.3223C112.468 39.1053 112.41 38.8232 112.446 38.4688L112.475 38.2012C112.526 37.7961 112.649 37.4707 112.851 37.2465C113.054 37.015 113.299 36.8993 113.603 36.9137C113.856 36.921 114.044 37.0078 114.16 37.1669C114.283 37.3332 114.341 37.5647 114.341 37.8612L114.319 38.1578L114.276 38.4109H112.88C112.858 38.5556 112.851 38.6785 112.851 38.7581C112.851 38.9245 112.894 39.0547 112.974 39.1487C113.054 39.2427 113.169 39.2933 113.307 39.2933C113.408 39.2933 113.509 39.2716 113.611 39.2355C113.712 39.1921 113.813 39.1125 113.929 39.004L114.124 39.2789C114.023 39.4091 113.893 39.5103 113.733 39.5754C113.603 39.6116 113.451 39.6405 113.278 39.6405ZM113.589 37.2754C113.307 37.2681 113.097 37.4417 112.988 37.7961L112.931 38.0276H113.936L113.943 37.9697C113.95 37.8974 113.95 37.8178 113.95 37.7383C113.95 37.449 113.827 37.2898 113.589 37.2754Z" fill="white"/>
<path d="M115.955 38.8932C115.977 38.7413 115.897 38.6111 115.702 38.5026L115.376 38.329C115.203 38.235 115.094 38.1337 115.022 38.0325C114.95 37.9312 114.921 37.8082 114.928 37.6636C114.935 37.4394 115.029 37.2585 115.203 37.1139C115.376 36.9692 115.579 36.8969 115.825 36.8969C116.056 36.9041 116.244 36.9765 116.374 37.1284C116.505 37.2803 116.57 37.4611 116.555 37.6998H116.136C116.136 37.5696 116.107 37.4683 116.042 37.396C115.984 37.3236 115.89 37.2875 115.789 37.273C115.666 37.273 115.564 37.3019 115.485 37.3743C115.405 37.4466 115.355 37.5406 115.34 37.6491C115.318 37.7793 115.384 37.895 115.535 37.9746L115.94 38.1916C116.244 38.3652 116.389 38.5894 116.367 38.8642C116.346 39.0957 116.259 39.291 116.085 39.4356C115.912 39.5803 115.695 39.6526 115.441 39.6381C115.196 39.6381 115 39.5586 114.848 39.4067C114.696 39.2548 114.624 39.0523 114.631 38.8064H115.058C115.058 38.9583 115.087 39.074 115.159 39.1535C115.232 39.2331 115.333 39.2765 115.456 39.2765C115.586 39.2765 115.702 39.2476 115.789 39.1752C115.897 39.1029 115.948 39.0089 115.955 38.8932Z" fill="white"/>
<path d="M117.669 36.1511L117.488 37.0262H117.17L117.351 35.8618H117.705L117.669 36.1511Z" fill="white"/>
<path d="M21.7997 46.1641C21.5465 46.1569 21.3585 46.0556 21.2427 45.8603L21.0113 47.1261H20.5918L21.221 43.4807H21.5971L21.5465 43.7773C21.7273 43.5458 21.9371 43.4301 22.1902 43.4301C22.4217 43.4301 22.5953 43.5241 22.711 43.6977C22.8195 43.8713 22.8773 44.1028 22.8773 44.4138C22.8773 44.5584 22.8556 44.7392 22.8195 44.9635C22.7906 45.1877 22.7399 45.383 22.6748 45.5348C22.494 45.9616 22.1975 46.1786 21.7997 46.1641ZM22.4578 44.2981C22.4361 43.9798 22.2915 43.8062 22.0383 43.8062C21.8431 43.8062 21.6695 43.9075 21.5321 44.11L21.3006 45.4842C21.3802 45.6795 21.5176 45.7808 21.7056 45.788C21.9009 45.7952 22.0528 45.7301 22.1758 45.5855C22.2987 45.4408 22.3783 45.2166 22.4217 44.9201C22.4434 44.6235 22.4578 44.4138 22.4578 44.2981Z" fill="white"/>
<path d="M24.6257 43.8785C24.5533 43.8713 24.4955 43.8568 24.4448 43.8568C24.2279 43.8568 24.0543 43.9798 23.9168 44.2257L23.5914 46.1135H23.1719L23.6275 43.4807H24.0326L23.9747 43.7556C24.1266 43.5386 24.3002 43.4301 24.4955 43.4301C24.5389 43.4301 24.5967 43.4373 24.6763 43.4735L24.6257 43.8785Z" fill="white"/>
<path d="M24.786 44.6806C24.8367 44.3045 24.9668 44.0008 25.1766 43.7621C25.3791 43.5306 25.6467 43.4149 25.9505 43.4294C26.1458 43.4294 26.3049 43.4872 26.4423 43.603C26.5725 43.7187 26.6665 43.8561 26.7172 44.0514C26.775 44.2467 26.7895 44.4492 26.7606 44.6806L26.7316 44.9266C26.681 45.3027 26.5508 45.6064 26.3411 45.8306C26.1386 46.0549 25.8709 46.1634 25.5672 46.1561C25.3719 46.1561 25.2128 46.0983 25.0753 45.9898C24.9451 45.8885 24.8511 45.7366 24.8005 45.5413C24.7499 45.3461 24.7282 45.1435 24.7571 44.9193L24.786 44.6806ZM25.1621 45.1146C25.1621 45.3316 25.1911 45.5052 25.2634 45.6209C25.3357 45.7366 25.4442 45.8017 25.5889 45.8162C25.7697 45.8234 25.936 45.7583 26.059 45.6137C26.1819 45.469 26.2615 45.2593 26.3049 44.9699L26.3483 44.6879L26.3555 44.5143C26.3555 44.2901 26.3266 44.1237 26.2543 44.008C26.1819 43.885 26.0735 43.8272 25.9288 43.8127C25.7335 43.8055 25.5816 43.885 25.4514 44.0442C25.3213 44.2105 25.2345 44.442 25.2055 44.7385L25.1766 44.9844L25.1621 45.1146Z" fill="white"/>
<path d="M28.2647 43.4305C28.5179 43.4377 28.7132 43.5534 28.8216 43.7777L28.9157 43.4811H29.3062L28.8578 46.1428C28.8289 46.3453 28.7638 46.5333 28.677 46.6925C28.583 46.8443 28.46 46.9673 28.3081 47.0468C28.1562 47.1264 27.9826 47.1698 27.7874 47.1626C27.6427 47.1626 27.5125 47.1192 27.3679 47.0613C27.2232 47.0034 27.1147 46.9167 27.0352 46.8154L27.2377 46.5333C27.3896 46.7069 27.5704 46.8009 27.7801 46.8009C27.9537 46.8082 28.1056 46.7575 28.2213 46.6491C28.3298 46.5478 28.4166 46.3814 28.4455 46.1717L28.5034 45.8679C28.3298 46.0849 28.1273 46.1862 27.8886 46.1717C27.6644 46.1717 27.4908 46.0777 27.3679 45.9041C27.2449 45.7305 27.1943 45.4991 27.1943 45.2025C27.1943 45.0723 27.2015 44.8987 27.2449 44.6745C27.3028 44.2695 27.4185 43.9585 27.5921 43.7487C27.7512 43.5245 27.9754 43.4232 28.2647 43.4305ZM27.5993 45.2893C27.6065 45.6148 27.744 45.7811 27.9971 45.7811C28.1924 45.7811 28.366 45.6799 28.5179 45.4556L28.7421 44.1321C28.6625 43.9295 28.5179 43.8138 28.3371 43.8066C27.9465 43.7993 27.715 44.0814 27.6355 44.6601C27.6065 44.9494 27.5993 45.1663 27.5993 45.2893Z" fill="white"/>
<path d="M30.9323 43.8785C30.86 43.8713 30.8021 43.8568 30.7515 43.8568C30.5345 43.8568 30.3609 43.9798 30.2235 44.2257L29.898 46.1135H29.4785L29.9342 43.4807H30.3392L30.2814 43.7556C30.4332 43.5386 30.6068 43.4301 30.8021 43.4301C30.8455 43.4301 30.9034 43.4373 30.9829 43.4735L30.9323 43.8785Z" fill="white"/>
<path d="M31.9028 46.1644C31.6063 46.1644 31.382 46.0559 31.2374 45.8462C31.0927 45.6292 31.0349 45.3471 31.071 44.9927L31.1 44.7251C31.1506 44.3201 31.2735 43.9946 31.4761 43.7704C31.6786 43.5389 31.9245 43.4232 32.2283 43.4304C32.4814 43.4377 32.6695 43.5245 32.7852 43.6836C32.9081 43.8499 32.966 44.0814 32.966 44.3779L32.9443 44.6745L32.9009 44.9276H31.4833C31.4616 45.0723 31.4544 45.1952 31.4544 45.2748C31.4544 45.4411 31.4978 45.5713 31.5773 45.6654C31.6569 45.7594 31.7726 45.81 31.91 45.81C32.0113 45.81 32.1125 45.7883 32.2138 45.7521C32.3151 45.7087 32.4163 45.6292 32.532 45.5207L32.7273 45.7955C32.6261 45.9257 32.4959 46.027 32.3368 46.0921C32.2283 46.1355 32.0764 46.1644 31.9028 46.1644ZM32.2138 43.7993C31.9317 43.7921 31.722 43.9657 31.6135 44.3201L31.5556 44.5515H32.561L32.5682 44.4936C32.5754 44.4213 32.5754 44.3418 32.5754 44.2622C32.5827 43.9657 32.4597 43.8138 32.2138 43.7993Z" fill="white"/>
<path d="M34.5786 45.4244C34.6003 45.2725 34.5207 45.1423 34.3254 45.0338L34 44.8603C33.8264 44.7662 33.7179 44.665 33.6455 44.5637C33.5732 44.4624 33.5443 44.3395 33.5515 44.1948C33.5588 43.9706 33.6528 43.7898 33.8264 43.6452C34 43.5005 34.2025 43.4282 34.4484 43.4282C34.6798 43.4354 34.8679 43.5077 34.9981 43.6596C35.1283 43.8115 35.1934 43.9923 35.1789 44.231H34.7666C34.7666 44.1008 34.7377 43.9996 34.6726 43.9272C34.6075 43.8549 34.5279 43.8187 34.4195 43.8043C34.2965 43.8043 34.1952 43.8332 34.1157 43.9055C34.0361 43.9779 33.9855 44.0719 33.971 44.1804C33.9493 44.3106 34.0144 44.4263 34.1663 44.5059L34.5713 44.7228C34.8751 44.8964 35.0198 45.1206 34.9981 45.3955C34.9764 45.6269 34.8896 45.8222 34.716 45.9669C34.5424 46.1115 34.3254 46.1838 34.0723 46.1694C33.8264 46.1694 33.6311 46.0898 33.4792 45.9379C33.3273 45.786 33.255 45.5835 33.2622 45.3376H33.6889C33.6889 45.4895 33.7179 45.6052 33.7902 45.6848C33.8625 45.7644 33.9638 45.8077 34.0867 45.8077C34.2169 45.8077 34.3327 45.7788 34.4195 45.7065C34.5207 45.6269 34.5713 45.5401 34.5786 45.4244Z" fill="white"/>
<path d="M36.8143 45.4244C36.836 45.2725 36.7565 45.1423 36.5612 45.0338L36.2357 44.8603C36.0621 44.7662 35.9536 44.665 35.8813 44.5637C35.809 44.4624 35.7873 44.3395 35.7873 44.1948C35.7945 43.9706 35.8885 43.7898 36.0621 43.6452C36.2357 43.5005 36.4382 43.4282 36.6841 43.4282C36.9156 43.4354 37.1036 43.5077 37.2338 43.6596C37.364 43.8115 37.4291 43.9923 37.4146 44.231H36.9951C36.9951 44.1008 36.9662 43.9996 36.9011 43.9272C36.836 43.8549 36.7492 43.8187 36.648 43.8043C36.525 43.8043 36.4238 43.8332 36.3442 43.9055C36.2646 43.9779 36.214 44.0719 36.1995 44.1804C36.1778 44.3106 36.2429 44.4263 36.3948 44.5059L36.7999 44.7228C37.1036 44.8964 37.2483 45.1206 37.2266 45.3955C37.2049 45.6269 37.1181 45.8222 36.9445 45.9669C36.7709 46.1115 36.5539 46.1838 36.3008 46.1694C36.0549 46.1694 35.8596 46.0898 35.7077 45.9379C35.5558 45.786 35.4835 45.5835 35.4907 45.3376H35.9175C35.9175 45.4895 35.9464 45.6052 36.0187 45.6848C36.091 45.7644 36.1923 45.8077 36.3153 45.8077C36.4454 45.8077 36.5612 45.7788 36.648 45.7065C36.742 45.6269 36.7926 45.5401 36.8143 45.4244Z" fill="white"/>
<path d="M39.9884 42.7916L39.8726 43.4426H40.2704L40.2053 43.797H39.8148L39.5327 45.475L39.5255 45.5763C39.5182 45.7209 39.5689 45.786 39.6773 45.786C39.7207 45.786 39.7786 45.7788 39.8582 45.7643L39.822 46.1404C39.728 46.1766 39.6339 46.191 39.5399 46.1838C39.388 46.1838 39.2723 46.1187 39.2 45.9958C39.1204 45.8728 39.0987 45.692 39.1132 45.4678L39.388 43.8042H38.9902L39.0553 43.4498H39.4531L39.5689 42.7989H39.9884V42.7916ZM40.4368 44.6649C40.4946 44.2816 40.6248 43.9706 40.8346 43.7319C41.0443 43.4932 41.3119 43.3775 41.6302 43.392C41.8327 43.3992 41.9918 43.4571 42.1292 43.5656C42.2594 43.6741 42.3535 43.8259 42.4113 44.0212C42.4692 44.2165 42.4837 44.4262 42.462 44.6649L42.433 44.9181C42.3752 45.3014 42.245 45.6124 42.0352 45.8439C41.8255 46.0753 41.5579 46.191 41.2396 46.1838C41.0371 46.1766 40.878 46.1187 40.7406 46.0102C40.6104 45.9017 40.5091 45.7498 40.4512 45.5546C40.3934 45.3593 40.3789 45.1495 40.4079 44.9181L40.4368 44.6649ZM40.8201 45.0989C40.8129 45.3231 40.849 45.4967 40.9214 45.6197C40.9937 45.7426 41.1094 45.8077 41.2541 45.8149C41.4494 45.8222 41.6085 45.7571 41.7314 45.6124C41.8544 45.4678 41.9412 45.2508 41.9846 44.9615L42.0208 44.6722L42.0352 44.4913C42.0425 44.2671 42.0063 44.0935 41.9267 43.9706C41.8544 43.8476 41.7387 43.7825 41.594 43.7753C41.3987 43.7681 41.2324 43.8476 41.1022 44.0212C40.972 44.1876 40.8924 44.4262 40.8491 44.73L40.8201 44.976V45.0989ZM44.8198 45.352L45.5503 43.4354H45.9915L44.8849 46.126H44.545L44.3714 44.202L43.5396 46.126H43.1925L43.0261 43.4354H43.4384L43.5179 45.2942L44.328 43.4354H44.6679L44.8198 45.352ZM47.3368 46.1332C47.3296 46.0825 47.3224 46.0319 47.3224 45.9885L47.3296 45.8439C47.1415 46.0753 46.9318 46.1911 46.7148 46.1911C46.4978 46.1911 46.3315 46.1187 46.2085 45.9813C46.0856 45.8366 46.0349 45.6558 46.0494 45.4244C46.0711 45.1423 46.1796 44.9253 46.3893 44.7517C46.5991 44.5854 46.8812 44.4986 47.2211 44.4986H47.5176L47.561 44.2093C47.59 43.9127 47.4815 43.7608 47.2283 43.7608C47.0981 43.7608 46.9897 43.797 46.9029 43.8766C46.8161 43.9561 46.7654 44.0502 46.7365 44.1803H46.3098C46.3315 43.9561 46.4327 43.7608 46.6208 43.609C46.8088 43.4571 47.0258 43.3775 47.2717 43.3847C47.5104 43.3847 47.6985 43.4643 47.8287 43.609C47.9588 43.7536 48.0095 43.9561 47.9878 44.2165L47.7708 45.5401C47.7563 45.6341 47.7491 45.7282 47.7563 45.8077L47.7708 46.0826L47.7636 46.126H47.3368V46.1332ZM46.8088 45.786C47.0258 45.786 47.2139 45.6775 47.3658 45.4678L47.4742 44.8241H47.279C47.1126 44.8241 46.9607 44.853 46.8305 44.9181C46.7003 44.9759 46.6063 45.0627 46.5485 45.1785C46.4978 45.287 46.4761 45.4099 46.4906 45.5401C46.5195 45.6992 46.6208 45.786 46.8088 45.786ZM49.8177 43.8476C49.7453 43.8332 49.6802 43.8259 49.6296 43.8259C49.4126 43.8259 49.2318 43.9489 49.0944 44.202L48.7617 46.1332H48.3277L48.7978 43.4426H49.2101L49.1522 43.7174C49.3114 43.4932 49.485 43.3847 49.6875 43.392C49.7309 43.392 49.7887 43.4064 49.8683 43.4281L49.8177 43.8476ZM50.9966 43.392C51.2425 43.3992 51.4306 43.5005 51.5463 43.703L51.8067 42.3071H52.2406L51.5752 46.126H51.1846L51.2353 45.8367C51.0545 46.0681 50.8447 46.1838 50.5988 46.1766C50.3746 46.1766 50.201 46.0898 50.078 45.9162C49.9551 45.7426 49.8972 45.5039 49.8972 45.1857C49.8972 45.041 49.9189 44.8458 49.9551 44.5998C49.9912 44.3539 50.0491 44.1514 50.1287 43.9778C50.3167 43.58 50.606 43.3847 50.9966 43.392ZM50.324 45.2942C50.3312 45.6269 50.4686 45.7932 50.7362 45.7932C50.8302 45.7932 50.9243 45.7716 51.0038 45.7209C51.0906 45.6703 51.1774 45.5835 51.2642 45.4605L51.4957 44.0936C51.4161 43.8838 51.2714 43.7753 51.0834 43.7681C50.6928 43.7464 50.4541 44.0357 50.3746 44.636C50.3312 44.9398 50.3167 45.1495 50.324 45.2942ZM53.6293 45.4244C53.651 45.2653 53.5642 45.1351 53.3689 45.0338L53.0362 44.8602C52.8626 44.7662 52.7397 44.6649 52.6746 44.5564C52.6095 44.448 52.5733 44.325 52.5878 44.1803C52.6023 43.9561 52.6963 43.7681 52.8699 43.6162C53.0435 43.4643 53.2532 43.392 53.4991 43.3992C53.7378 43.4064 53.9259 43.486 54.0633 43.6379C54.2007 43.7898 54.2658 43.9851 54.2513 44.2165H53.8246C53.8246 44.0791 53.7957 43.9778 53.7378 43.8983C53.6727 43.8187 53.5859 43.7825 53.4774 43.7753C53.3472 43.7753 53.246 43.8115 53.1592 43.8838C53.0796 43.9561 53.029 44.0501 53.0073 44.1659C52.9856 44.3033 53.0507 44.4118 53.2026 44.4986L53.6221 44.7156C53.9331 44.8891 54.0777 45.1134 54.0633 45.4027C54.0488 45.6486 53.9476 45.8439 53.7667 45.9885C53.5859 46.1332 53.3689 46.1983 53.1158 46.1983C52.8699 46.1983 52.6674 46.1115 52.5155 45.9596C52.3636 45.8005 52.2913 45.598 52.2985 45.3448H52.7325C52.7325 45.5039 52.7614 45.6197 52.8337 45.6992C52.906 45.7788 53.0073 45.8222 53.1375 45.8222C53.2749 45.8222 53.3906 45.786 53.4774 45.7209C53.5642 45.6269 53.6149 45.5401 53.6293 45.4244ZM56.7611 42.7916L56.6454 43.4426H57.0432L56.9781 43.797H56.5875L56.3054 45.475L56.2982 45.5763C56.291 45.7209 56.3416 45.786 56.4501 45.786C56.4935 45.786 56.5514 45.7788 56.6309 45.7643L56.5947 46.1404C56.5007 46.1766 56.4067 46.191 56.3127 46.1838C56.1608 46.1838 56.0451 46.1187 55.9727 45.9958C55.8932 45.8728 55.8715 45.692 55.8859 45.4678L56.1608 43.8042H55.763L55.8281 43.4498H56.2259L56.3416 42.7989H56.7611V42.7916ZM57.9039 43.7174C58.1064 43.4932 58.3234 43.3847 58.5548 43.392C58.7284 43.392 58.8658 43.4498 58.9599 43.5656C59.0611 43.6741 59.119 43.8332 59.1262 44.0357C59.1334 44.1514 59.1334 44.2599 59.119 44.3684L58.8224 46.1332H58.3957L58.6922 44.3612L58.6995 44.1659C58.6995 43.9127 58.5982 43.7825 58.3885 43.7753C58.2149 43.7681 58.0558 43.8693 57.9111 44.0646L57.8388 44.1731L57.4988 46.1332H57.0649L57.7303 42.3143H58.1643L57.9039 43.7174ZM60.4715 46.1838C60.1677 46.1838 59.9435 46.0753 59.7916 45.8584C59.6397 45.6414 59.5891 45.352 59.6253 44.9832L59.6542 44.7156C59.7048 44.2961 59.835 43.9706 60.0375 43.7319C60.2401 43.4932 60.5004 43.3775 60.8114 43.392C61.0646 43.3992 61.2599 43.486 61.3828 43.6523C61.513 43.8187 61.5709 44.0574 61.5636 44.3612L61.5419 44.6577L61.5058 44.9108H60.0592C60.0375 45.0627 60.0303 45.1785 60.0303 45.258C60.0303 45.4244 60.0737 45.5546 60.1533 45.6558C60.2328 45.7499 60.3485 45.8005 60.4932 45.8005C60.6017 45.8005 60.7029 45.786 60.8042 45.7354C60.9055 45.692 61.0212 45.6052 61.1297 45.4967L61.3322 45.7788C61.2237 45.9162 61.0935 46.0175 60.9416 46.0826C60.8042 46.1549 60.6451 46.1838 60.4715 46.1838ZM60.7897 43.7681C60.4932 43.7536 60.2907 43.9344 60.175 44.3033L60.1099 44.542H61.1441L61.1586 44.4769C61.1658 44.3973 61.1731 44.3178 61.1731 44.2382C61.1586 43.9344 61.0357 43.7825 60.7897 43.7681ZM62.2435 46.1332H61.8096L62.2797 43.4426H62.7136L62.2435 46.1332ZM62.3809 42.7266C62.3809 42.6542 62.4099 42.5964 62.4533 42.5385C62.4967 42.4879 62.5545 42.4589 62.6269 42.4517C62.6992 42.4517 62.757 42.4734 62.8004 42.524C62.8438 42.5747 62.8655 42.6398 62.8655 42.7121C62.8655 42.7844 62.8366 42.8495 62.7932 42.9001C62.7498 42.9508 62.692 42.9797 62.6196 42.9797C62.5473 42.9797 62.4894 42.958 62.446 42.9074C62.3954 42.864 62.3809 42.8061 62.3809 42.7266ZM64.4061 43.8476C64.3338 43.8332 64.2687 43.8259 64.2181 43.8259C64.0011 43.8259 63.8203 43.9489 63.6828 44.202L63.3501 46.1332H62.9162L63.3863 43.4426H63.7986L63.7407 43.7174C63.8998 43.4932 64.0734 43.3847 64.2759 43.392C64.3193 43.392 64.3772 43.4064 64.4567 43.4281L64.4061 43.8476ZM67.509 46.1332H65.5417L65.5995 45.786L66.9014 44.3178C67.0678 44.1225 67.1907 43.9489 67.2703 43.7825C67.3498 43.6162 67.3788 43.4426 67.3643 43.2618C67.3498 43.1316 67.3137 43.0303 67.2486 42.958C67.1835 42.8785 67.0967 42.8423 66.9954 42.835C66.8146 42.8278 66.6627 42.8929 66.547 43.0231C66.4313 43.1533 66.359 43.3414 66.33 43.5728H65.9105C65.9467 43.2401 66.0624 42.9653 66.2577 42.7627C66.4602 42.553 66.7134 42.4517 67.0171 42.4589C67.2775 42.4662 67.48 42.5602 67.6247 42.7338C67.7693 42.9146 67.8344 43.1388 67.8055 43.4137C67.7766 43.7319 67.6102 44.0791 67.3064 44.4407L67.1329 44.6505L66.142 45.7571H67.5813L67.509 46.1332ZM68.941 46.1838C68.4854 46.1693 68.2395 45.8656 68.2033 45.258C68.1888 45.0483 68.2033 44.7951 68.2467 44.513L68.3407 43.8838C68.4275 43.3703 68.5649 43.0014 68.7602 42.7772C68.9483 42.553 69.1942 42.4445 69.498 42.4517C69.9536 42.4662 70.1995 42.7627 70.2357 43.3558C70.2429 43.5294 70.2357 43.7536 70.2068 44.0285L70.0911 44.7807C70.0043 45.2797 69.8596 45.6341 69.6716 45.8584C69.4763 46.0898 69.2304 46.191 68.941 46.1838ZM69.8234 43.5366C69.8307 43.2979 69.809 43.1244 69.7439 43.0159C69.686 42.9074 69.5848 42.8495 69.4618 42.8423C69.1074 42.8206 68.8832 43.1316 68.7819 43.7753L68.6445 44.7011C68.6228 44.8602 68.6083 44.9904 68.6083 45.0844C68.5866 45.5618 68.7096 45.8005 68.97 45.8077C69.3172 45.8294 69.5414 45.5184 69.6499 44.8819L69.78 44.0429C69.8017 43.8332 69.8234 43.6596 69.8234 43.5366ZM71.3062 44.0936L71.5665 44.1008C71.7835 44.1008 71.9499 44.014 72.0656 43.8621C72.1886 43.703 72.2392 43.4932 72.2175 43.2401C72.203 43.1099 72.1669 43.0159 72.1018 42.9436C72.0367 42.8712 71.9499 42.835 71.8341 42.835C71.6895 42.835 71.5665 42.8857 71.4653 42.9942C71.364 43.1027 71.2989 43.2545 71.2628 43.4643H70.8433C70.8722 43.1677 70.9807 42.9291 71.1687 42.741C71.3568 42.553 71.5882 42.4589 71.8631 42.4589C72.0367 42.4589 72.1885 42.5096 72.3115 42.5964C72.4345 42.6832 72.5285 42.7989 72.5864 42.958C72.6442 43.1099 72.6659 43.2835 72.6514 43.4715C72.637 43.6523 72.5719 43.8115 72.4706 43.9561C72.3694 44.1008 72.2319 44.2093 72.0728 44.2961C72.2103 44.3684 72.3043 44.4697 72.3694 44.6143C72.4272 44.7517 72.4562 44.9253 72.4345 45.1134C72.4055 45.4389 72.2898 45.6992 72.0945 45.9017C71.8992 46.1043 71.6533 46.1983 71.364 46.1911C71.1036 46.1838 70.8939 46.0898 70.742 45.9017C70.5973 45.7137 70.525 45.475 70.5395 45.1857H70.9734C70.959 45.381 70.9879 45.5329 71.0602 45.6486C71.1326 45.7571 71.2411 45.8149 71.3857 45.8149C71.5593 45.8222 71.6967 45.7571 71.8052 45.6341C71.9137 45.5112 71.9788 45.3376 72.0005 45.1206C72.0222 44.9253 71.9933 44.7734 71.9065 44.6577C71.8269 44.5492 71.704 44.4841 71.5448 44.4841H71.2411L71.3062 44.0936ZM73.8232 46.1838C73.3675 46.1693 73.1216 45.8656 73.0854 45.258C73.0709 45.0483 73.0854 44.7951 73.1288 44.513L73.2228 43.8838C73.3096 43.3703 73.447 43.0014 73.6423 42.7772C73.8304 42.553 74.0763 42.4445 74.3801 42.4517C74.8357 42.4662 75.0817 42.7627 75.1178 43.3558C75.125 43.5294 75.1178 43.7536 75.0889 44.0285L74.9732 44.7807C74.8864 45.2797 74.7417 45.6341 74.5537 45.8584C74.3584 46.0898 74.1197 46.191 73.8232 46.1838ZM74.7128 43.5366C74.72 43.2979 74.6983 43.1244 74.6332 43.0159C74.5754 42.9074 74.4741 42.8495 74.3511 42.8423C73.9967 42.8206 73.7725 43.1316 73.6713 43.7753L73.5338 44.7011C73.5121 44.8602 73.4977 44.9904 73.4977 45.0844C73.476 45.5618 73.5989 45.8005 73.8593 45.8077C74.2065 45.8294 74.4307 45.5184 74.5392 44.8819L74.6694 44.0429C74.6911 43.8332 74.7056 43.6596 74.7128 43.5366ZM77.5986 42.7916L77.4829 43.4426H77.8807L77.8156 43.797H77.4251L77.143 45.475L77.1358 45.5763C77.1285 45.7209 77.1791 45.786 77.2876 45.786C77.3238 45.786 77.3889 45.7788 77.4685 45.7643L77.4323 46.1404C77.3383 46.1766 77.2442 46.191 77.1502 46.1838C76.9983 46.1838 76.8826 46.1187 76.8103 45.9958C76.7307 45.8728 76.709 45.692 76.7235 45.4678L76.9983 43.8042H76.6005L76.6656 43.4498H77.0634L77.1791 42.7989H77.5986V42.7916ZM79.2983 46.1332C79.2911 46.0825 79.2839 46.0319 79.2839 45.9885L79.2911 45.8439C79.1031 46.0753 78.8933 46.1911 78.6763 46.1911C78.4593 46.1911 78.293 46.1187 78.17 45.9813C78.0471 45.8366 77.9964 45.6558 78.0109 45.4244C78.0326 45.1423 78.1411 44.9253 78.3509 44.7517C78.5606 44.5854 78.8427 44.4986 79.1826 44.4986H79.4792L79.5226 44.2093C79.5515 43.9127 79.443 43.7608 79.1898 43.7608C79.0597 43.7608 78.9512 43.797 78.8644 43.8766C78.7776 43.9561 78.7197 44.0502 78.698 44.1803H78.2713C78.293 43.9561 78.3943 43.7608 78.5823 43.609C78.7704 43.4571 78.9873 43.3775 79.2332 43.3847C79.4719 43.3847 79.66 43.4643 79.7902 43.609C79.9204 43.7536 79.971 43.9561 79.9493 44.2165L79.7323 45.5401C79.7178 45.6341 79.7106 45.7282 79.7178 45.8077L79.7323 46.0826L79.7251 46.126H79.2983V46.1332ZM78.7704 45.786C78.9873 45.786 79.1754 45.6775 79.3273 45.4678L79.4358 44.8241H79.2405C79.0741 44.8241 78.9222 44.853 78.7921 44.9181C78.6619 44.9759 78.5678 45.0627 78.51 45.1785C78.4593 45.287 78.4376 45.4099 78.4521 45.5401C78.481 45.6992 78.5823 45.786 78.7704 45.786ZM81.7792 43.8476C81.7068 43.8332 81.6418 43.8259 81.5911 43.8259C81.3741 43.8259 81.1933 43.9489 81.0559 44.202L80.7232 46.1332H80.2892L80.7594 43.4426H81.1716L81.1138 43.7174C81.2729 43.4932 81.4465 43.3847 81.649 43.392C81.6924 43.392 81.7502 43.4064 81.8298 43.4281L81.7792 43.8476ZM82.9581 43.392C83.2185 43.3992 83.4138 43.5149 83.5295 43.7464L83.6163 43.4426H84.0069L83.544 46.1549C83.515 46.3646 83.4499 46.5527 83.3559 46.7118C83.2619 46.8709 83.1317 46.9939 82.9798 47.0807C82.8279 47.1602 82.6471 47.2036 82.4518 47.1964C82.3144 47.1964 82.1697 47.1602 82.0251 47.0951C81.8804 47.03 81.7647 46.9505 81.6779 46.8492L81.8804 46.5527C82.0396 46.7263 82.2276 46.8203 82.4301 46.8275C82.6109 46.8348 82.7628 46.7841 82.8786 46.6756C82.9943 46.5671 83.0738 46.408 83.11 46.1911L83.1751 45.88C82.9943 46.097 82.7918 46.2055 82.5531 46.1983C82.3216 46.1983 82.148 46.1042 82.0251 45.9307C81.9021 45.7571 81.8443 45.5112 81.8515 45.2074C81.8515 45.0772 81.866 44.8964 81.9021 44.6722C81.96 44.2527 82.0757 43.9417 82.2493 43.7247C82.4374 43.486 82.6688 43.3847 82.9581 43.392ZM82.2855 45.2942C82.2927 45.6269 82.4301 45.7932 82.6905 45.7932C82.893 45.8005 83.0666 45.6848 83.2257 45.4605L83.4572 44.108C83.3704 43.8983 83.233 43.7825 83.0449 43.7753C82.6471 43.7608 82.4084 44.0574 82.3289 44.6577C82.2927 44.947 82.2782 45.164 82.2855 45.2942ZM85.1786 46.1838C84.8748 46.1838 84.6506 46.0753 84.4987 45.8584C84.3468 45.6414 84.2962 45.352 84.3323 44.9832L84.3613 44.7156C84.4119 44.2961 84.5421 43.9706 84.7446 43.7319C84.9471 43.4932 85.2075 43.3775 85.5185 43.392C85.7717 43.3992 85.9669 43.486 86.0899 43.6523C86.2201 43.8187 86.2779 44.0574 86.2707 44.3612L86.249 44.6577L86.2128 44.9108H84.7663C84.7446 45.0627 84.7374 45.1785 84.7374 45.258C84.7374 45.4244 84.7808 45.5546 84.8603 45.6558C84.9399 45.7499 85.0556 45.8005 85.2003 45.8005C85.3088 45.8005 85.41 45.786 85.5113 45.7354C85.6125 45.692 85.7283 45.6052 85.8368 45.4967L86.0393 45.7788C85.9308 45.9162 85.8006 46.0175 85.6487 46.0826C85.5113 46.1549 85.3522 46.1838 85.1786 46.1838ZM85.504 43.7681C85.2075 43.7536 85.005 43.9344 84.8893 44.3033L84.8242 44.542H85.8584L85.8729 44.4769C85.8801 44.3973 85.8874 44.3178 85.8874 44.2382C85.8729 43.9344 85.7427 43.7825 85.504 43.7681ZM87.6305 42.7916L87.5147 43.4426H87.9125L87.8475 43.797H87.4569L87.1748 45.475L87.1676 45.5763C87.1603 45.7209 87.211 45.786 87.3195 45.786C87.3556 45.786 87.4207 45.7788 87.5003 45.7643L87.4641 46.1404C87.3701 46.1766 87.2761 46.191 87.182 46.1838C87.0302 46.1838 86.9144 46.1187 86.8421 45.9958C86.7625 45.8728 86.7408 45.692 86.7553 45.4678L87.0302 43.8042H86.6323L86.6975 43.4498H87.0952L87.211 42.7989H87.6305V42.7916ZM89.3519 45.4244C89.3736 45.2653 89.2868 45.1351 89.0915 45.0338L88.7588 44.8602C88.5852 44.7662 88.4622 44.6649 88.3971 44.5564C88.332 44.448 88.2959 44.325 88.3104 44.1803C88.3248 43.9561 88.4188 43.7681 88.5924 43.6162C88.766 43.4643 88.9758 43.392 89.2217 43.3992C89.4604 43.4064 89.6484 43.486 89.7858 43.6379C89.9232 43.7898 89.9883 43.9851 89.9739 44.2165H89.5471C89.5471 44.0791 89.5182 43.9778 89.4604 43.8983C89.3953 43.8187 89.3085 43.7825 89.2 43.7753C89.0698 43.7753 88.9685 43.8115 88.8817 43.8838C88.8022 43.9561 88.7515 44.0501 88.7299 44.1659C88.7082 44.3033 88.7732 44.4118 88.9251 44.4986L89.3446 44.7156C89.6556 44.8891 89.8003 45.1134 89.7858 45.4027C89.7714 45.6486 89.6701 45.8439 89.4893 45.9885C89.3085 46.1332 89.0915 46.1983 88.8383 46.1983C88.5924 46.1983 88.3899 46.1115 88.238 45.9596C88.0861 45.8005 88.0138 45.598 88.021 45.3448H88.455C88.455 45.5039 88.4839 45.6197 88.5563 45.6992C88.6286 45.7788 88.7298 45.8222 88.86 45.8222C88.9975 45.8222 89.1132 45.786 89.2 45.7209C89.2868 45.6269 89.3374 45.5401 89.3519 45.4244ZM91.5145 44.6649C91.5723 44.2816 91.7025 43.9706 91.9123 43.7319C92.122 43.4932 92.3896 43.3775 92.7079 43.392C92.9104 43.3992 93.0695 43.4571 93.2069 43.5656C93.3371 43.6741 93.4311 43.8259 93.489 44.0212C93.5469 44.2165 93.5613 44.4262 93.5396 44.6649L93.5107 44.9181C93.4528 45.3014 93.3226 45.6124 93.1129 45.8439C92.9031 46.0753 92.6355 46.191 92.3173 46.1838C92.1148 46.1766 91.9557 46.1187 91.8182 46.0102C91.688 45.9017 91.5868 45.7498 91.5289 45.5546C91.4711 45.3593 91.4566 45.1495 91.4855 44.9181L91.5145 44.6649ZM91.8978 45.0989C91.8906 45.3231 91.9267 45.4967 91.999 45.6197C92.0714 45.7426 92.1871 45.8077 92.3318 45.8149C92.527 45.8222 92.6862 45.7571 92.8091 45.6124C92.9321 45.4678 93.0189 45.2508 93.0623 44.9615L93.0984 44.6722L93.1129 44.4913C93.1201 44.2671 93.084 44.0935 93.0044 43.9706C92.9321 43.8476 92.8164 43.7825 92.6717 43.7753C92.4764 43.7681 92.3101 43.8476 92.1799 44.0212C92.0497 44.1876 91.9701 44.4262 91.9267 44.73L91.8978 44.976V45.0989ZM94.6896 43.4354L94.6318 43.7319C94.827 43.5005 95.0513 43.3847 95.2972 43.392C95.4708 43.392 95.601 43.4498 95.7022 43.5656C95.8035 43.6813 95.8613 43.8332 95.8758 44.0357C95.883 44.1514 95.883 44.2599 95.8686 44.3684L95.572 46.1332H95.1453L95.4418 44.3612L95.4491 44.1659C95.4491 43.9127 95.3406 43.7825 95.1381 43.7753C94.9645 43.7681 94.8054 43.8693 94.6607 44.0646L94.5884 44.1731L94.2484 46.1332H93.8217L94.2918 43.4426L94.6896 43.4354ZM98.3205 45.8149C98.4579 45.8222 98.5808 45.7788 98.6749 45.6847C98.7689 45.5907 98.8412 45.4605 98.8774 45.2942H99.2824C99.2463 45.5618 99.1305 45.7788 98.9497 45.9451C98.7617 46.1187 98.5447 46.1983 98.2988 46.1911C98.0601 46.1838 97.872 46.1115 97.7346 45.9741C97.5972 45.8366 97.5104 45.6414 97.4815 45.3954C97.467 45.2436 97.467 45.0989 97.4815 44.947L97.5176 44.6794C97.5683 44.2599 97.6985 43.9417 97.901 43.7174C98.1035 43.4932 98.3639 43.392 98.6893 43.3992C98.9425 43.4064 99.1305 43.5005 99.268 43.674C99.4054 43.8476 99.4705 44.0863 99.456 44.3756H99.051C99.0582 43.9851 98.9353 43.7825 98.6676 43.7753C98.2771 43.7608 98.0384 44.0357 97.9588 44.6071C97.9082 44.9615 97.8865 45.2002 97.8937 45.3304C97.9082 45.6414 98.0529 45.8077 98.3205 45.8149ZM100.1 46.1332H99.6658L100.331 42.3143H100.758L100.1 46.1332ZM101.228 46.1332H100.801L101.271 43.4426H101.698L101.228 46.1332ZM101.365 42.7266C101.365 42.6542 101.394 42.5964 101.438 42.5385C101.481 42.4879 101.539 42.4589 101.611 42.4517C101.684 42.4517 101.742 42.4734 101.792 42.524C101.836 42.5747 101.857 42.6398 101.857 42.7121C101.857 42.7844 101.828 42.8495 101.785 42.9001C101.742 42.9508 101.684 42.9797 101.611 42.9797C101.539 42.9797 101.481 42.958 101.438 42.9074C101.387 42.864 101.365 42.8061 101.365 42.7266ZM102.769 43.4354L102.718 43.6885C102.906 43.486 103.13 43.3847 103.376 43.392C103.506 43.392 103.622 43.4281 103.716 43.4932C103.817 43.5583 103.89 43.6523 103.926 43.7825C104.136 43.5222 104.382 43.392 104.656 43.392C104.837 43.3992 104.982 43.4571 105.083 43.5656C105.184 43.6741 105.249 43.8259 105.264 44.0212C105.271 44.1369 105.271 44.2527 105.264 44.3684L104.967 46.1404H104.541L104.837 44.3684L104.844 44.1586C104.844 44.0429 104.808 43.9489 104.75 43.8838C104.693 43.8187 104.606 43.7825 104.497 43.7825C104.367 43.7825 104.244 43.8332 104.143 43.9417C104.034 44.0501 103.976 44.1803 103.955 44.3322V44.3467L103.651 46.1404H103.217L103.514 44.3684C103.521 44.3033 103.521 44.231 103.521 44.1659C103.506 43.92 103.398 43.797 103.181 43.7898C102.978 43.7898 102.805 43.8983 102.675 44.1225L102.327 46.1404H101.901L102.371 43.4498L102.769 43.4354ZM107 46.1332C106.993 46.0825 106.985 46.0319 106.985 45.9885L106.993 45.8439C106.804 46.0753 106.595 46.1911 106.378 46.1911C106.161 46.1911 105.994 46.1187 105.871 45.9813C105.749 45.8366 105.698 45.6558 105.712 45.4244C105.734 45.1423 105.843 44.9253 106.052 44.7517C106.262 44.5854 106.544 44.4986 106.884 44.4986H107.181L107.224 44.2093C107.253 43.9127 107.144 43.7608 106.891 43.7608C106.761 43.7608 106.653 43.797 106.566 43.8766C106.479 43.9561 106.421 44.0502 106.399 44.1803H105.973C105.994 43.9561 106.096 43.7608 106.284 43.609C106.472 43.4571 106.689 43.3775 106.935 43.3847C107.181 43.3847 107.361 43.4643 107.492 43.609C107.622 43.7536 107.68 43.9561 107.651 44.2165L107.434 45.5401C107.419 45.6341 107.412 45.7282 107.419 45.8077L107.434 46.0826L107.426 46.126H107V46.1332ZM106.472 45.786C106.689 45.786 106.877 45.6775 107.029 45.4678L107.137 44.8241H106.942C106.776 44.8241 106.624 44.853 106.493 44.9181C106.363 44.9759 106.269 45.0627 106.219 45.1785C106.168 45.287 106.146 45.4099 106.161 45.5401C106.182 45.6992 106.284 45.786 106.472 45.786ZM109.133 42.7916L109.018 43.4426H109.416L109.35 43.797H108.96L108.678 45.475L108.671 45.5763C108.663 45.7209 108.714 45.786 108.822 45.786C108.859 45.786 108.924 45.7788 109.003 45.7643L108.967 46.1404C108.873 46.1766 108.779 46.191 108.685 46.1838C108.533 46.1838 108.417 46.1187 108.345 45.9958C108.266 45.8728 108.237 45.692 108.258 45.4678L108.533 43.8042H108.135L108.2 43.4498H108.598L108.714 42.7989H109.133V42.7916ZM110.457 46.1838C110.153 46.1838 109.929 46.0753 109.777 45.8584C109.625 45.6414 109.575 45.352 109.611 44.9832L109.647 44.7156C109.698 44.2961 109.828 43.9706 110.03 43.7319C110.233 43.4932 110.493 43.3775 110.804 43.392C111.057 43.3992 111.253 43.486 111.376 43.6523C111.506 43.8187 111.564 44.0574 111.564 44.3612L111.542 44.6577L111.506 44.9108H110.059C110.038 45.0627 110.03 45.1785 110.03 45.258C110.03 45.4244 110.074 45.5546 110.153 45.6558C110.233 45.7499 110.349 45.8005 110.493 45.8005C110.602 45.8005 110.703 45.786 110.804 45.7354C110.905 45.692 111.021 45.6052 111.13 45.4967L111.332 45.7788C111.224 45.9162 111.094 46.0175 110.942 46.0826C110.79 46.1549 110.623 46.1838 110.457 46.1838ZM110.775 43.7681C110.479 43.7536 110.276 43.9344 110.16 44.3033L110.095 44.542H111.13L111.144 44.4769C111.151 44.3973 111.159 44.3178 111.159 44.2382C111.144 43.9344 111.021 43.7825 110.775 43.7681ZM114.276 46.1332C114.269 46.0825 114.261 46.0319 114.261 45.9885L114.269 45.8439C114.081 46.0753 113.871 46.1911 113.654 46.1911C113.437 46.1911 113.271 46.1187 113.148 45.9813C113.032 45.8366 112.974 45.6558 112.988 45.4244C113.01 45.1423 113.119 44.9253 113.328 44.7517C113.538 44.5854 113.82 44.4986 114.16 44.4986H114.457L114.5 44.2093C114.529 43.9127 114.421 43.7608 114.167 43.7608C114.037 43.7608 113.929 43.797 113.842 43.8766C113.755 43.9561 113.705 44.0502 113.676 44.1803H113.249C113.271 43.9561 113.372 43.7608 113.56 43.609C113.748 43.4571 113.965 43.3775 114.211 43.3847C114.457 43.3847 114.638 43.4643 114.768 43.609C114.898 43.7536 114.956 43.9561 114.927 44.2165L114.71 45.5401C114.695 45.6341 114.688 45.7282 114.688 45.8077L114.703 46.0826L114.695 46.126H114.276V46.1332ZM113.748 45.786C113.965 45.786 114.153 45.6775 114.305 45.4678L114.413 44.8241H114.218C114.052 44.8241 113.9 44.853 113.77 44.9181C113.639 44.9759 113.545 45.0627 113.495 45.1785C113.444 45.287 113.422 45.4099 113.437 45.5401C113.459 45.6992 113.56 45.786 113.748 45.786ZM116.135 43.4354L116.077 43.7319C116.272 43.5005 116.496 43.3847 116.742 43.392C116.916 43.392 117.046 43.4498 117.147 43.5656C117.249 43.6813 117.306 43.8332 117.321 44.0357C117.328 44.1514 117.328 44.2599 117.314 44.3684L117.017 46.1332H116.59L116.887 44.3612L116.894 44.1659C116.894 43.9127 116.793 43.7825 116.583 43.7753C116.41 43.7681 116.25 43.8693 116.106 44.0646L116.033 44.1731L115.694 46.1332H115.267L115.737 43.4426L116.135 43.4354ZM118.883 43.392C119.129 43.3992 119.317 43.5005 119.433 43.703L119.693 42.3071H120.12L119.462 46.126H119.071L119.122 45.8367C118.941 46.0681 118.731 46.1838 118.485 46.1766C118.261 46.1766 118.088 46.0898 117.965 45.9162C117.842 45.7426 117.784 45.5039 117.784 45.1857C117.784 45.041 117.805 44.8458 117.842 44.5998C117.878 44.3539 117.936 44.1514 118.015 43.9778C118.196 43.58 118.493 43.3847 118.883 43.392ZM118.203 45.2942C118.211 45.6269 118.348 45.7932 118.616 45.7932C118.71 45.7932 118.804 45.7716 118.883 45.7209C118.97 45.6703 119.057 45.5835 119.144 45.4605L119.375 44.0936C119.288 43.8838 119.151 43.7753 118.963 43.7681C118.572 43.7464 118.333 44.0357 118.254 44.636C118.211 44.9398 118.196 45.1495 118.203 45.2942ZM122.254 46.1838C121.95 46.1838 121.726 46.0753 121.574 45.8584C121.422 45.6414 121.371 45.352 121.407 44.9832L121.436 44.7156C121.487 44.2961 121.617 43.9706 121.82 43.7319C122.022 43.4932 122.283 43.3775 122.594 43.392C122.847 43.3992 123.042 43.486 123.165 43.6523C123.295 43.8187 123.353 44.0574 123.346 44.3612L123.324 44.6577L123.288 44.9108H121.841C121.82 45.0627 121.812 45.1785 121.812 45.258C121.82 45.4244 121.856 45.5546 121.935 45.6558C122.015 45.7499 122.131 45.8005 122.275 45.8005C122.384 45.8005 122.485 45.786 122.586 45.7354C122.695 45.692 122.803 45.6052 122.919 45.4967L123.122 45.7788C123.013 45.9162 122.883 46.0175 122.731 46.0826C122.586 46.1549 122.42 46.1838 122.254 46.1838ZM122.572 43.7681C122.275 43.7536 122.073 43.9344 121.957 44.3033L121.892 44.542H122.926L122.941 44.4769C122.948 44.3973 122.955 44.3178 122.955 44.2382C122.941 43.9344 122.818 43.7825 122.572 43.7681ZM124.431 43.4354L124.373 43.7319C124.568 43.5005 124.792 43.3847 125.038 43.392C125.212 43.392 125.342 43.4498 125.443 43.5656C125.545 43.6813 125.602 43.8332 125.617 44.0357C125.624 44.1514 125.624 44.2599 125.61 44.3684L125.313 46.1332H124.886L125.183 44.3612L125.19 44.1659C125.19 43.9127 125.089 43.7825 124.879 43.7753C124.706 43.7681 124.546 43.8693 124.402 44.0646L124.329 44.1731L123.989 46.1332H123.556L124.026 43.4426L124.431 43.4354ZM126.955 46.1838C126.651 46.1838 126.427 46.0753 126.275 45.8584C126.123 45.6414 126.073 45.352 126.109 44.9832L126.138 44.7156C126.188 44.2961 126.318 43.9706 126.521 43.7319C126.723 43.4932 126.984 43.3775 127.295 43.392C127.548 43.3992 127.743 43.486 127.866 43.6523C127.996 43.8187 128.054 44.0574 128.047 44.3612L128.025 44.6577L127.989 44.9108H126.543C126.521 45.0627 126.514 45.1785 126.514 45.258C126.521 45.4244 126.557 45.5546 126.637 45.6558C126.716 45.7499 126.832 45.8005 126.977 45.8005C127.085 45.8005 127.186 45.786 127.288 45.7354C127.396 45.692 127.505 45.6052 127.62 45.4967L127.823 45.7788C127.714 45.9162 127.584 46.0175 127.432 46.0826C127.288 46.1549 127.129 46.1838 126.955 46.1838ZM127.28 43.7681C126.984 43.7536 126.781 43.9344 126.666 44.3033L126.601 44.542H127.635L127.649 44.4769C127.657 44.3973 127.664 44.3178 127.664 44.2382C127.649 43.9344 127.519 43.7825 127.28 43.7681ZM129.754 43.8476C129.682 43.8332 129.617 43.8259 129.566 43.8259C129.349 43.8259 129.168 43.9489 129.031 44.202L128.698 46.1332H128.264L128.734 43.4426H129.146L129.089 43.7174C129.248 43.4932 129.421 43.3847 129.624 43.392C129.66 43.392 129.725 43.4064 129.812 43.4281L129.754 43.8476ZM130.94 43.392C131.201 43.3992 131.396 43.5149 131.512 43.7464L131.598 43.4426H131.989L131.526 46.1549C131.497 46.3646 131.432 46.5527 131.338 46.7118C131.244 46.8709 131.114 46.9939 130.962 47.0807C130.81 47.1602 130.629 47.2036 130.434 47.1964C130.296 47.1964 130.152 47.1602 130.007 47.0951C129.862 47.03 129.747 46.9505 129.66 46.8492L129.862 46.5527C130.022 46.7263 130.21 46.8203 130.412 46.8275C130.593 46.8348 130.745 46.7841 130.861 46.6756C130.976 46.5671 131.056 46.408 131.092 46.1911L131.157 45.88C130.976 46.097 130.774 46.2055 130.535 46.1983C130.304 46.1983 130.13 46.1042 130.007 45.9307C129.891 45.7571 129.826 45.5112 129.834 45.2074C129.834 45.0772 129.848 44.8964 129.884 44.6722C129.942 44.2527 130.058 43.9417 130.231 43.7247C130.412 43.486 130.651 43.3847 130.94 43.392ZM130.268 45.2942C130.275 45.6269 130.412 45.7932 130.673 45.7932C130.875 45.8005 131.049 45.6848 131.208 45.4605L131.439 44.108C131.352 43.8983 131.215 43.7825 131.027 43.7753C130.629 43.7608 130.39 44.0574 130.311 44.6577C130.275 44.947 130.26 45.164 130.268 45.2942ZM132.994 45.3954L133.812 43.4426H134.282L132.886 46.5527C132.792 46.7769 132.676 46.9505 132.546 47.0662C132.416 47.1819 132.278 47.2398 132.126 47.2326C132.076 47.2326 131.996 47.2181 131.88 47.1892L131.924 46.8131L132.018 46.8275C132.235 46.8348 132.408 46.7263 132.524 46.4948L132.705 46.0898L132.401 43.4498H132.857L132.994 45.3954Z" fill="white"/>
</svg>
