<svg width="166" height="50" viewBox="0 0 166 50" fill="none" xmlns="http://www.w3.org/2000/svg">
<path d="M15.0045 41.8743L14.1966 39.3959L13.3977 41.8743H10.7559L12.8893 43.345L12.0904 45.887L14.1966 44.2892L16.3118 45.896L15.5038 43.3995L17.5465 41.8743H15.0045Z" fill="white"/>
<path d="M25.5059 44.6279L24.6979 42.2221L23.899 44.6279L21.2754 44.7005L23.3906 46.1621L22.5917 48.6314L24.6979 47.1063L26.8132 48.7131L26.0052 46.2166L28.0297 44.6279H25.5059Z" fill="white"/>
<path d="M35.9482 41.8743L35.2219 39.3959L34.3504 41.8743H31.7812L33.842 43.345L33.0431 45.8779L35.2038 44.2892L37.3463 45.9051L36.4566 43.3995L38.4902 41.8743H35.9482Z" fill="white"/>
<path d="M7.31483 34.1787L6.57948 31.7729L5.70796 34.1787H3.16602L5.19957 35.7038L4.40067 38.1641L6.5704 36.648L8.70381 38.273L7.81413 35.7583L9.83861 34.1787H7.31483Z" fill="white"/>
<path d="M3.75595 26.1538L5.88936 27.7789L4.99968 25.2641L7.02416 23.6754H4.50037L3.76503 21.2787L2.8935 23.6845L0.351562 23.7571L2.38511 25.2097L1.58622 27.6699L3.75595 26.1538Z" fill="white"/>
<path d="M14.196 3.19867L13.3971 5.60443H10.7734L12.8887 7.1296L12.0807 9.62615L14.196 8.01928L16.3112 9.62615L15.5033 7.1296L17.5459 5.60443H14.9949L14.196 3.19867Z" fill="white"/>
<path d="M6.57948 10.8295L5.70796 13.2262H3.16602L5.19957 14.7514L4.39159 17.2389L6.5704 15.6411L8.70381 17.2661L7.82321 14.7514L9.84769 13.2262H7.31483L6.57948 10.8295Z" fill="white"/>
<path d="M24.6979 0.265076L23.899 2.67084L21.2754 2.74347L23.3906 4.196L22.5917 6.66532L24.6979 5.14015L26.8132 6.74702L26.0052 4.25047L28.0297 2.66176H25.5059L24.6979 0.265076Z" fill="white"/>
<path d="M35.2214 3.19867L34.3498 5.60443H31.7988L33.8415 7.1296L33.0335 9.60799L35.2032 8.01928L37.3457 9.63522L36.456 7.1296L38.4896 5.60443H35.9476L35.2214 3.19867Z" fill="white"/>
<path d="M90.1093 31.3658C89.4375 31.3749 88.7657 31.2387 88.1483 30.9664C87.5582 30.7031 87.0317 30.3218 86.605 29.8316C86.1602 29.3323 85.8243 28.7513 85.5882 28.1339C85.3431 27.4531 85.216 26.7268 85.2251 26.0005C85.216 25.2833 85.334 24.5752 85.561 23.8943C85.7698 23.2679 86.0875 22.696 86.5051 22.1876C86.9046 21.7155 87.3948 21.3342 87.9486 21.0528C88.5205 20.7714 89.156 20.6352 89.7915 20.6443C90.4815 20.6352 91.1533 20.8077 91.7524 21.1527C92.3244 21.4795 92.7874 21.9606 93.096 22.5326V16.8041H96.2462V27.6255C96.2281 27.8525 96.2735 28.0885 96.3915 28.2883C96.5277 28.4335 96.7183 28.5152 96.918 28.5152V31.1752C96.6729 31.2296 96.4187 31.275 96.1736 31.3023C95.9648 31.3204 95.7651 31.3295 95.5926 31.3295C95.1205 31.3567 94.6575 31.2387 94.249 30.9936C93.9131 30.7667 93.6952 30.4035 93.6589 29.995L93.6044 29.4684C93.2685 30.0858 92.7511 30.5851 92.1246 30.9028C91.4892 31.2115 90.8083 31.3658 90.1093 31.3658ZM90.9535 28.7059C91.3984 28.7059 91.8341 28.5697 92.1973 28.3246C92.5967 28.0704 92.9145 27.7072 93.1142 27.2715V25.1108C92.9235 24.6024 92.5967 24.1485 92.161 23.8217C91.7706 23.504 91.2894 23.3315 90.7901 23.3224C90.4633 23.3224 90.1456 23.395 89.8551 23.5494C89.5736 23.7037 89.3285 23.9034 89.1288 24.1485C88.9109 24.4027 88.7475 24.7023 88.6476 25.011C88.5296 25.3469 88.4752 25.7009 88.4752 26.055C88.4752 26.4181 88.5387 26.7813 88.6658 27.1172C88.7838 27.4258 88.9563 27.7163 89.1742 27.9614C89.3921 28.1975 89.6644 28.3881 89.964 28.5152C90.2817 28.6423 90.6176 28.7059 90.9535 28.7059Z" fill="white"/>
<path d="M98.6074 19.6547V16.8041H101.758V19.6547H98.6074ZM98.6074 31.1661V20.8349H101.758V31.1661H98.6074Z" fill="white"/>
<path d="M106.368 31.1666L102.719 20.8354H105.969L108.22 28.6519L110.508 20.8445H113.44L109.8 31.1756H106.368V31.1666Z" fill="white"/>
<path d="M118.997 31.3604C118.198 31.3786 117.399 31.2333 116.663 30.9337C116.01 30.6705 115.411 30.2801 114.911 29.7808C114.439 29.2996 114.067 28.7277 113.822 28.1013C113.577 27.4658 113.45 26.7849 113.45 26.104C113.441 25.3778 113.568 24.6697 113.822 23.9888C114.058 23.3442 114.43 22.7451 114.902 22.2457C115.392 21.7374 115.983 21.3288 116.645 21.0656C117.39 20.766 118.189 20.6116 118.997 20.6298C119.795 20.6207 120.594 20.766 121.33 21.0656C121.983 21.3288 122.573 21.7283 123.064 22.2367C123.536 22.7269 123.899 23.3079 124.135 23.9343C124.38 24.5789 124.498 25.2688 124.498 25.9588C124.498 26.1404 124.498 26.3219 124.48 26.5035C124.471 26.6578 124.453 26.8122 124.425 26.9665H116.791C116.8 27.5747 117.081 28.1558 117.553 28.5461C117.989 28.9002 118.534 29.0908 119.096 29.0908C119.559 29.0908 120.013 28.9728 120.422 28.7549C120.812 28.5734 121.112 28.2465 121.275 27.8471L123.953 28.5915C123.527 29.4267 122.873 30.1167 122.065 30.5797C121.13 31.1244 120.068 31.3876 118.997 31.3604ZM121.175 25.0237C121.139 24.4336 120.885 23.8798 120.467 23.4713C120.059 23.09 119.514 22.8812 118.951 22.8994C118.388 22.8812 117.835 23.09 117.426 23.4804C117.017 23.898 116.763 24.4427 116.727 25.0237H121.175Z" fill="white"/>
<path d="M132.389 23.5447C131.68 23.5447 130.981 23.6718 130.319 23.9169C129.765 24.1075 129.293 24.4798 128.984 24.9791V31.1796H125.834V20.8393H128.721V22.9274C129.039 22.2828 129.502 21.7199 130.092 21.2932C130.609 20.912 131.227 20.7032 131.871 20.685H132.189C132.252 20.685 132.325 20.6941 132.389 20.7032V23.5447Z" fill="white"/>
<path d="M137.689 31.3661C136.808 31.3661 135.927 31.2209 135.092 30.9395C134.293 30.6853 133.558 30.2677 132.932 29.7139L134.057 27.7893C134.629 28.1887 135.247 28.5246 135.9 28.797C136.445 29.0239 137.035 29.1419 137.625 29.151C137.952 29.1692 138.279 29.0966 138.569 28.9331C138.787 28.797 138.914 28.5609 138.905 28.2977C138.905 28.0162 138.742 27.762 138.479 27.6349C138.006 27.3989 137.507 27.2264 136.99 27.1175C136.3 26.9268 135.71 26.7362 135.238 26.5455C134.82 26.3912 134.43 26.1915 134.066 25.9373C133.785 25.7376 133.567 25.4743 133.413 25.1656C133.277 24.8388 133.204 24.4938 133.213 24.1398C133.195 23.1593 133.631 22.2242 134.393 21.6069C134.784 21.2892 135.228 21.0531 135.71 20.8988C136.236 20.7263 136.799 20.6355 137.353 20.6446C138.088 20.6355 138.823 20.7445 139.523 20.9623C140.249 21.1984 140.912 21.5888 141.483 22.1062L140.267 23.9945C139.777 23.6405 139.25 23.3409 138.696 23.1048C138.27 22.9323 137.816 22.8325 137.362 22.8325C137.062 22.8234 136.763 22.896 136.499 23.0413C136.145 23.2682 136.036 23.7403 136.254 24.0944C136.318 24.2033 136.418 24.2941 136.527 24.3577C136.981 24.5665 137.462 24.7299 137.952 24.8297C138.578 24.9931 139.205 25.1838 139.813 25.4107C140.249 25.5742 140.666 25.792 141.039 26.0735C141.329 26.2913 141.574 26.5818 141.729 26.9087C141.883 27.2627 141.956 27.644 141.946 28.0253C141.983 28.9785 141.556 29.8864 140.803 30.4674C139.895 31.1119 138.796 31.4297 137.689 31.3661Z" fill="white"/>
<path d="M143.326 19.6547V16.8041H146.476V19.6547H143.326ZM143.326 31.1661V20.8349H146.476V31.1661H143.326Z" fill="white"/>
<path d="M155.148 30.6257C154.667 30.8254 154.167 30.9979 153.659 31.1341C153.114 31.2884 152.542 31.3701 151.979 31.3701C151.607 31.3701 151.226 31.3247 150.863 31.2249C150.527 31.1341 150.218 30.9707 149.946 30.7528C149.673 30.5258 149.465 30.2263 149.328 29.8994C149.165 29.4909 149.092 29.0552 149.102 28.6194V23.2268H147.785V20.8483H149.102V17.562H152.252V20.8483H154.358V23.2268H152.252V27.5391C152.224 27.8114 152.324 28.0747 152.506 28.2653C152.687 28.4197 152.914 28.5014 153.16 28.4923C153.405 28.4923 153.65 28.4469 153.886 28.3743C154.113 28.3016 154.322 28.2199 154.53 28.1201L155.148 30.6257Z" fill="white"/>
<path d="M156.337 32.719C156.573 32.8007 156.818 32.8733 157.063 32.9187C157.272 32.955 157.471 32.9732 157.68 32.9732C158.025 32.9913 158.352 32.8461 158.57 32.5828C158.851 32.1561 159.042 31.6749 159.142 31.1666L155.211 20.8354H158.461L160.858 28.4703L162.928 20.8354H165.878L161.947 32.837C161.411 34.58 159.777 35.7511 157.953 35.7148C157.689 35.7148 157.417 35.6876 157.154 35.6422C156.872 35.5968 156.6 35.5151 156.337 35.4152V32.719Z" fill="white"/>
<path d="M86.0605 39.9605V35.0854H86.6779V39.9605H86.0605Z" fill="white"/>
<path d="M91.1432 39.9523H90.5349V37.9459C90.5531 37.6554 90.4986 37.3649 90.3624 37.1107C90.2444 36.9382 90.0447 36.8384 89.8268 36.8475C89.6997 36.8475 89.5726 36.8747 89.4546 36.9201C89.3275 36.9655 89.2095 37.0381 89.1005 37.1198C88.9916 37.2015 88.8917 37.3014 88.81 37.4103C88.7283 37.5283 88.6648 37.6554 88.6285 37.7916V39.9523H88.0293V36.3754H88.5831V37.147C88.7283 36.8928 88.9462 36.684 89.2004 36.5479C89.4637 36.3935 89.7723 36.3209 90.081 36.3209C90.2626 36.3118 90.4351 36.3572 90.5985 36.4389C90.7346 36.5116 90.8436 36.6205 90.9253 36.7567C91.0161 36.9019 91.0706 37.0653 91.0978 37.2378C91.1341 37.4375 91.1523 37.6373 91.1523 37.837L91.1432 39.9523Z" fill="white"/>
<path d="M92.4883 39.9548V36.841H91.998V36.3689H92.4883V36.2962C92.4701 35.924 92.57 35.5609 92.7788 35.2522C92.9694 35.0071 93.269 34.8619 93.5868 34.8709C93.732 34.8709 93.8682 34.8891 94.0044 34.9254C94.1315 34.9617 94.2586 35.0162 94.3766 35.0888L94.2313 35.5246C94.1587 35.4792 94.077 35.4429 93.9953 35.4156C93.9045 35.3884 93.8137 35.3793 93.7139 35.3703C93.5323 35.3612 93.3598 35.4429 93.2509 35.5972C93.1328 35.7969 93.0784 36.0239 93.0875 36.2599V36.3598H94.0407V36.8319H93.0875V39.9457L92.4883 39.9548Z" fill="white"/>
<path d="M96.4023 40.0196C95.903 40.0287 95.4309 39.8199 95.095 39.4568C94.9316 39.2843 94.8136 39.0936 94.7319 38.8757C94.5503 38.4218 94.5503 37.9134 94.7319 37.4504C94.8136 37.2326 94.9407 37.0328 95.1041 36.8694C95.785 36.1522 96.9198 36.1159 97.646 36.7968C97.6733 36.815 97.6914 36.8422 97.7187 36.8694C97.873 37.0419 98.0001 37.2416 98.0909 37.4504C98.2634 37.9044 98.2634 38.4127 98.0909 38.8757C97.9184 39.3206 97.5825 39.6746 97.1467 39.8744C96.9016 39.9742 96.6565 40.0287 96.4023 40.0196ZM95.213 38.1767C95.213 38.3583 95.2403 38.5308 95.3038 38.7033C95.3583 38.8576 95.4491 39.0028 95.558 39.1209C95.6669 39.2389 95.794 39.3297 95.9393 39.4023C96.2298 39.5385 96.5748 39.5385 96.8653 39.4023C97.0105 39.3297 97.1376 39.2298 97.2466 39.1118C97.3555 38.9847 97.4463 38.8394 97.5008 38.6851C97.5643 38.5126 97.5916 38.3401 97.5916 38.1586C97.5916 37.977 97.5643 37.8045 97.5008 37.6411C97.4463 37.4868 97.3555 37.3415 97.2466 37.2144C97.1376 37.0964 97.0105 36.9965 96.8653 36.9239C96.72 36.8513 96.5657 36.815 96.4023 36.824C96.2389 36.824 96.0846 36.8603 95.9393 36.933C95.794 37.0056 95.6669 37.1055 95.558 37.2235C95.4491 37.3506 95.3583 37.4958 95.3038 37.6502C95.2403 37.8136 95.213 37.9951 95.213 38.1767Z" fill="white"/>
<path d="M101.138 36.8931C100.857 36.8931 100.575 36.9748 100.339 37.1291C100.112 37.2744 99.94 37.4832 99.8492 37.7374V39.9525H99.25V36.3665H99.8129V37.1927C99.9309 36.9566 100.094 36.7569 100.303 36.5935C100.485 36.4482 100.712 36.3575 100.948 36.3393H101.066C101.093 36.3393 101.12 36.3393 101.147 36.3393L101.138 36.8931Z" fill="white"/>
<path d="M107.406 39.9573H106.806V37.951C106.825 37.6605 106.761 37.37 106.625 37.1158C106.507 36.9342 106.298 36.8344 106.089 36.8525C105.844 36.8525 105.608 36.9433 105.426 37.1158C105.227 37.2974 105.081 37.5334 105.009 37.7967V39.9573H104.401V37.951C104.428 37.6605 104.364 37.37 104.219 37.1158C104.101 36.9433 103.892 36.8434 103.683 36.8525C103.438 36.8525 103.202 36.9433 103.021 37.1067C102.821 37.2883 102.676 37.5243 102.603 37.7876V39.9482H102.004V36.3623H102.558V37.1339C102.694 36.8798 102.885 36.6709 103.13 36.5166C103.366 36.3714 103.638 36.2987 103.919 36.2987C104.183 36.2897 104.437 36.3714 104.637 36.5439C104.809 36.7073 104.927 36.9342 104.963 37.1703C105.209 36.6346 105.744 36.2897 106.325 36.2897C106.507 36.2806 106.679 36.326 106.843 36.4077C106.979 36.4803 107.097 36.5892 107.179 36.7254C107.269 36.8707 107.324 37.0341 107.36 37.2066C107.396 37.4063 107.415 37.606 107.415 37.8057L107.406 39.9573Z" fill="white"/>
<path d="M109.564 40.0206C109.4 40.0206 109.237 39.9934 109.091 39.9389C108.946 39.8844 108.819 39.8027 108.71 39.7029C108.601 39.603 108.52 39.485 108.456 39.3488C108.392 39.2126 108.365 39.0583 108.365 38.913C108.365 38.7587 108.402 38.6044 108.474 38.4591C108.556 38.323 108.656 38.2049 108.783 38.1141C108.928 38.0143 109.091 37.9417 109.264 37.8872C109.464 37.8327 109.663 37.8055 109.872 37.8055C110.054 37.8055 110.226 37.8236 110.399 37.8509C110.562 37.8781 110.717 37.9235 110.871 37.978V37.6875C110.916 37.2154 110.571 36.7887 110.099 36.7433C110.045 36.7342 109.981 36.7342 109.927 36.7433C109.509 36.7615 109.11 36.9067 108.783 37.1609L108.583 36.7706C108.992 36.48 109.473 36.3166 109.981 36.3076C110.381 36.2803 110.78 36.4165 111.08 36.6888C111.352 36.9703 111.497 37.3606 111.47 37.751V39.2126C111.47 39.3579 111.534 39.4305 111.661 39.4305V39.9571L111.506 39.9752C111.461 39.9752 111.416 39.9752 111.379 39.9752C111.27 39.9843 111.161 39.948 111.089 39.8663C111.016 39.7936 110.971 39.7029 110.962 39.6121L110.953 39.3579C110.798 39.5667 110.589 39.7392 110.344 39.8481C110.099 39.9661 109.827 40.0206 109.564 40.0206ZM109.718 39.5667C109.927 39.5667 110.126 39.5304 110.317 39.4487C110.49 39.3851 110.635 39.2762 110.744 39.1309C110.825 39.0674 110.871 38.9675 110.871 38.8677V38.3411C110.58 38.2231 110.272 38.1686 109.954 38.1686C109.691 38.1595 109.436 38.2231 109.219 38.3593C109.046 38.4682 108.937 38.6589 108.937 38.8586C108.937 39.0492 109.019 39.2399 109.164 39.367C109.237 39.4305 109.318 39.485 109.418 39.5122C109.509 39.5485 109.609 39.5667 109.718 39.5667Z" fill="white"/>
<path d="M114.513 39.7662C114.477 39.7844 114.432 39.8026 114.368 39.8298C114.305 39.857 114.241 39.8752 114.169 39.9024C114.087 39.9296 114.005 39.9478 113.923 39.966C113.833 39.9841 113.742 39.9932 113.642 39.9932C113.433 39.9932 113.233 39.9296 113.07 39.8116C112.907 39.6755 112.816 39.4576 112.834 39.2488V36.843H112.344V36.3709H112.834V35.1635H113.442V36.3619H114.25V36.8339H113.442V39.0581C113.442 39.1671 113.488 39.276 113.569 39.3486C113.651 39.4122 113.742 39.4394 113.842 39.4394C113.951 39.4394 114.06 39.4213 114.169 39.3849C114.241 39.3577 114.305 39.3305 114.368 39.2942L114.513 39.7662Z" fill="white"/>
<path d="M115.355 35.6983V34.9448H115.955V35.6983H115.355ZM115.355 39.956V36.3701H115.955V39.956H115.355Z" fill="white"/>
<path d="M118.805 40.0221C118.305 40.0312 117.833 39.8224 117.497 39.4592C117.334 39.2867 117.216 39.0961 117.134 38.8782C116.953 38.4243 116.953 37.9159 117.134 37.4529C117.216 37.235 117.343 37.0353 117.506 36.8719C117.67 36.6994 117.86 36.5632 118.078 36.4634C118.305 36.3635 118.56 36.3181 118.805 36.3181C119.304 36.309 119.776 36.5088 120.121 36.8719C120.275 37.0444 120.402 37.2441 120.493 37.4529C120.666 37.9068 120.666 38.4152 120.493 38.8782C120.412 39.0961 120.284 39.2958 120.121 39.4592C119.958 39.6317 119.767 39.7679 119.549 39.8677C119.313 39.9767 119.059 40.0312 118.805 40.0221ZM117.615 38.1792C117.615 38.3607 117.643 38.5332 117.706 38.7057C117.761 38.86 117.851 39.0053 117.96 39.1233C118.069 39.2413 118.196 39.3321 118.342 39.4047C118.632 39.5409 118.977 39.5409 119.268 39.4047C119.413 39.3321 119.54 39.2323 119.649 39.1142C119.758 38.9871 119.849 38.8419 119.903 38.6876C119.967 38.5151 119.994 38.3426 119.994 38.161C119.994 37.9794 119.967 37.807 119.903 37.6435C119.849 37.4892 119.758 37.344 119.649 37.2169C119.54 37.0988 119.413 36.999 119.268 36.9264C119.122 36.8537 118.968 36.8174 118.805 36.8265C118.641 36.8265 118.487 36.8628 118.342 36.9354C118.196 37.0081 118.069 37.1079 117.96 37.2259C117.851 37.353 117.761 37.4983 117.706 37.6526C117.643 37.816 117.615 37.9976 117.615 38.1792Z" fill="white"/>
<path d="M124.753 39.9535H124.144V37.9472C124.162 37.6567 124.108 37.3662 123.972 37.112C123.854 36.9395 123.654 36.8396 123.436 36.8487C123.309 36.8487 123.182 36.876 123.064 36.9213C122.937 36.9667 122.819 37.0394 122.71 37.1211C122.601 37.2028 122.501 37.3026 122.419 37.4116C122.338 37.5296 122.274 37.6567 122.238 37.7929V39.9535H121.639V36.3766H122.192V37.1483C122.338 36.8941 122.547 36.6853 122.81 36.5401C123.073 36.3857 123.382 36.3131 123.69 36.3131C123.872 36.304 124.044 36.3494 124.208 36.4311C124.344 36.5037 124.453 36.6127 124.535 36.7489C124.625 36.8941 124.68 37.0575 124.707 37.23C124.743 37.4297 124.762 37.6295 124.762 37.8292L124.753 39.9535Z" fill="white"/>
<path d="M130.673 36.0945C130.61 36.0219 130.537 35.9584 130.455 35.913C130.355 35.8494 130.256 35.7949 130.147 35.7496C130.029 35.6951 129.902 35.6588 129.774 35.6315C129.638 35.6043 129.493 35.5861 129.348 35.5861C129.057 35.5589 128.758 35.6406 128.513 35.7949C128.34 35.9402 128.24 36.1581 128.249 36.376C128.249 36.494 128.267 36.6029 128.322 36.7028C128.376 36.7936 128.458 36.8753 128.558 36.9297C128.685 37.0024 128.821 37.0568 128.957 37.0932C129.121 37.1385 129.311 37.1839 129.529 37.2384C129.765 37.2838 129.992 37.3473 130.21 37.4291C130.392 37.4926 130.573 37.5834 130.728 37.6923C130.864 37.7922 130.982 37.9284 131.054 38.0736C131.136 38.2461 131.173 38.4367 131.163 38.6274C131.173 38.8362 131.118 39.045 131.027 39.2356C130.936 39.4081 130.809 39.5534 130.655 39.6623C130.483 39.7803 130.292 39.8621 130.092 39.9074C129.865 39.9619 129.629 39.9891 129.393 39.9891C129.03 39.9891 128.667 39.9347 128.331 39.8167C127.995 39.6986 127.686 39.5262 127.414 39.3083L127.705 38.7908C127.786 38.8816 127.886 38.9542 127.986 39.0268C128.113 39.1085 128.24 39.1812 128.385 39.2356C128.54 39.2992 128.703 39.3446 128.867 39.3809C129.039 39.4172 129.221 39.4444 129.402 39.4354C129.684 39.4535 129.965 39.39 130.21 39.2538C130.401 39.1358 130.51 38.9179 130.501 38.7C130.501 38.582 130.473 38.4549 130.41 38.355C130.337 38.2552 130.247 38.1735 130.138 38.1099C130.001 38.0373 129.856 37.9738 129.702 37.9284C129.529 37.8739 129.321 37.8194 129.103 37.765C128.885 37.7105 128.667 37.6469 128.449 37.5743C128.277 37.5198 128.122 37.4291 127.977 37.3292C127.859 37.2384 127.759 37.1204 127.695 36.9751C127.632 36.8208 127.596 36.6483 127.605 36.4849C127.605 36.267 127.641 36.0582 127.732 35.8676C127.814 35.6951 127.941 35.5408 128.095 35.4137C128.258 35.2866 128.449 35.1958 128.649 35.1322C128.876 35.0687 129.112 35.0414 129.348 35.0414C129.647 35.0324 129.956 35.0868 130.237 35.1867C130.492 35.2775 130.737 35.4137 130.946 35.5952L130.673 36.0945Z" fill="white"/>
<path d="M132.17 40.9168C132.233 40.9259 132.288 40.935 132.351 40.935H132.487C132.542 40.935 132.587 40.9259 132.633 40.8987C132.687 40.8624 132.732 40.8079 132.76 40.7534C132.814 40.6536 132.86 40.5537 132.905 40.4539C132.959 40.3268 133.032 40.1543 133.114 39.9455L131.598 36.3686H132.224L133.45 39.4098L134.557 36.3686H135.138L133.386 40.8896C133.323 41.053 133.205 41.1983 133.068 41.3163C132.887 41.4434 132.669 41.5069 132.451 41.4979C132.406 41.4979 132.369 41.4979 132.324 41.4979C132.279 41.4979 132.224 41.4797 132.161 41.4706L132.17 40.9168Z" fill="white"/>
<path d="M137.207 40.0224C136.917 40.0224 136.635 39.977 136.354 39.8862C136.091 39.8045 135.846 39.6774 135.637 39.4958L135.9 39.0873C136.091 39.2416 136.309 39.3596 136.535 39.4504C136.744 39.5321 136.971 39.5684 137.198 39.5684C137.416 39.5775 137.634 39.523 137.816 39.4141C137.961 39.3233 138.052 39.1508 138.042 38.9783C138.042 38.8966 138.024 38.824 137.979 38.7514C137.934 38.6878 137.87 38.6243 137.797 38.588C137.698 38.5335 137.589 38.4972 137.48 38.4609C137.353 38.4246 137.207 38.3883 137.035 38.3429C136.817 38.2884 136.635 38.2339 136.481 38.1885C136.345 38.1431 136.218 38.0887 136.1 38.007C136.009 37.9434 135.927 37.8617 135.882 37.7618C135.836 37.6529 135.809 37.5258 135.809 37.4078C135.8 37.081 135.945 36.7723 136.209 36.5817C136.336 36.4818 136.49 36.4092 136.644 36.3729C136.817 36.3184 136.998 36.3002 137.18 36.3002C137.434 36.3002 137.698 36.3456 137.934 36.4273C138.151 36.509 138.342 36.618 138.515 36.7723L138.242 37.1354C138.097 37.0083 137.924 36.9085 137.734 36.8449C137.543 36.7814 137.353 36.7451 137.153 36.7451C136.953 36.7451 136.762 36.7905 136.59 36.8903C136.436 36.9902 136.345 37.1627 136.363 37.3442C136.363 37.4169 136.372 37.4895 136.408 37.553C136.445 37.6166 136.49 37.662 136.554 37.6983C136.635 37.7437 136.726 37.78 136.817 37.8072C136.926 37.8436 137.053 37.8708 137.207 37.9071C137.443 37.9616 137.643 38.016 137.834 38.0796C137.988 38.125 138.133 38.1976 138.269 38.2793C138.496 38.4155 138.633 38.6697 138.614 38.942C138.623 39.2507 138.478 39.5503 138.233 39.7409C137.934 39.9497 137.57 40.0496 137.207 40.0224Z" fill="white"/>
<path d="M141.512 39.7662C141.475 39.7844 141.43 39.8026 141.366 39.8298C141.303 39.857 141.239 39.8752 141.167 39.9024C141.085 39.9296 141.003 39.9478 140.921 39.966C140.831 39.9841 140.74 39.9932 140.64 39.9932C140.431 39.9932 140.231 39.9296 140.068 39.8116C139.896 39.6755 139.814 39.4576 139.832 39.2488V36.843H139.342V36.3709H139.823V35.1635H140.431V36.3619H141.23V36.8339H140.431V39.0581C140.431 39.1671 140.477 39.276 140.558 39.3486C140.64 39.4122 140.731 39.4394 140.831 39.4394C140.94 39.4394 141.049 39.4213 141.157 39.3849C141.23 39.3577 141.294 39.3305 141.357 39.2942L141.512 39.7662Z" fill="white"/>
<path d="M143.862 40.0152C143.608 40.0152 143.353 39.9698 143.127 39.8699C142.909 39.7791 142.709 39.643 142.545 39.4705C142.382 39.298 142.255 39.0983 142.173 38.8804C142.082 38.6534 142.037 38.4083 142.037 38.1632C142.037 37.9181 142.082 37.673 142.173 37.446C142.264 37.2281 142.391 37.0284 142.555 36.865C142.718 36.6925 142.918 36.5563 143.136 36.4655C143.372 36.3657 143.626 36.3203 143.88 36.3203C144.624 36.3021 145.287 36.7651 145.541 37.4551C145.623 37.673 145.668 37.909 145.668 38.145C145.668 38.1904 145.668 38.2358 145.668 38.2812C145.668 38.3175 145.659 38.3448 145.659 38.372H142.691C142.7 38.5445 142.745 38.7079 142.818 38.8622C142.945 39.1436 143.172 39.3615 143.462 39.4886C143.599 39.5431 143.753 39.5794 143.898 39.5794C144.007 39.5794 144.116 39.5612 144.225 39.534C144.325 39.5068 144.425 39.4614 144.515 39.416C144.606 39.3706 144.688 39.3071 144.761 39.2344C144.833 39.1618 144.888 39.0801 144.924 38.9893L145.451 39.1346C145.387 39.2707 145.305 39.3888 145.205 39.4977C145.097 39.6066 144.978 39.7065 144.851 39.7791C144.706 39.8608 144.561 39.9244 144.397 39.9698C144.198 40.0061 144.034 40.0242 143.862 40.0152ZM145.087 37.9181C145.078 37.7547 145.033 37.6003 144.96 37.446C144.897 37.3098 144.806 37.1827 144.697 37.0738C144.47 36.865 144.18 36.747 143.871 36.747C143.717 36.747 143.562 36.7742 143.417 36.8287C143.281 36.8831 143.154 36.9648 143.045 37.0738C142.936 37.1827 142.845 37.3007 142.782 37.4369C142.718 37.5822 142.673 37.7456 142.664 37.8999H145.087V37.9181Z" fill="white"/>
<path d="M152.04 39.9573H151.441V37.951C151.459 37.6605 151.396 37.37 151.26 37.1158C151.142 36.9342 150.933 36.8344 150.724 36.8525C150.479 36.8525 150.243 36.9433 150.061 37.1158C149.861 37.2974 149.716 37.5334 149.644 37.7967V39.9573H149.035V37.951C149.063 37.6605 148.999 37.37 148.854 37.1158C148.736 36.9433 148.527 36.8434 148.318 36.8525C148.073 36.8525 147.837 36.9433 147.655 37.1067C147.456 37.2883 147.301 37.5243 147.238 37.7876V39.9482H146.639V36.3623H147.192V37.1339C147.329 36.8798 147.519 36.6709 147.764 36.5166C148 36.3714 148.273 36.2987 148.554 36.2987C148.817 36.2806 149.072 36.3714 149.271 36.5439C149.453 36.7073 149.562 36.9342 149.598 37.1703C149.843 36.6346 150.379 36.2897 150.969 36.2897C151.151 36.2806 151.323 36.326 151.487 36.4077C151.623 36.4803 151.741 36.5892 151.822 36.7254C151.904 36.8707 151.968 37.0341 152.004 37.2066C152.04 37.4063 152.058 37.606 152.058 37.8057L152.04 39.9573Z" fill="white"/>
<path d="M86.1602 47.2517V44.1378H85.6699V43.6658H86.1602V43.5931C86.142 43.2209 86.2419 42.8578 86.4507 42.5491C86.6413 42.304 86.9409 42.1587 87.2586 42.1678C87.4039 42.1678 87.5401 42.186 87.6762 42.2223C87.8033 42.2586 87.9304 42.3131 88.0485 42.3857L87.9032 42.8215C87.8306 42.7761 87.7489 42.7398 87.6672 42.7125C87.5764 42.6853 87.4856 42.6762 87.3857 42.6671C87.2042 42.6581 87.0317 42.7398 86.9227 42.8941C86.8047 43.0938 86.7502 43.3208 86.7684 43.5568V43.6567H87.7216V44.1287H86.7684V47.2426L86.1602 47.2517Z" fill="white"/>
<path d="M90.0644 47.3321C89.5651 47.3412 89.093 47.1324 88.7571 46.7693C88.5937 46.5968 88.4757 46.4061 88.394 46.1882C88.2124 45.7343 88.2124 45.2259 88.394 44.7629C88.4757 44.5451 88.6028 44.3453 88.7662 44.1819C89.4471 43.4647 90.5819 43.4284 91.3081 44.1093C91.3354 44.1275 91.3535 44.1547 91.3808 44.1819C91.5351 44.3544 91.6622 44.5541 91.753 44.7629C91.9346 45.2169 91.9346 45.7253 91.753 46.1882C91.5805 46.6331 91.2446 46.9871 90.8088 47.1869C90.5637 47.2867 90.3095 47.3321 90.0644 47.3321ZM88.8751 45.4801C88.8751 45.6617 88.9024 45.8342 88.9659 46.0067C89.0204 46.161 89.1112 46.3063 89.2201 46.4243C89.3291 46.5423 89.4562 46.6331 89.6014 46.7057C89.8919 46.8419 90.2369 46.8419 90.5274 46.7057C90.6727 46.6331 90.7998 46.5332 90.9087 46.4152C91.0176 46.2881 91.1084 46.1429 91.1629 45.9885C91.2264 45.816 91.2537 45.6435 91.2537 45.462C91.2537 45.2804 91.2264 45.1079 91.1629 44.9445C91.1084 44.7902 91.0176 44.6449 90.9087 44.5178C90.7998 44.3998 90.6727 44.2999 90.5274 44.2273C90.3821 44.1547 90.2278 44.1184 90.0644 44.1275C89.901 44.1275 89.7467 44.1638 89.6014 44.2364C89.4562 44.309 89.3291 44.4089 89.2201 44.5269C89.1112 44.654 89.0204 44.7993 88.9659 44.9536C88.9024 45.117 88.8661 45.2986 88.8751 45.4801Z" fill="white"/>
<path d="M94.7945 44.2017C94.5131 44.2017 94.2317 44.2834 93.9957 44.4377C93.7687 44.583 93.5962 44.7918 93.5054 45.046V47.2611H92.9062V43.6751H93.4691V44.5013C93.5871 44.2652 93.7505 44.0655 93.9593 43.9021C94.1409 43.7568 94.3679 43.666 94.6039 43.6479H94.7219C94.7492 43.6479 94.7764 43.6479 94.8036 43.657L94.7945 44.2017Z" fill="white"/>
<path d="M100.821 46.7114V47.2652H97.5078V42.3901H100.758V42.9439H98.1251V44.5235H100.413V45.041H98.1251V46.7204L100.821 46.7114Z" fill="white"/>
<path d="M102.855 47.3279C102.528 47.3461 102.211 47.2099 102.002 46.9467C101.784 46.6108 101.684 46.2204 101.711 45.8209V43.6694H102.311V45.7029C102.311 46.4383 102.565 46.8014 103.073 46.8014C103.327 46.8014 103.572 46.7197 103.772 46.5654C103.99 46.402 104.163 46.175 104.253 45.9208V43.6784H104.862V46.52C104.862 46.6652 104.925 46.7379 105.052 46.7379V47.2644L104.889 47.2826C104.853 47.2826 104.816 47.2826 104.78 47.2826C104.671 47.2826 104.571 47.2462 104.489 47.1736C104.408 47.1101 104.362 47.0102 104.362 46.9103L104.353 46.4927C104.199 46.756 103.981 46.9648 103.718 47.1101C103.445 47.2553 103.155 47.3279 102.855 47.3279Z" fill="white"/>
<path d="M108.066 44.2017C107.785 44.2017 107.503 44.2834 107.267 44.4377C107.04 44.583 106.868 44.7918 106.777 45.046V47.2611H106.178V43.6751H106.741V44.5013C106.859 44.2652 107.022 44.0655 107.231 43.9021C107.412 43.7568 107.639 43.666 107.875 43.6479H107.984C108.012 43.6479 108.039 43.6479 108.066 43.657V44.2017Z" fill="white"/>
<path d="M110.425 47.3289C109.926 47.338 109.454 47.1383 109.109 46.7751C108.954 46.6026 108.827 46.4029 108.746 46.1941C108.564 45.7402 108.564 45.2318 108.746 44.7688C108.836 44.5509 108.954 44.3512 109.118 44.1878C109.799 43.4706 110.933 43.4343 111.66 44.1152C111.687 44.1424 111.705 44.1606 111.732 44.1878C111.896 44.3603 112.014 44.56 112.105 44.7688C112.286 45.2227 112.286 45.7311 112.105 46.1941C112.023 46.412 111.896 46.6117 111.732 46.7751C111.569 46.9476 111.378 47.0838 111.16 47.1836C110.924 47.2744 110.679 47.3289 110.425 47.3289ZM109.236 45.4769C109.236 45.6585 109.263 45.831 109.327 46.0035C109.381 46.1578 109.472 46.303 109.581 46.4211C109.69 46.5391 109.817 46.6299 109.962 46.7025C110.253 46.8387 110.598 46.8387 110.888 46.7025C111.033 46.6299 111.16 46.53 111.269 46.412C111.378 46.2849 111.469 46.1396 111.524 45.9853C111.587 45.8128 111.614 45.6403 111.614 45.4588C111.614 45.2772 111.587 45.1047 111.524 44.9413C111.469 44.787 111.378 44.6417 111.269 44.5146C111.16 44.3966 111.033 44.2967 110.888 44.2241C110.743 44.1515 110.588 44.1152 110.425 44.1242C110.262 44.1242 110.107 44.1606 109.962 44.2332C109.817 44.3058 109.69 44.4057 109.581 44.5237C109.472 44.6508 109.381 44.796 109.327 44.9504C109.272 45.1138 109.236 45.2953 109.236 45.4769Z" fill="white"/>
<path d="M115.202 47.3336C114.921 47.3427 114.648 47.261 114.412 47.1157C114.194 46.9795 114.004 46.7889 113.877 46.5619V48.7317H113.277V43.6841H113.813V44.3559C113.958 44.138 114.14 43.9564 114.367 43.8203C114.594 43.6841 114.857 43.6205 115.12 43.6205C115.356 43.6205 115.583 43.6659 115.801 43.7658C116.001 43.8657 116.182 44.0018 116.337 44.1743C116.645 44.5375 116.818 44.9914 116.818 45.4634C116.818 45.7086 116.782 45.9628 116.7 46.1897C116.627 46.4076 116.518 46.6073 116.373 46.7798C116.237 46.9432 116.064 47.0794 115.865 47.1793C115.647 47.2882 115.429 47.3336 115.202 47.3336ZM115.011 46.807C115.184 46.807 115.347 46.7707 115.492 46.6981C115.638 46.6255 115.765 46.5165 115.865 46.3985C115.974 46.2714 116.046 46.1262 116.101 45.9718C116.155 45.8175 116.182 45.645 116.182 45.4816C116.182 45.1366 116.055 44.8007 115.828 44.5465C115.719 44.4285 115.583 44.3287 115.438 44.256C115.284 44.1834 115.12 44.1471 114.957 44.1471C114.839 44.1471 114.721 44.1743 114.621 44.2106C114.503 44.256 114.394 44.3105 114.294 44.3831C114.194 44.4558 114.103 44.5375 114.031 44.6373C113.958 44.7281 113.913 44.837 113.886 44.946V45.9718C113.94 46.0899 114.004 46.1988 114.076 46.3077C114.231 46.5075 114.43 46.6527 114.657 46.7435C114.766 46.7798 114.893 46.807 115.011 46.807Z" fill="white"/>
<path d="M119.441 47.3337C119.187 47.3337 118.933 47.2883 118.697 47.1885C118.479 47.0977 118.279 46.9615 118.116 46.789C117.952 46.6165 117.825 46.4168 117.744 46.1989C117.653 45.972 117.607 45.7269 117.607 45.4817C117.607 45.2366 117.653 44.9915 117.744 44.7645C118.016 44.0655 118.697 43.6116 119.441 43.6207C119.695 43.6207 119.95 43.6661 120.177 43.7659C120.603 43.9566 120.939 44.3106 121.103 44.7555C121.184 44.9734 121.23 45.2094 121.23 45.4454C121.23 45.4908 121.23 45.5362 121.23 45.5816C121.23 45.6179 121.221 45.6452 121.221 45.6724H118.252C118.261 45.8449 118.306 46.0083 118.379 46.1626C118.443 46.3079 118.533 46.435 118.651 46.5439C118.76 46.6438 118.887 46.7346 119.024 46.789C119.16 46.8435 119.314 46.8798 119.459 46.8798C119.568 46.8798 119.677 46.8617 119.786 46.8344C119.886 46.8072 119.986 46.7618 120.077 46.7164C120.168 46.671 120.249 46.6075 120.322 46.5348C120.394 46.4622 120.449 46.3805 120.485 46.2897L121.012 46.435C120.948 46.5711 120.867 46.6892 120.767 46.7981C120.667 46.9161 120.54 47.0069 120.413 47.0886C120.267 47.1703 120.122 47.2339 119.959 47.2793C119.786 47.3156 119.614 47.3337 119.441 47.3337ZM120.676 45.2275C120.667 45.0641 120.621 44.9098 120.549 44.7555C120.485 44.6193 120.394 44.4922 120.286 44.3833C119.941 44.0655 119.441 43.9747 119.005 44.1472C118.869 44.2017 118.742 44.2834 118.633 44.3923C118.524 44.5013 118.434 44.6193 118.37 44.7555C118.306 44.9007 118.261 45.0641 118.252 45.2185L120.676 45.2275Z" fill="white"/>
<path d="M61.8842 22.4902C62.1838 22.1997 62.329 21.8002 62.3018 21.3917C62.329 21.0013 62.1929 20.62 61.9387 20.3295C61.7117 20.0844 61.394 19.9482 61.0581 19.9573H57.7717V22.8533H60.9401C61.285 22.8533 61.6209 22.7262 61.8842 22.4902ZM61.4848 25.3862H57.7626V28.4365H61.3395C61.7299 28.4456 62.1021 28.3003 62.3835 28.0189C62.6649 27.7284 62.8102 27.338 62.8011 26.9386C62.8102 26.5391 62.6831 26.1487 62.4289 25.8401C62.2019 25.5496 61.857 25.3771 61.4848 25.3862ZM77.8712 23.3163C77.2357 23.3072 76.6365 23.5796 76.228 24.0607C76.0101 24.3149 75.8467 24.6054 75.7469 24.9141C75.6288 25.2681 75.5653 25.6313 75.5653 26.0035C75.529 26.7116 75.765 27.4106 76.2189 27.9644C76.6365 28.4456 77.2357 28.7088 77.8712 28.6907C78.1799 28.6907 78.4885 28.6271 78.779 28.491C79.0514 28.3548 79.2965 28.1732 79.4962 27.9372C79.705 27.683 79.8684 27.3925 79.9774 27.0838C80.0954 26.7298 80.1589 26.3666 80.1499 25.9944C80.1862 25.2863 79.9501 24.5873 79.5053 24.0335C79.0968 23.5705 78.4976 23.3072 77.8712 23.3163ZM59.4966 0.747498C46.0515 0.747498 35.1484 11.6506 35.1484 25.0957C35.1484 38.5407 46.0515 49.4438 59.4966 49.4438C72.9417 49.4438 83.8448 38.5407 83.8448 25.0957C83.8357 11.6506 72.9417 0.756576 59.4966 0.747498ZM42.0389 13.2302L42.8378 10.8245L43.6367 13.2302H46.1786L44.136 14.7554L44.944 17.252L42.8287 15.6451L40.7135 17.252L41.5214 14.7554L39.4879 13.2302H42.0389ZM44.9621 38.2593L42.8469 36.6524L40.7407 38.1776L41.5396 35.6992L39.506 34.174H42.048L42.8469 31.7683L43.6458 34.174H46.1696L44.136 35.7627L44.9621 38.2593ZM47.8309 27.7738L45.7701 26.1487L43.6095 27.6648L44.4084 25.2046L42.3748 23.7521L44.9167 23.6794L45.7974 21.2737L46.5236 23.6704H49.0474L47.0229 25.2591L47.8309 27.7738ZM65.7153 29.1628C65.4702 29.6076 65.1161 29.9889 64.6894 30.2703C64.2264 30.579 63.718 30.8059 63.1733 30.9421C62.5742 31.0965 61.9568 31.1691 61.3395 31.1691H54.5307V17.1975H62.3018C62.7557 17.1884 63.2096 17.2973 63.6182 17.5152C63.9995 17.715 64.3444 17.9964 64.6259 18.3323C64.9073 18.6682 65.1252 19.0585 65.2614 19.4762C65.4157 19.8938 65.4883 20.3386 65.4883 20.7925C65.4883 21.4552 65.3158 22.1089 64.989 22.6808C64.644 23.28 64.1175 23.7521 63.482 24.0153C64.2355 24.2241 64.8982 24.6599 65.3794 25.2772C65.8696 25.949 66.1147 26.7661 66.0784 27.6013C66.1056 28.146 65.9785 28.6816 65.7153 29.1628ZM70.899 31.1782H67.7488V20.8379H70.899V31.1782ZM70.899 19.6668H67.7488V16.8071H70.899V19.6668ZM81.9655 29.771C81.4753 30.2794 80.8761 30.6788 80.2225 30.9421C78.7064 31.5231 77.036 31.5231 75.5199 30.9421C74.8663 30.6788 74.2762 30.2794 73.7769 29.771C73.3048 29.2808 72.9416 28.6998 72.7056 28.0552C72.2245 26.7388 72.2245 25.2954 72.7056 23.979C72.9416 23.3435 73.3048 22.7534 73.7769 22.2632C74.2762 21.7548 74.8663 21.3554 75.5199 21.083C76.2643 20.7744 77.0632 20.6291 77.8712 20.6473C78.6701 20.6291 79.469 20.7834 80.2043 21.083C80.858 21.3554 81.4481 21.7548 81.9383 22.2632C82.4104 22.7534 82.7826 23.3345 83.0186 23.979C83.2637 24.6327 83.3908 25.3226 83.3908 26.0126C83.3908 26.7116 83.2728 27.4016 83.0277 28.0461C82.8007 28.6907 82.4376 29.2717 81.9655 29.771Z" fill="white"/>
</svg>
