<svg width="117" height="55" viewBox="0 0 117 55" fill="none" xmlns="http://www.w3.org/2000/svg">
<path d="M21.9059 20.5556C16.0594 20.5556 11.3193 25.2956 11.3193 31.1422C11.3193 36.9887 16.0594 41.7288 21.9059 41.7288C27.7525 41.7288 32.4925 36.9887 32.4925 31.1422C32.4847 25.2956 27.7525 20.5556 21.9059 20.5556ZM21.9059 39.6491C17.213 39.6491 13.399 35.843 13.399 31.1422C13.399 26.4492 17.2051 22.6352 21.9059 22.6352C26.5989 22.6352 30.4129 26.4414 30.4129 31.1422C30.405 35.8351 26.5989 39.6491 21.9059 39.6491Z" fill="white"/>
<path d="M21.0602 14.1974C24.7399 14.1974 27.7229 11.2144 27.7229 7.53472C27.7229 3.855 24.7399 0.872009 21.0602 0.872009C17.3805 0.872009 14.3975 3.855 14.3975 7.53472C14.3975 11.2144 17.3805 14.1974 21.0602 14.1974Z" fill="white"/>
<path d="M22.0391 13.3056H20.0771V22.095L22.0391 22.0794V13.3056Z" fill="white"/>
<path d="M35.9079 25.0744C39.5876 25.0744 42.5706 22.0914 42.5706 18.4117C42.5706 14.732 39.5876 11.749 35.9079 11.749C32.2281 11.749 29.2451 14.732 29.2451 18.4117C29.2451 22.0914 32.2281 25.0744 35.9079 25.0744Z" fill="white"/>
<path d="M31.0408 21.6669L28.6943 23.8878L29.8009 25.5437L32.3906 23.0874L31.0408 21.6669Z" fill="white"/>
<path d="M39.1969 47.1291C42.8766 47.1291 45.8596 44.1461 45.8596 40.4664C45.8596 36.7866 42.8766 33.8036 39.1969 33.8036C35.5172 33.8036 32.5342 36.7866 32.5342 40.4664C32.5342 44.1461 35.5172 47.1291 39.1969 47.1291Z" fill="white"/>
<path d="M33.9377 37.9026L29.9511 36.7333L28.4521 38.3421L33.3883 39.7861L33.9377 37.9026Z" fill="white"/>
<path d="M6.90197 51.3381C10.5817 51.3381 13.5647 48.3551 13.5647 44.6753C13.5647 40.9956 10.5817 38.0126 6.90197 38.0126C3.22225 38.0126 0.239258 40.9956 0.239258 44.6753C0.239258 48.3551 3.22225 51.3381 6.90197 51.3381Z" fill="white"/>
<path d="M14.1399 37.0732L10.6084 40.1495L11.8954 41.6327L15.3563 38.6192C14.9404 38.1169 14.6343 37.4499 14.1399 37.0732Z" fill="white"/>
<path d="M2.39654 31.981C1.21154 32.4361 0.638658 33.7545 1.07813 34.9317C1.5333 36.1167 2.85172 36.6896 4.02888 36.2501C5.21389 35.795 5.78677 34.4765 5.34729 33.2994C4.90782 32.1144 3.5737 31.5258 2.39654 31.981ZM3.76204 35.536C2.96942 35.842 2.09834 35.4418 1.79228 34.6649C1.48621 33.8723 1.88644 33.0012 2.66336 32.6951C3.45598 32.389 4.32709 32.7893 4.63315 33.5662C4.94706 34.3431 4.55466 35.2299 3.76204 35.536Z" fill="white"/>
<path d="M5.98277 39.9887L5.17446 40.2948L3.51074 36.0413L4.30335 35.7353L5.98277 39.9887Z" fill="white"/>
<path d="M47.0425 7.71447C45.9673 6.65503 44.233 6.67072 43.1735 7.73801C42.1141 8.81315 42.1298 10.5475 43.1971 11.6069C44.2722 12.6664 46.0066 12.6507 47.066 11.5834C48.1254 10.5083 48.1098 8.77391 47.0425 7.71447ZM43.8327 10.9634C43.1107 10.2493 43.1107 9.09567 43.817 8.37368C44.5312 7.65169 45.6848 7.65167 46.4068 8.35797C47.1288 9.07211 47.1288 10.2257 46.4225 10.9477C45.7005 11.6619 44.539 11.6776 43.8327 10.9634Z" fill="white"/>
<path d="M43.1278 10.9407L40.2764 13.8271L41.0133 14.5551L43.8648 11.6688L43.1278 10.9407Z" fill="white"/>
<path d="M37.1927 53.105C37.742 51.6924 37.0593 50.115 35.6467 49.55C34.2341 49.0006 32.6567 49.6834 32.0917 51.096C31.5266 52.5086 32.2251 54.086 33.6377 54.651C35.0503 55.2003 36.6276 54.5176 37.1927 53.105ZM36.353 52.7675C35.9763 53.7092 34.9168 54.1644 33.9751 53.8034C33.0334 53.4267 32.5782 52.3673 32.9392 51.4256C33.3002 50.4838 34.3754 50.0287 35.3171 50.3897C36.2588 50.7664 36.714 51.8258 36.353 52.7675Z" fill="white"/>
<path d="M36.5127 46.0007L35.0225 49.7744L35.986 50.1548L37.4762 46.3812L36.5127 46.0007Z" fill="white"/>
<path d="M28.7803 48.0741C29.463 48.8667 30.6481 48.9452 31.4407 48.2625C32.2333 47.5797 32.3118 46.3947 31.629 45.6021C30.9463 44.8095 29.7613 44.731 28.9687 45.4137C28.1839 46.1043 28.0975 47.2972 28.7803 48.0741ZM29.2512 47.6739C28.796 47.1481 28.8509 46.3555 29.3846 45.9003C29.9104 45.4451 30.703 45.5001 31.1581 46.0337C31.6133 46.5674 31.5584 47.3521 31.0248 47.8073C30.499 48.2468 29.7063 48.1997 29.2512 47.6739Z" fill="white"/>
<path d="M31.4903 47.8482L30.9502 48.3154L32.7676 50.4164L33.3077 49.9493L31.4903 47.8482Z" fill="white"/>
<path d="M55.54 13.7236V6.56537H56.9854V13.7236H55.54ZM63.0742 13.7236H61.7021V11.0771C61.7021 10.5172 61.6729 10.1559 61.6143 9.9931C61.5557 9.82709 61.4596 9.69851 61.3262 9.60736C61.196 9.51622 61.0381 9.47064 60.8525 9.47064C60.6149 9.47064 60.4017 9.53575 60.2129 9.66595C60.0241 9.79616 59.8939 9.96869 59.8223 10.1835C59.7539 10.3984 59.7197 10.7955 59.7197 11.3749V13.7236H58.3477V8.53802H59.6221V9.29974C60.0745 8.71381 60.6442 8.42084 61.3311 8.42084C61.6338 8.42084 61.9105 8.47618 62.1611 8.58685C62.4118 8.69427 62.6006 8.83262 62.7275 9.00189C62.8577 9.17116 62.9473 9.36322 62.9961 9.57806C63.0482 9.79291 63.0742 10.1005 63.0742 10.5009V13.7236ZM63.8701 8.53802H64.6318V8.1474C64.6318 7.7112 64.6774 7.38568 64.7686 7.17084C64.863 6.95599 65.0339 6.78184 65.2812 6.64838C65.5319 6.51166 65.8477 6.4433 66.2285 6.4433C66.6191 6.4433 67.0016 6.50189 67.376 6.61908L67.1904 7.57611C66.9723 7.52403 66.7624 7.49799 66.5605 7.49799C66.362 7.49799 66.2188 7.54519 66.1309 7.63959C66.0462 7.73073 66.0039 7.90814 66.0039 8.17181V8.53802H67.0293V9.61713H66.0039V13.7236H64.6318V9.61713H63.8701V8.53802ZM67.4834 11.0576C67.4834 10.6018 67.5957 10.1607 67.8203 9.73431C68.0449 9.30788 68.3623 8.98236 68.7725 8.75775C69.1859 8.53314 69.6465 8.42084 70.1543 8.42084C70.9388 8.42084 71.5817 8.67637 72.083 9.18744C72.5843 9.69525 72.835 10.3382 72.835 11.1161C72.835 11.9007 72.5811 12.5517 72.0732 13.0693C71.5687 13.5836 70.9323 13.8408 70.1641 13.8408C69.6888 13.8408 69.2347 13.7333 68.8018 13.5185C68.3721 13.3036 68.0449 12.9895 67.8203 12.5761C67.5957 12.1594 67.4834 11.6533 67.4834 11.0576ZM68.8896 11.1308C68.8896 11.6451 69.0117 12.039 69.2559 12.3124C69.5 12.5859 69.8011 12.7226 70.1592 12.7226C70.5173 12.7226 70.8167 12.5859 71.0576 12.3124C71.3018 12.039 71.4238 11.6419 71.4238 11.121C71.4238 10.6132 71.3018 10.2226 71.0576 9.94916C70.8167 9.67572 70.5173 9.539 70.1592 9.539C69.8011 9.539 69.5 9.67572 69.2559 9.94916C69.0117 10.2226 68.8896 10.6165 68.8896 11.1308ZM75.2275 13.7236H73.8555V8.53802H75.1299V9.27533C75.348 8.92702 75.5433 8.69753 75.7158 8.58685C75.8916 8.47618 76.0902 8.42084 76.3115 8.42084C76.624 8.42084 76.9251 8.5071 77.2148 8.67963L76.79 9.87592C76.5589 9.72618 76.3441 9.65131 76.1455 9.65131C75.9535 9.65131 75.7907 9.70502 75.6572 9.81244C75.5238 9.91661 75.418 10.107 75.3398 10.3837C75.265 10.6604 75.2275 11.2398 75.2275 12.122V13.7236ZM77.708 8.53802H78.9727V9.24603C79.4251 8.6959 79.9639 8.42084 80.5889 8.42084C80.9209 8.42084 81.209 8.4892 81.4531 8.62592C81.6973 8.76263 81.8975 8.96934 82.0537 9.24603C82.2816 8.96934 82.5273 8.76263 82.791 8.62592C83.0547 8.4892 83.3363 8.42084 83.6357 8.42084C84.0166 8.42084 84.3389 8.49896 84.6025 8.65521C84.8662 8.80821 85.0632 9.03444 85.1934 9.33392C85.2878 9.55528 85.335 9.91335 85.335 10.4081V13.7236H83.9629V10.7597C83.9629 10.2454 83.9157 9.91335 83.8213 9.76361C83.6943 9.5683 83.499 9.47064 83.2354 9.47064C83.0433 9.47064 82.8626 9.52924 82.6934 9.64642C82.5241 9.76361 82.402 9.93614 82.3271 10.164C82.2523 10.3886 82.2148 10.7451 82.2148 11.2333V13.7236H80.8428V10.8818C80.8428 10.3772 80.8184 10.0517 80.7695 9.90521C80.7207 9.75873 80.6442 9.64968 80.54 9.57806C80.4391 9.50645 80.3008 9.47064 80.125 9.47064C79.9134 9.47064 79.723 9.52761 79.5537 9.64154C79.3844 9.75547 79.2624 9.91986 79.1875 10.1347C79.1159 10.3495 79.0801 10.706 79.0801 11.204V13.7236H77.708V8.53802ZM87.7324 10.1201L86.4873 9.89545C86.6273 9.39414 86.8682 9.02305 87.21 8.78217C87.5518 8.54128 88.0596 8.42084 88.7334 8.42084C89.3454 8.42084 89.8011 8.49408 90.1006 8.64056C90.4001 8.78379 90.61 8.96771 90.7305 9.19232C90.8542 9.41368 90.916 9.8222 90.916 10.4179L90.9014 12.0195C90.9014 12.4752 90.9225 12.8121 90.9648 13.0302C91.0104 13.2451 91.0934 13.4762 91.2139 13.7236H89.8564C89.8206 13.6324 89.7767 13.4973 89.7246 13.3183C89.7018 13.2369 89.6855 13.1832 89.6758 13.1572C89.4414 13.385 89.1908 13.5559 88.9238 13.6699C88.6569 13.7838 88.3721 13.8408 88.0693 13.8408C87.5355 13.8408 87.1139 13.6959 86.8047 13.4062C86.4987 13.1165 86.3457 12.7503 86.3457 12.3076C86.3457 12.0146 86.4157 11.7542 86.5557 11.5263C86.6956 11.2952 86.891 11.1194 87.1416 10.999C87.3955 10.8753 87.7601 10.7678 88.2354 10.6767C88.8766 10.5563 89.321 10.4439 89.5684 10.3398V10.2031C89.5684 9.93939 89.5033 9.75222 89.373 9.64154C89.2428 9.52761 88.9971 9.47064 88.6357 9.47064C88.3916 9.47064 88.2012 9.51947 88.0645 9.61713C87.9277 9.71153 87.8171 9.87917 87.7324 10.1201ZM89.5684 11.2333C89.3926 11.2919 89.1143 11.3619 88.7334 11.4433C88.3525 11.5247 88.1035 11.6044 87.9863 11.6826C87.8073 11.8095 87.7178 11.9706 87.7178 12.166C87.7178 12.358 87.7894 12.524 87.9326 12.664C88.0758 12.804 88.2581 12.874 88.4795 12.874C88.7269 12.874 88.9629 12.7926 89.1875 12.6298C89.3535 12.5061 89.4626 12.3548 89.5146 12.1757C89.5505 12.0585 89.5684 11.8356 89.5684 11.5068V11.2333ZM94.6514 8.53802V9.63177H93.7139V11.7216C93.7139 12.1448 93.722 12.3922 93.7383 12.4638C93.7578 12.5322 93.7985 12.5891 93.8604 12.6347C93.9255 12.6803 94.0036 12.7031 94.0947 12.7031C94.2217 12.7031 94.4056 12.6591 94.6465 12.5712L94.7637 13.6357C94.4447 13.7724 94.0833 13.8408 93.6797 13.8408C93.4323 13.8408 93.2093 13.8001 93.0107 13.7187C92.8122 13.6341 92.6657 13.5266 92.5713 13.3964C92.4801 13.263 92.4167 13.0839 92.3809 12.8593C92.3516 12.6998 92.3369 12.3775 92.3369 11.8925V9.63177H91.707V8.53802H92.3369V7.50775L93.7139 6.70697V8.53802H94.6514ZM95.6035 7.8349V6.56537H96.9756V7.8349H95.6035ZM95.6035 13.7236V8.53802H96.9756V13.7236H95.6035ZM98.0693 11.0576C98.0693 10.6018 98.1816 10.1607 98.4062 9.73431C98.6309 9.30788 98.9482 8.98236 99.3584 8.75775C99.7718 8.53314 100.232 8.42084 100.74 8.42084C101.525 8.42084 102.168 8.67637 102.669 9.18744C103.17 9.69525 103.421 10.3382 103.421 11.1161C103.421 11.9007 103.167 12.5517 102.659 13.0693C102.155 13.5836 101.518 13.8408 100.75 13.8408C100.275 13.8408 99.8206 13.7333 99.3877 13.5185C98.958 13.3036 98.6309 12.9895 98.4062 12.5761C98.1816 12.1594 98.0693 11.6533 98.0693 11.0576ZM99.4756 11.1308C99.4756 11.6451 99.5977 12.039 99.8418 12.3124C100.086 12.5859 100.387 12.7226 100.745 12.7226C101.103 12.7226 101.403 12.5859 101.644 12.3124C101.888 12.039 102.01 11.6419 102.01 11.121C102.01 10.6132 101.888 10.2226 101.644 9.94916C101.403 9.67572 101.103 9.539 100.745 9.539C100.387 9.539 100.086 9.67572 99.8418 9.94916C99.5977 10.2226 99.4756 10.6165 99.4756 11.1308ZM109.217 13.7236H107.845V11.0771C107.845 10.5172 107.815 10.1559 107.757 9.9931C107.698 9.82709 107.602 9.69851 107.469 9.60736C107.339 9.51622 107.181 9.47064 106.995 9.47064C106.757 9.47064 106.544 9.53575 106.355 9.66595C106.167 9.79616 106.036 9.96869 105.965 10.1835C105.896 10.3984 105.862 10.7955 105.862 11.3749V13.7236H104.49V8.53802H105.765V9.29974C106.217 8.71381 106.787 8.42084 107.474 8.42084C107.776 8.42084 108.053 8.47618 108.304 8.58685C108.554 8.69427 108.743 8.83262 108.87 9.00189C109 9.17116 109.09 9.36322 109.139 9.57806C109.191 9.79291 109.217 10.1005 109.217 10.5009V13.7236Z" fill="white"/>
<path d="M55.584 25.2919V18.1337H57.9033C58.7822 18.1337 59.3551 18.1695 59.6221 18.2411C60.0322 18.3486 60.3757 18.5829 60.6523 18.9443C60.929 19.3023 61.0674 19.7662 61.0674 20.3359C61.0674 20.7753 60.9876 21.1448 60.8281 21.4443C60.6686 21.7438 60.4652 21.9798 60.2178 22.1523C59.9736 22.3216 59.7246 22.4339 59.4707 22.4892C59.1257 22.5576 58.626 22.5917 57.9717 22.5917H57.0293V25.2919H55.584ZM57.0293 19.3447V21.3759H57.8203C58.39 21.3759 58.7708 21.3385 58.9629 21.2636C59.1549 21.1887 59.3047 21.0716 59.4121 20.912C59.5228 20.7525 59.5781 20.567 59.5781 20.3554C59.5781 20.095 59.5016 19.8801 59.3486 19.7109C59.1956 19.5416 59.002 19.4358 58.7676 19.3935C58.5951 19.3609 58.2484 19.3447 57.7275 19.3447H57.0293ZM62.2441 25.2919V18.1337H63.6162V25.2919H62.2441ZM66.0527 21.6884L64.8076 21.4638C64.9476 20.9625 65.1885 20.5914 65.5303 20.3505C65.8721 20.1096 66.3799 19.9892 67.0537 19.9892C67.6657 19.9892 68.1214 20.0624 68.4209 20.2089C68.7204 20.3522 68.9303 20.5361 69.0508 20.7607C69.1745 20.982 69.2363 21.3906 69.2363 21.9863L69.2217 23.5878C69.2217 24.0436 69.2428 24.3805 69.2852 24.5986C69.3307 24.8134 69.4137 25.0445 69.5342 25.2919H68.1768C68.141 25.2008 68.097 25.0657 68.0449 24.8867C68.0221 24.8053 68.0059 24.7516 67.9961 24.7255C67.7617 24.9534 67.5111 25.1243 67.2441 25.2382C66.9772 25.3522 66.6924 25.4091 66.3896 25.4091C65.8558 25.4091 65.4342 25.2643 65.125 24.9745C64.819 24.6848 64.666 24.3186 64.666 23.8759C64.666 23.5829 64.736 23.3225 64.876 23.0947C65.016 22.8635 65.2113 22.6878 65.4619 22.5673C65.7158 22.4436 66.0804 22.3362 66.5557 22.2451C67.1969 22.1246 67.6413 22.0123 67.8887 21.9081V21.7714C67.8887 21.5078 67.8236 21.3206 67.6934 21.2099C67.5632 21.096 67.3174 21.039 66.9561 21.039C66.7119 21.039 66.5215 21.0878 66.3848 21.1855C66.248 21.2799 66.1374 21.4475 66.0527 21.6884ZM67.8887 22.8017C67.7129 22.8603 67.4346 22.9303 67.0537 23.0117C66.6729 23.093 66.4238 23.1728 66.3066 23.2509C66.1276 23.3779 66.0381 23.539 66.0381 23.7343C66.0381 23.9264 66.1097 24.0924 66.2529 24.2324C66.3962 24.3723 66.5785 24.4423 66.7998 24.4423C67.0472 24.4423 67.2832 24.3609 67.5078 24.1982C67.6738 24.0745 67.7829 23.9231 67.835 23.7441C67.8708 23.6269 67.8887 23.4039 67.8887 23.0751V22.8017ZM72.9717 20.1064V21.2001H72.0342V23.29C72.0342 23.7132 72.0423 23.9606 72.0586 24.0322C72.0781 24.1005 72.1188 24.1575 72.1807 24.2031C72.2458 24.2486 72.3239 24.2714 72.415 24.2714C72.542 24.2714 72.7259 24.2275 72.9668 24.1396L73.084 25.204C72.765 25.3408 72.4036 25.4091 72 25.4091C71.7526 25.4091 71.5296 25.3684 71.3311 25.287C71.1325 25.2024 70.986 25.095 70.8916 24.9648C70.8005 24.8313 70.737 24.6523 70.7012 24.4277C70.6719 24.2682 70.6572 23.9459 70.6572 23.4609V21.2001H70.0273V20.1064H70.6572V19.0761L72.0342 18.2753V20.1064H72.9717ZM73.3232 20.1064H74.085V19.7158C74.085 19.2796 74.1305 18.954 74.2217 18.7392C74.3161 18.5244 74.487 18.3502 74.7344 18.2167C74.985 18.08 75.3008 18.0117 75.6816 18.0117C76.0723 18.0117 76.4548 18.0703 76.8291 18.1874L76.6436 19.1445C76.4255 19.0924 76.2155 19.0663 76.0137 19.0663C75.8151 19.0663 75.6719 19.1135 75.584 19.2079C75.4993 19.2991 75.457 19.4765 75.457 19.7402V20.1064H76.4824V21.1855H75.457V25.2919H74.085V21.1855H73.3232V20.1064ZM76.9365 22.6259C76.9365 22.1702 77.0488 21.7291 77.2734 21.3027C77.498 20.8762 77.8154 20.5507 78.2256 20.3261C78.639 20.1015 79.0996 19.9892 79.6074 19.9892C80.3919 19.9892 81.0348 20.2447 81.5361 20.7558C82.0374 21.2636 82.2881 21.9065 82.2881 22.6845C82.2881 23.469 82.0342 24.1201 81.5264 24.6376C81.0218 25.152 80.3854 25.4091 79.6172 25.4091C79.1419 25.4091 78.6878 25.3017 78.2549 25.0869C77.8252 24.872 77.498 24.5579 77.2734 24.1445C77.0488 23.7278 76.9365 23.2216 76.9365 22.6259ZM78.3428 22.6992C78.3428 23.2135 78.4648 23.6074 78.709 23.8808C78.9531 24.1542 79.2542 24.291 79.6123 24.291C79.9704 24.291 80.2699 24.1542 80.5107 23.8808C80.7549 23.6074 80.877 23.2102 80.877 22.6894C80.877 22.1816 80.7549 21.791 80.5107 21.5175C80.2699 21.2441 79.9704 21.1074 79.6123 21.1074C79.2542 21.1074 78.9531 21.2441 78.709 21.5175C78.4648 21.791 78.3428 22.1848 78.3428 22.6992ZM84.6807 25.2919H83.3086V20.1064H84.583V20.8437C84.8011 20.4954 84.9964 20.2659 85.1689 20.1552C85.3447 20.0445 85.5433 19.9892 85.7646 19.9892C86.0771 19.9892 86.3783 20.0755 86.668 20.248L86.2432 21.4443C86.012 21.2945 85.7972 21.2197 85.5986 21.2197C85.4066 21.2197 85.2438 21.2734 85.1104 21.3808C84.9769 21.485 84.8711 21.6754 84.793 21.9521C84.7181 22.2288 84.6807 22.8082 84.6807 23.6904V25.2919ZM87.1611 20.1064H88.4258V20.8144C88.8783 20.2643 89.417 19.9892 90.042 19.9892C90.374 19.9892 90.6621 20.0576 90.9062 20.1943C91.1504 20.331 91.3506 20.5377 91.5068 20.8144C91.7347 20.5377 91.9805 20.331 92.2441 20.1943C92.5078 20.0576 92.7894 19.9892 93.0889 19.9892C93.4697 19.9892 93.792 20.0673 94.0557 20.2236C94.3193 20.3766 94.5163 20.6028 94.6465 20.9023C94.7409 21.1236 94.7881 21.4817 94.7881 21.9765V25.2919H93.416V22.3281C93.416 21.8137 93.3688 21.4817 93.2744 21.332C93.1475 21.1367 92.9521 21.039 92.6885 21.039C92.4964 21.039 92.3158 21.0976 92.1465 21.2148C91.9772 21.332 91.8551 21.5045 91.7803 21.7324C91.7054 21.957 91.668 22.3134 91.668 22.8017V25.2919H90.2959V22.4501C90.2959 21.9456 90.2715 21.6201 90.2227 21.4736C90.1738 21.3271 90.0973 21.218 89.9932 21.1464C89.8923 21.0748 89.7539 21.039 89.5781 21.039C89.3665 21.039 89.1761 21.096 89.0068 21.2099C88.8376 21.3238 88.7155 21.4882 88.6406 21.7031C88.569 21.9179 88.5332 22.2744 88.5332 22.7724V25.2919H87.1611V20.1064Z" fill="white"/>
<path d="M54.9736 31.6708H55.7354V31.2802C55.7354 30.844 55.7809 30.5185 55.8721 30.3036C55.9665 30.0888 56.1374 29.9147 56.3848 29.7812C56.6354 29.6445 56.9512 29.5761 57.332 29.5761C57.7227 29.5761 58.1051 29.6347 58.4795 29.7519L58.2939 30.7089C58.0758 30.6568 57.8659 30.6308 57.6641 30.6308C57.4655 30.6308 57.3223 30.678 57.2344 30.7724C57.1497 30.8635 57.1074 31.041 57.1074 31.3046V31.6708H58.1328V32.7499H57.1074V36.8564H55.7354V32.7499H54.9736V31.6708ZM58.5869 34.1904C58.5869 33.7346 58.6992 33.2936 58.9238 32.8671C59.1484 32.4407 59.4658 32.1152 59.876 31.8906C60.2894 31.666 60.75 31.5536 61.2578 31.5536C62.0423 31.5536 62.6852 31.8092 63.1865 32.3203C63.6878 32.8281 63.9385 33.471 63.9385 34.249C63.9385 35.0335 63.6846 35.6845 63.1768 36.2021C62.6722 36.7164 62.0358 36.9736 61.2676 36.9736C60.7923 36.9736 60.3382 36.8661 59.9053 36.6513C59.4756 36.4365 59.1484 36.1223 58.9238 35.7089C58.6992 35.2923 58.5869 34.7861 58.5869 34.1904ZM59.9932 34.2636C59.9932 34.7779 60.1152 35.1718 60.3594 35.4453C60.6035 35.7187 60.9046 35.8554 61.2627 35.8554C61.6208 35.8554 61.9202 35.7187 62.1611 35.4453C62.4053 35.1718 62.5273 34.7747 62.5273 34.2538C62.5273 33.746 62.4053 33.3554 62.1611 33.082C61.9202 32.8085 61.6208 32.6718 61.2627 32.6718C60.9046 32.6718 60.6035 32.8085 60.3594 33.082C60.1152 33.3554 59.9932 33.7493 59.9932 34.2636ZM66.3311 36.8564H64.959V31.6708H66.2334V32.4081C66.4515 32.0598 66.6468 31.8303 66.8193 31.7197C66.9951 31.609 67.1937 31.5536 67.415 31.5536C67.7275 31.5536 68.0286 31.6399 68.3184 31.8124L67.8936 33.0087C67.6624 32.859 67.4476 32.7841 67.249 32.7841C67.057 32.7841 66.8942 32.8378 66.7607 32.9453C66.6273 33.0494 66.5215 33.2398 66.4434 33.5165C66.3685 33.7932 66.3311 34.3727 66.3311 35.2548V36.8564ZM76.2871 34.2245L77.6885 34.6689C77.4736 35.4501 77.1156 36.0312 76.6143 36.412C76.1162 36.7897 75.4831 36.9785 74.7148 36.9785C73.7643 36.9785 72.9831 36.6546 72.3711 36.0068C71.7591 35.3557 71.4531 34.4671 71.4531 33.3408C71.4531 32.1494 71.7607 31.2249 72.376 30.5673C72.9912 29.9065 73.8001 29.5761 74.8027 29.5761C75.6784 29.5761 76.3896 29.8349 76.9365 30.3525C77.262 30.6585 77.5062 31.0979 77.6689 31.6708L76.2383 32.0126C76.1536 31.6415 75.9762 31.3486 75.7061 31.1337C75.4391 30.9189 75.1136 30.8115 74.7295 30.8115C74.1989 30.8115 73.7676 31.0019 73.4355 31.3828C73.1068 31.7636 72.9424 32.3805 72.9424 33.2333C72.9424 34.1383 73.1051 34.7828 73.4307 35.1669C73.7562 35.551 74.1794 35.7431 74.7002 35.7431C75.0843 35.7431 75.4147 35.621 75.6914 35.3769C75.9681 35.1328 76.1667 34.7486 76.2871 34.2245ZM80.291 29.6982V32.33C80.7337 31.8124 81.2627 31.5536 81.8779 31.5536C82.1937 31.5536 82.4785 31.6122 82.7324 31.7294C82.9863 31.8466 83.1768 31.9964 83.3037 32.1786C83.4339 32.3609 83.5218 32.5628 83.5674 32.7841C83.6162 33.0055 83.6406 33.3489 83.6406 33.8144V36.8564H82.2686V34.1171C82.2686 33.5735 82.2425 33.2285 82.1904 33.082C82.1383 32.9355 82.0456 32.8199 81.9121 32.7353C81.7819 32.6474 81.6175 32.6035 81.4189 32.6035C81.1911 32.6035 80.9876 32.6588 80.8086 32.7695C80.6296 32.8801 80.4977 33.0478 80.4131 33.2724C80.3317 33.4938 80.291 33.8225 80.291 34.2587V36.8564H78.9189V29.6982H80.291ZM88.04 35.206L89.4072 35.4355C89.2314 35.9368 88.9531 36.3193 88.5723 36.5829C88.1947 36.8434 87.721 36.9736 87.1514 36.9736C86.2497 36.9736 85.5824 36.679 85.1494 36.0898C84.8076 35.6178 84.6367 35.0221 84.6367 34.3027C84.6367 33.4433 84.8613 32.7711 85.3105 32.2861C85.7598 31.7978 86.3278 31.5536 87.0146 31.5536C87.7861 31.5536 88.3949 31.8092 88.8408 32.3203C89.2868 32.8281 89.5 33.6077 89.4805 34.6591H86.043C86.0527 35.066 86.1634 35.3834 86.375 35.6113C86.5866 35.8359 86.8503 35.9482 87.166 35.9482C87.3809 35.9482 87.5615 35.8896 87.708 35.7724C87.8545 35.6552 87.9652 35.4664 88.04 35.206ZM88.1182 33.8193C88.1084 33.4221 88.0059 33.121 87.8105 32.916C87.6152 32.7076 87.3776 32.6035 87.0977 32.6035C86.7982 32.6035 86.5508 32.7125 86.3555 32.9306C86.1602 33.1487 86.0641 33.4449 86.0674 33.8193H88.1182ZM90.501 31.6708H91.7656V32.3788C92.2181 31.8287 92.7568 31.5536 93.3818 31.5536C93.7139 31.5536 94.002 31.622 94.2461 31.7587C94.4902 31.8954 94.6904 32.1022 94.8467 32.3788C95.0745 32.1022 95.3203 31.8954 95.584 31.7587C95.8477 31.622 96.1292 31.5536 96.4287 31.5536C96.8096 31.5536 97.1318 31.6318 97.3955 31.788C97.6592 31.941 97.8561 32.1673 97.9863 32.4667C98.0807 32.6881 98.1279 33.0462 98.1279 33.541V36.8564H96.7559V33.8925C96.7559 33.3782 96.7087 33.0462 96.6143 32.8964C96.4873 32.7011 96.292 32.6035 96.0283 32.6035C95.8363 32.6035 95.6556 32.662 95.4863 32.7792C95.3171 32.8964 95.195 33.0689 95.1201 33.2968C95.0452 33.5214 95.0078 33.8779 95.0078 34.3661V36.8564H93.6357V34.0146C93.6357 33.51 93.6113 33.1845 93.5625 33.038C93.5137 32.8915 93.4372 32.7825 93.333 32.7109C93.2321 32.6393 93.0938 32.6035 92.918 32.6035C92.7064 32.6035 92.516 32.6604 92.3467 32.7744C92.1774 32.8883 92.0553 33.0527 91.9805 33.2675C91.9089 33.4824 91.873 33.8388 91.873 34.3369V36.8564H90.501V31.6708ZM99.5 30.9677V29.6982H100.872V30.9677H99.5ZM99.5 36.8564V31.6708H100.872V36.8564H99.5ZM106.805 33.204L105.452 33.4482C105.407 33.178 105.302 32.9745 105.14 32.8378C104.98 32.7011 104.772 32.6328 104.515 32.6328C104.173 32.6328 103.899 32.7516 103.694 32.9892C103.493 33.2236 103.392 33.6175 103.392 34.1708C103.392 34.7861 103.494 35.2206 103.699 35.4745C103.908 35.7285 104.186 35.8554 104.534 35.8554C104.795 35.8554 105.008 35.7822 105.174 35.6357C105.34 35.4859 105.457 35.2304 105.525 34.8691L106.873 35.0986C106.733 35.7171 106.465 36.1842 106.067 36.4999C105.67 36.8157 105.138 36.9736 104.471 36.9736C103.712 36.9736 103.107 36.7343 102.654 36.2558C102.205 35.7773 101.98 35.1148 101.98 34.2685C101.98 33.4124 102.207 32.7467 102.659 32.2714C103.112 31.7929 103.724 31.5536 104.495 31.5536C105.127 31.5536 105.628 31.6904 105.999 31.9638C106.373 32.234 106.642 32.6474 106.805 33.204ZM108.875 33.2529L107.63 33.0283C107.77 32.527 108.011 32.1559 108.353 31.915C108.694 31.6741 109.202 31.5536 109.876 31.5536C110.488 31.5536 110.944 31.6269 111.243 31.7734C111.543 31.9166 111.753 32.1005 111.873 32.3251C111.997 32.5465 112.059 32.955 112.059 33.5507L112.044 35.1523C112.044 35.608 112.065 35.9449 112.107 36.163C112.153 36.3779 112.236 36.609 112.356 36.8564H110.999C110.963 36.7652 110.919 36.6301 110.867 36.4511C110.844 36.3697 110.828 36.316 110.818 36.29C110.584 36.5178 110.333 36.6887 110.066 36.8027C109.799 36.9166 109.515 36.9736 109.212 36.9736C108.678 36.9736 108.257 36.8287 107.947 36.539C107.641 36.2493 107.488 35.8831 107.488 35.4404C107.488 35.1474 107.558 34.887 107.698 34.6591C107.838 34.428 108.034 34.2522 108.284 34.1318C108.538 34.0081 108.903 33.9007 109.378 33.8095C110.019 33.6891 110.464 33.5768 110.711 33.4726V33.3359C110.711 33.0722 110.646 32.885 110.516 32.7744C110.385 32.6604 110.14 32.6035 109.778 32.6035C109.534 32.6035 109.344 32.6523 109.207 32.7499C109.07 32.8443 108.96 33.012 108.875 33.2529ZM110.711 34.3661C110.535 34.4247 110.257 34.4947 109.876 34.5761C109.495 34.6575 109.246 34.7372 109.129 34.8154C108.95 34.9423 108.86 35.1035 108.86 35.2988C108.86 35.4908 108.932 35.6568 109.075 35.7968C109.218 35.9368 109.401 36.0068 109.622 36.0068C109.869 36.0068 110.105 35.9254 110.33 35.7626C110.496 35.6389 110.605 35.4876 110.657 35.3085C110.693 35.1913 110.711 34.9684 110.711 34.6396V34.3661ZM113.416 36.8564V29.6982H114.788V36.8564H113.416Z" fill="white"/>
<path d="M55.5645 48.4169V41.2587H57.7275L59.0264 46.1415L60.3105 41.2587H62.4785V48.4169H61.1357V42.7822L59.7148 48.4169H58.3232L56.9072 42.7822V48.4169H55.5645ZM63.5869 45.7509C63.5869 45.2952 63.6992 44.8541 63.9238 44.4277C64.1484 44.0012 64.4658 43.6757 64.876 43.4511C65.2894 43.2265 65.75 43.1142 66.2578 43.1142C67.0423 43.1142 67.6852 43.3697 68.1865 43.8808C68.6878 44.3886 68.9385 45.0315 68.9385 45.8095C68.9385 46.594 68.6846 47.2451 68.1768 47.7626C67.6722 48.277 67.0358 48.5341 66.2676 48.5341C65.7923 48.5341 65.3382 48.4267 64.9053 48.2119C64.4756 47.997 64.1484 47.6829 63.9238 47.2695C63.6992 46.8528 63.5869 46.3466 63.5869 45.7509ZM64.9932 45.8242C64.9932 46.3385 65.1152 46.7324 65.3594 47.0058C65.6035 47.2792 65.9046 47.416 66.2627 47.416C66.6208 47.416 66.9202 47.2792 67.1611 47.0058C67.4053 46.7324 67.5273 46.3352 67.5273 45.8144C67.5273 45.3066 67.4053 44.916 67.1611 44.6425C66.9202 44.3691 66.6208 44.2324 66.2627 44.2324C65.9046 44.2324 65.6035 44.3691 65.3594 44.6425C65.1152 44.916 64.9932 45.3098 64.9932 45.8242ZM74.7344 48.4169H73.3623V45.7704C73.3623 45.2106 73.333 44.8492 73.2744 44.6865C73.2158 44.5204 73.1198 44.3919 72.9863 44.3007C72.8561 44.2096 72.6982 44.164 72.5127 44.164C72.2751 44.164 72.0618 44.2291 71.873 44.3593C71.6842 44.4895 71.554 44.662 71.4824 44.8769C71.4141 45.0917 71.3799 45.4889 71.3799 46.0683V48.4169H70.0078V43.2314H71.2822V43.9931C71.7347 43.4072 72.3044 43.1142 72.9912 43.1142C73.2939 43.1142 73.5706 43.1695 73.8213 43.2802C74.0719 43.3876 74.2607 43.526 74.3877 43.6953C74.5179 43.8645 74.6074 44.0566 74.6562 44.2714C74.7083 44.4863 74.7344 44.7939 74.7344 45.1943V48.4169ZM76.1309 42.5283V41.2587H77.5029V42.5283H76.1309ZM76.1309 48.4169V43.2314H77.5029V48.4169H76.1309ZM81.292 43.2314V44.3251H80.3545V46.415C80.3545 46.8382 80.3626 47.0856 80.3789 47.1572C80.3984 47.2255 80.4391 47.2825 80.501 47.3281C80.5661 47.3736 80.6442 47.3964 80.7354 47.3964C80.8623 47.3964 81.0462 47.3525 81.2871 47.2646L81.4043 48.329C81.0853 48.4658 80.724 48.5341 80.3203 48.5341C80.0729 48.5341 79.8499 48.4934 79.6514 48.412C79.4528 48.3274 79.3063 48.22 79.2119 48.0898C79.1208 47.9563 79.0573 47.7773 79.0215 47.5527C78.9922 47.3932 78.9775 47.0709 78.9775 46.5859V44.3251H78.3477V43.2314H78.9775V42.2011L80.3545 41.4003V43.2314H81.292ZM81.9268 45.7509C81.9268 45.2952 82.0391 44.8541 82.2637 44.4277C82.4883 44.0012 82.8057 43.6757 83.2158 43.4511C83.6292 43.2265 84.0898 43.1142 84.5977 43.1142C85.3822 43.1142 86.0251 43.3697 86.5264 43.8808C87.0277 44.3886 87.2783 45.0315 87.2783 45.8095C87.2783 46.594 87.0244 47.2451 86.5166 47.7626C86.012 48.277 85.3757 48.5341 84.6074 48.5341C84.1322 48.5341 83.6781 48.4267 83.2451 48.2119C82.8154 47.997 82.4883 47.6829 82.2637 47.2695C82.0391 46.8528 81.9268 46.3466 81.9268 45.7509ZM83.333 45.8242C83.333 46.3385 83.4551 46.7324 83.6992 47.0058C83.9434 47.2792 84.2445 47.416 84.6025 47.416C84.9606 47.416 85.2601 47.2792 85.501 47.0058C85.7451 46.7324 85.8672 46.3352 85.8672 45.8144C85.8672 45.3066 85.7451 44.916 85.501 44.6425C85.2601 44.3691 84.9606 44.2324 84.6025 44.2324C84.2445 44.2324 83.9434 44.3691 83.6992 44.6425C83.4551 44.916 83.333 45.3098 83.333 45.8242ZM89.6709 48.4169H88.2988V43.2314H89.5732V43.9687C89.7913 43.6204 89.9867 43.3909 90.1592 43.2802C90.335 43.1695 90.5335 43.1142 90.7549 43.1142C91.0674 43.1142 91.3685 43.2005 91.6582 43.373L91.2334 44.5693C91.0023 44.4195 90.7874 44.3447 90.5889 44.3447C90.3968 44.3447 90.234 44.3984 90.1006 44.5058C89.9671 44.61 89.8613 44.8004 89.7832 45.0771C89.7083 45.3538 89.6709 45.9332 89.6709 46.8154V48.4169ZM92.2539 42.5283V41.2587H93.626V42.5283H92.2539ZM92.2539 48.4169V43.2314H93.626V48.4169H92.2539ZM99.7539 48.4169H98.3818V45.7704C98.3818 45.2106 98.3525 44.8492 98.2939 44.6865C98.2354 44.5204 98.1393 44.3919 98.0059 44.3007C97.8757 44.2096 97.7178 44.164 97.5322 44.164C97.2946 44.164 97.0814 44.2291 96.8926 44.3593C96.7038 44.4895 96.5736 44.662 96.502 44.8769C96.4336 45.0917 96.3994 45.4889 96.3994 46.0683V48.4169H95.0273V43.2314H96.3018V43.9931C96.7542 43.4072 97.3239 43.1142 98.0107 43.1142C98.3135 43.1142 98.5902 43.1695 98.8408 43.2802C99.0915 43.3876 99.2803 43.526 99.4072 43.6953C99.5374 43.8645 99.627 44.0566 99.6758 44.2714C99.7279 44.4863 99.7539 44.7939 99.7539 45.1943V48.4169ZM101.023 48.7587L102.591 48.9492C102.617 49.1314 102.677 49.2568 102.771 49.3251C102.902 49.4228 103.107 49.4716 103.387 49.4716C103.745 49.4716 104.013 49.4179 104.192 49.3105C104.313 49.2389 104.404 49.1233 104.466 48.9638C104.508 48.8499 104.529 48.6399 104.529 48.3339V47.5771C104.119 48.137 103.602 48.4169 102.977 48.4169C102.28 48.4169 101.728 48.1223 101.321 47.5331C101.002 47.0676 100.843 46.4882 100.843 45.7949C100.843 44.9257 101.051 44.2617 101.468 43.8027C101.888 43.3437 102.409 43.1142 103.03 43.1142C103.672 43.1142 104.201 43.3958 104.617 43.9589V43.2314H105.901V47.8847C105.901 48.4967 105.851 48.954 105.75 49.2568C105.649 49.5595 105.507 49.7971 105.325 49.9697C105.143 50.1422 104.899 50.2773 104.593 50.3749C104.29 50.4726 103.906 50.5214 103.44 50.5214C102.562 50.5214 101.938 50.3701 101.57 50.0673C101.202 49.7678 101.019 49.387 101.019 48.9247C101.019 48.8792 101.02 48.8238 101.023 48.7587ZM102.249 45.7167C102.249 46.2669 102.355 46.6705 102.566 46.9277C102.781 47.1816 103.045 47.3085 103.357 47.3085C103.693 47.3085 103.976 47.1783 104.207 46.9179C104.438 46.6542 104.554 46.2652 104.554 45.7509C104.554 45.2138 104.443 44.815 104.222 44.5546C104 44.2942 103.72 44.164 103.382 44.164C103.053 44.164 102.781 44.2926 102.566 44.5497C102.355 44.8036 102.249 45.1926 102.249 45.7167Z" fill="white"/>
</svg>
