<svg width="142" height="43" viewBox="0 0 142 43" fill="none" xmlns="http://www.w3.org/2000/svg">
<path d="M64.8891 42.6382L63.4536 37.9255H56.2344L54.7989 42.6382H50.2754L57.2637 22.7563H62.3965L69.4126 42.6382H64.8891ZM62.4519 34.4036C61.1241 30.1324 60.3748 27.7168 60.204 27.1583C60.0409 26.5982 59.924 26.1567 59.8517 25.8305C59.5532 26.986 58.7008 29.8432 57.2914 34.4036H62.4519Z" fill="white"/>
<path d="M88.3203 32.5485C88.3203 35.8073 87.391 38.3044 85.5308 40.0385C83.6798 41.7725 81.0027 42.6387 77.4993 42.6387H71.8926V22.8384H78.1086C81.3412 22.8384 83.8506 23.6923 85.6385 25.3986C87.4263 27.1049 88.3203 29.4882 88.3203 32.5485ZM83.9583 32.6578C83.9583 28.4051 82.0797 26.2787 78.324 26.2787H76.0899V39.1722H77.8916C81.9366 39.1722 83.9583 36.9997 83.9583 32.6578Z" fill="white"/>
<path d="M103.998 42.6382L102.563 37.9255H95.3438L93.9083 42.6382H89.3848L96.3731 22.7563H101.506L108.522 42.6382H103.998ZM101.56 34.4036C100.232 30.1324 99.4826 27.7168 99.3119 27.1583C99.1488 26.5982 99.0318 26.1567 98.9595 25.8305C98.661 26.986 97.8086 29.8432 96.3992 34.4036H101.56Z" fill="white"/>
<path d="M115.205 32.1562H116.586C117.877 32.1562 118.843 31.9038 119.485 31.3976C120.127 30.8822 120.447 30.1375 120.447 29.1636C120.447 28.1789 120.176 27.4527 119.634 26.9834C119.102 26.5141 118.262 26.2787 117.116 26.2787H115.206V32.1562H115.205ZM124.686 29.0143C124.686 31.1453 124.018 32.7747 122.681 33.904C121.353 35.0334 119.462 35.5965 117.006 35.5965H115.205V42.6387H111.006V22.8384H117.331C119.733 22.8384 121.556 23.3569 122.802 24.3954C124.058 25.4248 124.686 26.9649 124.686 29.0143Z" fill="white"/>
<path d="M136.09 42.6387H131.891V26.3326H126.514V22.8384H141.466V26.3326H136.088V42.6387H136.09Z" fill="white"/>
<path d="M58.415 3.9807C57.0303 3.9807 55.9594 4.50229 55.2009 5.547C54.4424 6.58248 54.0623 8.03031 54.0623 9.88895C54.0623 13.757 55.5132 15.6895 58.4166 15.6895C59.6352 15.6895 61.1091 15.3848 62.8416 14.7756V17.8605C61.4184 18.4544 59.829 18.7498 58.0719 18.7498C55.5486 18.7498 53.6192 17.9866 52.2822 16.4603C50.9451 14.9263 50.2773 12.7277 50.2773 9.86433C50.2773 8.06108 50.6051 6.48401 51.2621 5.13158C51.919 3.77145 52.8591 2.73135 54.0854 2.01128C55.3194 1.28352 56.7626 0.92041 58.415 0.92041C60.0998 0.92041 61.7923 1.32814 63.4924 2.14206L62.3062 5.13158C61.6569 4.82385 61.0045 4.5546 60.3491 4.32535C59.6921 4.09609 59.0474 3.9807 58.415 3.9807Z" fill="white"/>
<path d="M69.8493 18.5138H66.2305V0.0551758H69.8493V18.5138Z" fill="white"/>
<path d="M73.4805 1.82303C73.4805 0.644462 74.1375 0.0551758 75.4499 0.0551758C76.7623 0.0551758 77.4193 0.644462 77.4193 1.82303C77.4193 2.38462 77.2531 2.82313 76.9208 3.14008C76.5962 3.4478 76.1069 3.6032 75.4499 3.6032C74.1359 3.6032 73.4805 3.0093 73.4805 1.82303ZM77.2531 18.5138H73.6343V5.25105H77.2531V18.5138Z" fill="white"/>
<path d="M92.9156 18.5125H89.2968V10.7656C89.2968 9.80863 89.1352 9.09318 88.8106 8.61775C88.4936 8.13463 87.992 7.89461 87.3043 7.89461C86.3796 7.89461 85.7072 8.23464 85.2871 8.9147C84.8686 9.59477 84.6579 10.7133 84.6579 12.2719V18.5125H81.0391V5.24974H83.8024L84.2886 6.94683H84.4901C84.8456 6.33754 85.3595 5.86365 86.0318 5.52362C86.7042 5.17589 87.4751 5.00203 88.3459 5.00203C90.3307 5.00203 91.6754 5.64978 92.3786 6.94683H92.6986C93.054 6.32985 93.5772 5.85134 94.2649 5.51131C94.9604 5.17127 95.7435 5.00049 96.6144 5.00049C98.1176 5.00049 99.2515 5.38822 100.019 6.16368C100.795 6.93144 101.182 8.16386 101.182 9.86556V18.5141H97.5529V10.7672C97.5529 9.81017 97.3914 9.09472 97.0667 8.61929C96.7498 8.13617 96.2482 7.89615 95.5604 7.89615C94.6742 7.89615 94.011 8.2131 93.5679 8.84547C93.1325 9.47783 92.9156 10.4825 92.9156 11.8581V18.5125Z" fill="white"/>
<path d="M113.328 18.5141L112.628 16.7109H112.533C111.923 17.4786 111.296 18.0125 110.646 18.3126C110.006 18.6049 109.168 18.7511 108.131 18.7511C106.857 18.7511 105.854 18.388 105.118 17.6602C104.39 16.9324 104.027 15.897 104.027 14.5522C104.027 13.1444 104.518 12.1089 105.498 11.4442C106.488 10.7719 107.974 10.3995 109.959 10.3287L112.26 10.258V9.67637C112.26 8.33163 111.573 7.65926 110.196 7.65926C109.136 7.65926 107.891 7.97929 106.458 8.62088L105.26 6.17758C106.786 5.37904 108.479 4.979 110.337 4.979C112.117 4.979 113.481 5.36673 114.43 6.14219C115.379 6.91765 115.853 8.09622 115.853 9.67791V18.5157L113.328 18.5141ZM112.262 12.3689L110.862 12.4166C109.809 12.4489 109.026 12.6382 108.512 12.9859C107.998 13.3336 107.742 13.8645 107.742 14.5753C107.742 15.5954 108.326 16.1062 109.497 16.1062C110.336 16.1062 111.003 15.8646 111.502 15.3831C112.008 14.8999 112.26 14.2599 112.26 13.4613V12.3689H112.262Z" fill="white"/>
<path d="M125.156 15.8636C125.789 15.8636 126.549 15.7252 127.434 15.4482V18.1408C126.532 18.5439 125.424 18.7454 124.112 18.7454C122.664 18.7454 121.608 18.3823 120.944 17.6546C120.287 16.9191 119.959 15.819 119.959 14.3573V7.96288H118.227V6.43197L120.219 5.22263L121.264 2.42236H123.576V5.24571H127.289V7.96288H123.576V14.3573C123.576 14.8712 123.719 15.2513 124.004 15.4959C124.298 15.7405 124.681 15.8636 125.156 15.8636Z" fill="white"/>
<path d="M135.597 7.58044C134.83 7.58044 134.23 7.82507 133.794 8.31589C133.359 8.79901 133.11 9.48677 133.046 10.3807H138.124C138.108 9.48677 137.875 8.79901 137.424 8.31589C136.973 7.82507 136.364 7.58044 135.597 7.58044ZM136.107 18.7553C133.971 18.7553 132.303 18.166 131.1 16.9875C129.897 15.8089 129.297 14.1411 129.297 11.9808C129.297 9.7591 129.851 8.04202 130.957 6.83267C132.073 5.6141 133.611 5.00635 135.571 5.00635C137.445 5.00635 138.905 5.54024 139.949 6.60804C140.992 7.67583 141.515 9.15135 141.515 11.0331V12.7886H132.962C133.002 13.8164 133.306 14.6196 133.876 15.1965C134.445 15.7735 135.244 16.0628 136.271 16.0628C137.07 16.0628 137.825 15.9797 138.538 15.8135C139.25 15.6473 139.993 15.3827 140.769 15.0181V17.8183C140.136 18.1353 139.459 18.3676 138.741 18.5184C138.021 18.6753 137.144 18.7553 136.107 18.7553Z" fill="white"/>
<path d="M13.742 9.00261C16.2833 8.93555 17.5953 7.85647 17.8582 5.85938C18.1213 3.86221 16.6883 2.1562 14.6779 1.895C11.1634 1.43834 8.28584 4.86937 6.52148 8.57189C9.69843 7.71627 11.3078 9.06686 13.742 9.00261Z" fill="white"/>
<path d="M7.89083 16.5467C9.85054 14.9286 10.2103 13.271 9.17071 11.5364C8.13114 9.80181 5.93747 9.34094 4.19101 10.3735C1.13778 12.1786 1.01323 16.6525 1.93507 20.6542C3.90294 18.0244 6.01381 18.0965 7.89083 16.5467Z" fill="white"/>
<path d="M23.0339 6.68591C25.0745 8.20208 26.7815 8.16358 28.2379 6.75559C29.6943 5.34759 29.6348 3.12143 28.2171 1.67493C25.7388 -0.853918 21.329 0.0675462 17.625 1.88959C20.6586 3.17827 21.0794 5.2338 23.0339 6.68591Z" fill="white"/>
<path d="M21.8657 42.6394C33.7386 42.6394 43.363 33.0801 43.363 21.2884C43.363 15.8052 41.2819 10.805 37.8613 7.02393C40.6039 23.4915 23.7141 20.1686 13.2703 23.3814C4.91532 25.9516 4.9189 32.624 5.92943 35.6468C27.0903 43.8862 36.4744 31.1775 38.5571 23.7853C37.9508 37.8699 22.2969 41.377 14.5458 41.3699C16.8305 42.1912 19.2955 42.6394 21.8657 42.6394Z" fill="white"/>
<path d="M36.1169 5.53241C34.5462 4.52038 32.528 3.84298 30.5117 3.44775C31.5062 5.20536 31.5381 6.59519 31.5691 7.94812C31.5885 8.7941 31.6076 9.62566 31.8615 10.5236C32.5506 12.9605 33.928 13.9623 35.9466 13.7262C36.0258 13.7169 36.1039 13.7053 36.1809 13.6913C36.7148 12.1407 36.8731 10.0732 36.4047 7.2608L36.1169 5.53241Z" fill="white"/>
<path d="M8.08648 24.3478C8.00369 22.8826 7.23826 21.9065 5.84469 21.3589C3.95474 20.6162 1.93451 21.5822 1.18668 23.4592C0.122771 26.1297 1.68174 29.023 4.01907 31.4143C4.12321 30.5676 4.33075 29.6912 4.67474 28.8187C5.31543 27.1942 6.40661 25.6413 8.08648 24.3478Z" fill="white"/>
</svg>
