<svg width="122" height="65" viewBox="0 0 122 65" fill="none" xmlns="http://www.w3.org/2000/svg">
<path d="M121.934 36.981V41.7617H112.365V44.7543H120.138V49.535H112.365V52.8231H121.934V57.9068H106.084V36.981H121.934Z" fill="white"/>
<path fill-rule="evenodd" clip-rule="evenodd" d="M39.8125 57.9107L41.0909 53.7876H46.7952L47.9996 57.9107H54.6646L47.9849 36.9849H41.0761L33.1328 57.9107H39.8125ZM42.2066 49.2212L43.9357 43.1548L44.8002 46.1917L45.6647 49.2286L42.2066 49.2212Z" fill="white"/>
<path d="M9.21484 57.9107V36.9849H17.3798L20.3206 47.7729L23.2615 36.9849H31.3451V57.9107H25.8772V43.3099L22.2048 57.9107H18.3699L14.7788 43.3099V57.9107H9.21484Z" fill="white"/>
<path d="M83.3725 57.9107H77.0918V36.9849H83.3725V57.9107Z" fill="white"/>
<path fill-rule="evenodd" clip-rule="evenodd" d="M74.276 46.3542C74.7637 45.4306 75.0075 44.3592 75.0075 43.1548C75.0075 41.3001 74.3425 39.8149 73.0051 38.6844C71.6677 37.5538 69.8056 36.9849 67.3894 36.9849H56.4609V57.9107H62.7417V49.8345H64.9214L67.9805 57.9107H75.1036L71.313 48.7852C72.7982 48.0907 73.7883 47.2779 74.276 46.3542ZM67.5815 44.9355C67.0938 45.268 66.4362 45.3493 65.6382 45.3493H64.1899H62.7417V41.4626H65.8598C67.5076 41.4626 68.3278 42.1055 68.3278 43.4429C68.313 44.1006 68.0692 44.5882 67.5815 44.9355Z" fill="white"/>
<path d="M85.7578 36.981V57.9068H91.1445V45.4119L98.3045 57.9068H103.691V36.981H98.5409V48.0128L92.105 36.981H85.7578Z" fill="white"/>
<path fill-rule="evenodd" clip-rule="evenodd" d="M46.534 53.7761C46.5488 53.6726 46.6005 53.584 46.7188 53.5175C46.8665 53.4288 46.9183 53.4879 46.9921 53.5618L46.9995 53.5692C47.6867 54.3229 48.6399 54.3155 48.9355 54.3155C48.9503 54.3155 48.965 54.3155 48.9724 54.3155C49.0833 54.3155 49.1276 54.4115 49.1793 54.515C49.2458 54.6554 49.3197 54.8106 49.5488 54.8106C49.8813 54.8106 49.8517 54.2564 49.7926 53.9756C50.0956 53.7687 50.1842 53.5914 50.2433 53.4731C50.2803 53.3993 50.3098 53.3401 50.369 53.3106C50.4281 53.281 50.5094 53.318 50.598 53.3549C50.7532 53.4214 50.9231 53.4953 51.0266 53.2293C51.1891 52.8155 50.6941 52.6456 50.369 52.5643C50.1695 52.5126 50.0069 52.2909 49.8517 52.0766C49.7483 51.9362 49.6448 51.7958 49.5488 51.7293C49.3049 51.5594 49.0537 51.3155 49.4675 51.3155C49.8813 51.3155 50.4576 50.983 49.8 50.8131C49.1424 50.6431 48.566 50.8131 48.2335 50.983C48.0562 51.0717 48.0266 51.0643 47.9453 51.0569C47.8715 51.0495 47.768 51.0274 47.4946 51.0717C47.1843 51.116 46.9921 51.1899 46.8444 51.2416C46.7188 51.286 46.6227 51.3229 46.5119 51.3229C46.401 51.3229 46.3419 51.2934 46.2754 51.2564C46.1867 51.2121 46.0833 51.1604 45.8542 51.1604C45.3961 51.1604 44.8641 51.4116 45.1153 51.7441C45.2114 51.8697 45.4478 51.9658 45.6843 52.0544C45.8468 52.1136 46.002 52.1801 46.1055 52.2466C46.3493 52.4165 46.2902 52.7638 46.0242 53.0815C45.906 53.2219 45.7508 53.5027 45.773 53.7909H46.534V53.7761Z" fill="white"/>
<path fill-rule="evenodd" clip-rule="evenodd" d="M42.2803 48.9461L42.2064 49.2121H42.2138C42.162 49.286 42.0808 49.3008 41.9551 49.2343C41.5192 48.9979 41.1941 48.3181 41.0832 48.0077C41.0167 47.5274 41.268 47.0545 41.4527 46.8329C41.8517 46.3452 41.9404 45.8058 41.5783 45.5472C41.4305 45.4437 41.1941 45.3477 40.9576 45.2516C40.6103 45.1112 40.2483 44.9634 40.1079 44.7713C39.7384 44.2541 40.529 43.8698 41.2088 43.8698C41.5561 43.8698 41.7039 43.9511 41.8369 44.025C41.9404 44.0767 42.029 44.1285 42.1916 44.1285C42.3615 44.1285 42.5019 44.0767 42.6867 44.0028C42.9083 43.9216 43.1965 43.8107 43.662 43.7442C43.699 43.7368 43.7285 43.7368 43.7655 43.7294L42.7088 47.4535C42.6571 47.4535 42.5906 47.4683 42.5093 47.52C42.3098 47.6457 42.2433 47.8082 42.2285 48.0003C42.2211 48.0521 42.2285 48.1851 42.2507 48.3402C42.2655 48.5397 42.2876 48.7688 42.2803 48.9461ZM45.5241 48.7614C45.6423 48.7688 45.7383 48.7614 45.8049 48.7614C45.827 48.7614 45.8492 48.7614 45.864 48.7614C46.0265 48.7614 46.093 48.9092 46.1669 49.0717C46.263 49.286 46.3738 49.5299 46.7211 49.5299C47.2088 49.5299 47.1718 48.6727 47.0905 48.2442C47.5487 47.9264 47.6743 47.653 47.763 47.4683C47.8147 47.3501 47.859 47.2688 47.9477 47.2171C48.0364 47.1728 48.1546 47.2245 48.2876 47.2836C48.5166 47.387 48.7753 47.4979 48.9304 47.0915C49.1743 46.4486 48.4428 46.19 47.9477 46.0644C47.6595 45.9905 47.4083 45.6358 47.1792 45.3107C47.024 45.089 46.8763 44.8821 46.7211 44.7787C46.3516 44.5201 45.9822 44.1358 46.5955 44.1358C47.2088 44.1358 48.0659 43.6186 47.0832 43.3674C46.1004 43.1088 45.2433 43.3674 44.7556 43.626C44.497 43.759 44.4453 43.7516 44.3196 43.7368C44.2605 43.7294 44.194 43.7147 44.0758 43.7147L44.7778 46.19L45.5241 48.7614Z" fill="white"/>
<path fill-rule="evenodd" clip-rule="evenodd" d="M16.5154 50.396L16.375 49.827C16.4119 49.7975 16.4637 49.7753 16.5228 49.7605C16.6927 49.7162 16.8257 49.8492 16.9587 49.9896C17.0991 50.13 17.2469 50.2851 17.4612 50.2851C17.8898 50.2925 17.8085 50.0265 17.4686 49.7679C17.4169 49.731 17.3651 49.6866 17.3134 49.6571C17.0326 49.4502 16.7962 49.2802 16.8701 48.9921C16.9587 48.6448 17.3873 48.7408 17.5573 48.9108C17.7272 49.0881 17.8159 48.9108 17.9045 48.5709C17.9932 48.231 18.2518 47.9724 18.5104 48.061C18.7691 48.1497 18.8503 48.7556 18.7617 49.1842C18.7026 49.4724 18.7986 49.4502 19.0203 49.4132C19.1311 49.3911 19.2789 49.3615 19.4489 49.3689C19.9661 49.3763 20.0474 49.5462 20.0474 49.6349C20.0474 49.7531 19.8331 49.7975 19.5301 49.7162C19.1902 49.6275 18.6656 49.9674 18.407 50.3073C18.1484 50.6472 18.9242 50.5733 19.2641 50.4847C19.6114 50.4034 19.6927 50.8319 19.1755 50.8319C18.6582 50.8246 18.141 50.9945 17.9637 51.3344C17.7863 51.6743 18.7395 51.5117 18.9095 51.4305C19.0794 51.3492 19.5966 51.3492 19.4267 51.6078C19.3306 51.7482 18.8947 51.8442 18.4144 51.9403C18.1779 51.992 17.9267 52.0438 17.6976 52.1029C17.4834 52.162 17.2617 52.3393 17.04 52.5758L16.7888 51.5487C16.907 51.5708 17.0105 51.5413 17.0179 51.327C17.0179 50.9797 17.0252 50.7211 16.5967 50.4625C16.5671 50.4329 16.5376 50.4108 16.5154 50.396ZM17.3282 53.6915C17.476 53.625 17.6533 53.5955 17.7937 53.5881C18.104 53.5733 18.5474 53.3294 18.4513 52.9748C18.3627 52.6201 17.8602 52.6275 17.6976 52.7309C17.5868 52.8048 17.3208 52.9157 17.1435 52.9083L17.3282 53.6915Z" fill="white"/>
<path fill-rule="evenodd" clip-rule="evenodd" d="M11.9127 57.9143H14.7723V57.0424C14.4989 57.3305 14.159 57.5818 13.8043 57.6335C12.9176 57.7665 13.1171 56.9833 13.5309 56.5916C13.5531 56.5769 13.5679 56.5547 13.59 56.5399C13.9816 56.1705 14.3215 55.8453 14.0777 55.5498C13.8043 55.2246 13.3905 55.4168 13.2575 55.6828C13.0358 56.104 12.7107 55.8749 12.9176 55.5498C12.9693 55.4685 13.0285 55.3872 13.0876 55.3059C13.2871 55.0399 13.5014 54.7518 13.3979 54.5079C13.2575 54.1828 12.8511 54.3158 12.7107 54.3749C12.5703 54.4414 12.1639 54.567 12.4373 53.9833C12.7107 53.3995 12.4373 53.1409 12.2969 53.0744C12.1565 53.0079 11.7501 53.0079 11.5433 53.2665C11.3364 53.5252 11.1664 53.1705 11.3364 53.0079C11.5433 52.8158 11.6098 52.5498 11.4767 52.4907C11.3364 52.4242 11.0999 52.5055 10.9965 52.7493C10.8561 53.0744 10.5162 53.1409 10.3832 52.6828C10.2428 52.2247 9.83637 52.0991 9.56298 52.3577C9.42259 52.4907 9.28958 52.7493 9.49648 53.0079C9.67381 53.2296 9.69598 53.4069 9.23047 53.4143V54.3527C9.30436 54.3454 9.40042 54.3306 9.49648 54.3158C10.1024 54.2123 10.0507 54.5079 9.97677 54.7739C9.91026 55.0104 9.91026 55.4242 10.2502 55.6237C10.3832 55.6976 10.5383 55.6754 10.6861 55.6606C10.8191 55.6458 10.9373 55.631 11.0038 55.6902C11.0999 55.7862 11.0186 55.9192 10.9373 56.0448C10.8191 56.2296 10.7157 56.4069 11.2034 56.4069C11.3068 56.4069 11.4176 56.4069 11.5137 56.4069C12.1861 56.3995 12.6812 56.3921 12.5038 56.732C12.4226 56.8872 12.2378 56.9759 12.0605 57.0571C11.7945 57.1754 11.5359 57.2936 11.6171 57.6483C11.6393 57.7517 11.7501 57.8404 11.9127 57.9143Z" fill="white"/>
<path fill-rule="evenodd" clip-rule="evenodd" d="M25.8683 46.2253C26.0161 46.048 26.0604 45.9667 26.1122 45.8189C26.1787 45.6342 26.2378 45.2795 26.2378 45.0652C26.2378 44.8436 26.186 44.5923 26.0604 44.2598L26.0457 44.2229C26.0309 44.1712 26.0087 44.1194 26.0013 44.0899C25.9718 44.0012 25.92 43.8534 25.9126 43.8017C25.8757 43.6465 25.9053 43.3879 25.9718 43.1515C25.9939 43.085 26.0161 43.0111 26.053 42.9372C26.2008 43.2106 26.2821 43.4027 26.3412 43.6318C26.4003 43.8387 26.4299 44.0086 26.4447 44.2598C26.4668 44.6071 26.4373 44.8953 26.3634 45.117C26.3486 45.1761 26.3043 45.2721 26.2747 45.346C26.2082 45.5012 26.1787 45.5899 26.1787 45.6859C26.1713 45.915 26.2156 46.1293 26.2895 46.2918C26.3412 46.4027 26.4077 46.4913 26.5407 46.6243C26.5998 46.6908 26.6442 46.713 26.6663 46.7056C26.6811 46.6982 26.7033 46.6687 26.7033 46.6465C26.7033 46.5874 26.6885 46.5504 26.5851 46.4396C26.4668 46.314 26.4225 46.2475 26.3856 46.144C26.3486 46.0554 26.3264 45.8706 26.3338 45.7376C26.3338 45.6564 26.3486 45.612 26.4225 45.4569C26.5112 45.2574 26.5703 45.0578 26.5924 44.8214C26.6072 44.8362 26.622 44.8362 26.6368 44.814C26.6516 44.7918 26.6516 44.7697 26.6589 44.6367C26.6589 44.5776 26.6737 44.4593 26.6959 44.3115C26.7107 44.1859 26.7328 44.0529 26.7328 44.016C26.755 43.75 26.7181 43.5135 26.6294 43.3288C26.5629 43.1884 26.5407 43.1293 26.5333 43.0258C26.5112 42.8559 26.5259 42.7229 26.5777 42.6047C26.5924 42.6195 26.5998 42.6342 26.6146 42.6416C26.7107 42.7451 26.7993 42.8485 26.8363 42.915C26.9102 43.0406 26.9471 43.181 26.9397 43.3731C26.9397 43.484 26.925 43.5357 26.8732 43.6909C26.7993 43.883 26.792 44.1194 26.8363 44.3854C26.8437 44.4224 26.8732 44.548 26.9028 44.6736C26.9397 44.8214 26.9619 44.9322 26.9693 44.9913C26.9841 45.1243 26.9915 45.1465 27.0062 45.1687C27.021 45.1909 27.0506 45.1835 27.058 45.1539C27.0653 45.1317 27.058 45.0209 27.0358 44.9174C27.0284 44.8805 26.9988 44.7549 26.9693 44.6293C26.9397 44.5037 26.9102 44.3707 26.9028 44.3263C26.8658 44.1047 26.8806 43.9273 26.9545 43.7278C26.9545 43.7721 26.9545 43.8239 26.9545 43.883C26.9693 44.3781 27.0506 44.718 27.2353 45.0431C27.3166 45.1909 27.3387 45.2352 27.3461 45.3165C27.3609 45.4495 27.3535 45.6342 27.3314 45.7229C27.3018 45.8337 27.2649 45.9002 27.154 46.0406C27.058 46.1588 27.0432 46.1958 27.0506 46.2549C27.0506 46.2844 27.0727 46.3066 27.0949 46.314C27.1171 46.3214 27.154 46.2844 27.2131 46.2179C27.3314 46.0702 27.3831 45.9815 27.4274 45.8633C27.4422 45.8189 27.457 45.7746 27.4644 45.7303C27.5013 45.878 27.553 46.0258 27.59 46.1219C27.6639 46.2844 27.7304 46.3657 27.9668 46.5948C28.1515 46.7721 28.1589 46.7795 28.1811 46.7721C28.2107 46.7647 28.218 46.7499 28.2254 46.7056C28.2254 46.6317 28.1885 46.58 27.9668 46.3657C27.856 46.2623 27.8338 46.2327 27.7895 46.1662C27.7082 46.0554 27.6491 45.8928 27.5974 45.6711C27.5456 45.4642 27.5382 45.3756 27.5456 45.2352C27.553 45.1243 27.5604 45.0578 27.59 44.9174C27.5974 44.8731 27.6047 44.851 27.6121 44.8214C27.6195 44.7771 27.6343 44.7253 27.6713 44.5997L27.6786 44.5776C27.7747 44.2081 27.7895 44.1046 27.7673 43.9125C27.7378 43.6761 27.6786 43.4766 27.553 43.2254C27.4791 43.085 27.4274 42.9889 27.2796 42.7598C27.324 42.649 27.3683 42.5234 27.4348 42.3756C27.4348 42.3904 27.4422 42.3978 27.4422 42.4126C27.4791 42.5456 27.5309 42.6416 27.6491 42.7746C27.6121 42.952 27.6195 43.1219 27.6639 43.218C27.7451 43.3805 27.7747 43.484 27.7969 43.6761C27.8264 43.9717 27.8043 44.2672 27.7304 44.4445C27.6934 44.5258 27.6934 44.5554 27.7304 44.5702C27.7451 44.5776 27.7525 44.5702 27.7673 44.5554C27.819 44.4889 27.8708 44.2894 27.8855 44.112C27.8929 44.0603 27.8929 44.0012 27.8929 43.9347C27.9077 43.9643 27.9299 44.0012 27.9594 44.0455C28.1294 44.3411 28.1959 44.5849 28.1368 44.7475C28.1294 44.7771 28.1072 44.8214 28.0924 44.8362C28.0703 44.8731 28.0555 44.9101 28.0629 44.9322C28.0629 44.9396 28.0703 44.947 28.0777 44.9544C28.0481 45.0283 28.0333 45.1096 28.0185 45.1982C27.989 45.4051 27.9964 45.5381 28.0703 45.7081C28.0924 45.7672 28.1294 45.8559 28.1515 45.915C28.1737 45.9741 28.1959 46.0554 28.2107 46.0923C28.2476 46.2032 28.2845 46.2253 28.3289 46.181C28.3584 46.1514 28.3732 46.0997 28.3584 46.0406C28.3437 45.9815 28.2476 45.6933 28.2033 45.5899C28.1589 45.479 28.1442 45.383 28.1515 45.2647C28.1663 45.1243 28.218 44.9544 28.3067 44.8066C28.4102 44.6219 28.4102 44.6219 28.4249 44.5554C28.4471 44.4372 28.4397 44.3116 28.4028 44.2081C28.3732 44.1342 28.3289 44.0603 28.255 43.9569C28.0924 43.7352 28.0555 43.6465 28.0777 43.4914C28.0924 43.3805 28.1294 43.2845 28.2033 43.1589C28.4028 43.4249 28.5062 43.6244 28.5358 43.7869C28.5432 43.8165 28.5432 43.8534 28.5506 43.9051C28.5506 43.9643 28.5506 44.0234 28.5579 44.0751C28.5579 44.0973 28.5579 44.1268 28.5579 44.149C28.5653 44.3337 28.5579 44.3854 28.5358 44.5406C28.5062 44.7253 28.4693 44.9987 28.4693 45.1022C28.4619 45.3165 28.521 45.4642 28.7205 45.7746C28.787 45.878 28.8535 45.9889 28.8831 46.0702C28.92 46.1588 28.957 46.2918 28.9717 46.3953C28.9865 46.5135 29.0013 46.5504 29.0308 46.5726C29.0752 46.6096 29.1121 46.58 29.1195 46.5061C29.1195 46.4396 29.1047 46.3214 29.0604 46.1884C29.0013 45.9889 28.9643 45.9002 28.7944 45.6342C28.6688 45.4347 28.6392 45.383 28.6171 45.2869C28.6023 45.2352 28.6023 45.2056 28.6023 45.1539C28.6023 45.0726 28.6392 44.7845 28.6688 44.6145C28.6762 44.5554 28.6909 44.4889 28.6909 44.4519C28.6983 44.4593 28.7057 44.4741 28.7205 44.4815C28.7574 44.5258 28.787 44.5332 28.8092 44.5111C28.8387 44.4815 28.8313 44.4372 28.7796 44.378C28.7501 44.3411 28.7205 44.2968 28.6983 44.2524C28.6983 44.0973 28.6909 43.883 28.6836 43.8313C28.6762 43.7869 28.6688 43.7352 28.654 43.6835C28.6614 43.6465 28.6688 43.6096 28.6762 43.5874C28.6836 43.5653 28.7279 43.4766 28.7796 43.3805C28.8535 43.2327 28.8905 43.1515 28.9126 43.0628C28.92 43.1293 28.92 43.2032 28.9126 43.3066C28.8905 43.5283 28.8905 43.7352 28.9126 43.8756C28.9274 43.9569 28.9422 43.9864 29.0013 44.0973C29.0456 44.1785 29.053 44.2081 29.0826 44.2894C29.1343 44.4593 29.1491 44.5923 29.1491 44.9322C29.1417 44.9618 29.1269 44.9913 29.1269 45.0209C29.0973 45.1539 29.1195 45.2573 29.2008 45.383C29.2525 45.4569 29.2673 45.4864 29.2821 45.5603C29.2968 45.6342 29.3338 45.649 29.3707 45.612C29.3929 45.5899 29.4003 45.5825 29.4077 45.5307C29.4151 45.479 29.4151 45.4642 29.4077 45.4125C29.3929 45.3682 29.3855 45.3386 29.3412 45.2721C29.2747 45.1761 29.2599 45.1465 29.2599 45.0948C29.2599 45.0505 29.2599 45.0431 29.3338 44.8657C29.489 44.4593 29.5259 44.0603 29.4446 43.6761C29.4151 43.5209 29.3707 43.3879 29.2821 43.1589C29.2008 42.9446 29.1786 42.8633 29.1786 42.7746C29.1786 42.7525 29.186 42.7303 29.1934 42.7007C29.2303 42.8411 29.3116 43.0037 29.6072 43.5505C29.9028 44.0899 29.9693 44.3337 29.9101 44.6145C29.888 44.6958 29.8806 44.7253 29.7993 44.8953C29.7106 45.08 29.6811 45.2352 29.6737 45.4938C29.6737 45.5751 29.6737 45.6933 29.6737 45.7598C29.6811 45.8632 29.6885 45.8854 29.7106 45.9963C29.7624 46.1884 29.8215 46.314 29.9249 46.4396C29.9545 46.4766 30.0062 46.5357 30.0284 46.5726C30.1023 46.6687 30.1318 46.6982 30.1614 46.6908C30.2131 46.6761 30.2057 46.58 30.1466 46.4913C30.1318 46.4692 30.0875 46.41 30.0431 46.3657C29.9397 46.2475 29.9101 46.1958 29.8658 46.0775C29.8363 45.9963 29.8067 45.8706 29.8067 45.7746C29.7993 45.649 29.8067 45.4199 29.8289 45.3238C29.851 45.2056 29.8732 45.1465 29.9397 44.9987C30.0505 44.7697 30.0801 44.5923 30.0579 44.3707C30.0505 44.3042 30.0431 44.2672 30.0062 44.149C29.9397 43.9199 29.8732 43.7722 29.5555 43.1958C29.3929 42.9076 29.356 42.8263 29.3264 42.7081C29.3042 42.6342 29.2968 42.5973 29.2968 42.5529C29.2895 42.4347 29.3042 42.3165 29.3412 42.1687C29.3633 42.1022 29.3781 42.0357 29.3929 41.984L29.4299 41.8732H29.4742C29.8658 41.6145 30.0505 41.1047 29.7402 40.218C29.4299 39.3313 28.1959 38.5702 26.6516 38.6441C24.8412 38.7254 24.2279 39.5678 23.8068 40.2476C23.4964 40.7574 23.5703 41.5259 23.7846 41.7771L23.7994 41.7697C23.8363 41.7475 23.8585 41.7402 23.8733 41.7254C23.8807 41.7328 23.888 41.7328 23.8954 41.7402C23.8807 41.7993 23.8733 41.9249 23.8807 42.0135C23.8954 42.1835 23.9398 42.3313 24.1023 42.7451C24.0728 42.819 24.0358 42.9224 23.9619 43.0924C23.6959 43.6983 23.6442 43.8534 23.5999 44.0899C23.5777 44.2081 23.5703 44.245 23.5703 44.3115C23.5703 44.5332 23.622 44.7106 23.7476 44.9248C23.8289 45.0652 23.8585 45.1243 23.888 45.2352C23.9176 45.3312 23.9472 45.5603 23.9472 45.6785C23.9545 45.7746 23.9398 45.9002 23.9102 45.9889C23.8807 46.1071 23.8511 46.1588 23.7624 46.2918C23.7255 46.3435 23.6885 46.4027 23.6738 46.4248C23.622 46.5209 23.622 46.6169 23.6811 46.6243C23.7107 46.6317 23.7403 46.6022 23.8068 46.4987C23.8289 46.4618 23.8733 46.4027 23.9028 46.3583C23.9989 46.2253 24.0432 46.0923 24.0728 45.8928C24.0875 45.7894 24.0875 45.7598 24.0875 45.6564C24.0875 45.5899 24.0802 45.479 24.0654 45.3977C24.0358 45.1465 23.9841 44.9913 23.8807 44.814C23.7846 44.6514 23.7698 44.6293 23.7476 44.548C23.659 44.2746 23.7033 44.0234 23.9472 43.4618C24.0506 43.2254 24.1245 43.0554 24.1688 42.9298C24.2944 43.2401 24.324 43.3288 24.3314 43.3879C24.3388 43.4692 24.3314 43.5579 24.2649 43.7795C24.1984 44.0234 24.1688 44.1564 24.1467 44.3115C24.1023 44.7032 24.1762 45.1022 24.3683 45.4864C24.4496 45.6564 24.457 45.6638 24.457 45.7081C24.4644 45.7598 24.4496 45.7894 24.3979 45.8928C24.3609 45.9593 24.3462 45.9889 24.3462 46.0406C24.3388 46.0923 24.3388 46.1071 24.3536 46.1588C24.3683 46.2105 24.3683 46.2179 24.3979 46.2401C24.4422 46.277 24.4718 46.2549 24.4866 46.181C24.4939 46.1145 24.5087 46.0775 24.5457 45.9963C24.6196 45.8559 24.6343 45.7598 24.59 45.6268C24.5752 45.5899 24.5531 45.5307 24.5383 45.5012C24.3609 45.1761 24.2797 44.8583 24.2871 44.548C24.2944 44.3559 24.3166 44.2081 24.3905 43.9273C24.4644 43.6539 24.4866 43.5431 24.4792 43.4322C24.4718 43.3214 24.4496 43.2475 24.2427 42.7303C24.2723 42.6416 24.2871 42.5751 24.2871 42.5086C24.3092 42.2869 24.2723 42.08 24.1688 41.8288L24.1171 41.6958L24.1762 41.6663C24.1836 41.6663 24.191 41.6589 24.1984 41.6515C24.2279 41.6589 24.2575 41.6663 24.2944 41.6736C24.3609 41.7032 24.4201 41.7254 24.4792 41.7475C24.5604 41.7697 24.5604 41.7697 24.5678 41.8067C24.5752 41.8214 24.59 41.8658 24.6122 41.9027C24.6417 41.9692 24.6935 42.1466 24.723 42.2574C24.7008 42.3091 24.6787 42.3608 24.6565 42.4199C24.4866 42.7968 24.4718 42.9224 24.5309 43.2254C24.5383 43.2549 24.5457 43.2919 24.5531 43.3288C24.5531 43.3879 24.5604 43.4544 24.5752 43.5135C24.5826 43.6022 24.5826 43.6835 24.5752 43.7426C24.5678 43.7869 24.5604 43.8091 24.5309 43.8904C24.5087 43.9421 24.4792 44.0234 24.4718 44.0677C24.4274 44.2155 24.4127 44.415 24.4274 44.6219C24.4348 44.7844 24.4792 45.1613 24.4866 45.1761C24.4939 45.1982 24.5161 45.1982 24.5309 45.1835C24.5531 45.1613 24.5531 45.1022 24.5309 44.8731C24.4939 44.4889 24.4866 44.3485 24.5309 44.1638C24.5457 44.0751 24.5604 44.0455 24.59 43.9643C24.6343 43.8534 24.6491 43.8165 24.6565 43.75C24.6861 43.8017 24.723 43.8682 24.7747 43.9569C24.8338 44.0455 24.8856 44.1342 24.893 44.149C24.9003 44.1564 24.9003 44.1712 24.9077 44.1859C24.9077 44.2081 24.9151 44.2303 24.9151 44.2451C24.9225 44.2746 24.9373 44.3633 24.9595 44.4298C24.9668 44.4519 24.9668 44.4741 24.9742 44.4963C24.9816 44.6736 24.9447 44.8436 24.8634 44.947C24.8191 45.0061 24.8117 45.0505 24.8486 45.08C24.8708 45.1022 24.9003 45.0874 24.9373 45.0357C24.989 44.9618 25.026 44.8731 25.0481 44.7771C25.0629 44.8583 25.0777 44.9248 25.0851 44.9544C25.0925 44.9987 25.0925 45.0357 25.0851 45.0874C25.0703 45.1761 25.0481 45.2426 24.9447 45.4495C24.8043 45.7302 24.7673 45.8189 24.7304 46.0258C24.7082 46.1588 24.6935 46.2844 24.7008 46.3435C24.7082 46.4174 24.7526 46.4396 24.7969 46.4027C24.8265 46.3731 24.8338 46.3362 24.8412 46.2179C24.8486 46.1145 24.8708 45.9815 24.9003 45.8854C24.9299 45.8041 24.9816 45.6859 25.0334 45.5751C25.1885 45.2943 25.2329 45.1391 25.2255 44.9544C25.2329 44.9913 25.2402 45.0283 25.2476 45.0578C25.2624 45.117 25.2698 45.1243 25.388 45.2943C25.3954 45.3017 25.3954 45.3091 25.4028 45.3165L25.4471 45.1317C25.3806 45.0283 25.3659 44.9987 25.3585 44.9396C25.3511 44.8436 25.3806 44.7623 25.4619 44.6219C25.4915 44.6662 25.521 44.7106 25.5432 44.7106H25.5506L25.5801 44.5997C25.5728 44.5923 25.5654 44.5776 25.558 44.5702C25.5506 44.5628 25.5358 44.5406 25.5284 44.5258C25.5801 44.4372 25.6023 44.3854 25.6245 44.3115C25.6688 44.1564 25.6614 44.0086 25.5875 43.8313C25.5949 43.8091 25.6023 43.7869 25.6171 43.7722C25.691 43.6096 25.7058 43.58 25.7205 43.4914C25.7353 43.3731 25.7279 43.314 25.654 43.1293C25.5949 42.9889 25.5801 42.9298 25.5875 42.8707C25.6984 43.0406 25.7501 43.1589 25.787 43.3066C25.8018 43.3731 25.8092 43.4175 25.8092 43.4692C25.8092 43.484 25.8092 43.4987 25.8018 43.5135C25.7944 43.5579 25.7796 43.6096 25.7501 43.6909C25.7205 43.7795 25.691 43.9643 25.6836 44.112C25.6836 44.1342 25.6836 44.1564 25.6836 44.1933L25.9053 43.3066V44.1712C25.92 44.2081 25.9274 44.2377 25.9422 44.282L25.9496 44.3042C25.9939 44.4298 26.0087 44.4741 26.0235 44.5184C26.0309 44.548 26.0383 44.5702 26.053 44.6145C26.0974 44.7475 26.1122 44.8214 26.1195 44.9322C26.1343 45.0726 26.1343 45.1613 26.1048 45.3682C26.0752 45.5972 26.0235 45.7598 25.957 45.878C25.9348 45.915 25.92 45.9371 25.8979 45.9741V46.2253H25.8683ZM25.8683 45.0209C25.8757 45.0209 25.8757 45.0209 25.8831 45.0209C25.9126 45.0061 25.9126 44.9766 25.8683 44.8953V44.8879V45.0209ZM24.8412 42.0431C24.8634 41.9397 24.8708 41.851 24.8634 41.7697C24.9151 41.7697 24.9668 41.7771 25.0186 41.7771C25.0038 41.8584 24.989 41.9618 24.9816 42.0357C24.9299 42.4347 24.9447 42.7746 25.0186 43.0776C24.989 43.1293 24.9668 43.1736 24.9521 43.218C24.8856 43.3805 24.8486 43.5283 24.8486 43.6539C24.8486 43.6983 24.856 43.846 24.8634 43.9864C24.8486 43.9569 24.8265 43.9273 24.7969 43.8904C24.6935 43.7278 24.6565 43.6613 24.6269 43.5653C24.6269 43.5579 24.6196 43.5505 24.6196 43.5431C24.6122 43.4766 24.6048 43.4027 24.5974 43.3288C24.5974 43.3214 24.5974 43.314 24.5974 43.314C24.6048 43.1884 24.6196 43.1219 24.7156 42.8707C24.7895 42.6933 24.8043 42.5973 24.7821 42.4273C24.7747 42.383 24.7673 42.3387 24.76 42.2869C24.8043 42.1983 24.8265 42.1244 24.8412 42.0431ZM25.122 42.9002C25.0777 42.5751 25.0998 42.1983 25.1811 41.7919C25.2033 41.7919 25.2329 41.7919 25.255 41.7919C25.3215 41.8879 25.3511 41.9618 25.3732 42.0283C25.3806 42.0505 25.3806 42.0727 25.388 42.0948C25.3437 42.2574 25.3363 42.3904 25.3659 42.516V42.5234C25.3511 42.5456 25.3215 42.5973 25.292 42.6416C25.2255 42.7155 25.1737 42.8116 25.122 42.9002ZM25.4693 41.8362C25.4619 41.8214 25.4545 41.8067 25.4545 41.7993H25.4915L25.4841 41.8214C25.4767 41.8288 25.4767 41.8362 25.4693 41.8362ZM25.558 41.8805C25.5728 41.8436 25.5801 41.814 25.5875 41.7919C25.6614 41.7919 25.7353 41.7919 25.8092 41.7919C25.7575 41.9027 25.7279 41.9914 25.7279 42.0874C25.7205 42.1761 25.7279 42.2426 25.7575 42.3387C25.7427 42.3608 25.7279 42.383 25.7058 42.4126C25.5949 42.5529 25.5432 42.6268 25.5136 42.686C25.4915 42.649 25.4767 42.6268 25.4693 42.6121C25.4767 42.5899 25.4841 42.5751 25.4915 42.5603C25.4989 42.5308 25.5062 42.5012 25.5136 42.4495C25.5358 42.2869 25.5358 42.1392 25.5063 41.9988C25.5284 41.9618 25.5432 41.9175 25.558 41.8805ZM25.957 41.9027C25.9792 41.8658 26.0013 41.8288 26.0309 41.7845C26.1122 41.7845 26.1934 41.7771 26.2747 41.7771H26.2895C26.2969 41.8288 26.3043 41.8731 26.3117 41.9175C26.3117 41.9692 26.3117 41.9988 26.2969 42.0874L26.2747 42.1983L26.1491 42.4273C26.1048 42.5012 26.0752 42.5677 26.0457 42.6194C25.9422 42.4347 25.9053 42.3534 25.8905 42.2796C25.92 42.2204 25.9348 42.1613 25.9422 42.0948C25.9496 42.0431 25.957 41.9766 25.957 41.9027ZM26.5629 41.7623C26.5703 41.7623 26.5703 41.7623 26.5777 41.7623C26.6959 41.7549 26.8141 41.7549 26.9176 41.7549C26.9176 41.814 26.9102 41.8584 26.888 41.9249C26.8585 42.0062 26.8215 42.0727 26.7402 42.1687C26.6589 42.2722 26.5924 42.3608 26.5481 42.4421C26.5112 42.3978 26.489 42.3608 26.4668 42.3091C26.4373 42.2426 26.4225 42.1983 26.4225 42.1392C26.4225 42.1318 26.4225 42.1244 26.4225 42.1244C26.4299 42.08 26.4373 42.0357 26.4373 41.9914C26.4447 41.9618 26.4594 41.9323 26.4668 41.8953C26.4816 41.851 26.5038 41.7993 26.5038 41.7845C26.5112 41.7697 26.5112 41.7697 26.5629 41.7623ZM27.0801 41.947C27.0949 41.8732 27.1097 41.8066 27.1171 41.7549C27.2353 41.7549 27.3535 41.7549 27.457 41.7549L27.4422 41.814C27.4126 41.9101 27.3979 41.9988 27.3905 42.08C27.3757 42.117 27.3535 42.1613 27.3314 42.2204C27.2575 42.383 27.2057 42.5086 27.1614 42.6194L27.1097 42.5382L27.0801 42.4273C27.058 42.3387 27.0506 42.3091 27.0506 42.2574C27.0432 42.1613 27.0506 42.0727 27.0801 41.947ZM27.6047 41.7697C27.6713 41.7845 27.7378 41.7771 27.7895 41.7475C27.8264 41.7475 27.8634 41.7475 27.8929 41.7475C27.9151 41.8214 27.9299 41.8879 27.9299 41.9397C27.9003 41.9988 27.8855 42.0357 27.8708 42.0874C27.856 42.1466 27.8412 42.1983 27.8338 42.2574L27.8116 42.2943C27.7378 42.4421 27.686 42.5382 27.6565 42.649C27.5309 42.5086 27.4791 42.383 27.4717 42.2204C27.5456 42.0579 27.5678 41.9914 27.5826 41.8953C27.5974 41.8584 27.6047 41.814 27.6047 41.7697ZM27.9964 41.814C27.9964 41.7919 27.989 41.7771 27.9816 41.7549H28.0259L28.0038 41.7993L27.9964 41.814ZM28.122 41.947C28.1589 41.8732 28.2033 41.7919 28.218 41.7623H28.2328C28.2772 42.0209 28.2919 42.2648 28.2698 42.4791C28.255 42.6416 28.218 42.7894 28.1515 42.9076C28.1368 42.8929 28.1294 42.8781 28.1146 42.8633C28.085 42.8263 28.0481 42.7746 28.0333 42.7525C27.9742 42.6564 27.9446 42.4347 27.9742 42.2648C28.0038 42.1909 28.0407 42.1022 28.122 41.947ZM28.6392 41.8288C28.6614 41.8214 28.6836 41.8066 28.7057 41.7919C28.8831 41.8066 28.9939 41.8067 29.09 41.7845C29.1195 41.7993 29.1491 41.814 29.1712 41.8214L29.2303 41.8436L29.1934 41.9766C29.1565 42.0948 29.1343 42.2057 29.1269 42.3091C29.0161 42.7007 29.0013 42.7672 29.0013 42.8707C29.0013 42.9815 29.0308 43.085 29.1343 43.3584C29.2377 43.6317 29.2747 43.7721 29.2968 43.9643C29.3264 44.2229 29.2968 44.4815 29.2008 44.7623C29.1934 44.5702 29.1565 44.378 29.1047 44.2377C29.09 44.2007 29.053 44.1194 29.0235 44.0677C28.9791 43.9864 28.9717 43.9643 28.9643 43.9273C28.9422 43.8017 28.9422 43.5874 28.9643 43.4101C28.9865 43.2106 28.9865 43.085 28.92 42.9224C28.9274 42.8116 28.92 42.7007 28.8904 42.5899C28.8683 42.5086 28.8387 42.4421 28.7501 42.2722C28.6614 42.0801 28.6392 41.9914 28.6392 41.8288ZM24.1245 42.516C24.1319 42.4791 24.1319 42.4569 24.1319 42.4347C24.1245 42.2722 24.0875 42.1318 23.9915 41.8953C23.9841 41.9544 23.9841 42.0136 23.9915 42.0874C24.0063 42.1909 24.0284 42.2795 24.1245 42.516ZM24.7821 41.7845C24.723 41.7993 24.6713 41.8067 24.6269 41.7993C24.6196 41.7993 24.6196 41.7993 24.6417 41.851C24.6787 41.9249 24.7082 42.0357 24.7378 42.1392C24.7452 42.1022 24.76 42.0727 24.7673 42.0357C24.7821 41.9544 24.7895 41.9175 24.7895 41.8732C24.7895 41.8362 24.7821 41.814 24.7821 41.7845ZM24.7156 42.4273C24.7082 42.4495 24.7008 42.4717 24.6861 42.4938C24.5974 42.6859 24.5752 42.7598 24.5604 42.8485C24.5457 42.9224 24.5457 42.9741 24.5531 43.0554C24.5678 43.0037 24.5974 42.9298 24.6417 42.819C24.7008 42.6564 24.723 42.5603 24.7156 42.4273ZM25.0777 43.2845C25.026 43.4027 24.9964 43.4988 24.989 43.5874C24.9816 43.6465 24.989 43.7278 25.0038 43.9569C25.0186 44.1416 25.026 44.1933 25.0629 44.3411C25.1072 44.5184 25.1664 44.7918 25.1811 44.8953V44.9101C25.1811 44.8436 25.1811 44.7844 25.1959 44.7327C25.2181 44.6588 25.255 44.5776 25.3215 44.4741C25.3363 44.4519 25.3437 44.4372 25.3511 44.4224C25.3437 44.3485 25.3437 44.2672 25.3659 44.1712C25.3806 44.0899 25.4028 44.0086 25.4324 43.9273C25.4028 43.8386 25.3511 43.75 25.2624 43.6465C25.1811 43.5209 25.122 43.4249 25.0777 43.2845ZM25.5063 43.7426C25.4619 43.6539 25.4028 43.5653 25.3585 43.5061C25.2698 43.4101 25.2107 43.2771 25.1664 43.1145C25.2255 43.0037 25.2994 42.8855 25.388 42.7525L25.3954 42.7451C25.4102 42.7229 25.4176 42.7081 25.4324 42.6933C25.4471 42.7229 25.4619 42.7525 25.4915 42.7894C25.4915 42.7968 25.4841 42.8116 25.4841 42.819C25.4693 42.9002 25.4693 42.9076 25.4767 42.9815C25.4841 43.048 25.4989 43.0776 25.5506 43.2106C25.6171 43.3805 25.6319 43.4249 25.6097 43.5135C25.6023 43.5579 25.5875 43.5874 25.5506 43.6761C25.5284 43.6983 25.5136 43.7204 25.5063 43.7426ZM25.4397 44.2598C25.4471 44.2007 25.4545 44.1416 25.4767 44.0751C25.4767 44.1268 25.4619 44.1859 25.4397 44.2598ZM25.8092 43.2401C25.8314 43.1441 25.8683 43.0406 25.9053 42.9224C25.9274 42.8707 25.9422 42.8263 25.9644 42.7746C25.957 42.7598 25.9496 42.7451 25.9422 42.7303C25.8609 42.5825 25.8166 42.5086 25.7944 42.4421C25.7723 42.4717 25.7575 42.5012 25.7279 42.5308C25.6393 42.649 25.5949 42.7155 25.5654 42.7672L25.5728 42.7746C25.6688 42.9224 25.7279 43.0259 25.7723 43.1367C25.787 43.1736 25.8018 43.2106 25.8092 43.2401ZM26.1269 42.7746C26.319 43.1145 26.3929 43.2992 26.4742 43.5948C26.5481 43.8534 26.5703 43.979 26.5851 44.2746C26.5851 44.3189 26.5924 44.3633 26.5924 44.4076C26.5998 44.3633 26.6072 44.3189 26.6072 44.282C26.622 44.1564 26.6442 44.016 26.6442 43.9716C26.6589 43.7426 26.622 43.5653 26.5259 43.3657C26.4964 43.3066 26.4668 43.2327 26.4594 43.2032C26.4373 43.1219 26.4225 42.9963 26.4225 42.8928C26.4225 42.7894 26.4521 42.6342 26.4816 42.5529C26.4816 42.5456 26.489 42.5382 26.489 42.5308C26.4299 42.4569 26.4003 42.3978 26.3634 42.3165C26.3634 42.3091 26.356 42.3017 26.356 42.2943C26.3338 42.3461 26.3043 42.3978 26.2599 42.4864C26.223 42.5899 26.1713 42.6786 26.1269 42.7746ZM26.6072 42.516C26.6146 42.5234 26.6294 42.5382 26.6368 42.5456C26.7772 42.6933 26.8658 42.8116 26.9176 42.9002C26.9471 42.9667 26.9841 43.0776 26.9988 43.181C27.0284 43.0332 27.058 42.9076 27.1023 42.7746C27.021 42.6564 26.9988 42.6121 26.9619 42.5086C26.9176 42.3682 26.8954 42.2352 26.9102 42.0727C26.8806 42.1318 26.8437 42.1835 26.7846 42.2574C26.7107 42.3534 26.6442 42.4495 26.6072 42.516ZM27.1984 42.9224C27.1688 43.0185 27.1466 43.1145 27.1245 43.218C27.0875 43.4323 27.0727 43.6022 27.0801 43.8534C27.0949 44.2007 27.1466 44.4815 27.2353 44.6958C27.2575 44.7475 27.3092 44.8436 27.3461 44.9101C27.3683 44.947 27.3831 44.9766 27.3979 45.0061C27.4126 44.8731 27.4422 44.7179 27.4939 44.548L27.5013 44.5037C27.5161 44.4519 27.5309 44.4002 27.5382 44.3707C27.5604 44.282 27.5974 44.1342 27.6047 44.0751C27.6269 43.9199 27.5752 43.6613 27.4791 43.4322C27.42 43.2919 27.324 43.1145 27.1984 42.9224ZM27.8338 42.4495C27.7821 42.5529 27.7451 42.6416 27.723 42.7303C27.8929 42.9224 27.9225 42.9593 27.952 43.0702C27.9742 43.1515 27.9816 43.1515 27.9742 43.2327C27.9742 43.2401 27.9742 43.2475 27.9742 43.2549C28.0038 43.181 28.0407 43.1071 28.0777 43.0554C28.0629 43.0406 28.0555 43.0258 28.0407 43.0037L28.0333 42.9963C27.9594 42.9002 27.9299 42.8633 27.9077 42.819C27.8929 42.7894 27.8855 42.7598 27.8781 42.7155C27.8486 42.6121 27.8412 42.5308 27.8338 42.4495ZM28.255 43.0332C28.3584 43.1736 28.4545 43.3214 28.5062 43.4249C28.5358 43.4766 28.5579 43.5283 28.5727 43.5726C28.5949 43.5135 28.6244 43.4544 28.6836 43.3436C28.7722 43.1736 28.8018 43.0997 28.8239 43.0037C28.8313 42.9815 28.8313 42.952 28.8313 42.9298C28.8092 42.8707 28.7722 42.7968 28.7057 42.6786C28.6023 42.4864 28.5505 42.3756 28.5062 42.25C28.4545 42.0948 28.4471 41.9692 28.4693 41.8732L28.484 41.8288L28.4397 41.814C28.4249 41.8066 28.4028 41.7993 28.3806 41.7919C28.4249 42.0874 28.4249 42.3608 28.388 42.6047C28.3658 42.782 28.3215 42.9076 28.255 43.0332ZM28.5653 41.9101C28.5506 41.947 28.5506 41.9988 28.5579 42.0579C28.5653 42.1022 28.5727 42.1392 28.5949 42.2204C28.6318 42.3387 28.6762 42.4421 28.7722 42.6121C28.7944 42.6564 28.8166 42.6933 28.8313 42.7229C28.8166 42.6121 28.787 42.5382 28.6688 42.3091C28.5875 42.1613 28.5653 42.0653 28.5653 41.9101ZM27.9003 43.5505C27.8708 43.6539 27.8708 43.6983 27.8929 43.7648C27.9077 43.8091 27.9225 43.8386 27.9668 43.9199C28.0776 44.1047 28.1368 44.2377 28.1811 44.3928C28.2033 44.4667 28.218 44.5406 28.218 44.5997C28.2624 44.5184 28.2698 44.4889 28.2624 44.4372C28.2624 44.3411 28.218 44.2598 28.1146 44.1194C28.0111 43.979 27.9742 43.9199 27.9446 43.8386C27.9151 43.75 27.8929 43.6539 27.9003 43.5505ZM27.7008 42.8411C27.7008 42.8485 27.7008 42.8485 27.7008 42.8559C27.6786 43.0185 27.686 43.048 27.7673 43.2327C27.7895 43.2845 27.8116 43.3657 27.8338 43.4544C27.8412 43.4396 27.8412 43.4249 27.8486 43.4027C27.9003 43.2254 27.9077 43.181 27.8855 43.0997C27.8634 43.0259 27.8264 42.9741 27.7008 42.8411Z" fill="white"/>
<path fill-rule="evenodd" clip-rule="evenodd" d="M77.0909 45.4478C77.6673 45.6325 78.0737 45.8541 78.3693 46.0167C78.5835 46.1349 78.7461 46.2236 78.8865 46.2532C79.1377 46.2975 79.6328 46.1645 80.017 46.061C80.2387 46.0019 80.4234 45.9502 80.4973 45.9502C80.6968 45.9576 80.7559 46.0832 80.3421 46.4231C80.2978 46.4601 80.2609 46.4896 80.2313 46.5192C79.921 46.7704 79.884 46.8073 80.0466 47.1325C80.2313 47.5019 80.416 47.9305 80.0244 47.731C79.8766 47.6571 79.7141 47.5315 79.5441 47.4059C79.2633 47.1916 78.9678 46.9699 78.7165 46.9625C78.5909 46.9551 78.4284 47.0216 78.2215 47.1029C77.9407 47.2137 77.5712 47.3689 77.0762 47.4206V45.4478H77.0909Z" fill="white"/>
<path fill-rule="evenodd" clip-rule="evenodd" d="M78.3623 41.0395C78.5692 41.5124 80.9411 42.8867 83.3647 43.4631V39.6429C81.6209 39.6134 79.9509 39.9533 79.2046 40.1749C78.6061 40.3301 78.1258 40.4927 78.3623 41.0395ZM80.0766 40.8621C80.2391 40.8621 80.3721 40.7291 80.3721 40.5666C80.3721 40.404 80.2391 40.271 80.0766 40.271C79.914 40.271 79.781 40.404 79.781 40.5666C79.781 40.7291 79.914 40.8621 80.0766 40.8621Z" fill="white"/>
<path fill-rule="evenodd" clip-rule="evenodd" d="M107.968 57.9099H106.084V54.1045C106.35 54.4518 106.69 54.7621 107.976 54.3188C109.875 53.6612 109.38 52.5011 108.884 52.006C108.788 51.9099 108.648 51.7843 108.5 51.6513C107.902 51.1193 107.118 50.4321 107.976 50.4321C108.545 50.4321 109.003 50.6686 109.453 50.8976C109.852 51.1045 110.244 51.304 110.702 51.341C111.109 51.3779 111.796 51.4814 112.357 51.6439V52.8262H112.535C111.242 53.506 110.473 54.171 109.705 55.4789C108.877 56.8828 107.724 57.0527 107.222 57.0527C106.941 57.0454 107.451 57.5035 107.968 57.9099Z" fill="white"/>
<path fill-rule="evenodd" clip-rule="evenodd" d="M106.091 42.4284C106.904 42.3767 107.481 42.0885 107.902 41.8816C108.153 41.756 108.345 41.66 108.5 41.66C108.811 41.66 109.18 41.9481 109.535 42.2215C109.749 42.3841 109.956 42.5467 110.133 42.6353C110.621 42.8792 110.377 42.3102 110.133 41.8151C109.912 41.3718 109.956 41.3274 110.325 40.9654C110.37 40.9284 110.414 40.8841 110.458 40.8324C110.946 40.3447 110.865 40.1748 110.621 40.1748C110.532 40.1748 110.311 40.2486 110.037 40.3447C109.572 40.5073 108.966 40.7142 108.655 40.6624C108.485 40.6329 108.286 40.522 108.013 40.3743C107.577 40.1378 106.978 39.8053 106.084 39.5688V42.4284H106.091Z" fill="white"/>
<path fill-rule="evenodd" clip-rule="evenodd" d="M74.2738 46.3522C74.4733 45.9754 74.6285 45.5838 74.7467 45.1626C74.0743 45.1922 73.4905 45.303 73.1876 45.3769C72.8551 45.4508 72.5817 45.532 72.6999 45.835C72.7664 46.0049 73.3058 46.3892 74.0299 46.7365C74.126 46.6108 74.2073 46.4852 74.2738 46.3522ZM73.5201 45.7537C73.6088 45.7537 73.6827 45.6798 73.6827 45.5912C73.6827 45.5025 73.6088 45.4286 73.5201 45.4286C73.4314 45.4286 73.3575 45.5025 73.3575 45.5912C73.3575 45.6798 73.4314 45.7537 73.5201 45.7537Z" fill="white"/>
<path fill-rule="evenodd" clip-rule="evenodd" d="M65.0414 49.1405C64.8272 49.2883 64.5685 49.5543 64.5316 49.8425H63.8075C63.7705 49.7981 63.7188 49.7612 63.6597 49.7243C63.1055 49.4361 62.9208 49.1405 63.1055 48.8523C63.2902 48.5642 63.6597 48.6602 63.8444 48.8523C64.0291 49.0445 64.3986 48.5642 64.4873 48.3647C64.5759 48.1725 65.0414 47.877 65.3148 48.1725C65.5956 48.4607 65.3148 48.941 65.0414 49.1405ZM62.736 50.2637C62.6917 50.2193 62.64 50.1898 62.5661 50.175C62.4331 50.138 62.3814 50.2119 62.3001 50.308C62.2779 50.3375 62.2484 50.3745 62.2114 50.4114C62.071 50.5592 61.9232 50.7144 61.709 50.7144C61.2804 50.7144 61.3691 50.4484 61.709 50.175C61.7385 50.1528 61.7755 50.1233 61.805 50.1011L61.8641 50.0568C62.1449 49.8499 62.3814 49.6725 62.3075 49.3696C62.2188 49.0149 61.7976 49.1036 61.6277 49.2809C61.4577 49.4582 61.3691 49.2809 61.2878 48.9262C61.1991 48.5716 60.9479 48.2982 60.6893 48.3868C60.4307 48.4755 60.3494 49.1036 60.4307 49.5469C60.4898 49.8425 60.3937 49.8277 60.172 49.776C60.0612 49.7538 59.9208 49.7243 59.7509 49.7243C59.241 49.7243 59.1523 49.9016 59.1523 49.9903C59.1523 50.1159 59.3666 50.1602 59.6622 50.0789C60.0021 49.9903 60.5193 50.3449 60.7706 50.707C61.0292 51.0617 60.2607 50.973 59.9134 50.8843C59.5735 50.7957 59.4849 51.239 60.0021 51.239C60.5193 51.239 61.0292 51.4164 61.1991 51.7784C61.3691 52.1331 60.4307 51.9558 60.2607 51.8671C60.0908 51.7784 59.5809 51.7784 59.7509 52.0444C59.8469 52.1922 60.2755 52.2956 60.7558 52.4065C60.874 52.436 60.9996 52.4656 61.1252 52.4952C61.2435 52.5247 61.3543 52.5543 61.4651 52.5838C61.8937 52.7094 62.3518 53.3523 62.7508 53.9656V53.2119V53.2045C62.6104 52.9089 62.64 52.6208 62.7508 52.4213V51.904C62.6917 51.9188 62.6326 51.9336 62.5809 51.9484C62.5587 51.9558 62.5365 51.9631 62.507 51.9705C62.3444 52.0223 62.1523 52.0814 62.1523 51.771C62.1523 51.7415 62.1523 51.7193 62.1523 51.6898C62.1523 51.6676 62.1523 51.638 62.1523 51.6159C62.1449 51.3277 62.1301 51.106 62.4996 50.8769C62.6178 50.8031 62.7065 50.7218 62.7582 50.6405V50.2637H62.736ZM62.736 55.3695C62.6769 55.3621 62.6178 55.3326 62.5661 55.2734C62.3962 55.0961 62.4183 54.9188 62.4405 54.7193C62.4626 54.5124 62.4848 54.2907 62.3149 54.0173C62.0932 53.67 62.0119 53.7735 61.8937 53.936C61.8272 54.0247 61.7533 54.1281 61.6351 54.1946C61.2952 54.372 61.2065 54.2833 61.2952 53.9286C61.3838 53.574 61.0366 52.7686 60.7853 53.4779C60.5267 54.1946 60.874 54.734 61.6425 55.0001C62.4109 55.2661 62.071 56.0715 61.6425 56.0715C61.2139 56.0715 61.1326 56.1601 61.0439 56.3375C60.9331 56.5665 61.1326 57.0542 61.8124 56.9656C62.4922 56.8769 62.6695 57.4163 62.071 57.5936C61.8715 57.6527 61.805 57.771 61.805 57.904H62.7508V55.3695H62.736ZM67.2951 56.101C67.7015 56.0197 67.5833 55.5764 67.1547 55.4951C67.1178 55.4877 67.0882 55.4803 67.0587 55.473L67.2951 56.101ZM66.8074 54.8227C66.9404 54.7267 67.1917 54.6823 67.6276 54.7932C68.6769 55.0592 68.7729 54.3498 68.3887 54.0025C68.0045 53.6479 68.0045 53.3006 68.1966 53.3006C68.2557 53.3006 68.3296 53.3597 68.4183 53.4262C68.5956 53.5666 68.832 53.7439 69.1498 53.5666C69.6227 53.3006 69.3419 52.6873 69.1498 52.3326C68.9577 51.9779 69.3419 51.8892 69.534 52.1553C69.7261 52.4213 70.199 52.7759 70.3911 52.5099C70.5832 52.2439 70.5832 51.9779 70.199 51.8892C69.8222 51.8006 69.534 51.7119 69.7261 51.6232C69.9182 51.5346 70.4872 51.2686 70.0143 50.9213C69.5414 50.5666 69.2532 50.8326 69.1572 50.9213C69.135 50.9434 69.1054 50.9952 69.0759 51.0543C68.9724 51.2464 68.8099 51.542 68.5882 51.276C68.3 50.9213 68.1153 50.8326 67.9232 50.8326C67.7311 50.8326 67.635 51.1873 67.9232 51.542C68.2114 51.8966 68.2114 52.1626 68.0192 52.074C67.9675 52.0518 67.9158 51.9779 67.8419 51.8892C67.6498 51.6454 67.369 51.2833 66.8739 51.542C66.2089 51.8966 66.6818 52.5099 66.97 52.6873C67.2582 52.8646 67.1621 53.1306 66.97 53.1306C66.9109 53.1306 66.8592 53.0715 66.7853 52.9902C66.6375 52.8277 66.4306 52.5986 66.039 52.7907L66.8074 54.8227Z" fill="white"/>
<path fill-rule="evenodd" clip-rule="evenodd" d="M85.7593 43.7236C86.949 43.6571 87.7913 43.2876 88.4046 43.0142C88.7741 42.8517 89.0549 42.7261 89.2839 42.7261C89.7347 42.7261 90.2815 43.1103 90.7987 43.4797C91.109 43.7014 91.412 43.9157 91.678 44.0339C92.3947 44.359 92.0401 43.6053 91.6854 42.9477C91.3603 42.364 91.4268 42.3049 91.9736 41.8246C92.0327 41.7729 92.0992 41.7137 92.1731 41.6472C92.8972 41.0044 92.779 40.7827 92.4169 40.7827C92.2839 40.7827 91.9588 40.8862 91.5598 41.0044C90.88 41.2113 89.9859 41.4847 89.5278 41.4182C89.2839 41.3812 88.981 41.2261 88.582 41.0266C87.9465 40.7088 87.0598 40.2581 85.752 39.9478L85.7593 43.7236Z" fill="white"/>
<path fill-rule="evenodd" clip-rule="evenodd" d="M103.7 53.0305C102.037 52.5946 99.6581 52.0626 97.6483 51.7522C96.1261 51.5158 95.2986 51.6783 94.8848 51.9295L97.2493 56.06C99.0891 56.7694 101.564 57.5009 103.205 57.9073H103.693V53.0305H103.7Z" fill="white"/>
<path fill-rule="evenodd" clip-rule="evenodd" d="M101.621 39.7749C102.02 39.6419 102.804 39.4498 103.698 39.3833V42.0064C102.338 41.5113 101.171 40.7281 101.053 40.4325C100.89 40.0188 101.215 39.8931 101.621 39.7749ZM102.094 40.3808C102.183 40.3808 102.257 40.3069 102.257 40.2183C102.257 40.1296 102.183 40.0557 102.094 40.0557C102.006 40.0557 101.932 40.1296 101.932 40.2183C101.932 40.3069 102.006 40.3808 102.094 40.3808Z" fill="white"/>
<path d="M121.935 0.504395V8.27771H106.388V13.3614L118.942 13.3392V20.8318H106.388V26.514H121.935V34.5902H96.2207V0.504395H121.935Z" fill="white"/>
<path d="M77.8896 12.3091C81.8649 13.1441 84.6802 13.8756 86.3501 14.5258C88.02 15.1761 89.4092 16.2696 90.5471 17.8361C91.6702 19.4026 92.217 21.2499 92.217 23.3632C92.217 26.6956 90.8722 29.4148 88.1383 31.4911C85.4043 33.5601 81.8428 34.6019 77.4167 34.6019C69.3257 34.6019 64.3306 31.2473 62.4316 24.5232L71.8897 22.8385C72.6877 25.4986 74.7418 26.8434 78.0226 26.8434C80.5718 26.8434 81.8575 26.171 81.8575 24.8114C81.8575 24.1021 81.5546 23.5331 80.9635 23.1489C80.3723 22.7425 79.3157 22.3952 77.7861 22.0922C71.9562 20.9765 68.2247 19.5134 66.5769 17.7253C64.9292 15.9371 64.0868 13.8239 64.0868 11.4076C64.0868 8.28204 65.2912 5.70325 67.6557 3.62692C70.0424 1.55798 73.4488 0.516113 77.9118 0.516113C84.658 0.516113 89.121 3.2353 91.3082 8.6441L82.8698 11.1859C81.9905 8.96922 80.2172 7.87564 77.5497 7.87564C75.3256 7.87564 74.2246 8.54805 74.2246 9.92981C74.2246 10.5357 74.4684 11.0086 74.9783 11.3485C75.466 11.681 76.4413 12.0061 77.8896 12.3091Z" fill="white"/>
<path d="M59.1485 34.5902H48.6855V0.504395H59.1485V34.5902Z" fill="white"/>
<path d="M27.7315 0.504395L32.7856 20.1593L37.5664 0.504395H45.5761L36.5245 34.5902H27.7315L22.9656 15.7924L18.4582 34.5902H9.21448L0.244141 0.504395H10.0938L14.8671 20.1224L19.5149 0.504395H27.7315Z" fill="white"/>
<path fill-rule="evenodd" clip-rule="evenodd" d="M96.2207 21.4458V20.9064L96.6123 20.6256V18.8596C96.6419 18.7192 96.6936 18.4458 96.9448 18.4458C97.1443 18.4458 97.1961 18.7192 97.1961 18.8596V20.6551L103.824 26.5073L106.388 24.7117V25.3841L104.282 26.9137L110.016 31.9826H110.563C110.895 31.9826 111.309 32.0639 110.895 32.6402C110.6 33.0466 110.334 34.0072 110.193 34.5835H96.2207V27.5196H96.6123V21.1871L96.2207 21.4458ZM106.602 26.5147H106.935V26.559C107.127 26.6255 107.267 26.8102 107.267 27.0245C107.267 27.2388 107.127 27.4235 106.935 27.49V27.6083C107.075 27.6304 107.267 27.7117 107.267 27.9334C107.267 27.9482 107.267 27.9703 107.267 27.9851V28.0147C107.275 28.2437 107.282 28.5097 106.772 28.5097C106.661 28.5097 106.44 28.4802 106.44 28.3472C106.44 28.1846 106.602 28.1846 106.772 28.1846C106.935 28.1846 107.105 28.022 106.854 27.8521C106.713 27.7634 106.654 27.7191 106.625 27.6895H106.602V27.6083V27.4974C106.41 27.4309 106.27 27.2462 106.27 27.0319C106.27 26.8176 106.41 26.6329 106.602 26.5664V26.5147ZM97.3956 27.5935C97.4103 27.623 97.4251 27.6526 97.4399 27.6895C97.5729 28.0885 97.3882 28.4063 97.2773 28.5171V31.0959L98.6813 30.1132V25.6723L97.3956 27.5935ZM97.1961 27.2536L98.6813 24.9112V24.1428C98.7108 24.0024 98.7625 23.729 99.0138 23.729C99.2133 23.729 99.265 24.0024 99.265 24.1428V24.5492L103.122 27.0024L103.418 26.7955L97.2035 21.1502L97.1961 27.2536ZM102.694 27.2979L99.2576 25.1477V29.6994L102.694 27.2979ZM98.0606 31.4284L98.6813 30.9777V31.4801L98.0606 31.4284ZM105.346 31.9826H109.122L103.868 27.2166L99.2576 30.5639V31.5245L105.346 31.9826Z" fill="white"/>
<path fill-rule="evenodd" clip-rule="evenodd" d="M92.2224 23.3253L83.119 28.5346L87.449 29.2883V27.1455C87.3382 27.0642 87.1165 26.8351 87.1165 26.5691C87.1165 26.3031 87.5007 26.1849 87.6929 26.1553H91.8603C91.8012 26.377 91.7347 26.5987 91.6534 26.813H91.0771V27.6405H91.3209C90.6485 29.0962 89.5845 30.3819 88.1362 31.4755C87.05 32.303 85.8308 32.9607 84.4786 33.4557C83.1412 32.4582 81.9294 29.8499 81.7003 29.3622C81.6855 29.3252 81.6708 29.3031 81.6634 29.2883C81.6412 29.244 81.5821 29.1922 81.523 29.1257C81.3604 28.9706 81.1535 28.7784 81.3383 28.542C81.5378 28.276 82.0254 28.3203 82.2471 28.3794L82.4023 28.409L92.2002 22.7563C92.215 22.9485 92.2224 23.1332 92.2224 23.3253ZM88.2766 26.813H89.1042V27.6405H88.2766V26.813ZM90.5894 26.813H89.7618V27.6405H90.5894V26.813Z" fill="white"/>
<path fill-rule="evenodd" clip-rule="evenodd" d="M59.1485 13.1312H58.38C58.2175 13.1016 57.8702 13.1016 57.8037 13.2937C57.7224 13.545 57.5524 13.6262 57.0574 13.6262H56.1485V13.8775L56.5549 34.5964H54.5155L55.0032 13.2937C54.8924 13.2124 54.6411 13.0942 54.5081 13.2937C54.4269 13.4193 54.449 13.6484 54.4638 13.8701C54.486 14.0844 54.5007 14.2839 54.4195 14.3651C54.2939 14.4908 50.6289 20.4168 48.6855 23.5645V21.6212L52.4318 14.2839C52.5944 13.9292 53.0747 13.1977 53.6732 13.1312C54.2643 13.0647 54.1978 12.6065 54.087 12.3849C54.0352 12.1336 53.954 11.5573 54.087 11.2322C54.1682 11.0327 54.1461 11.0253 54.05 11.0031C53.9466 10.9809 53.7618 10.944 53.5106 10.6484C53.1412 10.2199 50.3481 5.47607 48.6855 2.63127V1.47119L54.0057 8.75683C54.2569 9.08933 54.715 9.89474 54.582 10.4933C54.4195 11.2396 55.2397 11.5647 55.4909 11.6459C55.6534 11.6977 57.6337 11.7568 59.1485 11.7937V13.1312Z" fill="white"/>
<path fill-rule="evenodd" clip-rule="evenodd" d="M19.5075 30.2778L18.473 34.593H18.4139V31.2679H17.7563V30.6103H18.0888V30.2778H19.5075ZM21.074 23.7458L20.6159 25.667L18.5839 22.5192H18.0888V27.5512H18.4213V27.8024H17.5938V27.5512H17.9263V22.268H18.0075H18.0888H18.6652L18.8277 22.1055H19.1602L21.074 23.7458ZM38.6231 26.7236H38.2241V26.3911H38.5566V21.9355H37.9728L34.9803 26.8862V28.2088L35.564 28.5413V29.3689H36.229C36.4802 29.3985 36.9753 29.6645 36.9753 30.5216V31.8443H36.4802V34.593H34.1527V31.8443H31.8251V34.593H30.665V31.8443H29.1724V34.593H27.7463L26.0986 28.0906L28.5887 13.8519L29.6453 13.2903V11.8716H29.8079V13.3568L30.665 13.8519L32.1576 27.8837H32.3202V26.6423H32.6527L33.2364 24.9059L37.9728 21.4404L38.7191 21.603V21.7656V21.9281V26.3394L38.6231 26.7236Z" fill="white"/>
<path fill-rule="evenodd" clip-rule="evenodd" d="M64.1711 12.7195C64.1268 12.4165 64.1046 12.1136 64.0898 11.8032H66.6391H67.2154C67.1341 11.9953 66.7869 12.4165 66.0627 12.5495C65.6785 12.616 64.9248 12.6751 64.1711 12.7195Z" fill="white"/>
<path d="M10.0496 60.0728L11.1654 63.1836L12.2811 60.0728H13.1531V64.1294H12.4807V62.7919L12.5472 61.0038L11.4018 64.1294H10.9216L9.78364 61.0112L9.85014 62.7993V64.1294H9.17773V60.0728H10.0496Z" fill="white"/>
<path d="M16.1603 63.1836H14.6603L14.3426 64.1294H13.6406L15.1037 60.0728H15.7096L17.1726 64.1294H16.4706L16.1603 63.1836ZM14.845 62.6146H15.9682L15.4066 60.9299L14.845 62.6146Z" fill="white"/>
<path d="M19.032 62.5703H18.2857V64.1294H17.6133V60.0728H18.9729C19.4162 60.0728 19.7635 60.1762 20.0073 60.3905C20.2512 60.5974 20.3694 60.9003 20.3694 61.2993C20.3694 61.5727 20.3029 61.7944 20.1773 61.9791C20.0517 62.1639 19.8817 62.3043 19.6601 62.4003L20.532 64.0924V64.1294H19.8152L19.032 62.5703ZM18.2857 62.0013H18.9803C19.2093 62.0013 19.3867 61.9422 19.5123 61.824C19.6379 61.7057 19.7044 61.5358 19.7044 61.3289C19.7044 61.1146 19.6453 60.9447 19.5271 60.8264C19.4088 60.7082 19.2315 60.6491 19.0024 60.6417H18.2931V62.0013H18.2857Z" fill="white"/>
<path d="M21.7251 64.1294H21.0527V60.0728H21.7251V64.1294Z" fill="white"/>
<path d="M25.6192 64.1294H24.9468L23.2251 61.255V64.1294H22.5527V60.0728H23.2251L24.9542 62.9619V60.0728H25.6192V64.1294Z" fill="white"/>
<path d="M28.6693 62.319H27.0806V63.5678H28.9353V64.1294H26.4082V60.0728H28.9205V60.6417H27.0806V61.7649H28.6693V62.319Z" fill="white"/>
<path d="M31.5533 64.1294H30.8809V60.0728H31.5533V64.1294Z" fill="white"/>
<path d="M35.4473 64.1294H34.7749L33.0533 61.255V64.1294H32.3809V60.0728H33.0533L34.7823 62.9619V60.0728H35.4473V64.1294Z" fill="white"/>
<path d="M38.4776 62.4151H36.9185V64.1294H36.2461V60.0728H38.7067V60.6417H36.9185V61.8461H38.4776V62.4151Z" fill="white"/>
<path d="M42.3256 62.2068C42.3256 62.6058 42.2591 62.9531 42.1261 63.256C41.9931 63.5516 41.8083 63.788 41.5645 63.9432C41.3207 64.1058 41.0399 64.1796 40.7221 64.1796C40.4118 64.1796 40.131 64.0984 39.8798 63.9432C39.636 63.7806 39.4438 63.5516 39.3108 63.256C39.1778 62.9604 39.1113 62.6132 39.1113 62.2289V61.9999C39.1113 61.6009 39.1778 61.2536 39.3108 60.9506C39.4438 60.6477 39.636 60.4186 39.8798 60.256C40.1236 60.0935 40.4044 60.0122 40.7221 60.0122C41.0399 60.0122 41.3133 60.0935 41.5571 60.2487C41.801 60.4038 41.9931 60.6329 42.1261 60.9358C42.2591 61.2314 42.3256 61.5787 42.3256 61.9777V62.2068ZM41.6532 61.9925C41.6532 61.5418 41.5719 61.2018 41.4093 60.958C41.2468 60.7216 41.0177 60.596 40.7221 60.596C40.434 60.596 40.2049 60.7142 40.0424 60.958C39.8798 61.1945 39.7985 61.5344 39.7911 61.9703V62.2068C39.7911 62.6501 39.8724 62.9974 40.035 63.2412C40.2049 63.4851 40.434 63.6033 40.7221 63.6033C41.0177 63.6033 41.2468 63.4851 41.4093 63.2486C41.5719 63.0122 41.6532 62.6649 41.6532 62.2068V61.9925Z" fill="white"/>
<path d="M44.4148 62.5703H43.6685V64.1294H42.9961V60.0728H44.3557C44.799 60.0728 45.1463 60.1762 45.3902 60.3905C45.634 60.5974 45.7522 60.9003 45.7522 61.2993C45.7522 61.5727 45.6857 61.7944 45.5601 61.9791C45.4345 62.1639 45.2645 62.3043 45.0429 62.4003L45.9148 64.0924V64.1294H45.198L44.4148 62.5703ZM43.6611 62.0013H44.3483C44.5774 62.0013 44.7547 61.9422 44.8803 61.824C45.0059 61.7057 45.0724 61.5358 45.0724 61.3289C45.0724 61.1146 45.0133 60.9447 44.8951 60.8264C44.7769 60.7082 44.5995 60.6491 44.3705 60.6417H43.6611V62.0013Z" fill="white"/>
<path d="M47.2586 60.0728L48.3744 63.1836L49.4901 60.0728H50.362V64.1294H49.6896V62.7919L49.7561 61.0038L48.6108 64.1294H48.1305L46.9926 61.0112L47.0591 62.7993V64.1294H46.3867V60.0728H47.2586Z" fill="white"/>
<path d="M53.3736 63.1836H51.8736L51.5633 64.1294H50.8613L52.3244 60.0728H52.9303L54.3933 64.1294H53.6913L53.3736 63.1836ZM52.0584 62.6146H53.1815L52.6199 60.9299L52.0584 62.6146Z" fill="white"/>
<path d="M57.2989 60.6417H56.0945V64.1294H55.4295V60.6417H54.2324V60.0728H57.2989V60.6417Z" fill="white"/>
<path d="M58.522 64.1294H57.8496V60.0728H58.522V64.1294Z" fill="white"/>
<path d="M62.4369 62.2068C62.4369 62.6058 62.3704 62.9531 62.2374 63.256C62.1044 63.5516 61.9197 63.788 61.6758 63.9432C61.432 64.1058 61.1512 64.1796 60.8335 64.1796C60.5231 64.1796 60.2423 64.0984 59.9911 63.9432C59.7473 63.7806 59.5552 63.5516 59.4222 63.256C59.2892 62.9604 59.2227 62.6132 59.2227 62.2289V61.9999C59.2227 61.6009 59.2892 61.2536 59.4222 60.9506C59.5552 60.6477 59.7473 60.4186 59.9911 60.256C60.235 60.0935 60.5157 60.0122 60.8335 60.0122C61.1512 60.0122 61.4246 60.0935 61.6684 60.2487C61.9123 60.4038 62.1044 60.6329 62.2374 60.9358C62.3704 61.2314 62.4369 61.5787 62.4369 61.9777V62.2068ZM61.7645 61.9925C61.7645 61.5418 61.6832 61.2018 61.5207 60.958C61.3581 60.7216 61.129 60.596 60.8335 60.596C60.5453 60.596 60.3162 60.7142 60.1537 60.958C59.9911 61.1945 59.9098 61.5344 59.9025 61.9703V62.2068C59.9025 62.6501 59.9837 62.9974 60.1463 63.2412C60.3162 63.4851 60.5453 63.6033 60.8335 63.6033C61.129 63.6033 61.3581 63.4851 61.5207 63.2486C61.6832 63.0122 61.7645 62.6649 61.7645 62.2068V61.9925Z" fill="white"/>
<path d="M66.1778 64.1294H65.5054L63.7837 61.255V64.1294H63.1113V60.0728H63.7837L65.5128 62.9619V60.0728H66.1778V64.1294Z" fill="white"/>
<path d="M70.3511 63.0904C70.3511 62.9131 70.292 62.7727 70.1737 62.6766C70.0555 62.5805 69.8412 62.4845 69.5309 62.381C69.2205 62.285 68.9693 62.1741 68.7846 62.0559C68.4299 61.8269 68.2526 61.5239 68.2526 61.1471C68.2526 60.8219 68.3782 60.5485 68.6294 60.3417C68.8806 60.1274 69.2131 60.0239 69.6195 60.0239C69.8856 60.0239 70.1294 60.0756 70.3363 60.1791C70.5506 60.2825 70.7131 60.4303 70.8314 60.6224C70.9496 60.8146 71.0087 61.0288 71.0087 61.2579H70.3363C70.3363 61.0436 70.2698 60.8811 70.1442 60.7628C70.0186 60.6446 69.8412 60.5855 69.6048 60.5855C69.3831 60.5855 69.2131 60.6372 69.0949 60.7333C68.9767 60.8293 68.9176 60.9697 68.9176 61.1471C68.9176 61.2948 68.9841 61.4205 69.1171 61.5239C69.2501 61.62 69.4644 61.716 69.7673 61.8121C70.0703 61.9081 70.3067 62.0116 70.4915 62.1298C70.6762 62.248 70.8092 62.3884 70.8905 62.5436C70.9791 62.6988 71.0161 62.8761 71.0161 63.083C71.0161 63.4229 70.8905 63.6889 70.6466 63.8884C70.4028 64.0879 70.0629 64.184 69.6417 64.184C69.3609 64.184 69.1023 64.1322 68.8659 64.0214C68.6294 63.9106 68.4521 63.7628 68.3191 63.5707C68.1861 63.3786 68.127 63.1569 68.127 62.9057H68.7994C68.7994 63.1347 68.8732 63.3121 69.0136 63.4377C69.1614 63.5633 69.3683 63.6298 69.6417 63.6298C69.8782 63.6298 70.0481 63.5781 70.1663 63.482C70.292 63.386 70.3511 63.2529 70.3511 63.0904Z" fill="white"/>
<path d="M72.8708 61.9939L73.7575 60.0728H74.5038L73.2034 62.6368V64.1294H72.5309V62.6368L71.2305 60.0728H71.9768L72.8708 61.9939Z" fill="white"/>
<path d="M76.9077 63.0904C76.9077 62.9131 76.8486 62.7727 76.7304 62.6766C76.6121 62.5805 76.3979 62.4845 76.0875 62.381C75.7772 62.285 75.5259 62.1741 75.3412 62.0559C74.9865 61.8269 74.8092 61.5239 74.8092 61.1471C74.8092 60.8219 74.9348 60.5485 75.186 60.3417C75.4447 60.1274 75.7698 60.0239 76.1762 60.0239C76.4422 60.0239 76.686 60.0756 76.8929 60.1791C77.1072 60.2825 77.2698 60.4303 77.388 60.6224C77.5062 60.8146 77.5653 61.0288 77.5653 61.2579H76.8929C76.8929 61.0436 76.8264 60.8811 76.7008 60.7628C76.5752 60.6446 76.3979 60.5855 76.1614 60.5855C75.9397 60.5855 75.7698 60.6372 75.6516 60.7333C75.5333 60.8293 75.4742 60.9697 75.4742 61.1471C75.4742 61.2948 75.5407 61.4205 75.6737 61.5239C75.8067 61.62 76.021 61.716 76.324 61.8121C76.6269 61.9081 76.8634 62.0116 77.0481 62.1298C77.2328 62.248 77.3658 62.3884 77.4471 62.5436C77.5284 62.6988 77.5727 62.8761 77.5727 63.083C77.5727 63.4229 77.4471 63.6889 77.2033 63.8884C76.9594 64.0879 76.6195 64.184 76.1984 64.184C75.9176 64.184 75.659 64.1322 75.4225 64.0214C75.1861 63.9106 75.0087 63.7628 74.8757 63.5707C74.7501 63.3786 74.6836 63.1569 74.6836 62.9057H75.356C75.356 63.1347 75.4299 63.3121 75.5703 63.4377C75.7181 63.5633 75.925 63.6298 76.1984 63.6298C76.4348 63.6298 76.6048 63.5781 76.723 63.482C76.8486 63.386 76.9077 63.2529 76.9077 63.0904Z" fill="white"/>
<path d="M80.9649 60.6417H79.7605V64.1294H79.0955V60.6417H77.8984V60.0728H80.9649V60.6417Z" fill="white"/>
<path d="M83.7337 62.319H82.1451V63.5678H83.9997V64.1294H81.4727V60.0728H83.9849V60.6417H82.1451V61.7649H83.7337V62.319Z" fill="white"/>
<path d="M85.4227 60.0728L86.5384 63.1836L87.6542 60.0728H88.5261V64.1294H87.8537V62.7919L87.9202 61.0038L86.7749 64.1294H86.2946L85.1567 61.0112L85.2232 62.7993V64.1294H84.5508V60.0728H85.4227Z" fill="white"/>
<path d="M92.9014 62.4151H91.3423V64.1294H90.6699V60.0728H93.1305V60.6417H91.3423V61.8461H92.9014V62.4151Z" fill="white"/>
<path d="M96.7533 62.2068C96.7533 62.6058 96.6868 62.9531 96.5538 63.256C96.4208 63.5516 96.2361 63.788 95.9922 63.9432C95.7484 64.1058 95.4676 64.1796 95.1499 64.1796C94.8395 64.1796 94.5588 64.0984 94.3075 63.9432C94.0637 63.7806 93.8716 63.5516 93.7386 63.256C93.6056 62.9604 93.5391 62.6132 93.5391 62.2289V61.9999C93.5391 61.6009 93.6056 61.2536 93.7386 60.9506C93.8716 60.6477 94.0637 60.4186 94.3075 60.256C94.5514 60.0935 94.8322 60.0122 95.1499 60.0122C95.4676 60.0122 95.741 60.0935 95.9849 60.2487C96.2287 60.4038 96.4208 60.6329 96.5538 60.9358C96.6868 61.2314 96.7533 61.5787 96.7533 61.9777V62.2068ZM96.0809 61.9925C96.0809 61.5418 95.9996 61.2018 95.8371 60.958C95.6745 60.7216 95.4455 60.596 95.1499 60.596C94.8617 60.596 94.6327 60.7142 94.4701 60.958C94.3075 61.1945 94.2263 61.5344 94.2189 61.9703V62.2068C94.2189 62.6501 94.3001 62.9974 94.4627 63.2412C94.6326 63.4851 94.8617 63.6033 95.1499 63.6033C95.4455 63.6033 95.6745 63.4851 95.8371 63.2486C95.9996 63.0122 96.0809 62.6649 96.0809 62.2068V61.9925Z" fill="white"/>
<path d="M98.8445 62.5703H98.0982V64.1294H97.4258V60.0728H98.7854C99.2287 60.0728 99.576 60.1762 99.8198 60.3905C100.064 60.5974 100.182 60.9003 100.182 61.2993C100.182 61.5727 100.115 61.7944 99.9898 61.9791C99.8642 62.1639 99.6942 62.3043 99.4726 62.4003L100.344 64.0924V64.1294H99.6277L98.8445 62.5703ZM98.0982 62.0013H98.7854C99.0144 62.0013 99.1918 61.9422 99.3174 61.824C99.443 61.7057 99.5095 61.5358 99.5095 61.3289C99.5095 61.1146 99.4504 60.9447 99.3322 60.8264C99.2139 60.7082 99.0366 60.6491 98.8075 60.6417H98.0982V62.0013Z" fill="white"/>
<path d="M104.439 62.319H102.85V63.5678H104.705V64.1294H102.178V60.0728H104.69V60.6417H102.85V61.7649H104.439V62.319Z" fill="white"/>
<path d="M108.08 60.0728V62.7845C108.08 63.2131 107.947 63.5604 107.681 63.8116C107.415 64.0629 107.068 64.1885 106.632 64.1885C106.189 64.1885 105.834 64.0629 105.575 63.819C105.317 63.5678 105.184 63.2279 105.184 62.7845V60.0802H105.856V62.7919C105.856 63.0653 105.922 63.2722 106.055 63.4126C106.189 63.553 106.381 63.6269 106.632 63.6269C107.149 63.6269 107.408 63.3387 107.408 62.7698V60.0802H108.08V60.0728Z" fill="white"/>
<path d="M110.221 62.5703H109.475V64.1294H108.803V60.0728H110.162C110.606 60.0728 110.953 60.1762 111.197 60.3905C111.441 60.5974 111.559 60.9003 111.559 61.2993C111.559 61.5727 111.492 61.7944 111.367 61.9791C111.241 62.1639 111.071 62.3043 110.85 62.4003L111.721 64.0924V64.1294H111.005L110.221 62.5703ZM109.475 62.0013H110.162C110.391 62.0013 110.569 61.9422 110.694 61.824C110.82 61.7057 110.886 61.5358 110.886 61.3289C110.886 61.1146 110.827 60.9447 110.709 60.8264C110.591 60.7082 110.414 60.6491 110.184 60.6417H109.475V62.0013Z" fill="white"/>
<path d="M115.285 62.2068C115.285 62.6058 115.218 62.9531 115.085 63.256C114.952 63.5516 114.767 63.788 114.523 63.9432C114.28 64.1058 113.999 64.1796 113.681 64.1796C113.371 64.1796 113.09 64.0984 112.839 63.9432C112.595 63.7806 112.403 63.5516 112.27 63.256C112.137 62.9604 112.07 62.6132 112.07 62.2289V61.9999C112.07 61.6009 112.137 61.2536 112.27 60.9506C112.403 60.6477 112.595 60.4186 112.839 60.256C113.083 60.0935 113.363 60.0122 113.681 60.0122C113.999 60.0122 114.272 60.0935 114.516 60.2487C114.76 60.4038 114.952 60.6329 115.085 60.9358C115.218 61.2314 115.285 61.5787 115.285 61.9777V62.2068ZM114.612 61.9925C114.612 61.5418 114.531 61.2018 114.368 60.958C114.206 60.7216 113.977 60.596 113.681 60.596C113.393 60.596 113.164 60.7142 113.001 60.958C112.839 61.1945 112.757 61.5344 112.75 61.9703V62.2068C112.75 62.6501 112.831 62.9974 112.994 63.2412C113.164 63.4851 113.393 63.6033 113.681 63.6033C113.977 63.6033 114.206 63.4851 114.368 63.2486C114.531 63.0122 114.612 62.6649 114.612 62.2068V61.9925Z" fill="white"/>
<path d="M116.631 62.622V64.1294H115.959V60.0728H117.437C117.873 60.0728 118.213 60.191 118.464 60.4274C118.722 60.6639 118.848 60.9742 118.848 61.3658C118.848 61.7649 118.722 62.0752 118.471 62.2969C118.22 62.5185 117.873 62.6294 117.429 62.6294H116.631V62.622ZM116.631 62.0604H117.437C117.673 62.0604 117.858 62.0013 117.984 61.8831C118.109 61.7649 118.176 61.5949 118.176 61.3732C118.176 61.1516 118.109 60.9816 117.984 60.8486C117.858 60.7156 117.681 60.6491 117.459 60.6417H116.631V62.0604Z" fill="white"/>
<path d="M121.699 62.319H120.11V63.5678H121.965V64.1294H119.438V60.0728H121.95V60.6417H120.11V61.7649H121.699V62.319Z" fill="white"/>
</svg>
