<svg width="134" height="59" viewBox="0 0 134 59" fill="none" xmlns="http://www.w3.org/2000/svg">
<path d="M132.931 0.916748V9.46043H116.215V14.8285H129.723V23.0497H116.215V29.1029H132.931V37.9448H105.068V0.916748H132.931Z" fill="white"/>
<path d="M64.9052 37.9448H53.5405V0.916748H64.9052V37.9448Z" fill="white"/>
<path d="M30.5445 0.916748L36.0334 22.2679L41.2241 0.916748H49.9209L40.0957 37.9448H30.5445L25.3699 17.5205L20.4774 37.9448H10.5232L0.689941 0.916748H11.3857L16.5683 22.2276L21.6139 0.916748H30.5445Z" fill="white"/>
<path d="M84.8292 13.722C89.1575 14.6248 92.2123 15.4227 94.0338 16.132C95.8554 16.8413 97.3626 18.0342 98.6039 19.7349C99.821 21.4355 100.425 23.4506 100.425 25.7477C100.425 29.3747 98.9585 32.3328 95.9924 34.5896C93.0183 36.8464 89.1414 37.9748 84.3295 37.9748C75.5279 37.9748 70.0873 34.3317 68.0239 27.0131L78.3167 25.1754C79.1791 28.069 81.4198 29.5279 84.9904 29.5279C87.7631 29.5279 89.1575 28.8025 89.1575 27.3194C89.1575 26.5456 88.827 25.925 88.1822 25.5059C87.5374 25.0626 86.3848 24.6918 84.7244 24.3533C78.3811 23.1362 74.3189 21.5484 72.5295 19.5978C70.7321 17.6554 69.8213 15.3582 69.8213 12.7226C69.8213 9.32123 71.1271 6.50826 73.7063 4.2595C76.3016 2.00268 80.0093 0.874268 84.8615 0.874268C92.2042 0.874268 97.0564 3.83232 99.4341 9.71618L90.2537 12.4808C89.3026 10.0708 87.3682 8.87793 84.4665 8.87793C82.0485 8.87793 80.8475 9.60334 80.8475 11.1106C80.8475 11.7715 81.1135 12.2793 81.6697 12.6581C82.1936 13.0369 83.2575 13.3916 84.8292 13.722Z" fill="white"/>
<path d="M10.5234 53.336H14.4568V48.4033H18.7608V45.4372H14.4568V43.2932H20.0585V40.1497H10.5234V53.336ZM32.6323 46.0497C32.9386 45.4694 33.0917 44.7924 33.0917 44.0347C33.0917 42.866 32.6726 41.931 31.8263 41.2137C30.98 40.5044 29.8112 40.1417 28.2879 40.1417H21.4046V53.328H25.4588V48.2824H26.7404L28.6667 53.328H33.1562L30.7623 47.5731C31.6973 47.1378 32.326 46.6301 32.6323 46.0497ZM28.4088 45.1551C28.1025 45.3646 27.6914 45.4694 27.1836 45.4694H25.4588V42.9466H27.3207C28.3604 42.9466 28.8763 43.3657 28.8763 44.212C28.8763 44.6312 28.7231 44.9374 28.4088 45.1551ZM34.6553 53.336H44.5773V50.1845H38.6209V48.0325H43.4328V45.1067H38.6209V43.1965H44.5773V40.1497H34.6553V53.336ZM54.4832 45.5339C53.8222 45.276 52.7019 44.9858 51.1221 44.6473C50.5499 44.5264 50.1549 44.3974 49.9615 44.2604C49.76 44.1234 49.6632 43.938 49.6632 43.6962C49.6632 43.1481 50.0985 42.8741 50.9851 42.8741C52.049 42.8741 52.7502 43.3093 53.0968 44.1959L56.4498 43.1803C55.5793 41.0283 53.8061 39.9402 51.1302 39.9402C49.3569 39.9402 48.0028 40.3512 47.0518 41.1814C46.1087 42.0116 45.6332 43.0353 45.6332 44.2846C45.6332 45.2518 45.9636 46.09 46.6246 46.8074C47.2774 47.5167 48.7605 48.105 51.0818 48.5484C51.6863 48.6693 52.1135 48.8063 52.3472 48.9675C52.581 49.1206 52.7019 49.3463 52.7019 49.6284C52.7019 50.1684 52.1941 50.4425 51.1785 50.4425C49.8728 50.4425 49.0587 49.9105 48.7363 48.8466L44.9803 49.5156C45.7299 52.1996 47.7207 53.5375 50.9367 53.5375C52.6938 53.5375 54.1124 53.1265 55.2005 52.2963C56.2886 51.4661 56.8206 50.3861 56.8206 49.0561C56.8206 48.2098 56.603 47.4764 56.1597 46.8557C55.7002 46.2351 55.1441 45.7999 54.4832 45.5339ZM65.1547 45.0019H62.0596V40.1497H58.0054V53.336H62.0596V48.2098H65.1547V53.336H69.2089V40.1497H65.1547V45.0019ZM85.0873 40.1497L83.2415 47.7585L81.283 40.1497H78.1073L76.3099 47.7423L74.4641 40.1497H70.6598L74.1659 53.336H77.7123L79.4533 46.0578L81.2991 53.336H84.7004L88.1824 40.1497H85.0873ZM91.7933 40.1497L87.7149 53.336H91.0034L91.7933 50.7326H95.3236L96.0651 53.336H100.2L96.0571 40.1497H91.7933ZM92.4945 47.8633L93.5665 44.0428L94.6385 47.8633H92.4945ZM99.3698 43.3093H102.11V53.336H105.947V43.3093H108.687V40.1497H99.3779V43.3093H99.3698ZM109.493 53.336H119.415V50.1845H113.459V48.0325H118.271V45.1067H113.459V43.1965H119.415V40.1497H109.493V53.336ZM130.522 47.5892C131.465 47.1459 132.086 46.6301 132.392 46.0497C132.698 45.4694 132.851 44.7924 132.851 44.0347C132.851 42.866 132.432 41.931 131.586 41.2137C130.74 40.5044 129.571 40.1417 128.048 40.1417H121.164V53.328H125.218V48.2824H126.5L128.426 53.328H132.916L130.522 47.5892ZM128.168 45.1551C127.862 45.3646 127.451 45.4694 126.943 45.4694H125.218V42.9466H127.08C128.12 42.9466 128.636 43.3657 128.636 44.212C128.636 44.6312 128.483 44.9374 128.168 45.1551Z" fill="white"/>
<path fill-rule="evenodd" clip-rule="evenodd" d="M55.3949 23.6952V21.7043C56.1687 21.8333 57.7243 22.0267 59.1751 22.0267C60.634 22.0267 62.3024 21.7769 63.1326 21.6157V23.6952C62.52 23.5662 61.1095 23.3728 59.1751 23.3728C57.2649 23.3808 55.9591 23.5743 55.3949 23.6952ZM59.1751 21.6721C60.2632 21.6721 61.4803 21.527 62.3588 21.39C62.2702 21.3819 62.1815 21.3658 62.0848 21.3578C61.4158 21.2852 60.4647 21.2207 59.1751 21.2207C57.8855 21.2207 56.9586 21.2772 56.3299 21.3578C56.1606 21.3739 56.0155 21.3981 55.8866 21.4222C56.7248 21.5351 57.9903 21.6721 59.1751 21.6721ZM59.1751 20.8661C57.8774 20.8661 56.9344 20.9225 56.2896 21.0031C55.9672 21.0434 55.7173 21.0837 55.5319 21.124C55.3466 21.1643 55.2176 21.2046 55.137 21.2449L55.0403 21.2933V21.4061V21.4948V28.0638C55.0725 29.2969 55.1451 31.2636 55.2821 33.1497C55.411 35.0357 55.6045 36.8654 55.8624 37.8245L55.8947 37.9615H56.0317H62.4233H62.5603L62.6006 37.8326C62.8183 37.0588 63.2938 34.0443 63.5034 28.0718V21.4142V21.2933L63.3905 21.2449C63.2132 21.1724 62.8102 21.0837 62.1331 21.0112C61.448 20.9225 60.4808 20.8661 59.1751 20.8661ZM55.3949 23.9209C55.806 24.1466 57.2004 24.6301 59.3605 24.6301C61.5206 24.6301 62.7941 24.1466 63.1407 23.9209V24.1546C62.5845 24.4286 61.303 24.8155 59.3605 24.8155C57.3696 24.8155 55.9914 24.4125 55.3949 24.1385V23.9209ZM55.814 30.2642C55.9349 32.4565 56.1203 35.8175 56.475 36.5188C56.6523 36.8815 58.1837 37.0588 58.9091 36.7928C59.2235 36.68 59.022 36.5188 58.6512 36.2206C58.216 35.874 57.5389 35.3339 57.2004 34.4554C56.886 33.6574 56.5072 31.9487 56.217 30.6349C55.9188 29.2808 55.7093 28.3458 55.7657 29.2405C55.7737 29.5307 55.7899 29.8773 55.814 30.2642Z" fill="white"/>
<path fill-rule="evenodd" clip-rule="evenodd" d="M27.9667 27.7268L30.554 37.9389H38.9929C39.2508 36.8992 39.67 35.0856 38.1385 32.3855C37.7436 31.6843 37.2519 31.0475 36.7844 30.435C35.7366 29.0647 34.7936 27.8477 35.253 26.3485C35.9704 24.0111 37.4615 22.391 37.8645 22.391C37.937 22.391 37.9451 22.4474 37.9773 22.5441C38.0257 22.7053 38.1063 22.9874 38.4932 23.3824C39.1219 24.0111 41.83 25.9213 42.1847 25.9939C42.5958 26.0745 42.354 25.607 42.2169 25.341C42.2008 25.3168 42.1927 25.2926 42.1847 25.2765C41.9429 24.8735 41.5802 24.3577 41.2578 23.8902C40.8628 23.326 40.5163 22.8262 40.476 22.665C40.4195 22.4313 40.5485 22.1653 40.6694 21.9074C40.742 21.7623 40.8064 21.6253 40.8387 21.4963C40.8467 21.4802 40.8467 21.456 40.8548 21.4318C40.9596 21.0127 41.2417 19.9327 40.3873 19.3362C39.5732 18.772 38.1063 18.8607 36.9698 19.6103L36.6232 19.8682L36.0429 22.2701L35.656 20.779C34.2455 22.3668 33.0929 23.9305 32.8269 26.3566C32.6174 28.299 33.1977 30.4833 34.1891 32.1679C34.7533 33.127 35.7125 34.7632 34.8984 35.3597C33.907 36.077 33.0042 34.191 32.5609 33.1109C32.1015 32.0228 30.6588 28.557 27.9667 27.7268ZM39.9118 21.8026C39.9118 21.9558 39.7909 22.0767 39.6377 22.0767C39.4846 22.0767 39.3637 21.9558 39.3637 21.8026C39.3637 21.6495 39.4846 21.5366 39.6377 21.5366C39.7909 21.5286 39.9118 21.6495 39.9118 21.8026ZM18.3349 37.9389H20.487L23.0259 27.348C22.905 27.3157 22.4778 27.3157 22.1232 27.5253C21.6718 27.7993 21.8491 28.0653 22.3891 28.3393C22.5664 28.428 22.5664 28.8794 21.9378 28.6134C21.7443 28.5328 21.5912 28.4441 21.4622 28.3716C21.1801 28.2184 21.0189 28.1298 20.7691 28.2507C20.5273 28.3716 20.8497 28.6537 21.1721 28.9277C21.3333 29.0648 21.4945 29.2098 21.5831 29.3307C21.9297 29.7902 21.5831 30.1448 21.1318 29.7821C20.6804 29.4194 20.3499 29.234 19.9631 29.3307C19.6003 29.4194 19.5117 29.8708 20.0517 30.3221C20.8335 30.975 21.0431 31.7649 20.1404 31.8535C17.811 32.0873 17.5289 33.1109 17.6176 34.3764C17.6982 35.5128 19.2457 36.069 20.0759 36.3591C20.1645 36.3914 20.2452 36.4156 20.3177 36.4478C20.8577 36.7218 20.4064 36.9878 19.5036 36.9878C18.6009 36.9878 18.3349 36.7218 18.1495 36.5365C18.1092 36.4962 18.077 36.4559 18.0367 36.4075C17.8997 36.2463 17.7868 36.1093 17.7868 36.5365C17.7949 36.9556 18.1576 37.6488 18.3349 37.9389Z" fill="white"/>
<path fill-rule="evenodd" clip-rule="evenodd" d="M15.5449 48.4074C13.7475 47.8673 12.2644 47.3595 11.2005 46.9404L11.0715 47.279C11.942 47.6175 13.0946 48.0205 14.4648 48.4557V48.4074H15.5449ZM21.4045 49.9549V50.3257C22.6942 50.6239 24.0483 50.906 25.4588 51.1639V50.8012C24.0483 50.5352 22.6942 50.2531 21.4045 49.9549ZM27.8446 51.2042L27.9896 51.5911C29.513 51.8248 31.0766 52.0263 32.6645 52.1714L32.5113 51.7926C30.9316 51.6395 29.3679 51.438 27.8446 51.2042ZM34.6553 51.9699V52.3326C36.0014 52.4213 37.3555 52.4696 38.7095 52.4696C40.8697 52.4696 42.8121 52.4455 44.5773 52.3971V52.0344C42.8121 52.0828 40.8697 52.1069 38.7095 52.1069C37.3635 52.1069 36.0094 52.0586 34.6553 51.9699ZM46.3425 51.9699C46.4634 52.0908 46.5923 52.2037 46.7293 52.3165C50.4853 52.1472 53.4192 51.841 56.1274 51.3654C56.2241 51.2365 56.3047 51.0994 56.3773 50.9544C53.5079 51.4702 50.4047 51.8007 46.3425 51.9699ZM58.0054 50.6239V50.9946C59.3514 50.7125 60.6733 50.3821 62.0596 50.0033V49.6325C60.6733 50.0033 59.3514 50.3418 58.0054 50.6239ZM65.1547 48.7298V49.1086C66.267 48.7781 67.4438 48.4154 68.7092 48.0205C68.8704 47.9721 69.0397 47.9157 69.2009 47.8673V47.4885C68.9994 47.553 68.7979 47.6094 68.5964 47.6739C67.3712 48.0527 66.2267 48.4074 65.1547 48.7298ZM72.3443 46.5052L72.4329 46.8518C72.9488 46.6825 73.4969 46.4971 74.0772 46.2956C74.6253 46.1102 75.2056 45.9168 75.8101 45.7072L75.7215 45.3526C75.1008 45.5621 74.5125 45.7556 73.9563 45.949C73.3921 46.1586 72.8521 46.3359 72.3443 46.5052ZM76.9627 44.9576L76.866 45.3687C78.4619 44.8529 80.2351 44.3048 82.2098 43.7809L82.1212 43.4343C80.2271 43.934 78.5103 44.4579 76.9627 44.9576ZM84.4264 42.862L84.3296 43.257C85.3533 43.0152 86.4172 42.7895 87.5376 42.5719L87.6423 42.185C86.522 42.3945 85.458 42.6283 84.4264 42.862ZM91.358 41.5724L91.2371 41.9512C92.8814 41.7175 94.6224 41.524 96.452 41.379L96.3392 41.0243C94.5982 41.1694 92.9378 41.3548 91.358 41.5724ZM99.3778 40.847V41.2097C100.611 41.1533 101.876 41.1291 103.19 41.1291C105.02 41.1291 106.866 41.2097 108.687 41.3548V40.9921C106.866 40.847 105.02 40.7745 103.19 40.7745C101.876 40.7664 100.611 40.7906 99.3778 40.847ZM109.493 41.0485V41.4112C112.943 41.7175 116.312 42.2333 119.415 42.8459V42.4751C116.312 41.8706 112.943 41.3548 109.493 41.0485ZM121.164 42.8459V43.2167C122.591 43.5229 123.953 43.8454 125.227 44.1758V43.805C123.945 43.4665 122.591 43.1522 121.164 42.8459ZM128.547 44.7078C128.499 44.8287 128.426 44.9254 128.338 45.0221C129.861 45.4654 131.183 45.8926 132.255 46.2714C132.303 46.1989 132.344 46.1264 132.384 46.0538C132.4 46.0216 132.416 45.9813 132.44 45.949C131.376 45.5702 130.063 45.1511 128.547 44.7078Z" fill="white"/>
<path fill-rule="evenodd" clip-rule="evenodd" d="M123.299 8.79673C123.42 8.94181 123.485 9.15942 123.517 9.45765H117.609C117.641 9.15136 117.705 8.94181 117.826 8.79673C118.004 8.5791 118.262 8.5388 118.584 8.5388H119.027C119.019 8.11967 119.156 7.74892 119.342 7.45069C119.527 7.15247 119.761 6.91872 119.93 6.78976V6.3787C119.1 6.12884 118.479 5.38731 118.407 4.49264H117.053C116.811 4.85535 116.102 5.57269 115.158 5.57269C113.99 5.57269 113.361 4.94401 113.361 3.95262C113.361 2.96123 114.264 2.50986 115.158 2.50986C115.876 2.50986 116.722 3.1063 117.053 3.41258H118.6C118.939 2.67106 119.696 2.15521 120.567 2.15521C121.639 2.15521 122.525 2.93705 122.695 3.95262H124.073C124.315 3.58992 125.024 2.87256 125.967 2.87256C127.136 2.87256 127.764 3.50125 127.764 4.49264C127.764 5.48403 126.862 5.93539 125.967 5.93539C125.25 5.93539 124.403 5.33895 124.073 5.03267H122.598C122.372 5.67748 121.848 6.1772 121.187 6.3787V6.78976C121.357 6.91872 121.59 7.15247 121.776 7.45069C121.961 7.74892 122.106 8.12773 122.09 8.5388H122.533C122.864 8.5388 123.122 8.5791 123.299 8.79673ZM116.222 12.2223H112.104C109.436 12.2223 108.533 13.5441 108.412 14.205V21.9427C107.961 21.9427 107.606 22.0717 107.606 22.5714C107.606 23.0711 107.969 23.2001 108.509 23.2001H113.546C113.998 23.2001 114.264 22.9986 114.264 22.5714C114.264 22.1362 113.99 21.9427 113.546 21.9427V17.9852H129.739V14.8257H116.231V12.2223H116.222ZM109.218 30.4783C109.218 29.1001 110.999 25.4892 111.185 25.1265C111.193 25.1103 111.209 25.1103 111.217 25.1265C111.394 25.4892 113.184 29.1001 113.184 30.4783C113.184 31.9292 112.297 33.1059 111.201 33.1059C110.105 33.1059 109.218 31.9292 109.218 30.4783ZM132.931 9.26421V9.45765H130.892C131.142 8.95792 131.504 8.44208 131.899 8.44208C132.262 8.44208 132.641 8.83703 132.931 9.26421ZM111.991 32.0662C112.128 32.1226 112.321 31.9856 112.418 31.7599C112.515 31.5342 112.483 31.3005 112.346 31.236C112.209 31.1796 112.015 31.3166 111.918 31.5423C111.822 31.768 111.854 32.0017 111.991 32.0662Z" fill="white"/>
<path fill-rule="evenodd" clip-rule="evenodd" d="M83.3856 24.0845C82.9503 23.9958 82.5312 23.8991 82.1282 23.8024V16.7176H80.4194V15.4602H82.1282V14.6461H83.3856V15.4602H92.0421C92.8239 15.6939 93.4849 15.9115 94.041 16.1292C94.4762 16.2984 94.8954 16.4999 95.2984 16.7256H92.1549L91.0588 18.7245C91.76 18.8374 92.3081 19.5547 92.3081 20.4171C92.3081 20.8766 92.1549 21.2876 91.9131 21.5939L92.2919 28.7835H94.3795L94.3473 29.0576L94.3553 29.0737L94.3714 29.0979C94.3795 29.114 94.3876 29.1301 94.3956 29.1462C94.4198 29.1865 94.444 29.2349 94.4682 29.2832C94.573 29.4847 94.6939 29.7427 94.7583 30.0086C94.8309 30.2666 94.8551 30.5487 94.7342 30.7663C94.6294 30.9678 94.4117 31.0887 94.0732 31.1209L93.9281 32.209H98.2483V19.2646C98.3692 19.4177 98.4902 19.5789 98.6111 19.7401C98.9576 20.2237 99.2559 20.7396 99.5057 21.2796V30.3069C98.7723 31.9431 97.6035 33.3697 95.9915 34.5948C93.0174 36.8517 89.1405 37.9801 84.3286 37.9801C83.5709 37.9801 82.8455 37.9559 82.1362 37.8995V34.3772H80.7741V32.2171H82.1282V29.1382C82.5231 29.2591 82.9423 29.3558 83.3856 29.4203V32.209H87.9234L88.6085 28.6223C88.6971 28.5417 88.7778 28.445 88.8422 28.3483L88.1007 32.201H90.7605L90.3092 28.7835H92.0904L91.7197 21.7712C91.4779 21.9889 91.1716 22.1178 90.8492 22.1178C90.5671 22.1178 90.3092 22.0211 90.0835 21.8599L89.1163 26.9136C89.0921 26.7765 89.0598 26.6395 89.0115 26.5106L89.9303 21.7229C89.616 21.4085 89.4064 20.933 89.4064 20.4091C89.4064 19.5386 89.9626 18.8132 90.6719 18.7084L89.7691 16.7176H83.3694V24.0845H83.3856ZM89.9787 16.7256L90.8653 18.6842L91.9373 16.7256H89.9787ZM94.0894 30.9356C94.3634 30.9033 94.5004 30.8066 94.5729 30.6776C94.6535 30.5245 94.6455 30.2988 94.581 30.057C94.5165 29.8152 94.4037 29.5653 94.2989 29.3638L94.0894 30.9356Z" fill="white"/>
<path d="M12.6345 57.2569H11.1272V58.7884H10.4744V55.1694H12.8521V55.6772H11.1272V56.7492H12.6345V57.2569Z" fill="white"/>
<path d="M14.746 57.394H14.0205V58.7884H13.3677V55.1694H14.6815C15.1167 55.1694 15.4472 55.2661 15.6809 55.4515C15.9147 55.6369 16.0356 55.9109 16.0356 56.2655C16.0356 56.5073 15.9711 56.7088 15.8502 56.8781C15.7293 57.0393 15.56 57.1683 15.3505 57.2569L16.1887 58.7642V58.7964H15.4956L14.746 57.394ZM14.0205 56.8862H14.6895C14.9072 56.8862 15.0764 56.8297 15.2054 56.725C15.3263 56.6202 15.3908 56.4671 15.3908 56.2817C15.3908 56.0882 15.3344 55.9351 15.2215 55.8303C15.1087 55.7255 14.9394 55.6691 14.7137 55.6691H14.0286V56.8862H14.0205Z" fill="white"/>
<path d="M18.8405 57.1763H17.301V58.2886H19.0985V58.7884H16.6562V55.1694H19.0823V55.6772H17.3091V56.6766H18.8486V57.1763H18.8405Z" fill="white"/>
<path d="M21.5817 57.8469C21.5817 57.6857 21.5253 57.5648 21.4044 57.4762C21.2915 57.3875 21.082 57.3069 20.7838 57.2182C20.4855 57.1296 20.2437 57.0329 20.0664 56.9281C19.7279 56.7185 19.5586 56.4525 19.5586 56.1221C19.5586 55.8319 19.6795 55.5901 19.9294 55.4047C20.1793 55.2193 20.4936 55.1226 20.8886 55.1226C21.1465 55.1226 21.3802 55.171 21.5817 55.2596C21.7832 55.3483 21.9444 55.4853 22.0653 55.6546C22.1782 55.8238 22.2426 56.0173 22.2426 56.2268H21.5978C21.5978 56.0415 21.5334 55.8883 21.4125 55.7836C21.2916 55.6788 21.1142 55.6223 20.8886 55.6223C20.679 55.6223 20.5097 55.6626 20.3969 55.7513C20.284 55.84 20.2196 55.9609 20.2196 56.1221C20.2196 56.251 20.284 56.3639 20.413 56.4525C20.542 56.5412 20.7515 56.6299 21.0417 56.7105C21.3319 56.7911 21.5656 56.8878 21.7429 56.9926C21.9202 57.0973 22.0492 57.2182 22.1298 57.3633C22.2104 57.5003 22.2507 57.6616 22.2507 57.8469C22.2507 58.1452 22.1298 58.387 21.888 58.5643C21.6462 58.7416 21.3238 58.8303 20.9208 58.8303C20.6468 58.8303 20.4049 58.7819 20.1712 58.6852C19.9455 58.5885 19.7682 58.4514 19.6392 58.2822C19.5103 58.1129 19.4539 57.9114 19.4539 57.6857H20.1067C20.1067 57.8872 20.1793 58.0484 20.3163 58.1613C20.4533 58.2741 20.6548 58.3305 20.9208 58.3305C21.1465 58.3305 21.3157 58.2902 21.4286 58.2016C21.5253 58.1129 21.5817 57.992 21.5817 57.8469Z" fill="white"/>
<path d="M25.7723 58.7884H25.1275V57.1844H23.459V58.7884H22.8062V55.1694H23.459V56.6766H25.1275V55.1694H25.7723V58.7884Z" fill="white"/>
<path d="M29.4801 57.8937L30.0524 55.1694H30.6972L29.8348 58.7884H29.2141L28.5048 56.1446L27.7794 58.7884H27.1588L26.2964 55.1694H26.9412L27.5215 57.8856L28.2389 55.1694H28.787L29.4801 57.8937Z" fill="white"/>
<path d="M33.1554 57.9458H31.7045L31.3983 58.7841H30.7212L32.1317 55.1651H32.712L34.1306 58.7841H33.4536L33.1554 57.9458ZM31.8818 57.4461H32.9619L32.4219 55.9469L31.8818 57.4461Z" fill="white"/>
<path d="M36.9524 55.6772H35.7837V58.7884H35.1389V55.6772H33.9863V55.1694H36.9524V55.6772Z" fill="white"/>
<path d="M39.6352 57.1763H38.0957V58.2886H39.8931V58.7884H37.4509V55.1694H39.877V55.6772H38.1038V56.6766H39.6433V57.1763H39.6352Z" fill="white"/>
<path d="M41.797 57.394H41.0716V58.7884H40.4187V55.1694H41.7325C42.1677 55.1694 42.4982 55.2661 42.732 55.4515C42.9657 55.6369 43.0866 55.9109 43.0866 56.2655C43.0866 56.5073 43.0221 56.7088 42.9012 56.8781C42.7803 57.0393 42.6111 57.1683 42.4015 57.2569L43.2397 58.7642V58.7964H42.5466L41.797 57.394ZM41.0716 56.8862H41.7406C41.9582 56.8862 42.1275 56.8297 42.2564 56.725C42.3773 56.6202 42.4418 56.4671 42.4418 56.2817C42.4418 56.0882 42.3854 55.9351 42.2725 55.8303C42.1597 55.7255 41.9904 55.6691 41.7647 55.6691H41.0796V56.8862H41.0716Z" fill="white"/>
<path d="M45.6988 58.7884H45.054V55.1694H45.6988V58.7884Z" fill="white"/>
<path d="M49.4619 58.7884H48.8091L47.1407 56.2252V58.7884H46.4878V55.1694H47.1407L48.8091 57.7486V55.1694H49.4539V58.7884H49.4619Z" fill="white"/>
<path d="M52.3867 57.2569H50.8794V58.7884H50.2266V55.1694H52.6043V55.6772H50.8794V56.7492H52.3867V57.2569Z" fill="white"/>
<path d="M56.11 57.0706C56.11 57.4253 56.0455 57.7396 55.9165 58.0056C55.7876 58.2716 55.6102 58.4811 55.3684 58.6181C55.1347 58.7632 54.8607 58.8358 54.5544 58.8358C54.2481 58.8358 53.9821 58.7632 53.7403 58.6181C53.5066 58.4731 53.3212 58.2716 53.1922 58.0056C53.0633 57.7396 52.9988 57.4333 52.9988 57.0867V56.8852C52.9988 56.5306 53.0633 56.2243 53.1922 55.9503C53.3212 55.6843 53.5066 55.4747 53.7403 55.3296C53.9741 55.1845 54.2481 55.112 54.5544 55.112C54.8607 55.112 55.1266 55.1845 55.3604 55.3216C55.5941 55.4586 55.7795 55.6681 55.9085 55.9341C56.0374 56.2001 56.1019 56.5064 56.1019 56.861V57.0706H56.11ZM55.4571 56.8852C55.4571 56.4822 55.3765 56.1759 55.2234 55.9664C55.0702 55.7568 54.8445 55.644 54.5544 55.644C54.2723 55.644 54.0546 55.7488 53.8934 55.9664C53.7322 56.1759 53.6516 56.4822 53.6516 56.8691V57.0787C53.6516 57.4736 53.7322 57.7799 53.8934 57.9975C54.0546 58.2151 54.2803 58.3199 54.5624 58.3199C54.8526 58.3199 55.0702 58.2151 55.2234 58.0056C55.3765 57.796 55.4571 57.4817 55.4571 57.0787V56.8852Z" fill="white"/>
<path d="M58.1266 57.394H57.4012V58.7884H56.7483V55.1694H58.0621C58.4973 55.1694 58.8278 55.2661 59.0615 55.4515C59.2953 55.6369 59.4162 55.9109 59.4162 56.2655C59.4162 56.5073 59.3517 56.7088 59.2308 56.8781C59.1099 57.0393 58.9406 57.1683 58.7311 57.2569L59.5693 58.7642V58.7964H58.8762L58.1266 57.394ZM57.4012 56.8862H58.0702C58.2878 56.8862 58.457 56.8297 58.586 56.725C58.7069 56.6202 58.7714 56.4671 58.7714 56.2817C58.7714 56.0882 58.715 55.9351 58.6021 55.8303C58.4893 55.7255 58.32 55.6691 58.0943 55.6691H57.4012V56.8862Z" fill="white"/>
<path d="M60.8834 55.1694L61.9635 57.942L63.0435 55.1694H63.8818V58.7884H63.237V57.5955L63.3014 55.9996L62.1972 58.7884H61.7297L60.6255 56.0076L60.69 57.5955V58.7884H60.0452V55.1694H60.8834Z" fill="white"/>
<path d="M66.7811 57.9458H65.3303L65.024 58.7841H64.3469L65.7574 55.1651H66.3378L67.7563 58.7841H67.0793L66.7811 57.9458ZM65.5156 57.4461H66.5957L66.0557 55.9469L65.5156 57.4461Z" fill="white"/>
<path d="M70.5865 55.6772H69.4178V58.7884H68.773V55.6772H67.6204V55.1694H70.5865V55.6772Z" fill="white"/>
<path d="M71.7639 58.7884H71.1191V55.1694H71.7639V58.7884Z" fill="white"/>
<path d="M75.5516 57.0706C75.5516 57.4253 75.4871 57.7396 75.3582 58.0056C75.2292 58.2716 75.0519 58.4811 74.8101 58.6181C74.5764 58.7632 74.3023 58.8358 73.996 58.8358C73.6897 58.8358 73.4238 58.7632 73.182 58.6181C72.9482 58.4731 72.7628 58.2716 72.6339 58.0056C72.5049 57.7396 72.4404 57.4333 72.4404 57.0867V56.8852C72.4404 56.5306 72.5049 56.2243 72.6339 55.9503C72.7628 55.6843 72.9482 55.4747 73.182 55.3296C73.4157 55.1845 73.6897 55.112 73.996 55.112C74.3023 55.112 74.5683 55.1845 74.802 55.3216C75.0358 55.4586 75.2212 55.6681 75.3501 55.9341C75.4791 56.2001 75.5436 56.5064 75.5436 56.861V57.0706H75.5516ZM74.8988 56.8852C74.8988 56.4822 74.8182 56.1759 74.665 55.9664C74.5119 55.7568 74.2862 55.644 73.996 55.644C73.7139 55.644 73.4963 55.7488 73.3351 55.9664C73.1739 56.1759 73.0933 56.4822 73.0933 56.8691V57.0787C73.0933 57.4736 73.1739 57.7799 73.3351 57.9975C73.4963 58.2151 73.722 58.3199 74.0041 58.3199C74.2943 58.3199 74.5119 58.2151 74.665 58.0056C74.8182 57.796 74.8988 57.4817 74.8988 57.0787V56.8852Z" fill="white"/>
<path d="M79.1641 58.7884H78.5113L76.8428 56.2252V58.7884H76.1899V55.1694H76.8428L78.5113 57.7486V55.1694H79.1561V58.7884H79.1641Z" fill="white"/>
<path d="M83.1921 57.8469C83.1921 57.6857 83.1357 57.5648 83.0148 57.4762C82.9019 57.3875 82.6924 57.3069 82.3941 57.2182C82.0959 57.1296 81.8541 57.0329 81.6768 56.9281C81.3383 56.7185 81.169 56.4525 81.169 56.1221C81.169 55.8319 81.2899 55.5901 81.5398 55.4047C81.7896 55.2193 82.104 55.1226 82.4989 55.1226C82.7568 55.1226 82.9906 55.171 83.1921 55.2596C83.3936 55.3483 83.5548 55.4853 83.6757 55.6546C83.7885 55.8238 83.853 56.0173 83.853 56.2268H83.1921C83.1921 56.0415 83.1276 55.8883 83.0067 55.7836C82.8858 55.6788 82.7085 55.6223 82.4828 55.6223C82.2732 55.6223 82.104 55.6626 81.9911 55.7513C81.8783 55.84 81.8138 55.9609 81.8138 56.1221C81.8138 56.251 81.8783 56.3639 82.0072 56.4525C82.1362 56.5412 82.3458 56.6299 82.6359 56.7105C82.9261 56.7911 83.1598 56.8878 83.3372 56.9926C83.5145 57.0973 83.6434 57.2182 83.7241 57.3633C83.8047 57.5003 83.8449 57.6616 83.8449 57.8469C83.8449 58.1452 83.7241 58.387 83.4823 58.5643C83.2405 58.7416 82.918 58.8303 82.515 58.8303C82.241 58.8303 81.9992 58.7819 81.7655 58.6852C81.5398 58.5885 81.3624 58.4514 81.2335 58.2822C81.1045 58.1129 81.0481 57.9114 81.0481 57.6857H81.701C81.701 57.8872 81.7735 58.0484 81.9105 58.1613C82.0476 58.2741 82.2491 58.3305 82.515 58.3305C82.7407 58.3305 82.91 58.2902 83.0228 58.2016C83.1357 58.1129 83.1921 57.992 83.1921 57.8469Z" fill="white"/>
<path d="M85.6359 56.8862L86.4984 55.1694H87.2157L85.9664 57.4504V58.7803H85.3135V57.4504L84.0562 55.1694H84.7816L85.6359 56.8862Z" fill="white"/>
<path d="M89.5275 57.8469C89.5275 57.6857 89.4711 57.5648 89.3502 57.4762C89.2374 57.3875 89.0278 57.3069 88.7296 57.2182C88.4313 57.1296 88.1896 57.0329 88.0122 56.9281C87.6737 56.7185 87.5044 56.4525 87.5044 56.1221C87.5044 55.8319 87.6253 55.5901 87.8752 55.4047C88.1251 55.2193 88.4394 55.1226 88.8344 55.1226C89.0923 55.1226 89.326 55.171 89.5275 55.2596C89.729 55.3483 89.8902 55.4853 90.0111 55.6546C90.124 55.8238 90.1884 56.0173 90.1884 56.2268H89.5436C89.5436 56.0415 89.4792 55.8883 89.3583 55.7836C89.2374 55.6788 89.06 55.6223 88.8344 55.6223C88.6248 55.6223 88.4555 55.6626 88.3427 55.7513C88.2299 55.84 88.1654 55.9609 88.1654 56.1221C88.1654 56.251 88.2298 56.3639 88.3588 56.4525C88.4878 56.5412 88.6973 56.6299 88.9875 56.7105C89.2777 56.7911 89.5114 56.8878 89.6887 56.9926C89.866 57.0973 89.995 57.2182 90.0756 57.3633C90.1562 57.5003 90.1965 57.6616 90.1965 57.8469C90.1965 58.1452 90.0756 58.387 89.8338 58.5643C89.592 58.7416 89.2696 58.8303 88.8666 58.8303C88.5926 58.8303 88.3508 58.7819 88.117 58.6852C87.8913 58.5885 87.714 58.4514 87.585 58.2822C87.4561 58.1129 87.3997 57.9114 87.3997 57.6857H88.0525C88.0525 57.8872 88.1251 58.0484 88.2621 58.1613C88.3991 58.2741 88.6006 58.3305 88.8666 58.3305C89.0923 58.3305 89.2615 58.2902 89.3744 58.2016C89.4711 58.1129 89.5275 57.992 89.5275 57.8469Z" fill="white"/>
<path d="M93.4546 55.6772H92.2859V58.7884H91.6411V55.6772H90.4885V55.1694H93.4546V55.6772Z" fill="white"/>
<path d="M96.1291 57.1763H94.5896V58.2886H96.387V58.7884H93.9448V55.1694H96.3709V55.6772H94.5977V56.6766H96.1372V57.1763H96.1291Z" fill="white"/>
<path d="M97.7655 55.1694L98.8456 57.942L99.9256 55.1694H100.764V58.7884H100.119V57.5955L100.184 55.9996L99.0793 58.7884H98.6118L97.5076 56.0076L97.572 57.5955V58.7884H96.9272V55.1694H97.7655Z" fill="white"/>
<path d="M104.989 57.2569H103.481V58.7884H102.829V55.1694H105.206V55.6772H103.481V56.7492H104.989V57.2569Z" fill="white"/>
<path d="M108.712 57.0706C108.712 57.4253 108.648 57.7396 108.519 58.0056C108.39 58.2716 108.212 58.4811 107.97 58.6181C107.737 58.7632 107.463 58.8358 107.156 58.8358C106.85 58.8358 106.584 58.7632 106.342 58.6181C106.109 58.4731 105.923 58.2716 105.794 58.0056C105.665 57.7396 105.601 57.4333 105.601 57.0867V56.8852C105.601 56.5306 105.665 56.2243 105.794 55.9503C105.923 55.6843 106.109 55.4747 106.342 55.3296C106.576 55.1845 106.85 55.112 107.156 55.112C107.463 55.112 107.729 55.1845 107.962 55.3216C108.196 55.4586 108.382 55.6681 108.511 55.9341C108.639 56.2001 108.704 56.5064 108.704 56.861V57.0706H108.712ZM108.059 56.8852C108.059 56.4822 107.979 56.1759 107.825 55.9664C107.672 55.7568 107.447 55.644 107.156 55.644C106.874 55.644 106.657 55.7488 106.495 55.9664C106.334 56.1759 106.254 56.4822 106.254 56.8691V57.0787C106.254 57.4736 106.334 57.7799 106.495 57.9975C106.657 58.2151 106.882 58.3199 107.164 58.3199C107.455 58.3199 107.672 58.2151 107.825 58.0056C107.979 57.796 108.059 57.4817 108.059 57.0787V56.8852Z" fill="white"/>
<path d="M110.735 57.394H110.01V58.7884H109.357V55.1694H110.67C111.106 55.1694 111.436 55.2661 111.67 55.4515C111.904 55.6369 112.025 55.9109 112.025 56.2655C112.025 56.5073 111.96 56.7088 111.839 56.8781C111.718 57.0393 111.549 57.1683 111.339 57.2569L112.178 58.7642V58.7964H111.485L110.735 57.394ZM110.01 56.8862H110.679C110.896 56.8862 111.065 56.8297 111.194 56.725C111.315 56.6202 111.38 56.4671 111.38 56.2817C111.38 56.0882 111.323 55.9351 111.21 55.8303C111.098 55.7255 110.928 55.6691 110.703 55.6691H110.018V56.8862H110.01Z" fill="white"/>
<path d="M116.133 57.1763H114.594V58.2886H116.391V58.7884H113.949V55.1694H116.375V55.6772H114.602V56.6766H116.142V57.1763H116.133Z" fill="white"/>
<path d="M119.657 55.1694V57.5874C119.657 57.9743 119.528 58.2725 119.278 58.4982C119.028 58.7239 118.69 58.8367 118.263 58.8367C117.835 58.8367 117.497 58.7239 117.247 58.5062C116.997 58.2806 116.868 57.9743 116.868 57.5874V55.1774H117.513V57.5955C117.513 57.8373 117.577 58.0226 117.706 58.1516C117.835 58.2806 118.021 58.345 118.263 58.345C118.762 58.345 119.012 58.0871 119.012 57.5793V55.1774L119.657 55.1694Z" fill="white"/>
<path d="M121.728 57.394H121.003V58.7884H120.35V55.1694H121.664C122.099 55.1694 122.429 55.2661 122.663 55.4515C122.897 55.6369 123.018 55.9109 123.018 56.2655C123.018 56.5073 122.953 56.7088 122.832 56.8781C122.711 57.0393 122.542 57.1683 122.333 57.2569L123.171 58.7642V58.7964H122.478L121.728 57.394ZM121.003 56.8862H121.672C121.889 56.8862 122.059 56.8297 122.188 56.725C122.308 56.6202 122.373 56.4671 122.373 56.2817C122.373 56.0882 122.317 55.9351 122.204 55.8303C122.091 55.7255 121.922 55.6691 121.696 55.6691H121.011V56.8862H121.003Z" fill="white"/>
<path d="M126.622 57.0706C126.622 57.4253 126.557 57.7396 126.428 58.0056C126.3 58.2716 126.122 58.4811 125.88 58.6181C125.647 58.7632 125.373 58.8358 125.066 58.8358C124.76 58.8358 124.494 58.7632 124.252 58.6181C124.019 58.4731 123.833 58.2716 123.704 58.0056C123.575 57.7396 123.511 57.4333 123.511 57.0867V56.8852C123.511 56.5306 123.575 56.2243 123.704 55.9503C123.833 55.6843 124.019 55.4747 124.252 55.3296C124.486 55.1845 124.76 55.112 125.066 55.112C125.373 55.112 125.639 55.1845 125.872 55.3216C126.106 55.4586 126.291 55.6681 126.42 55.9341C126.549 56.2001 126.614 56.5064 126.614 56.861V57.0706H126.622ZM125.969 56.8852C125.969 56.4822 125.888 56.1759 125.735 55.9664C125.582 55.7568 125.356 55.644 125.066 55.644C124.784 55.644 124.567 55.7488 124.405 55.9664C124.244 56.1759 124.164 56.4822 124.164 56.8691V57.0787C124.164 57.4736 124.244 57.7799 124.405 57.9975C124.567 58.2151 124.792 58.3199 125.074 58.3199C125.365 58.3199 125.582 58.2151 125.735 58.0056C125.888 57.796 125.969 57.4817 125.969 57.0787V56.8852Z" fill="white"/>
<path d="M127.919 57.4423V58.7884H127.267V55.1694H128.693C129.112 55.1694 129.443 55.2742 129.685 55.4837C129.934 55.6933 130.055 55.9754 130.055 56.322C130.055 56.6766 129.934 56.9507 129.693 57.1522C129.451 57.3456 129.12 57.4504 128.685 57.4504H127.919V57.4423ZM127.919 56.9426H128.701C128.935 56.9426 129.112 56.8942 129.233 56.7894C129.354 56.6847 129.419 56.5315 129.419 56.33C129.419 56.1366 129.354 55.9754 129.233 55.8625C129.112 55.7416 128.943 55.6852 128.725 55.6852H127.928V56.9426H127.919Z" fill="white"/>
<path d="M132.82 57.1763H131.281V58.2886H133.078V58.7884H130.636V55.1694H133.062V55.6772H131.289V56.6766H132.828V57.1763H132.82Z" fill="white"/>
</svg>
