<svg width="12" height="13" viewBox="0 0 12 13" fill="none" xmlns="http://www.w3.org/2000/svg">
<path d="M11.3333 4.15229L7.33328 0.864787C6.96659 0.557315 6.4919 0.387329 5.99994 0.387329C5.50799 0.387329 5.03329 0.557315 4.66661 0.864787L0.666608 4.15229C0.454853 4.32983 0.285875 4.54763 0.170922 4.79119C0.0559703 5.03474 -0.00231711 5.29846 -5.88742e-05 5.56479V11.0273C-5.88742e-05 11.5246 0.210655 12.0015 0.585728 12.3531C0.9608 12.7047 1.46951 12.9023 1.99994 12.9023H9.99994C10.5304 12.9023 11.0391 12.7047 11.4142 12.3531C11.7892 12.0015 11.9999 11.5246 11.9999 11.0273V5.55854C12.0013 5.29326 11.9425 5.03075 11.8276 4.78834C11.7127 4.54593 11.5442 4.32913 11.3333 4.15229ZM7.33328 11.6523H4.66661V8.52729C4.66661 8.36153 4.73685 8.20256 4.86187 8.08535C4.9869 7.96813 5.15646 7.90229 5.33327 7.90229H6.66661C6.84342 7.90229 7.01299 7.96813 7.13801 8.08535C7.26304 8.20256 7.33328 8.36153 7.33328 8.52729V11.6523ZM10.6666 11.0273C10.6666 11.193 10.5964 11.352 10.4713 11.4692C10.3463 11.5864 10.1768 11.6523 9.99994 11.6523H8.66661V8.52729C8.66661 8.03001 8.4559 7.55309 8.08082 7.20146C7.70575 6.84983 7.19704 6.65229 6.66661 6.65229H5.33327C4.80284 6.65229 4.29413 6.84983 3.91906 7.20146C3.54399 7.55309 3.33327 8.03001 3.33327 8.52729V11.6523H1.99994C1.82313 11.6523 1.65356 11.5864 1.52854 11.4692C1.40351 11.352 1.33327 11.193 1.33327 11.0273V5.55854C1.33339 5.4698 1.35367 5.3821 1.39275 5.30127C1.43184 5.22045 1.48883 5.14836 1.55994 5.08979L5.55994 1.80854C5.6816 1.70834 5.838 1.65308 5.99994 1.65308C6.16188 1.65308 6.31828 1.70834 6.43994 1.80854L10.4399 5.08979C10.5111 5.14836 10.568 5.22045 10.6071 5.30127C10.6462 5.3821 10.6665 5.4698 10.6666 5.55854V11.0273Z" fill="#3D5265"/>
</svg>
